<?xml version="1.0"?>
<svg xmlns="http://www.w3.org/2000/svg" xmlns:xlink="http://www.w3.org/1999/xlink" version="1.1" id="Capa_1" x="0px" y="0px" viewBox="0 0 399.872 399.872" style="enable-background:new 0 0 399.872 399.872;" xml:space="preserve" width="512px" height="512px"><g><g>
	<g>
		<path d="M298.48,1.024c-0.512,0-0.512-0.512-0.512-0.512c-0.512,0-0.512-0.512-1.024-0.512c-0.512,0-0.512,0-1.024,0    c-0.512,0-0.512,0-1.024,0c-0.512,0-1.024,0-1.024,0h-0.512c-0.512,0-0.512,0.512-1.024,0.512c0,0-0.512,0-0.512,0.512    c-1.536,1.536-33.28,34.304-56.32,99.84c-20.992,60.416-38.4,160.256-0.512,295.424c0.512,1.536,1.536,2.56,3.072,3.072    c0.512,0.512,1.536,0.512,2.048,0.512c1.024,0,1.536,0,2.048-0.512l54.272-26.624l52.736,26.624    c0.512,0.512,1.536,0.512,2.56,0.512c0.512,0,1.536,0,2.048-0.512c1.536-0.512,2.56-1.536,3.072-3.072    C432.624,139.776,300.016,2.56,298.48,1.024z M291.312,364.544l-48.128,23.552c-57.856-211.968,22.528-337.408,48.128-370.688    V364.544z M348.144,388.096l-46.592-23.552V20.48C330.224,57.856,406.512,183.296,348.144,388.096z" data-original="#000000" class="active-path" data-old_color="#000000" fill="#FFFFFF"/>
	</g>
</g><g>
	<g>
		<path d="M105.456,1.024l-0.512-0.512c-0.512,0-0.512-0.512-1.024-0.512s-0.512,0-1.024,0c-0.512,0-0.512,0-1.024,0    c-0.512,0-1.024,0-1.024,0h-0.512c-0.512,0-0.512,0.512-1.024,0.512c0,0-0.512,0-0.512,0.512    c-1.536,1.536-33.28,34.304-56.32,99.84C21.488,161.28,4.08,261.12,41.968,396.288c0.512,1.536,1.536,2.56,3.072,3.072    c0.512,0.512,1.536,0.512,2.048,0.512c1.024,0,1.536,0,2.048-0.512l54.272-26.624l52.736,26.624    c0.512,0.512,1.536,0.512,2.56,0.512c0.512,0,1.536,0,2.048-0.512c1.536-0.512,2.56-1.536,3.072-3.072    c11.264-38.912,18.432-74.752,21.504-108.032c0-0.512,0-1.024,0-1.536C201.712,100.864,106.48,2.56,105.456,1.024z     M98.288,364.544L50.16,388.096c-9.728-34.816-15.36-67.584-17.92-97.792l66.048-24.064V364.544z M98.288,255.488l-67.072,24.064    C20.464,132.608,77.296,44.032,98.288,17.408V255.488z M155.12,388.096l-46.592-23.552v-97.792h0l65.536,24.064    C170.992,321.024,164.848,353.28,155.12,388.096z M175.088,280.064l-66.56-24.576V20.48    C131.568,50.688,186.352,138.752,175.088,280.064z" data-original="#000000" class="active-path" data-old_color="#000000" fill="#FFFFFF"/>
	</g>
</g></g> </svg>
