<svg width="20" height="21" viewBox="0 0 20 21" fill="none" xmlns="http://www.w3.org/2000/svg"><path d="M17.3437 1.94933C16.8476 1.4923 14.8398 0.0352702 10.3632 0.0157389C10.3632 0.0157389 5.08586 -0.300667 2.51554 2.05871C1.08585 3.4884 0.581949 5.58605 0.527261 8.18371C0.472574 10.7814 0.406167 15.6486 5.09757 16.9689H5.10148L5.09757 18.9845C5.09757 18.9845 5.06632 19.8009 5.60539 19.965C6.25382 20.1681 6.63664 19.547 7.25773 18.879C7.59757 18.5118 8.06632 17.9728 8.42179 17.5626C11.6327 17.8321 14.0976 17.215 14.3788 17.1251C15.0273 16.9142 18.6952 16.4454 19.289 11.5782C19.9062 6.5548 18.9921 3.38293 17.3437 1.94933ZM17.8866 11.2111C17.3827 15.2736 14.4101 15.5314 13.8632 15.7071C13.6288 15.7814 11.4609 16.3204 8.7382 16.1446C8.7382 16.1446 6.70695 18.5939 6.07414 19.2306C5.86711 19.4376 5.64054 19.4181 5.64445 19.0079C5.64445 18.7384 5.66007 15.6603 5.66007 15.6603C5.65617 15.6603 5.65617 15.6603 5.66007 15.6603C1.68351 14.5587 1.91789 10.4142 1.96086 8.24621C2.00382 6.07824 2.41398 4.3009 3.62492 3.10558C5.8007 1.13293 10.2812 1.4259 10.2812 1.4259C14.0663 1.44152 15.8788 2.58214 16.3007 2.96496C17.6952 4.16027 18.4062 7.01964 17.8866 11.2111ZM12.457 8.0548C12.4726 8.39074 11.9687 8.41418 11.953 8.07824C11.9101 7.21886 11.5077 6.8009 10.6796 6.75402C10.3437 6.73449 10.3749 6.23058 10.707 6.25011C11.7968 6.30871 12.4023 6.93371 12.457 8.0548ZM13.2499 8.49621C13.289 6.83996 12.2538 5.54308 10.289 5.39855C9.95695 5.37511 9.99211 4.87121 10.3241 4.89465C12.5898 5.05871 13.7968 6.6173 13.7538 8.50793C13.7499 8.84386 13.2421 8.82824 13.2499 8.49621ZM15.0859 9.01964C15.0898 9.35558 14.582 9.35949 14.582 9.02355C14.5585 5.83996 12.4374 4.10558 9.8632 4.08605C9.53117 4.08214 9.53117 3.58214 9.8632 3.58214C12.7421 3.60168 15.0585 5.58996 15.0859 9.01964ZM14.6445 12.8517V12.8595C14.2226 13.6017 13.4335 14.422 12.621 14.1603L12.6132 14.1486C11.789 13.9181 9.84757 12.9181 8.62101 11.9415C7.9882 11.4415 7.41007 10.8517 6.96476 10.2853C6.56242 9.78136 6.15617 9.18371 5.76164 8.46496C4.92961 6.96105 4.74601 6.28918 4.74601 6.28918C4.48429 5.47668 5.3007 4.68761 6.04679 4.26574H6.05461C6.41398 4.07824 6.75773 4.14074 6.9882 4.41808C6.9882 4.41808 7.47257 4.99621 7.67961 5.28136C7.87492 5.54699 8.13664 5.97277 8.27336 6.21105C8.51164 6.63683 8.3632 7.07043 8.12882 7.25011L7.66007 7.62511C7.42179 7.81652 7.45304 8.17199 7.45304 8.17199C7.45304 8.17199 8.14836 10.8009 10.746 11.465C10.746 11.465 11.1015 11.4962 11.2929 11.2579L11.6679 10.7892C11.8476 10.5548 12.2812 10.4064 12.7069 10.6446C13.2812 10.9689 14.0116 11.4728 14.496 11.9298C14.7695 12.1525 14.832 12.4923 14.6445 12.8517Z" fill="#234D60"/></svg>
