<svg width="20" height="21" viewBox="0 0 20 21" fill="none" xmlns="http://www.w3.org/2000/svg"><path d="M10 0.322266C4.47581 0.322266 0 4.7931 0 10.3112C0 15.8292 4.47581 20.3 10 20.3C15.5242 20.3 20 15.8292 20 10.3112C20 4.7931 15.5242 0.322266 10 0.322266ZM14.9113 7.16546L13.2702 14.8907C13.1492 15.4385 12.8226 15.5714 12.3669 15.3137L9.86693 13.473L8.66129 14.633C8.52823 14.7659 8.41532 14.8787 8.15726 14.8787L8.33468 12.3371L12.9677 8.15629C13.1694 7.97907 12.9234 7.87838 12.6573 8.0556L6.93145 11.6564L4.46371 10.8871C3.92742 10.718 3.91532 10.3514 4.57661 10.0937L14.2177 6.38004C14.6653 6.21893 15.0565 6.48879 14.9113 7.16546Z" fill="#234D60"/></svg>
