<svg width="20" height="21" viewBox="0 0 20 21" fill="none" xmlns="http://www.w3.org/2000/svg"><path d="M17.0045 3.33294C15.1339 1.45877 12.6429 0.427979 9.99554 0.427979C4.53125 0.427979 0.0848214 4.87243 0.0848214 10.3343C0.0848214 12.079 0.540179 13.7836 1.40625 15.2874L0 20.4191L5.25446 19.0402C6.70089 19.8301 8.33036 20.2451 9.99107 20.2451H9.99554C15.4554 20.2451 20 15.8006 20 10.3387C20 7.6926 18.875 5.2071 17.0045 3.33294ZM9.99554 18.5762C8.51339 18.5762 7.0625 18.179 5.79911 17.4293L5.5 17.2508L2.38393 18.0674L3.21429 15.0286L3.01786 14.7163C2.19196 13.4043 1.75893 11.8916 1.75893 10.3343C1.75893 5.79612 5.45536 2.10134 10 2.10134C12.2009 2.10134 14.2679 2.9581 15.8214 4.51544C17.375 6.07279 18.3304 8.13883 18.3259 10.3387C18.3259 14.8814 14.5357 18.5762 9.99554 18.5762ZM14.5134 12.4093C14.2679 12.2843 13.0491 11.6864 12.8214 11.606C12.5938 11.5213 12.4286 11.4811 12.2634 11.731C12.0982 11.9809 11.625 12.5342 11.4777 12.7038C11.3348 12.8689 11.1875 12.8912 10.942 12.7662C9.48661 12.0389 8.53125 11.4677 7.57143 9.82112C7.31696 9.38381 7.82589 9.41505 8.29911 8.46904C8.37946 8.30394 8.33929 8.16114 8.27679 8.0362C8.21429 7.91125 7.71875 6.69305 7.51339 6.19773C7.3125 5.7158 7.10714 5.78274 6.95536 5.77381C6.8125 5.76489 6.64732 5.76489 6.48214 5.76489C6.31696 5.76489 6.04911 5.82736 5.82143 6.07279C5.59375 6.32268 4.95536 6.92062 4.95536 8.13883C4.95536 9.35704 5.84375 10.5351 5.96429 10.7002C6.08929 10.8653 7.70982 13.3642 10.1964 14.4396C11.7679 15.1179 12.3839 15.1759 13.1696 15.0599C13.6473 14.9885 14.6339 14.4619 14.8393 13.8818C15.0446 13.3017 15.0446 12.8064 14.9821 12.7038C14.9241 12.5922 14.7589 12.5297 14.5134 12.4093Z" fill="#234D60"/></svg>
