<svg width="20" height="20" viewBox="0 0 20 20" fill="none" xmlns="http://www.w3.org/2000/svg">
<path d="M10 20C15.514 20 20 15.514 20 10C20 4.48597 15.514 0 10 0C4.48597 0 0 4.48597 0 10C0 15.514 4.48597 20 10 20ZM10 0.89172C15.0224 0.89172 19.1083 4.97761 19.1083 10C19.1083 15.0224 15.0224 19.1083 10 19.1083C4.97761 19.1083 0.89172 15.0224 0.89172 10C0.89172 4.97761 4.97761 0.89172 10 0.89172Z" fill="#FF1C00"/>
<path d="M7.53511 9.10132C8.55496 9.10132 9.3815 8.27454 9.3815 7.25493C9.38174 6.23508 8.55496 5.40829 7.53511 5.40829C6.51525 5.40829 5.68872 6.23508 5.68872 7.25468C5.68972 8.27404 6.51575 9.10008 7.53511 9.10132ZM7.53511 6.30001C8.06233 6.30001 8.48978 6.72746 8.48978 7.25468C8.49002 7.78215 8.06258 8.2096 7.53511 8.2096C7.00789 8.2096 6.58044 7.78215 6.58044 7.25468C6.58094 6.72771 7.00814 6.30076 7.53511 6.30001Z" fill="#FF1C00"/>
<path d="M10.5066 12.8573C10.5066 13.8771 11.3334 14.7037 12.353 14.7037C13.3728 14.7037 14.1996 13.8771 14.1996 12.8573C14.1996 11.8374 13.3728 11.0107 12.353 11.0107C11.3336 11.0119 10.5078 11.8379 10.5066 12.8573ZM13.3079 12.8573C13.3079 13.3845 12.8804 13.812 12.353 13.812C11.8258 13.812 11.3983 13.3845 11.3983 12.8573C11.3983 12.3301 11.8258 11.9026 12.353 11.9024C12.8802 11.9031 13.3071 12.3301 13.3079 12.8573Z" fill="#FF1C00"/>
<path d="M6.60503 15.2055C6.81129 15.3401 7.08771 15.2819 7.22207 15.0756L13.5248 5.41153C13.6121 5.27792 13.6216 5.10798 13.5497 4.96567C13.4775 4.82335 13.335 4.7303 13.1757 4.72184C13.0165 4.71338 12.8647 4.79051 12.7779 4.92437L6.47515 14.5885C6.34055 14.795 6.39877 15.0712 6.60503 15.2055Z" fill="#FF1C00"/>
</svg>
