<svg width="20" height="20" viewBox="0 0 20 20" fill="none" xmlns="http://www.w3.org/2000/svg">
<path d="M19.4752 15.4289L15.4271 12.7293C14.9134 12.3895 14.2248 12.5013 13.845 12.9863L12.6658 14.5024C12.5143 14.7022 12.2388 14.7602 12.0196 14.6384L11.7953 14.5147C11.0517 14.1094 10.1266 13.6049 8.2625 11.7401C6.39845 9.87543 5.89286 8.94955 5.48757 8.20735L5.36458 7.98305C5.24112 7.76386 5.29799 7.48723 5.49788 7.33447L7.01296 6.15567C7.49774 5.77584 7.60971 5.08743 7.27027 4.57356L4.57067 0.525485C4.2228 0.00220363 3.52485 -0.154882 2.9863 0.168859L1.29354 1.1857C0.761671 1.49839 0.371456 2.0048 0.204723 2.59881C-0.404835 4.81981 0.0537291 8.65291 5.70023 14.3001C10.1919 18.7914 13.5357 19.9992 15.8341 19.9992C16.363 20.0015 16.8899 19.9327 17.4005 19.7946C17.9946 19.6281 18.5011 19.2378 18.8136 18.7058L19.8315 17.0141C20.1557 16.4754 19.9987 15.777 19.4752 15.4289ZM19.2572 16.6721L18.2417 18.3648C18.0173 18.7488 17.653 19.0312 17.2252 19.1527C15.1748 19.7156 11.5927 19.2494 6.1718 13.8285C0.75093 8.40764 0.284711 4.82582 0.847634 2.77515C0.969335 2.34678 1.25203 1.98203 1.6365 1.75729L3.32926 0.741781C3.56293 0.601177 3.86586 0.669331 4.01681 0.896407L5.48327 3.09807L6.7141 4.94413C6.8615 5.16702 6.81307 5.46577 6.60279 5.6307L5.08735 6.80951C4.62617 7.16216 4.49447 7.80023 4.77842 8.30664L4.89875 8.52527C5.3247 9.30649 5.85427 10.2783 7.78765 12.2114C9.72104 14.1444 10.6926 14.674 11.4734 15.1L11.6924 15.2206C12.1988 15.5045 12.8369 15.3729 13.1895 14.9117L14.3683 13.3962C14.5333 13.1861 14.8319 13.1377 15.0549 13.2849L19.1026 15.9845C19.3298 16.1354 19.398 16.4384 19.2572 16.6721Z" fill="#FF1C00"/>
</svg>
