<svg width="30" height="32" viewBox="0 0 30 32" fill="none" xmlns="http://www.w3.org/2000/svg">
<path d="M28.6706 0C15.1144 0 3.96439 10.425 2.78314 23.675C5.03314 20.5 7.79564 17.4438 11.2394 13.9312C11.4956 13.6687 11.9206 13.6625 12.1831 13.925C12.4456 14.1813 12.4519 14.6062 12.1894 14.8687C11.6706 15.3937 11.1456 15.9438 10.6144 16.5C10.3144 16.8188 10.0144 17.1313 9.72688 17.4375C9.67064 17.4937 9.62064 17.55 9.56438 17.6125C5.31439 22.1687 2.27064 26.1313 0.0581444 31.0625C-0.0918555 31.4 0.0581444 31.7938 0.395644 31.9438C0.483144 31.9813 0.576894 32 0.670644 32C0.926894 32 1.17064 31.8563 1.27689 31.6063C2.06439 29.8563 2.97689 28.225 4.00189 26.6437C13.3144 26.4062 21.7894 21.225 26.2331 12.9812C26.3456 12.775 26.3394 12.525 26.2206 12.325C26.1019 12.125 25.8831 12 25.6456 12H23.1769L27.6019 9.46875C27.7394 9.3875 27.8519 9.2625 27.9019 9.10625C28.8519 6.34375 29.3331 3.50625 29.3331 0.6625C29.3331 0.3 29.0394 0 28.6706 0Z" fill="white"/>
</svg>
