<svg width="39" height="21" viewBox="0 0 39 21" fill="none" xmlns="http://www.w3.org/2000/svg">
<path d="M32.4449 13.7597C32.1413 12.3253 31.6936 10.4886 31.094 8.6292C30.3426 6.29165 29.5002 4.40947 28.5971 3.03578C27.2689 1.02458 25.7358 0 24.0434 0C21.9791 0 21.1822 0.857607 20.5447 1.73798C20.4384 1.88218 20.3397 2.01879 20.2335 2.13263L20.2183 2.14781C20.0362 2.34514 19.7629 2.45898 19.4594 2.45898C19.1558 2.45898 18.8826 2.34514 18.7004 2.14781L18.6928 2.13263C18.5866 2.01879 18.4879 1.88218 18.3817 1.73039C17.7517 0.857607 16.9548 0 14.8905 0C13.1981 0 11.665 1.02458 10.3368 3.03578C9.4337 4.40947 8.59127 6.29165 7.83991 8.6292C7.24794 10.4734 6.80016 12.3025 6.49658 13.7369L32.4449 13.7597Z" fill="white"/>
<path d="M34.585 20.9998L4.27275 20.977C2.2995 20.977 0.62223 19.6944 0.0530212 17.9261C-0.159483 17.2658 0.333831 16.5903 1.03206 16.5903L37.8333 16.6207C38.5315 16.6207 39.0248 17.2962 38.8123 17.9564C38.2355 19.7248 36.5583 20.9998 34.585 20.9998Z" fill="white"/>
</svg>
