<svg width="38" height="24" viewBox="0 0 38 24" fill="none" xmlns="http://www.w3.org/2000/svg">
<path d="M0.263899 6.0062C-1.45389 10.405 5.44181 17.2087 15.6627 21.2025C25.8835 25.1964 35.5645 24.8712 37.2823 20.4725C38.3498 17.7363 36.086 14.0675 31.7608 10.724C31.7302 12.1166 31.4541 13.4786 30.9449 14.7915C30.724 15.3498 30.2271 16.1105 29.086 16.5645C28.4173 16.8283 27.5891 16.9633 26.6197 16.9633C24.1167 16.9633 20.5216 16.0614 17.0001 14.5583C15.313 13.8344 13.7486 13.0185 12.4786 12.1841C11.0124 11.2271 9.95101 10.27 9.31298 9.33749C8.36819 7.95099 8.49703 6.82215 8.7731 6.12277C9.28844 4.80988 10.0185 3.61356 10.9326 2.57675C5.48476 2.1105 1.33138 3.27 0.263899 6.0062ZM33.5461 18.5154C34.0185 18.1718 34.7547 18.3743 35.1964 18.9694C35.6381 19.5645 35.6075 20.3314 35.1351 20.6749C34.6627 21.0185 33.9265 20.816 33.4848 20.2209C33.0492 19.6258 33.0737 18.859 33.5461 18.5154ZM15.2639 18.1657C15.497 17.5645 16.3068 17.3129 17.0614 17.6074C17.8222 17.9019 18.2455 18.632 18.0062 19.2393C17.7731 19.8406 16.9633 20.0921 16.2087 19.7976C15.4541 19.5031 15.0308 18.7731 15.2639 18.1657ZM3.14733 8.36816C2.41727 8.50927 1.74243 8.15957 1.62586 7.58289C1.51543 7.0062 2.01237 6.42951 2.74243 6.28841C3.47249 6.14731 4.14733 6.497 4.2639 7.07369C4.37433 7.64424 3.8774 8.22706 3.14733 8.36816Z" fill="white"/>
<path d="M26.6198 15.5337C28.1474 15.5337 29.2578 15.1595 29.6014 14.2761C30.1965 12.7607 30.4112 11.184 30.2885 9.66257C29.9879 5.78527 27.5277 2.23312 23.6627 0.723923C22.4112 0.233125 21.1228 0.00613124 19.859 0.00613124C17.2149 -3.72762e-06 14.6627 1.01227 12.7363 2.79754C11.6136 3.83435 10.7057 5.13496 10.1167 6.65644C8.79155 10.0429 20.767 15.5337 26.6198 15.5337Z" fill="white"/>
</svg>
