<svg width="30" height="32" viewBox="0 0 30 32" fill="none" xmlns="http://www.w3.org/2000/svg">
<path fill-rule="evenodd" clip-rule="evenodd" d="M18.8591 3.38644C20.89 4.6862 22.2397 6.98579 22.2397 9.59157C22.2397 10.4477 21.4086 11.0476 19.4652 11.6099C16.4408 12.4723 13.5475 12.4723 10.5356 11.6099C8.58594 11.0476 7.75484 10.4477 7.75484 9.59157C7.75484 6.97954 9.1046 4.6862 11.1355 3.38644L10.3669 1.25558C10.1919 0.768164 10.4419 0.230761 10.9293 0.0557931C11.4167 -0.119175 11.9541 0.130779 12.129 0.618191L12.8352 2.58658C14.2537 2.13667 15.7721 2.14916 17.1531 2.58658L17.8655 0.618191C18.0405 0.130779 18.5779 -0.119175 19.0653 0.0557931C19.5527 0.230761 19.8027 0.768164 19.6277 1.25558L18.8591 3.38644ZM7.31117 12.2286C6.66129 11.7537 6.29261 11.2288 6.09265 10.7227C5.7802 11.0726 5.49275 11.4475 5.22405 11.8287L3.69308 10.8414C3.25566 10.5602 2.68076 10.6852 2.39956 11.1226C2.11837 11.56 2.24334 12.1412 2.68076 12.4224L4.26798 13.4472C3.51811 14.9531 3.0557 16.6091 2.93072 18.3338H0.93733C0.418674 18.3338 0 18.7525 0 19.2711C0 19.7898 0.418674 20.2084 0.93733 20.2084H2.91822C3.03695 21.9331 3.48062 23.5953 4.23048 25.1138L2.68076 26.1199C2.24334 26.4011 2.11837 26.9822 2.39956 27.4196C2.68076 27.857 3.26191 27.982 3.69308 27.7008L5.18031 26.7385C7.22994 29.7067 10.4044 31.7063 14.06 32V14.1096C12.0728 13.9846 8.88589 13.3722 7.31117 12.2286ZM8.56095 20.7708C8.04229 20.7708 7.62362 20.3522 7.62362 19.8335C7.62362 19.3149 8.04229 18.8962 8.56095 18.8962C9.0796 18.8962 9.49828 19.3149 9.49828 19.8335C9.49828 20.3522 9.0796 20.7708 8.56095 20.7708ZM11.248 15.0781C11.7666 15.0781 12.1853 15.4968 12.1853 16.0155C12.1853 16.5341 11.7666 16.9528 11.248 16.9528C10.7293 16.9528 10.3106 16.5341 10.3106 16.0155C10.3106 15.4968 10.7293 15.0781 11.248 15.0781ZM11.248 22.583C11.7666 22.583 12.1853 23.0017 12.1853 23.5203C12.1853 24.039 11.7666 24.4577 11.248 24.4577C10.7293 24.4577 10.3106 24.039 10.3106 23.5203C10.3106 23.0017 10.7293 22.583 11.248 22.583ZM29.0572 18.3338H27.0701C26.9451 16.6091 26.4827 14.9532 25.7328 13.4472L27.32 12.4224C27.7575 12.1412 27.8824 11.56 27.6012 11.1226C27.32 10.6852 26.7389 10.5602 26.3077 10.8414L24.7767 11.8287C24.508 11.4413 24.2206 11.0726 23.9082 10.7227C23.7082 11.2226 23.3395 11.7537 22.6896 12.2286C21.1149 13.3722 17.9405 13.9783 15.9409 14.1033V31.9938C19.5902 31.7001 22.7709 29.7067 24.8205 26.7323L26.3077 27.6946C26.7451 27.9758 27.32 27.8508 27.6012 27.4134C27.8824 26.976 27.7575 26.3948 27.32 26.1136L25.7641 25.1076C26.5077 23.5891 26.9576 21.9269 27.0763 20.2022H29.0572C29.5759 20.2022 29.9945 19.7835 29.9945 19.2649C29.9945 18.7462 29.5759 18.3338 29.0572 18.3338ZM18.7466 24.4639C18.2279 24.4639 17.8093 24.0453 17.8093 23.5266C17.8093 23.0079 18.2279 22.5893 18.7466 22.5893C19.2652 22.5893 19.6839 23.0079 19.6839 23.5266C19.6839 24.0453 19.2652 24.4639 18.7466 24.4639ZM18.7466 16.9528C18.2279 16.9528 17.8093 16.5341 17.8093 16.0155C17.8093 15.4968 18.2279 15.0781 18.7466 15.0781C19.2652 15.0781 19.6839 15.4968 19.6839 16.0155C19.6839 16.5341 19.2652 16.9528 18.7466 16.9528ZM21.4961 20.7084C20.9774 20.7084 20.5588 20.2897 20.5588 19.771C20.5588 19.2524 20.9774 18.8337 21.4961 18.8337C22.0147 18.8337 22.4334 19.2524 22.4334 19.771C22.4334 20.2897 22.0147 20.7084 21.4961 20.7084Z" fill="white"/>
</svg>
