<svg width="35" height="36" viewBox="0 0 35 36" fill="none" xmlns="http://www.w3.org/2000/svg">
<path d="M33.9652 17.4542C33.7088 16.7766 33.0678 16.3187 32.3626 16.3187C32.0055 16.3187 31.6483 16.4377 31.3004 16.685H29.5238C29.2674 14.2949 28.3425 12.0696 26.8132 10.1831L28.5897 8.42491C29.4689 8.34249 30.1557 7.60989 30.1557 6.71245C30.1557 5.76007 29.3864 4.99084 28.4341 4.99084C27.5458 4.99084 26.804 5.67766 26.7216 6.54762L24.8993 8.33333C22.9853 6.78571 20.696 5.85165 18.2326 5.61355V2.85714C18.6172 2.5 18.6722 2.05128 18.6722 1.72161C18.6722 0.769231 17.9121 0 16.978 0C16.0073 0 15.2198 0.769231 15.2198 1.72161C15.2198 2.17949 15.3388 2.54579 15.5769 2.82967V5.64103C13.2143 5.90659 11.0073 6.84982 9.13919 8.37912L7.4359 6.66667C7.40842 5.74176 6.64835 5 5.72344 5C4.78022 5 4.00183 5.76923 4.00183 6.72161C4.00183 7.57326 4.62454 8.28755 5.45787 8.41575L7.30769 10.2381C5.80586 12.1154 4.89011 14.3223 4.64286 16.685H2.85714C2.59157 16.5018 2.21612 16.3187 1.79487 16.3187C1.08059 16.3187 0.40293 16.7766 0.155678 17.4359C0.0915751 17.5641 0 17.7564 0 17.967V18.1593C0 18.37 0.0824176 18.544 0.14652 18.663L0.155678 18.6813C0.412088 19.3407 1.07143 19.8077 1.77656 19.8077C2.22527 19.8077 2.60989 19.6062 2.85714 19.4322H4.64286C4.89927 21.7766 5.86996 24.1026 7.35348 25.9341L5.57692 27.7015C4.6978 27.7839 4.01099 28.5165 4.01099 29.4139C4.01099 30.3663 4.78022 31.1355 5.7326 31.1355C6.63004 31.1355 7.36264 30.4487 7.44506 29.5788L9.18498 27.8022C11.0165 29.2766 13.2601 30.2289 15.5678 30.4945V32.2527C15.2198 32.6648 15.2198 33.1685 15.2198 33.3516C15.2198 34.0476 15.6685 34.6612 16.3553 34.9267C16.511 34.9908 16.6667 35.0092 16.8132 35.0092H16.8956H17.1703C17.3077 35.0092 17.4542 35 17.6099 34.9267C18.2692 34.6795 18.6722 34.0659 18.6722 33.3333C18.6722 33.0128 18.6264 32.5641 18.2326 32.207V30.5128C20.6685 30.2747 22.9396 29.359 24.8443 27.8297L26.7125 29.6795C26.8407 30.5037 27.5641 31.1264 28.4249 31.1264C29.3773 31.1264 30.1557 30.3571 30.1557 29.4048C30.1557 28.4799 29.4231 27.7198 28.5073 27.6831L26.7857 25.9707C28.315 24.1026 29.2766 21.804 29.533 19.4139H31.3095C31.6575 19.6612 32.0238 19.7894 32.3718 19.7894C33.0769 19.7894 33.7179 19.3407 33.9652 18.6722C34.0293 18.5256 34.0659 18.3425 34.0659 18.1502V17.9579C34.0659 17.7747 34.0293 17.6099 33.9652 17.4542ZM20.4304 19.6612C20.467 19.5879 20.4945 19.5055 20.522 19.4414H25.8791C25.6593 20.8883 25.0824 22.2436 24.2033 23.4249L20.4304 19.6612ZM20.522 16.685C20.5037 16.6392 20.4853 16.5842 20.4579 16.5385L24.2399 12.7473C25.1007 13.9194 25.6685 15.2564 25.8791 16.685H20.522ZM22.2344 25.2656C21.0623 26.1172 19.6703 26.6758 18.2234 26.8773V21.5751C18.315 21.5476 18.3974 21.511 18.4799 21.4835L22.2344 25.2656ZM18.2234 14.5696V9.2674C19.6886 9.47802 21.1355 10.0641 22.3077 10.9157L18.5165 14.6886C18.4341 14.6429 18.3333 14.5971 18.2234 14.5696ZM11.685 10.9524C12.8388 10.0824 14.1667 9.51465 15.5678 9.28571V14.652C15.5311 14.6703 15.4945 14.6886 15.4579 14.707L11.685 10.9524ZM15.5678 21.4744V26.8498C14.185 26.63 12.9029 26.0806 11.7491 25.2198L15.5037 21.4469C15.5311 21.456 15.5494 21.4652 15.5678 21.4744ZM13.6996 19.5879L9.91758 23.3791C9.05678 22.207 8.48901 20.87 8.27839 19.4414H13.6447C13.663 19.4872 13.6813 19.533 13.6996 19.5879ZM8.28755 16.685C8.50733 15.3022 9.05678 13.956 9.89011 12.8114L13.6813 16.5842C13.6722 16.6209 13.6538 16.6483 13.6447 16.685H8.28755Z" fill="white"/>
</svg>
