<svg width="15" height="15" viewBox="0 0 15 15" fill="none" xmlns="http://www.w3.org/2000/svg">
<path d="M1.80967 11.748L2.32236 11.1577C2.4244 11.0439 2.47773 10.8947 2.4709 10.742V10.645C2.4709 10.4297 2.3584 10.3125 2.13867 10.3125H0.46875C0.40659 10.3125 0.346976 10.3372 0.303022 10.3811C0.259068 10.4251 0.234375 10.4847 0.234375 10.5469V11.0156C0.234375 11.0778 0.259068 11.1374 0.303022 11.1814C0.346976 11.2253 0.40659 11.25 0.46875 11.25H1.13789C1.02413 11.3644 0.916557 11.4848 0.815625 11.6106L0.651269 11.8157C0.534082 11.9643 0.497461 12.1125 0.569238 12.2517L0.6 12.3082C0.687891 12.477 0.78457 12.5391 0.958887 12.5391H1.09746C1.4001 12.5391 1.56445 12.6105 1.56445 12.8054C1.56445 12.9437 1.44141 13.0462 1.14375 13.0462C0.988223 13.045 0.834373 13.0139 0.690527 12.9548C0.500391 12.8411 0.346582 12.8522 0.233496 13.0462L0.0697266 13.3189C-0.0395508 13.4985 -0.0240234 13.6623 0.146484 13.7859C0.372363 13.9233 0.743848 14.0625 1.23047 14.0625C2.23125 14.0625 2.65137 13.396 2.65137 12.7699C2.65049 12.3486 2.38418 11.898 1.80967 11.748ZM0.354492 9.375H2.34375C2.40591 9.375 2.46552 9.35031 2.50948 9.30635C2.55343 9.2624 2.57812 9.20279 2.57812 9.14062V8.67188C2.57812 8.60971 2.55343 8.5501 2.50948 8.50615C2.46552 8.46219 2.40591 8.4375 2.34375 8.4375H1.21084C1.30693 8.13603 2.62676 7.89023 2.62676 6.78398C2.62676 5.93262 1.89434 5.625 1.32393 5.625C0.698144 5.625 0.333691 5.91797 0.138867 6.17432C0.0105469 6.33809 0.0509766 6.49189 0.220605 6.62461L0.471973 6.82617C0.636328 6.95977 0.794238 6.89854 0.944531 6.75469C1.01838 6.68216 1.11788 6.64172 1.22139 6.64219C1.31895 6.64219 1.49326 6.68789 1.49326 6.89854C1.49414 7.27119 0 7.53838 0 8.92353V9.04072C0 9.25781 0.148828 9.375 0.354492 9.375ZM0.46875 4.6875H2.34375C2.40591 4.6875 2.46552 4.66281 2.50948 4.61885C2.55343 4.5749 2.57812 4.51529 2.57812 4.45312V3.98438C2.57812 3.92221 2.55343 3.8626 2.50948 3.81865C2.46552 3.77469 2.40591 3.75 2.34375 3.75H1.875V1.17188C1.875 1.10971 1.85031 1.0501 1.80635 1.00615C1.7624 0.962193 1.70279 0.9375 1.64062 0.9375H0.9375C0.894058 0.937578 0.851492 0.949728 0.814554 0.972594C0.777616 0.99546 0.747761 1.02814 0.72832 1.06699L0.493945 1.53574C0.47608 1.57144 0.467631 1.61112 0.469398 1.651C0.471165 1.69088 0.48309 1.72965 0.504042 1.76363C0.524994 1.79762 0.55428 1.82568 0.589121 1.84517C0.623961 1.86466 0.663203 1.87493 0.703125 1.875H0.9375V3.75H0.46875C0.40659 3.75 0.346976 3.77469 0.303022 3.81865C0.259068 3.8626 0.234375 3.92221 0.234375 3.98438V4.45312C0.234375 4.51529 0.259068 4.5749 0.303022 4.61885C0.346976 4.66281 0.40659 4.6875 0.46875 4.6875ZM14.7656 2.34375H4.92188C4.85971 2.34375 4.8001 2.36844 4.75615 2.4124C4.71219 2.45635 4.6875 2.51596 4.6875 2.57812V3.04688C4.6875 3.10904 4.71219 3.16865 4.75615 3.2126C4.8001 3.25656 4.85971 3.28125 4.92188 3.28125H14.7656C14.8278 3.28125 14.8874 3.25656 14.9314 3.2126C14.9753 3.16865 15 3.10904 15 3.04688V2.57812C15 2.51596 14.9753 2.45635 14.9314 2.4124C14.8874 2.36844 14.8278 2.34375 14.7656 2.34375ZM14.7656 11.7188H4.92188C4.85971 11.7188 4.8001 11.7434 4.75615 11.7874C4.71219 11.8314 4.6875 11.891 4.6875 11.9531V12.4219C4.6875 12.484 4.71219 12.5436 4.75615 12.5876C4.8001 12.6316 4.85971 12.6562 4.92188 12.6562H14.7656C14.8278 12.6562 14.8874 12.6316 14.9314 12.5876C14.9753 12.5436 15 12.484 15 12.4219V11.9531C15 11.891 14.9753 11.8314 14.9314 11.7874C14.8874 11.7434 14.8278 11.7188 14.7656 11.7188ZM14.7656 7.03125H4.92188C4.85971 7.03125 4.8001 7.05594 4.75615 7.0999C4.71219 7.14385 4.6875 7.20346 4.6875 7.26562V7.73438C4.6875 7.79654 4.71219 7.85615 4.75615 7.9001C4.8001 7.94406 4.85971 7.96875 4.92188 7.96875H14.7656C14.8278 7.96875 14.8874 7.94406 14.9314 7.9001C14.9753 7.85615 15 7.79654 15 7.73438V7.26562C15 7.20346 14.9753 7.14385 14.9314 7.0999C14.8874 7.05594 14.8278 7.03125 14.7656 7.03125Z" fill="#828282"/>
</svg>
