<svg width="12" height="15" viewBox="0 0 12 15" fill="none" xmlns="http://www.w3.org/2000/svg">
<path d="M8.96483 6.85898C9.77752 6.26191 10.3125 5.30596 10.3125 4.21875C10.3125 3.34851 9.96678 2.51391 9.35143 1.89856C8.73608 1.2832 7.90148 0.9375 7.03124 0.9375H1.17187C1.10971 0.9375 1.0501 0.962193 1.00615 1.00615C0.962193 1.0501 0.9375 1.10971 0.9375 1.17188V1.64063C0.9375 1.70279 0.962193 1.7624 1.00615 1.80635C1.0501 1.85031 1.10971 1.875 1.17187 1.875H1.875V13.125H1.17187C1.10971 13.125 1.0501 13.1497 1.00615 13.1936C0.962193 13.2376 0.9375 13.2972 0.9375 13.3594V13.8281C0.9375 13.8903 0.962193 13.9499 1.00615 13.9939C1.0501 14.0378 1.10971 14.0625 1.17187 14.0625H7.49999C8.36541 14.0633 9.20447 13.7647 9.87487 13.2174C10.5453 12.6702 11.0058 11.9078 11.1782 11.0598C11.3507 10.2117 11.2245 9.33009 10.8211 8.56445C10.4177 7.7988 9.76183 7.19625 8.96483 6.85898ZM2.8125 1.875H7.03124C7.65284 1.875 8.24898 2.12193 8.68852 2.56147C9.12806 3.00101 9.37498 3.59715 9.37498 4.21875C9.37498 4.84035 9.12806 5.43649 8.68852 5.87603C8.24898 6.31557 7.65284 6.5625 7.03124 6.5625H2.8125V1.875ZM7.49999 13.125H2.8125V7.5H7.49999C8.24591 7.5 8.96128 7.79632 9.48872 8.32376C10.0162 8.85121 10.3125 9.56658 10.3125 10.3125C10.3125 11.0584 10.0162 11.7738 9.48872 12.3012C8.96128 12.8287 8.24591 13.125 7.49999 13.125Z" fill="#828282"/>
</svg>
