<svg width="13" height="13" viewBox="0 0 13 13" fill="none" xmlns="http://www.w3.org/2000/svg">
<path d="M12.6104 7.25367C12.8625 6.92679 13 6.5 13 5.97868C13 5.02211 12.1856 4.13606 11.1534 4.13606H9.37226C9.59367 3.69507 9.89772 3.14808 9.89772 2.36336C9.89775 0.880344 9.30612 0 7.79264 0C7.03104 0 6.74842 0.962762 6.60362 1.70696C6.51711 2.15158 6.43538 2.57156 6.18404 2.8229C5.58558 3.42139 4.67188 4.875 4.12298 5.17017C4.0674 5.19358 3.99638 5.21201 3.91904 5.22661C3.77246 5.01424 3.52754 4.875 3.25 4.875H0.8125C0.363771 4.875 0 5.23877 0 5.6875V12.1875C0 12.6362 0.363771 13 0.8125 13H3.25C3.69873 13 4.0625 12.6362 4.0625 12.1875V11.9656C4.88757 11.9656 6.61901 13.0002 8.56819 12.9996C8.70797 12.9997 9.52415 13.0004 9.60954 12.9996C11.1147 13 11.952 12.0885 11.9032 10.7197C12.2873 10.2696 12.4755 9.61939 12.3659 9.01591C12.6822 8.52013 12.75 7.82077 12.6104 7.25367ZM0.8125 12.1875V5.6875H3.25V12.1875H0.8125ZM11.5786 7.01675C11.9844 7.3125 11.9844 8.53125 11.4362 8.81098C11.7795 9.38887 11.4705 10.1622 11.055 10.3851C11.2655 11.7191 10.5735 12.1778 9.6023 12.1872C9.51821 12.1879 8.65658 12.1872 8.56822 12.1872C6.71651 12.1872 5.14704 11.1531 4.06253 11.1531V5.98267C5.01996 5.98267 5.89839 4.25765 6.75858 3.39744C7.53413 2.62189 7.27561 1.32928 7.79266 0.812246C9.08527 0.812246 9.08527 1.71404 9.08527 2.36338C9.08527 3.43459 8.30972 3.9145 8.30972 4.94858H11.1534C11.7306 4.94858 12.185 5.46564 12.1875 5.98267C12.19 6.4997 11.9844 6.90625 11.5786 7.01675ZM2.64062 10.9688C2.64062 11.3053 2.3678 11.5781 2.03125 11.5781C1.6947 11.5781 1.42188 11.3053 1.42188 10.9688C1.42188 10.6322 1.6947 10.3594 2.03125 10.3594C2.3678 10.3594 2.64062 10.6322 2.64062 10.9688Z" fill="#828282"/>
</svg>
