<svg width="16" height="20" viewBox="0 0 16 20" fill="none" xmlns="http://www.w3.org/2000/svg">
<path d="M14.8168 3.82744L11.4561 0.550735C11.0956 0.199241 10.6069 6.10352e-05 10.0982 6.10352e-05H1.9227C0.86121 0.00396652 0 0.843646 0 1.8786V18.1254C0 19.1604 0.86121 20.0001 1.9227 20.0001H13.4589C14.5204 20.0001 15.3816 19.1604 15.3816 18.1254V5.1553C15.3816 4.65931 15.1773 4.17893 14.8168 3.82744ZM13.9115 4.71398C13.9957 4.796 14.0517 4.89364 14.0798 5.00299H10.2544V1.27325C10.3666 1.30059 10.4667 1.35527 10.5508 1.43728L13.9115 4.71398ZM13.4589 18.7503H1.9227C1.57021 18.7503 1.2818 18.4691 1.2818 18.1254V1.8786C1.2818 1.53492 1.57021 1.25372 1.9227 1.25372H8.97261V5.31543C8.97261 5.83486 9.40121 6.25275 9.93396 6.25275H14.0998V18.1254C14.0998 18.4691 13.8114 18.7503 13.4589 18.7503Z" fill="#DDD8D8"/>
</svg>
