<svg width="20" height="18" viewBox="0 0 20 18" fill="none" xmlns="http://www.w3.org/2000/svg">
<path d="M19.375 16.5H18.75V14.9375C18.75 14.4197 18.3303 14 17.8125 14H16.25V7.125H15V14H12.5V7.125H11.25V14H8.75V7.125H7.5V14H5V7.125H3.75V14H2.1875C1.66973 14 1.25 14.4197 1.25 14.9375V16.5H0.625C0.279805 16.5 1.48378e-09 16.7798 1.48378e-09 17.125V17.4375C1.48378e-09 17.5204 0.032924 17.5999 0.0915291 17.6585C0.150134 17.7171 0.22962 17.75 0.3125 17.75H19.6875C19.7704 17.75 19.8499 17.7171 19.9085 17.6585C19.9671 17.5999 20 17.5204 20 17.4375V17.125C20 16.7798 19.7202 16.5 19.375 16.5ZM2.5 15.25H17.5V16.5H2.5V15.25ZM19.6979 4.3125L10.5929 0.346211C10.2081 0.21793 9.79195 0.21793 9.40707 0.346211L0.30207 4.3125C0.213237 4.34629 0.136776 4.40629 0.0828272 4.48454C0.0288786 4.56278 -7.55908e-06 4.65558 1.48378e-09 4.75063V5.09375C1.48378e-09 5.35262 0.209883 5.5625 0.46875 5.5625H1.25V6.03125C1.25 6.29012 1.45988 6.5 1.71875 6.5H18.2812C18.5401 6.5 18.75 6.29012 18.75 6.03125V5.5625H19.5312C19.7901 5.5625 20 5.35262 20 5.09375V4.75063C20 4.55602 19.8798 4.38168 19.6979 4.3125ZM17.5 5.25H2.5V4.71852L9.84152 1.52043C9.94542 1.4932 10.0546 1.4932 10.1585 1.52043L17.5 4.71852V5.25Z" fill="#234D60"/>
</svg>
