<svg width="25" height="23" viewBox="0 0 25 23" fill="none" xmlns="http://www.w3.org/2000/svg">
<path d="M15.835 2.125C15.9961 2.125 16.1426 2.22754 16.2012 2.37891L17.2803 5.25H22.6562C23.0859 5.25 23.4375 5.60156 23.4375 6.03125V20.0938C23.4375 20.5234 23.0859 20.875 22.6562 20.875H2.34375C1.91406 20.875 1.5625 20.5234 1.5625 20.0938V6.03125C1.5625 5.60156 1.91406 5.25 2.34375 5.25H7.72461L8.70605 2.63281C8.81836 2.33008 9.11133 2.125 9.43848 2.125H15.835ZM15.835 0.5625H9.43848C8.46191 0.5625 7.58789 1.16797 7.24609 2.08105L6.64062 3.6875H2.34375C1.0498 3.6875 0 4.7373 0 6.03125V20.0938C0 21.3877 1.0498 22.4375 2.34375 22.4375H22.6562C23.9502 22.4375 25 21.3877 25 20.0938V6.03125C25 4.7373 23.9502 3.6875 22.6562 3.6875H18.3594L17.6611 1.83203C17.3779 1.06543 16.6504 0.5625 15.835 0.5625ZM12.5 18.9219C9.26758 18.9219 6.64062 16.2949 6.64062 13.0625C6.64062 9.83008 9.26758 7.20312 12.5 7.20312C15.7324 7.20312 18.3594 9.83008 18.3594 13.0625C18.3594 16.2949 15.7324 18.9219 12.5 18.9219ZM12.5 8.76562C10.1318 8.76562 8.20312 10.6943 8.20312 13.0625C8.20312 15.4307 10.1318 17.3594 12.5 17.3594C14.8682 17.3594 16.7969 15.4307 16.7969 13.0625C16.7969 10.6943 14.8682 8.76562 12.5 8.76562Z" fill="white"/>
</svg>
