<svg width="23" height="15" viewBox="0 0 23 15" fill="none" xmlns="http://www.w3.org/2000/svg">
<path d="M21.9995 3.71457L12.4761 0.535034C11.836 0.321655 11.1643 0.321655 10.5243 0.535034L1.00086 3.71457C0.393156 3.91755 0 4.47123 0 5.12509C0 5.77896 0.393156 6.33263 1.0005 6.53562L2.0682 6.89187C1.94961 7.12121 1.86192 7.36798 1.80478 7.62664C1.42061 7.81886 1.15 8.21705 1.15 8.68759C1.15 9.16 1.42205 9.56041 1.80873 9.75152L1.16006 13.9026C1.1022 14.2733 1.30058 14.6251 1.56759 14.6251H3.03205C3.29906 14.6251 3.4978 14.2733 3.43958 13.9026L2.79127 9.75152C3.17795 9.56041 3.45 9.16 3.45 8.68759C3.45 8.29423 3.2527 7.96248 2.96736 7.74613C3.02091 7.5732 3.10392 7.41734 3.20347 7.27076L5.12505 7.91238L4.6 12.2501C4.6 13.5619 7.68919 14.6251 11.5 14.6251C15.3108 14.6251 18.4 13.5619 18.4 12.2501L17.875 7.91238L21.9995 6.53525C22.6068 6.33263 23 5.77896 23 5.12509C23 4.47123 22.6068 3.91755 21.9995 3.71457ZM17.2313 12.1707C16.8446 12.5911 14.8796 13.4376 11.5 13.4376C8.12044 13.4376 6.15538 12.5911 5.76869 12.1707L6.23911 8.28421L10.5243 9.71478C10.6177 9.74595 11.4486 10.0573 12.4761 9.71478L16.7612 8.28421L17.2313 12.1707ZM21.6444 5.40638L12.121 8.58591C11.7145 8.72173 11.2855 8.72173 10.879 8.58591L4.56586 6.4781L11.6057 5.1147C11.918 5.05458 12.1235 4.74435 12.0649 4.42187C12.0067 4.09902 11.6998 3.88787 11.3943 3.94798L4.071 5.36556C3.62537 5.45166 3.22611 5.64945 2.88219 5.91589L1.3552 5.40601C1.07309 5.31138 1.08711 4.93324 1.3552 4.8438L10.8786 1.66427C11.4213 1.48318 11.8791 1.58375 12.1206 1.66427L21.6441 4.8438C21.9097 4.9325 21.9283 5.31138 21.6444 5.40638Z" fill="#234D60"/>
</svg>
