<svg width="13" height="11" viewBox="0 0 13 11" fill="none" xmlns="http://www.w3.org/2000/svg">
<path d="M12.6386 7.58314H11.1942V2.52771H12.6386C12.9615 2.52771 13.12 2.13705 12.8938 1.91136L11.0883 0.105848C11.0548 0.0723078 11.015 0.0457019 10.9712 0.0275497C10.9273 0.00939749 10.8804 5.45832e-05 10.8329 5.45832e-05C10.7855 5.45832e-05 10.7386 0.00939749 10.6947 0.0275497C10.6509 0.0457019 10.6111 0.0723078 10.5776 0.105848L8.77207 1.91136C8.56173 2.12147 8.67457 2.52771 9.02755 2.52771H10.472V7.58314H9.02755C8.70459 7.58314 8.54615 7.97403 8.77229 8.19972L10.5778 10.0052C10.6113 10.0388 10.6511 10.0654 10.695 10.0835C10.7388 10.1017 10.7857 10.111 10.8332 10.111C10.8806 10.111 10.9276 10.1017 10.9714 10.0835C11.0152 10.0654 11.055 10.0388 11.0885 10.0052L12.894 8.19972C13.1044 7.98938 12.9915 7.58314 12.6386 7.58314ZM9.89938 1.80551L10.8331 0.87161L11.7665 1.80551H9.89938ZM10.8331 9.23879L9.89961 8.30534H11.767L10.8331 9.23879ZM6.86094 0H0.361102C0.265332 0 0.173484 0.0380445 0.105764 0.105764C0.0380446 0.173484 0 0.265332 0 0.361102L0 1.98606C0 2.03395 0.0190223 2.07987 0.0528821 2.11373C0.086742 2.14759 0.132666 2.16661 0.180551 2.16661H0.541653C0.589538 2.16661 0.635462 2.14759 0.669322 2.11373C0.703182 2.07987 0.722204 2.03395 0.722204 1.98606V0.722204H3.24992V9.38865H1.62496C1.57707 9.38865 1.53115 9.40767 1.49729 9.44153C1.46343 9.47539 1.44441 9.52131 1.44441 9.5692V9.9303C1.44441 9.97819 1.46343 10.0241 1.49729 10.058C1.53115 10.0918 1.57707 10.1109 1.62496 10.1109H5.59708C5.64496 10.1109 5.69089 10.0918 5.72475 10.058C5.75861 10.0241 5.77763 9.97819 5.77763 9.9303V9.5692C5.77763 9.52131 5.75861 9.47539 5.72475 9.44153C5.69089 9.40767 5.64496 9.38865 5.59708 9.38865H3.97212V0.722204H6.49983V1.98606C6.49983 2.03395 6.51886 2.07987 6.55272 2.11373C6.58658 2.14759 6.6325 2.16661 6.68039 2.16661H7.04149C7.08937 2.16661 7.1353 2.14759 7.16916 2.11373C7.20302 2.07987 7.22204 2.03395 7.22204 1.98606V0.361102C7.22204 0.265332 7.18399 0.173484 7.11627 0.105764C7.04855 0.0380445 6.95671 0 6.86094 0Z" fill="#828282"/>
</svg>
