<svg xmlns="http://www.w3.org/2000/svg" width="29" height="26" viewBox="0 0 29 26"><path fill="#1A3D52" fill-rule="evenodd" stroke="#1A3D52" stroke-width=".6" d="M24.983 12.818L14.64 23.119 4.322 12.8a5.958 5.958 0 0 1-1.76-4.242 5.93 5.93 0 0 1 1.754-4.236 5.95 5.95 0 0 1 4.23-1.754c1.604 0 3.114.625 4.249 1.76l1.308 1.307a.779.779 0 0 0 1.105 0l1.296-1.296a5.968 5.968 0 0 1 4.242-1.76c1.598 0 3.102.626 4.237 1.754a5.953 5.953 0 0 1 1.753 4.242 5.93 5.93 0 0 1-1.753 4.243m1.11-9.59a7.492 7.492 0 0 0-5.341-2.21c-2.02 0-3.918.787-5.347 2.216l-.747.746-.758-.758A7.531 7.531 0 0 0 8.547 1 7.504 7.504 0 0 0 3.21 3.21 7.484 7.484 0 0 0 1 8.559c0 2.02.793 3.912 2.222 5.342l10.869 10.868c.15.15.353.232.55.232a.78.78 0 0 0 .55-.226l10.891-10.85a7.512 7.512 0 0 0 2.217-5.349 7.476 7.476 0 0 0-2.205-5.347"/></svg>