<svg width="35" height="29" viewBox="0 0 35 29" fill="none" xmlns="http://www.w3.org/2000/svg">
<path fill-rule="evenodd" clip-rule="evenodd" d="M24.6503 4.34966H31.8952C33.4991 4.34966 34.7972 5.64776 34.8108 7.2517V11.6014C34.8108 13.2053 33.5059 14.5034 31.9088 14.5034H20.3075V13.7762C20.3075 13.3752 19.9812 13.049 19.5802 13.049H15.2306C14.8296 13.049 14.5034 13.3752 14.5034 13.7762V14.5034H2.90204C1.2981 14.5034 0 13.1985 0 11.6014V7.2517C0 5.64776 1.2981 4.34966 2.90204 4.34966H10.1469V2.90204C10.1469 1.2981 11.4518 0 13.049 0H21.7483C23.3454 0 24.6503 1.2981 24.6503 2.90204V4.34966ZM13.049 4.34966H21.7483V2.90204H13.049V4.34966ZM33.6351 15.3531C33.8526 15.1832 34.1516 15.156 34.3963 15.2784C34.6409 15.4007 34.7972 15.6522 34.804 15.9308V26.0981C34.804 27.7021 33.4991 29.0002 31.902 29.0002H2.90204C1.2981 29.0002 0 27.6953 0 26.0981V15.9308C0 15.6522 0.156316 15.4007 0.400984 15.2784C0.645652 15.156 0.944691 15.1832 1.16217 15.3531C1.6787 15.7473 2.28357 15.9512 2.90204 15.9512H14.4966V18.126C14.4966 18.527 14.8228 18.8532 15.2238 18.8532H19.5735C19.9744 18.8532 20.3007 18.527 20.3007 18.126V15.9512H31.8952C32.5205 15.9512 33.1186 15.7405 33.6351 15.3531Z" fill="white"/>
</svg>
