<svg width="32" height="32" viewBox="0 0 32 32" fill="none" xmlns="http://www.w3.org/2000/svg">
<path d="M30.6375 4.26873C31.3938 4.26873 32 3.65623 32 2.90623V2.40623C32 2.23748 31.9188 2.08123 31.7875 1.98123C27.425 -1.28753 21.2437 -0.406276 17.975 3.95623C16.6938 5.66248 16 7.74373 16 9.87498C16 10.15 16.0125 10.4125 16.0312 10.675H4.26875C3.0875 10.675 2.1375 11.6312 2.1375 12.8062C2.1375 13.9812 3.09375 14.9375 4.26875 14.9375H5.6625C5.1 15.9125 4.80625 17.0125 4.80625 18.1375V22.8437C4.1 21.775 3.5625 20.6 3.21875 19.3687C3.01875 18.675 2.375 18.2 1.65 18.2062C0.75 18.1875 0.01875 18.8937 0 19.7875C0 19.925 0.01875 20.0625 0.05625 20.2C0.9 23.2 2.6125 25.8875 4.98125 27.9187C6.1 28.8937 7.34375 29.7125 8.68125 30.35C13.3125 32.5563 18.6875 32.5563 23.3188 30.35C23.6375 30.1938 23.9563 30.0313 24.2625 29.8563C25.0375 29.425 25.775 28.9312 26.4625 28.375C29.1125 26.3 31.0312 23.4375 31.9375 20.2C32.0687 19.7312 31.975 19.2312 31.675 18.85C31.3562 18.4375 30.8687 18.2 30.35 18.2C29.9125 18.1937 29.4875 18.3687 29.175 18.6812C28.9875 18.8687 28.85 19.1062 28.7812 19.3625C28.3438 20.8937 27.625 22.325 26.6562 23.5875V18.1375C26.6562 18 26.65 17.8562 26.6375 17.7187C26.6562 17.6437 26.6562 17.5687 26.6437 17.4937L26.5875 17.225V17.2125C26.5875 17.2062 26.5875 17.1937 26.5812 17.1875L26.5125 16.825C26.4938 16.7375 26.4875 16.6562 26.4562 16.5687V16.5562L25.2812 10.7125C25.2687 10.6625 25.2625 10.6125 25.2625 10.5625C25.2625 10.2125 25.5 9.90623 25.8438 9.81873C26.1688 9.73748 26.5063 9.87498 26.6875 10.1625L27.3625 11.2875C27.9437 12.25 29.1875 12.5562 30.15 11.975C30.35 11.8562 30.525 11.7062 30.6688 11.525C31.0563 11.0562 31.2062 10.4375 31.0875 9.83748L30.1 4.89998C30.0625 4.74373 30.1062 4.58123 30.2125 4.46248C30.325 4.33748 30.475 4.26873 30.6375 4.26873ZM9.6 11.7312H16V14.9312C16 15.225 15.7625 15.4625 15.4688 15.4625H10.1375C9.84375 15.4625 9.60625 15.225 9.60625 14.9312L9.6 11.7312ZM16 28.8C13.1313 28.8125 10.3313 27.9062 8.01875 26.2062C8.28125 22.1312 11.65 18.9562 15.7375 18.9312C19.975 18.9375 23.4188 22.3375 23.4688 26.575C21.25 28.0375 18.6562 28.8125 16 28.8ZM28.2687 5.86873C28.2687 6.16248 28.0312 6.39998 27.7375 6.39998C27.4437 6.39998 27.2062 6.16248 27.2062 5.86873V5.33748C27.2062 5.04373 27.4437 4.80623 27.7375 4.80623C28.0312 4.80623 28.2687 5.04373 28.2687 5.33748V5.86873Z" fill="white"/>
</svg>
