<svg width="31" height="32" viewBox="0 0 31 32" fill="none" xmlns="http://www.w3.org/2000/svg">
<path d="M30.7354 10.4803L28.4676 7.4278L29.6834 3.81806C29.9228 3.10878 29.5448 2.3425 28.8456 2.10185C28.5684 2.00685 28.2597 2.00685 27.9825 2.10185L24.3918 3.32409L21.3554 1.04426C20.7633 0.600955 19.9191 0.72128 19.4719 1.31657C19.2955 1.55722 19.201 1.8422 19.2073 2.13985L19.2577 5.95224L16.1646 8.15608C15.5598 8.58672 15.415 9.42899 15.8433 10.0369C16.0134 10.2776 16.2591 10.4613 16.5426 10.5499L18.76 11.2402L0 30.0932L1.90246 32.0057L20.6184 13.1907L21.2798 15.3312C21.431 15.8252 21.8468 16.1862 22.3507 16.2622C22.42 16.2748 22.4893 16.2812 22.5586 16.2812C22.9933 16.2812 23.4028 16.0659 23.6547 15.7112L25.847 12.6018L29.6393 12.6524H29.6582C30.4015 12.6524 31 12.0445 31 11.3035C31 10.9995 30.9055 10.7146 30.7354 10.4803Z" fill="white"/>
<path d="M26.8992 21.6708C25.5826 21.6581 24.5179 20.5752 24.5242 19.2517C24.5242 19.068 24.3731 18.916 24.1904 18.916C24.0077 18.916 23.8565 19.068 23.8565 19.2517C23.8628 20.5752 22.8045 21.6581 21.4816 21.6708C21.2989 21.6708 21.1477 21.8228 21.1477 22.0065C21.1477 22.1901 21.2989 22.3421 21.4816 22.3421C22.7982 22.3548 23.8628 23.4377 23.8565 24.7613C23.8565 24.9449 24.0077 25.0969 24.1904 25.0969C24.3731 25.0969 24.5242 24.9449 24.5242 24.7613C24.5179 23.4377 25.5763 22.3548 26.8992 22.3421C27.0819 22.3421 27.233 22.1901 27.233 22.0065C27.2393 21.8228 27.0882 21.6708 26.8992 21.6708Z" fill="white"/>
<path d="M10.3944 3.43219C11.711 3.44485 12.7757 4.52777 12.7694 5.85134C12.7694 6.035 12.9205 6.18699 13.1032 6.18699C13.2859 6.18699 13.4371 6.035 13.4371 5.85134C13.4308 4.52777 14.4891 3.44485 15.812 3.43219C15.9947 3.43219 16.1459 3.2802 16.1459 3.09654C16.1459 2.91289 15.9947 2.7609 15.812 2.7609C14.4954 2.74824 13.4308 1.66532 13.4371 0.341746C13.4371 0.158092 13.2859 0.00610352 13.1032 0.00610352C12.9205 0.00610352 12.7694 0.158092 12.7694 0.341746C12.7757 1.66532 11.7173 2.74824 10.3944 2.7609C10.2117 2.7609 10.0605 2.91289 10.0605 3.09654C10.0605 3.2802 10.2054 3.43219 10.3944 3.43219Z" fill="white"/>
<path d="M1.99691 14.7488C3.31351 14.7615 4.37813 15.8444 4.37183 17.168C4.37183 17.3516 4.52302 17.5036 4.70571 17.5036C4.88839 17.5036 5.03958 17.3516 5.03958 17.168C5.03328 15.8444 6.0916 14.7615 7.4145 14.7488C7.59719 14.7488 7.74838 14.5968 7.74838 14.4132C7.74838 14.2295 7.59719 14.0775 7.4145 14.0775C6.0916 14.0585 5.03328 12.9756 5.03958 11.652C5.03958 11.4684 4.88839 11.3164 4.70571 11.3164C4.52302 11.3164 4.37183 11.4684 4.37183 11.652C4.37813 12.9756 3.31981 14.0585 1.99691 14.0712C1.81422 14.0712 1.66303 14.2232 1.66303 14.4068C1.65673 14.5968 1.80792 14.7488 1.99691 14.7488Z" fill="white"/>
</svg>
