<svg width="29" height="32" viewBox="0 0 29 32" fill="none" xmlns="http://www.w3.org/2000/svg">
<path fill-rule="evenodd" clip-rule="evenodd" d="M2.32097 0C1.04444 0 0 1.04444 0 2.32097V5.01451H4.64804V2.32097C4.64804 1.04444 3.60361 0 2.32097 0ZM24.5656 2.32097C24.5656 1.03833 23.5211 0 22.2446 0H5.76571C6.21769 0.665751 6.48033 1.46587 6.48033 2.32097V28.951C6.48033 30.2337 7.52476 31.272 8.80129 31.272C10.0778 31.272 11.1223 30.2276 11.1223 28.951V24.4251H24.5594V2.32097H24.5656ZM9.68693 3.25546H15.526V5.08781H9.68693V3.25546ZM21.3651 21.1636H9.68693V19.3312H21.3651V21.1636ZM21.3651 17.1446H9.68693V15.3123H21.3651V17.1446ZM21.3651 13.1257H9.68693V11.2933H21.3651V13.1257ZM21.3651 9.10675H9.68693V7.2744H21.3651V9.10675ZM21.359 5.08781H19.3006V3.25546H21.359V5.08781ZM12.9609 28.9508V26.2572H29V28.9508C29 30.2273 27.9617 31.2717 26.679 31.2717H12.2463C12.6982 30.6121 12.9609 29.812 12.9609 28.9508Z" fill="white"/>
</svg>
