<svg width="30" height="30" viewBox="0 0 30 30" fill="none" xmlns="http://www.w3.org/2000/svg">
<path d="M24.3933 23.7319H4.62271C4.25808 23.7319 3.96143 24.0286 3.96143 24.3932V26.3153C3.96143 27.0322 4.23954 27.712 4.74632 28.2188C5.2531 28.7255 5.93292 29.0098 6.64983 29.0098H22.36C23.8432 29.0098 25.0484 27.8047 25.0484 26.3214V24.3994C25.0484 24.0286 24.7579 23.7319 24.3933 23.7319Z" fill="white"/>
<path d="M21.7544 2.63896C21.3527 2.63896 20.9386 2.68222 20.4998 2.76257C18.9857 1.0012 16.8288 0 14.505 0C10.1418 0 6.59431 3.54746 6.59431 7.9107C6.59431 8.27534 6.29765 8.57199 5.93302 8.57199C5.56839 8.57199 5.27174 8.27534 5.27174 7.9107C5.27174 6.48307 5.59929 5.10487 6.24821 3.80703C6.36564 3.57836 6.33474 3.30025 6.17405 3.10248C6.01336 2.90471 5.74761 2.81201 5.5004 2.87381C2.26196 3.67724 0 6.56341 0 9.88838C0 12.6262 1.54506 15.1169 3.96771 16.3529L3.96153 21.7544C3.96153 21.9275 4.02951 22.0943 4.15311 22.2241C4.27672 22.3477 4.44359 22.4157 4.62281 22.4157H24.3934C24.758 22.4157 25.0547 22.1191 25.0547 21.7544V16.3405C27.4711 15.1045 29.01 12.62 29.01 9.88838C29.0038 5.88976 25.753 2.63896 21.7544 2.63896ZM9.64734 18.3059C9.52374 18.4047 9.37541 18.4542 9.22708 18.4542C9.0355 18.4542 8.85009 18.3738 8.71412 18.2132C8.49782 17.9474 6.58813 15.568 6.58813 13.8375C6.58813 13.4729 6.88478 13.1763 7.24941 13.1763C7.61404 13.1763 7.91069 13.4791 7.91069 13.8437C7.91069 14.7955 9.02932 16.5198 9.74004 17.3788C9.96871 17.6631 9.93163 18.0772 9.64734 18.3059ZM15.1601 17.7991C15.1601 18.1637 14.8635 18.4604 14.4988 18.4604C14.1342 18.4604 13.8437 18.1637 13.8437 17.7991V13.8437C13.8437 13.4791 14.1404 13.1824 14.505 13.1824C14.8696 13.1824 15.1663 13.4791 15.1663 13.8437L15.1601 17.7991ZM20.2835 18.2193C20.1537 18.38 19.9621 18.4604 19.7767 18.4604C19.6284 18.4604 19.4801 18.4109 19.3565 18.312C19.0722 18.0834 19.0351 17.6631 19.2638 17.385C19.9683 16.5198 21.0931 14.7955 21.0931 13.8499C21.0931 13.4853 21.3898 13.1886 21.7544 13.1886C22.119 13.1886 22.4157 13.4853 22.4157 13.8499C22.4157 15.5742 20.506 17.9536 20.2835 18.2193Z" fill="white"/>
</svg>
