<svg width="27" height="29" viewBox="0 0 27 29" fill="none" xmlns="http://www.w3.org/2000/svg">
<path fill-rule="evenodd" clip-rule="evenodd" d="M6.45022 7.52692C6.45022 3.38585 9.83607 0 13.9834 0C18.1245 0 21.504 3.38585 21.504 7.52692C21.504 11.668 18.1182 15.0538 13.9771 15.0538C9.83607 15.0538 6.45022 11.668 6.45022 7.52692ZM26.1485 19.6983C26.4443 20.12 26.7087 20.5857 26.9038 21.0766C27.0044 21.2717 26.9667 21.5046 26.7905 21.6934C26.5261 22.1528 26.2304 22.5807 25.9031 23.0087C25.4437 23.638 24.9213 24.1918 24.3927 24.7205C23.9333 25.1799 23.4109 25.6393 22.8823 26.0358C20.2831 27.9742 17.1616 28.9937 13.9393 28.9937C10.7171 28.9937 7.59559 27.9742 4.99642 26.0358C4.96759 26.0122 4.93874 25.9886 4.90988 25.9649C4.41592 25.5605 3.92006 25.1545 3.486 24.7205C2.93218 24.1918 2.435 23.6317 1.97558 23.0087C1.67979 22.6122 1.35254 22.1528 1.08821 21.6934C0.993812 21.4983 0.956052 21.2654 1.05675 21.0703C1.25184 20.6109 1.51616 20.12 1.81195 19.6921C3.2909 17.4579 5.65722 15.9727 8.28787 15.6139C8.62142 15.551 8.98014 15.6517 9.24446 15.8468C10.629 16.8663 12.2779 17.4013 13.9834 17.4013C15.6889 17.4013 17.3378 16.8726 18.716 15.8531C18.9804 15.6517 19.3454 15.5888 19.6726 15.6202C22.3033 15.9852 24.6381 17.4642 26.1485 19.6983Z" fill="white"/>
</svg>
