<svg height="512" viewBox="0 0 128 128" width="512" xmlns="http://www.w3.org/2000/svg" xmlns:xlink="http://www.w3.org/1999/xlink"><linearGradient id="linear-gradient" gradientUnits="userSpaceOnUse" x1="113.025" x2="14.97" y1="113.028" y2="14.972"><stop offset="0" stop-color="#ccc"/><stop offset="1" stop-color="#333"/></linearGradient><g id="Layer_2" data-name="Layer 2"><path d="m21.5 30.667a1.75 1.75 0 0 1 1.75-1.75h6.083a1.75 1.75 0 0 1 0 3.5h-6.083a1.75 1.75 0 0 1 -1.75-1.75zm104.744-1.75h-84.827a1.75 1.75 0 1 0 0 3.5h83.078v19.542a12.185 12.185 0 0 0 -10.418 12.041 1.75 1.75 0 0 0 3.5 0 8.676 8.676 0 0 1 8.667-8.667 1.75 1.75 0 0 0 1.75-1.75v-22.916a1.75 1.75 0 0 0 -1.75-1.75zm0 43.75a8.661 8.661 0 0 1 -4.382-1.187 1.75 1.75 0 0 0 -1.773 3.018 12.138 12.138 0 0 0 4.405 1.544v19.541h-120.994v-19.542a12.168 12.168 0 0 0 0-24.082v-19.542h7.667a1.75 1.75 0 1 0 0-3.5h-9.417a1.75 1.75 0 0 0 -1.75 1.75v22.916a1.75 1.75 0 0 0 1.75 1.75 8.667 8.667 0 0 1 0 17.334 1.75 1.75 0 0 0 -1.75 1.75v22.916a1.75 1.75 0 0 0 1.75 1.75h124.494a1.75 1.75 0 0 0 1.75-1.75v-22.916a1.75 1.75 0 0 0 -1.75-1.75zm-62.244-26.584a1.75 1.75 0 0 0 1.75-1.75v-6a1.75 1.75 0 0 0 -3.5 0v6a1.75 1.75 0 0 0 1.75 1.75zm-1.75 13.1a1.75 1.75 0 0 0 3.5 0v-6a1.75 1.75 0 0 0 -3.5 0zm0 14.85a1.75 1.75 0 0 0 3.5 0v-6a1.75 1.75 0 0 0 -3.5 0zm0 14.851a1.75 1.75 0 0 0 3.5 0v-6a1.75 1.75 0 0 0 -3.5 0zm42.35-37.871-23.5 23.5a1.75 1.75 0 1 0 2.475 2.475l23.5-23.5a1.75 1.75 0 0 0 -2.475-2.475zm-14.221 3.05a6.229 6.229 0 1 1 -6.229-6.229 6.237 6.237 0 0 1 6.225 6.229zm-3.5 0a2.729 2.729 0 1 0 -2.729 2.729 2.733 2.733 0 0 0 2.725-2.729zm17.146 13.646a6.229 6.229 0 1 1 -6.229 6.229 6.237 6.237 0 0 1 6.225-6.23zm0 3.5a2.729 2.729 0 1 0 2.729 2.729 2.732 2.732 0 0 0 -2.733-2.73zm-82.183 11.669a1.751 1.751 0 0 1 -.462-1.321l.655-8.708 1.347-17.913a1.75 1.75 0 0 1 1.745-1.619h2.457v-1.838a6.917 6.917 0 1 1 13.833 0v1.837h2.457a1.75 1.75 0 0 1 1.745 1.619l1.347 17.913.655 8.708a1.749 1.749 0 0 1 -1.745 1.881h-22.751a1.753 1.753 0 0 1 -1.283-.559zm22.146-2.94-.388-5.209h-18.2l-.392 5.208zm-12.9-26.621h6.833v-1.838a3.417 3.417 0 1 0 -6.833 0zm-5.421 17.912h17.666l-1.083-14.413h-15.5z" fill="url(#linear-gradient)"/></g></svg>