<svg height="512" viewBox="0 0 128 128" width="512" xmlns="http://www.w3.org/2000/svg" xmlns:xlink="http://www.w3.org/1999/xlink"><linearGradient id="linear-gradient" gradientUnits="userSpaceOnUse" x1="109.264" x2="18.736" y1="109.264" y2="18.736"><stop offset="0" stop-color="#ccc"/><stop offset="1" stop-color="#333"/></linearGradient><g id="Layer_2" data-name="Layer 2"><path d="m123.161 73.193a5.49 5.49 0 0 0 -.984 4.961l1.281 4.389a8.926 8.926 0 0 1 -4.306 10.39l-4.009 2.2a5.481 5.481 0 0 0 -2.813 4.2l-.5 4.555a8.925 8.925 0 0 1 -7.941 7.941l-4.555.5a5.484 5.484 0 0 0 -4.2 2.814l-2.2 4.008a8.924 8.924 0 0 1 -10.389 4.306l-4.391-1.28a5.485 5.485 0 0 0 -4.959.983l-3.58 2.868a8.928 8.928 0 0 1 -11.227 0l-3.58-2.868a5.494 5.494 0 0 0 -4.961-.984l-4.389 1.281a8.924 8.924 0 0 1 -10.39-4.306l-2.2-4.009a5.481 5.481 0 0 0 -4.2-2.813l-4.555-.5a8.925 8.925 0 0 1 -7.941-7.941l-.5-4.555a5.484 5.484 0 0 0 -2.814-4.2l-4.008-2.2a9.035 9.035 0 0 1 -4.308-10.39l1.28-4.391a5.482 5.482 0 0 0 -.983-4.959l-2.868-3.58a8.927 8.927 0 0 1 0-11.227l2.868-3.58a5.49 5.49 0 0 0 .984-4.961l-1.281-4.388a8.926 8.926 0 0 1 4.306-10.39l4.009-2.2a5.481 5.481 0 0 0 2.813-4.2l.5-4.555a8.925 8.925 0 0 1 7.941-7.941l4.555-.5a5.484 5.484 0 0 0 4.2-2.814l2.2-4.008a9.032 9.032 0 0 1 10.391-4.307l4.391 1.28a5.492 5.492 0 0 0 4.959-.983l3.58-2.868a8.93 8.93 0 0 1 11.227 0l3.58 2.868a5.489 5.489 0 0 0 4.961.984l4.389-1.281a8.923 8.923 0 0 1 10.39 4.306l2.2 4.009a5.481 5.481 0 0 0 4.2 2.813l4.555.5a8.925 8.925 0 0 1 7.941 7.941l.5 4.555a1.75 1.75 0 1 1 -3.479.383l-.5-4.555a5.447 5.447 0 0 0 -4.851-4.844l-4.555-.5a8.982 8.982 0 0 1 -6.892-4.61l-2.2-4.009a5.452 5.452 0 0 0 -6.33-2.631l-4.39 1.281a9 9 0 0 1 -8.128-1.611l-3.579-2.87a5.446 5.446 0 0 0 -6.852 0l-3.58 2.868a8.981 8.981 0 0 1 -8.127 1.61l-4.39-1.278a5.519 5.519 0 0 0 -6.338 2.628l-2.2 4.008a8.988 8.988 0 0 1 -6.891 4.611l-4.556.5a5.447 5.447 0 0 0 -4.842 4.853l-.5 4.555a8.982 8.982 0 0 1 -4.61 6.892l-4.009 2.2a5.446 5.446 0 0 0 -2.631 6.33l1.281 4.39a8.991 8.991 0 0 1 -1.611 8.128l-2.87 3.579a5.447 5.447 0 0 0 0 6.852l2.868 3.58a8.986 8.986 0 0 1 1.61 8.127l-1.278 4.39a5.512 5.512 0 0 0 2.628 6.338l4.008 2.2a8.988 8.988 0 0 1 4.611 6.891l.5 4.556a5.447 5.447 0 0 0 4.853 4.842l4.555.5a8.982 8.982 0 0 1 6.892 4.61l2.2 4.009a5.453 5.453 0 0 0 6.339 2.628l4.39-1.281a8.989 8.989 0 0 1 8.128 1.611l3.58 2.868a5.442 5.442 0 0 0 6.852 0l3.58-2.868a8.982 8.982 0 0 1 8.127-1.61l4.391 1.28a5.449 5.449 0 0 0 6.338-2.628l2.2-4.008a8.988 8.988 0 0 1 6.891-4.611l4.556-.5a5.447 5.447 0 0 0 4.846-4.846l.5-4.555a8.982 8.982 0 0 1 4.61-6.892l4.009-2.2a5.446 5.446 0 0 0 2.628-6.339l-1.281-4.39a8.991 8.991 0 0 1 1.611-8.128l2.868-3.58a5.447 5.447 0 0 0 0-6.852l-2.868-3.58a8.986 8.986 0 0 1 -1.61-8.127l1.28-4.391a5.512 5.512 0 0 0 -2.628-6.338 1.75 1.75 0 0 1 1.682-3.07 9.035 9.035 0 0 1 4.306 10.389l-1.28 4.391a5.482 5.482 0 0 0 .983 4.959l2.868 3.58a8.927 8.927 0 0 1 0 11.227zm-59.585-3.763-4.1 4.1a1.75 1.75 0 1 0 2.475 2.475l4.1-4.1a1.75 1.75 0 1 0 -2.475-2.475zm8.115-5.641a1.749 1.749 0 0 0 2.475 0l19.874-19.874a1.749 1.749 0 0 0 0-2.475l-7.481-7.48a1.749 1.749 0 0 0 -2.475 0l-50.124 50.125a1.749 1.749 0 0 0 0 2.475l7.481 7.48a1.749 1.749 0 0 0 2.475 0l9.917-9.918a1.75 1.75 0 0 0 -2.475-2.475l-8.68 8.681-5.007-5.006 47.649-47.65 5.007 5.006-18.636 18.636a1.749 1.749 0 0 0 0 2.475zm-40.191-20.989a11.3 11.3 0 1 1 11.3 11.3 11.317 11.317 0 0 1 -11.3-11.3zm3.5 0a7.8 7.8 0 1 0 7.8-7.8 7.813 7.813 0 0 0 -7.8 7.8zm38.893 42.4a11.3 11.3 0 1 1 11.307 11.3 11.317 11.317 0 0 1 -11.307-11.3zm3.5 0a7.8 7.8 0 1 0 7.8-7.8 7.813 7.813 0 0 0 -7.8 7.8z" fill="url(#linear-gradient)"/></g></svg>