<svg height="512" viewBox="0 0 128 128" width="512" xmlns="http://www.w3.org/2000/svg" xmlns:xlink="http://www.w3.org/1999/xlink"><linearGradient id="linear-gradient" gradientUnits="userSpaceOnUse" x1="117.252" x2="10.268" y1="107.071" y2=".087"><stop offset="0" stop-color="#ccc"/><stop offset="1" stop-color="#333"/></linearGradient><g id="Layer_2" data-name="Layer 2"><path d="m126.247 75.06h-7.139l8.858-46.818a1.75 1.75 0 0 0 -1.72-2.075h-40.072l6.618-12.339a1.75 1.75 0 0 0 -1.542-2.578h-16.75a1.75 1.75 0 0 0 -1.56.958l-7.091 13.959h-36.714l-1.727-5.667a15.664 15.664 0 0 0 -15.066-11.167h-10.595a1.75 1.75 0 0 0 -1.747 1.75v8a1.75 1.75 0 0 0 1.75 1.75h10.592a4.228 4.228 0 0 1 4.066 3.012l14.62 48.01a21.03 21.03 0 0 0 1.27 3.2h-1.148a15.137 15.137 0 1 0 0 30.274h5.6v.959a12.3 12.3 0 0 0 .973 4.817 1.75 1.75 0 1 0 3.224-1.363 8.816 8.816 0 0 1 -.7-3.454v-.959h17.753v.959a8.883 8.883 0 0 1 -8.874 8.874 1.75 1.75 0 1 0 0 3.5 12.388 12.388 0 0 0 12.374-12.369v-.959h19.56v.959a12.374 12.374 0 0 0 24.748 0v-.959h12.46a1.75 1.75 0 0 0 1.75-1.75v-8a1.75 1.75 0 0 0 -1.75-1.75h-87.118a3.637 3.637 0 1 1 0-7.274h95.1a1.75 1.75 0 0 0 1.75-1.75v-8a1.75 1.75 0 0 0 -1.753-1.75zm-96.047-45.393h33.871l-3.131 6.163a1.75 1.75 0 0 0 1.56 2.542h13.658l-12.838 24.828a1.749 1.749 0 0 0 -.124.313c-.011.038-.015.076-.024.114a1.731 1.731 0 0 0 -.037.208v.134a1.749 1.749 0 0 0 0 .189c0 .046.012.091.02.136a1.736 1.736 0 0 0 .039.181c.012.044.027.087.043.13a1.758 1.758 0 0 0 .073.17c.02.042.042.082.066.122a1.723 1.723 0 0 0 .1.152c.029.038.057.076.089.112a1.746 1.746 0 0 0 .132.13c.036.033.071.067.11.1.012.01.022.021.035.03s.037.016.054.027a1.107 1.107 0 0 0 .394.2c.024.008.046.02.07.028a1.723 1.723 0 0 0 .47.073c.014 0 .027.006.041.006.032 0 .063-.007.094-.009a1.742 1.742 0 0 0 .18-.018c.052-.008.1-.02.154-.033a1.758 1.758 0 0 0 .171-.051c.05-.018.1-.04.146-.063a1.738 1.738 0 0 0 .161-.086c.044-.027.086-.056.128-.087a1.713 1.713 0 0 0 .151-.124c.019-.017.04-.03.058-.048l12.172-12.286a1.75 1.75 0 0 0 -2.486-2.463l-4.113 4.151 8.9-17.212a1.75 1.75 0 0 0 -1.554-2.554h-13.681l10.222-20.122h12.752l-6.618 12.339a1.75 1.75 0 0 0 1.542 2.577h13.178l-1.422 1.434a1.75 1.75 0 1 0 2.486 2.463l3.862-3.9h22.78l-8.588 45.397h-64.668a9.2 9.2 0 0 1 -8.849-6.56zm72.1 76.626a8.874 8.874 0 0 1 -17.748 0v-.959h17.748zm22.2-23.233h-93.35a7.137 7.137 0 1 0 0 14.274h85.365v4.5h-85.365a11.637 11.637 0 1 1 0-23.274h4.22a1.75 1.75 0 0 0 1.43-2.76 17.415 17.415 0 0 1 -2.424-4.967l-14.62-48.007a7.709 7.709 0 0 0 -7.414-5.492h-8.842v-4.5h8.845a12.183 12.183 0 0 1 11.715 8.681l14.621 48.01a12.682 12.682 0 0 0 12.2 9.035h73.619zm-41.67-37.182a1.749 1.749 0 0 1 -.012-2.475l5.17-5.218a1.75 1.75 0 1 1 2.486 2.463l-5.174 5.218a1.749 1.749 0 0 1 -2.475.012z" fill="url(#linear-gradient)"/></g></svg>