<svg xmlns="http://www.w3.org/2000/svg" xmlns:xlink="http://www.w3.org/1999/xlink" viewBox="0 0 128 128" width="512" height="512"><defs><linearGradient id="linear-gradient" x1="115.102" y1="120.463" x2="12.919" y2="18.279" gradientUnits="userSpaceOnUse"><stop offset="0" stop-color="#ccc"/><stop offset="1" stop-color="#333"/></linearGradient></defs><g id="Layer_2" data-name="Layer 2"><path d="M122.247,29.926H108.975A12.376,12.376,0,0,0,94.984,9.89L75.167,19.454A5.751,5.751,0,0,0,70,16.211H58a5.751,5.751,0,0,0-5.168,3.246L33.01,9.89a1.75,1.75,0,1,0-1.521,3.152L52.244,23.06v6.866H27.627a8.893,8.893,0,0,1-8.883-8.884,8.728,8.728,0,0,1,2.105-5.753,1.75,1.75,0,0,0-2.658-2.275,12.178,12.178,0,0,0-2.947,8.028,12.341,12.341,0,0,0,3.775,8.884H5.747A5.756,5.756,0,0,0,0,35.676v9.456a5.756,5.756,0,0,0,5.75,5.75h2.67V73.31c0,.02-.006.038-.006.058v20c0,.02.005.038.006.058V113.6a5.756,5.756,0,0,0,5.75,5.75h99.666a5.756,5.756,0,0,0,5.75-5.75V50.882h2.664a5.756,5.756,0,0,0,5.75-5.75V35.676A5.756,5.756,0,0,0,122.247,29.926ZM96.506,13.042a8.883,8.883,0,1,1,3.861,16.884H75.75V23.06ZM55.75,21.961A2.253,2.253,0,0,1,58,19.711H70a2.253,2.253,0,0,1,2.25,2.25v7.965H55.75ZM11.911,75.118H52.25v16.5H11.911ZM3.5,45.132V35.676a2.253,2.253,0,0,1,2.25-2.25h46.5V47.382H5.747A2.253,2.253,0,0,1,3.5,45.132Zm48.753,5.75V71.618H11.917V50.882ZM11.917,113.6V95.118H52.25v20.735H14.167A2.253,2.253,0,0,1,11.917,113.6ZM55.75,93.368V33.426h16.5v82.428H55.75ZM116.083,113.6a2.253,2.253,0,0,1-2.25,2.25H75.75V95.118h40.333Zm0-41.985H108.5a1.75,1.75,0,0,0,0,3.5h7.583v16.5H75.75v-16.5h7.917a1.75,1.75,0,0,0,0-3.5H75.75V50.882h40.333ZM124.5,45.132a2.253,2.253,0,0,1-2.25,2.25H75.75V33.426h46.5a2.253,2.253,0,0,1,2.25,2.25ZM92.583,73.368a1.75,1.75,0,0,1,1.75-1.75h3.5a1.75,1.75,0,0,1,0,3.5h-3.5A1.75,1.75,0,0,1,92.583,73.368Z" style="fill:url(#linear-gradient)"/></g></svg>