<svg height="512" viewBox="0 0 128 128" width="512" xmlns="http://www.w3.org/2000/svg" xmlns:xlink="http://www.w3.org/1999/xlink"><linearGradient id="linear-gradient" gradientUnits="userSpaceOnUse" x1="114.369" x2="13.628" y1="114.371" y2="13.629"><stop offset="0" stop-color="#ccc"/><stop offset="1" stop-color="#333"/></linearGradient><g id="Layer_2" data-name="Layer 2"><path d="m96.48 39.1a1.75 1.75 0 0 1 1.75-1.75h6.437a1.75 1.75 0 0 1 0 3.5h-6.437a1.75 1.75 0 0 1 -1.75-1.75zm31.52 0v.029 59.246a5.732 5.732 0 0 1 -5.725 5.725h-116.55a5.732 5.732 0 0 1 -5.725-5.725v-59.243c0-.01 0-.019 0-.029v-9.454a5.755 5.755 0 0 1 5.725-5.749h116.547a5.755 5.755 0 0 1 5.728 5.749zm-3.5 59.272v-57.519h-7.164a1.75 1.75 0 0 1 0-3.5h7.164v-7.728a2.22 2.22 0 0 0 -.043-.43 2.254 2.254 0 0 0 -2.2-1.8h-116.51a2.254 2.254 0 0 0 -2.2 1.8 2.22 2.22 0 0 0 -.043.43v7.729h82.059a1.75 1.75 0 0 1 0 3.5h-82.063v57.521a2.227 2.227 0 0 0 2.225 2.225h116.547a2.227 2.227 0 0 0 2.228-2.225zm-8.685-41.393a9.625 9.625 0 1 1 -9.625-9.625 9.636 9.636 0 0 1 9.622 9.628zm-3.5 0a6.125 6.125 0 1 0 -6.125 6.125 6.132 6.132 0 0 0 6.122-6.122zm-90.5 13.932a9.636 9.636 0 0 0 -9.625 9.625 1.75 1.75 0 0 0 3.5 0 6.125 6.125 0 1 1 6.125 6.125 1.75 1.75 0 0 0 0 3.5 9.625 9.625 0 1 0 0-19.25zm37.749 9.625a9.625 9.625 0 1 1 -9.625-9.625 9.636 9.636 0 0 1 9.625 9.628zm-3.5 0a6.125 6.125 0 1 0 -6.125 6.125 6.132 6.132 0 0 0 6.125-6.122zm31.624 0a9.625 9.625 0 1 1 -9.625-9.625 9.636 9.636 0 0 1 9.625 9.628zm-3.5 0a6.125 6.125 0 1 0 -6.125 6.125 6.132 6.132 0 0 0 6.125-6.122zm31.624 0a9.625 9.625 0 1 1 -9.625-9.625 9.636 9.636 0 0 1 9.625 9.628zm-3.5 0a6.125 6.125 0 1 0 -6.125 6.125 6.132 6.132 0 0 0 6.125-6.122zm-99.312-24.086a1.751 1.751 0 0 1 .929-2.857l4.187-.957 2.2-3.686a1.75 1.75 0 0 1 3 0l2.2 3.686 4.188.957a1.751 1.751 0 0 1 .929 2.857l-2.826 3.234.393 4.276a1.75 1.75 0 0 1 -2.431 1.766l-3.954-1.686-3.948 1.687a1.75 1.75 0 0 1 -2.431-1.766l.385-4.276zm4.562-.1 1.392 1.592a1.752 1.752 0 0 1 .425 1.308l-.189 2.1 1.943-.83a1.751 1.751 0 0 1 1.375 0l1.944.831-.189-2.105a1.752 1.752 0 0 1 .425-1.308l1.392-1.592-2.062-.471a1.75 1.75 0 0 1 -1.112-.808l-1.085-1.814-1.084 1.814a1.749 1.749 0 0 1 -1.112.809zm23.562.1a1.751 1.751 0 0 1 .929-2.857l4.187-.957 2.2-3.686a1.75 1.75 0 0 1 3 0l2.2 3.686 4.187.957a1.751 1.751 0 0 1 .929 2.857l-2.825 3.234.385 4.277a1.75 1.75 0 0 1 -2.431 1.766l-3.946-1.687-3.949 1.687a1.751 1.751 0 0 1 -2.43-1.767l.385-4.277zm4.563-.1 1.391 1.592a1.753 1.753 0 0 1 .425 1.308l-.189 2.105 1.944-.831a1.751 1.751 0 0 1 1.375 0l1.944.831-.189-2.105a1.753 1.753 0 0 1 .425-1.308l1.387-1.59-2.061-.471a1.75 1.75 0 0 1 -1.112-.808l-1.085-1.815-1.085 1.815a1.75 1.75 0 0 1 -1.112.808zm23.562.1a1.751 1.751 0 0 1 .929-2.857l4.187-.957 2.2-3.686a1.75 1.75 0 0 1 3 0l2.2 3.686 4.187.957a1.751 1.751 0 0 1 .929 2.857l-2.825 3.234.385 4.277a1.75 1.75 0 0 1 -2.431 1.766l-3.947-1.687-3.949 1.687a1.751 1.751 0 0 1 -2.431-1.766l.385-4.277zm4.563-.1 1.388 1.594a1.753 1.753 0 0 1 .425 1.308l-.189 2.105 1.944-.831a1.751 1.751 0 0 1 1.375 0l1.944.831-.189-2.105a1.753 1.753 0 0 1 .425-1.308l1.391-1.592-2.061-.471a1.75 1.75 0 0 1 -1.112-.808l-1.085-1.815-1.085 1.815a1.75 1.75 0 0 1 -1.112.808z" fill="url(#linear-gradient)"/></g></svg>