<svg width="9" height="13" viewBox="0 0 9 13" fill="none" xmlns="http://www.w3.org/2000/svg">
<path fill-rule="evenodd" clip-rule="evenodd" d="M1.00056 6.50143C0.995548 6.61839 1.03912 6.73717 1.13627 6.82706C1.1583 6.84679 1.19035 6.84128 1.21489 6.85596L7.18473 11.872C7.37152 12.0427 7.67349 12.0427 7.85978 11.872C8.04607 11.7014 8.04607 11.4244 7.85978 11.2538L2.20043 6.4996L7.86028 1.7454C8.04657 1.57478 8.04657 1.29777 7.86028 1.12762C7.67399 0.957462 7.37202 0.957462 7.18573 1.12762L1.21689 6.14141C1.19185 6.157 1.1583 6.1515 1.13627 6.17213C1.03711 6.26249 0.994546 6.38265 1.00056 6.50143Z" fill="#1991EB" stroke="#1991EB" stroke-width="0.5"/>
</svg>
