<svg width="21" height="21" viewBox="0 0 21 21" fill="none" xmlns="http://www.w3.org/2000/svg">
<path fill-rule="evenodd" clip-rule="evenodd" d="M19.3545 15.9277L17.9038 14.5385V9.15385C17.9038 5.84769 16.0595 3.08 12.8433 2.34769V1.61538C12.8433 0.721539 12.0898 0 11.1564 0C10.2231 0 9.4696 0.721539 9.4696 1.61538V2.34769C6.24212 3.08 4.40909 5.83692 4.40909 9.15385V14.5385L2.95841 15.9277C2.24993 16.6062 2.74474 17.7692 3.7456 17.7692H18.556C19.5681 17.7692 20.063 16.6062 19.3545 15.9277ZM6.65821 15.6154V9.15382C6.65821 6.48306 8.3563 4.30767 11.1564 4.30767C13.9566 4.30767 15.6547 6.48306 15.6547 9.15382V15.6154H6.65821ZM13.4056 18.8461C13.4056 20.0307 12.3935 21 11.1565 21C9.90819 21 8.90733 20.0307 8.90733 18.8461H13.4056Z" fill="#A8AAB7"/>
<mask id="mask0" mask-type="alpha" maskUnits="userSpaceOnUse" x="2" y="0" width="18" height="21">
<path fill-rule="evenodd" clip-rule="evenodd" d="M19.3545 15.9277L17.9038 14.5385V9.15385C17.9038 5.84769 16.0595 3.08 12.8433 2.34769V1.61538C12.8433 0.721539 12.0898 0 11.1564 0C10.2231 0 9.4696 0.721539 9.4696 1.61538V2.34769C6.24212 3.08 4.40909 5.83692 4.40909 9.15385V14.5385L2.95841 15.9277C2.24993 16.6062 2.74474 17.7692 3.7456 17.7692H18.556C19.5681 17.7692 20.063 16.6062 19.3545 15.9277ZM6.65821 15.6154V9.15382C6.65821 6.48306 8.3563 4.30767 11.1564 4.30767C13.9566 4.30767 15.6547 6.48306 15.6547 9.15382V15.6154H6.65821ZM13.4056 18.8461C13.4056 20.0307 12.3935 21 11.1565 21C9.90819 21 8.90733 20.0307 8.90733 18.8461H13.4056Z" fill="#A8AAB7"/>
</mask>

</svg>
