<svg width="18" height="21" viewBox="0 0 18 21" fill="none" xmlns="http://www.w3.org/2000/svg">
<path fill-rule="evenodd" clip-rule="evenodd" d="M17.3545 15.9277L15.9038 14.5385V9.15385C15.9038 5.84769 14.0595 3.08 10.8433 2.34769V1.61538C10.8433 0.721539 10.0898 0 9.15644 0C8.22306 0 7.4696 0.721539 7.4696 1.61538V2.34769C4.24212 3.08 2.40909 5.83692 2.40909 9.15385V14.5385L0.958406 15.9277C0.249934 16.6062 0.74474 17.7692 1.7456 17.7692H16.556C17.5681 17.7692 18.063 16.6062 17.3545 15.9277ZM4.65821 15.6154V9.15382C4.65821 6.48306 6.3563 4.30767 9.15645 4.30767C11.9566 4.30767 13.6547 6.48306 13.6547 9.15382V15.6154H4.65821ZM11.4056 18.8461C11.4056 20.0307 10.3935 21 9.15645 21C7.90819 21 6.90733 20.0307 6.90733 18.8461H11.4056Z" fill="#1991EB"/>
</svg>
