<svg width="16" height="15" viewBox="0 0 16 15" fill="none" xmlns="http://www.w3.org/2000/svg">
<path d="M15.3334 12.0653H13.5581C13.2694 11.1255 12.3869 10.4349 11.3334 10.4349C10.28 10.4349 9.39813 11.1255 9.10875 12.0653H0.666562C0.29875 12.0653 0 12.3572 0 12.7173C0 13.0774 0.29875 13.3694 0.666562 13.3694H9.10844C9.39719 14.3091 10.2797 14.9997 11.3331 14.9997C12.3866 14.9997 13.2684 14.3091 13.5578 13.3694H15.3331C15.7019 13.3694 15.9997 13.0771 15.9997 12.7173C15.9997 12.3575 15.7019 12.0653 15.3334 12.0653ZM11.3334 13.6956C10.7822 13.6956 10.3334 13.2566 10.3334 12.7173C10.3334 12.1781 10.7822 11.7391 11.3334 11.7391C11.8847 11.7391 12.3334 12.1781 12.3334 12.7173C12.3334 13.2566 11.8847 13.6956 11.3334 13.6956Z" fill="#1991EB"/>
<path d="M15.3334 1.63032H13.5581C13.2687 0.690586 12.3866 0 11.3334 0C10.2803 0 9.39813 0.690586 9.10875 1.63032H0.666562C0.29875 1.63032 0 1.92258 0 2.2827C0 2.64281 0.29875 2.93476 0.666562 2.93476H9.10844C9.39781 3.8745 10.2797 4.56508 11.3331 4.56508C12.3866 4.56508 13.2687 3.8745 13.5581 2.93476H15.3334C15.7022 2.93476 16 2.64251 16 2.2827C16 1.92288 15.7019 1.63032 15.3334 1.63032ZM11.3334 3.26095C10.7822 3.26095 10.3334 2.82196 10.3334 2.2827C10.3334 1.74343 10.7822 1.30444 11.3334 1.30444C11.8847 1.30444 12.3334 1.74343 12.3334 2.2827C12.3334 2.82196 11.8847 3.26095 11.3334 3.26095Z" fill="#1991EB"/>
<path d="M15.3334 6.84773H6.89125C6.60188 5.90799 5.72 5.21741 4.66656 5.21741C3.61313 5.21741 2.73125 5.90799 2.44187 6.84773H0.666562C0.29875 6.84773 0 7.13999 0 7.4998C0 7.85962 0.29875 8.15187 0.666562 8.15187H2.44187C2.73125 9.09191 3.61344 9.7825 4.66656 9.7825C5.71969 9.7825 6.60188 9.09191 6.89125 8.15218H15.3331C15.7019 8.15218 15.9997 7.85992 15.9997 7.50011C16 7.13999 15.7019 6.84773 15.3334 6.84773ZM4.66656 8.47806C4.11531 8.47806 3.66656 8.03906 3.66656 7.4998C3.66656 6.96054 4.11531 6.52154 4.66656 6.52154C5.21781 6.52154 5.66656 6.96054 5.66656 7.4998C5.66656 8.03906 5.21812 8.47806 4.66656 8.47806Z" fill="#1991EB"/>
</svg>
