<svg xmlns="http://www.w3.org/2000/svg" width="37" height="39" viewBox="0 0 37 39">
    <g fill="#FFA24C" fill-rule="nonzero" stroke="#FFA24C">
        <path d="M34.844 22.038a2.98 2.98 0 0 0 .52-2.485c-.362-1.512-1.49-1.944-1.573-1.985.056-.075.915-1.024.518-2.485a3.214 3.214 0 0 0-1.574-1.986 2.989 2.989 0 0 0 .519-2.484c-.378-1.599-1.98-2.592-3.565-2.213-.044.01-4.462 1.03-7.384 1.728a.364.364 0 0 1-.378-.13.374.374 0 0 1-.048-.404c.692-1.476 1.13-3.073 1.201-4.382.127-2.305-.837-3.351-1.67-3.824-.691-.392-1.456-.491-2.153-.278-.523.16-1.257.573-1.788 1.635-1.374 2.747-2.823 4.366-3.797 5.24a8.496 8.496 0 0 0-2.44 3.774l-.738 2.36L3.49 15.79C1.404 16.289.11 18.399.606 20.495L4.04 35.043A3.835 3.835 0 0 0 7.76 38c1.537 0 5.267-1.15 5.267-1.15a3.8 3.8 0 0 0 2.372-1.724 3.836 3.836 0 0 0 .465-2.906l-4.13-17.5.797-2.55a7.122 7.122 0 0 1 2.047-3.163c1.063-.954 2.638-2.708 4.108-5.646.248-.498.583-.823.968-.941.337-.103.723-.046 1.087.16 1.11.63 1.555 2.912-.094 6.43a1.745 1.745 0 0 0 .223 1.851 1.718 1.718 0 0 0 1.75.599c2.916-.696 7.33-1.715 7.379-1.727a1.608 1.608 0 0 1 1.93 1.196c.313 1.291-.773 1.842-1.19 1.942-.312.074-.573.401-.505.824.061.373.454.596.82.508a1.602 1.602 0 0 1 1.93 1.197 1.61 1.61 0 0 1-1.19 1.94c-.312.075-.582.368-.504.825.063.372.454.595.82.508a1.601 1.601 0 0 1 1.93 1.197c.099.418.03.85-.195 1.217a1.594 1.594 0 0 1-.995.723c-.313.075-.582.389-.505.825.066.372.454.595.82.507a1.605 1.605 0 0 1 1.93 1.197 1.614 1.614 0 0 1-1.19 1.94L17.65 30.162a.685.685 0 0 0-.505.824c.074.315.35.615.82.508l16.256-3.88a2.986 2.986 0 0 0 .624-5.575zM14.24 34.408a2.447 2.447 0 0 1-1.527 1.109l-4.384 1.046a2.464 2.464 0 0 1-2.965-1.836L1.93 20.179a2.541 2.541 0 0 1 1.873-3.056l6.72-1.604 4.017 17.017a2.47 2.47 0 0 1-.3 1.871z"/>
        <path d="M8.5 35c-1.654 0-3-1.346-3-3s1.346-3 3-3 3 1.346 3 3-1.346 3-3 3zm0-4.58c-.872 0-1.58.708-1.58 1.58 0 .872.708 1.58 1.58 1.58.872 0 1.58-.708 1.58-1.58 0-.872-.708-1.58-1.58-1.58z"/>
    </g>
</svg>
