<svg width="5" height="21" viewBox="0 0 5 21" fill="none" xmlns="http://www.w3.org/2000/svg">
<g id="menu copy 3">
<g id="UI/Color/Flat/Dark">
<path id="Mask" fill-rule="evenodd" clip-rule="evenodd" d="M2.5 5C3.88071 5 5 3.88071 5 2.5C5 1.11929 3.88071 0 2.5 0C1.11929 0 0 1.11929 0 2.5C0 3.88071 1.11929 5 2.5 5ZM2.5 13C3.88071 13 5 11.8807 5 10.5C5 9.11929 3.88071 8 2.5 8C1.11929 8 0 9.11929 0 10.5C0 11.8807 1.11929 13 2.5 13ZM5 18.5C5 19.8807 3.88071 21 2.5 21C1.11929 21 0 19.8807 0 18.5C0 17.1193 1.11929 16 2.5 16C3.88071 16 5 17.1193 5 18.5Z" fill="#E9EDF1"/>
<mask id="mask0" mask-type="alpha" maskUnits="userSpaceOnUse" x="0" y="0" width="5" height="21">
<path id="Mask_2" fill-rule="evenodd" clip-rule="evenodd" d="M2.5 5C3.88071 5 5 3.88071 5 2.5C5 1.11929 3.88071 0 2.5 0C1.11929 0 0 1.11929 0 2.5C0 3.88071 1.11929 5 2.5 5ZM2.5 13C3.88071 13 5 11.8807 5 10.5C5 9.11929 3.88071 8 2.5 8C1.11929 8 0 9.11929 0 10.5C0 11.8807 1.11929 13 2.5 13ZM5 18.5C5 19.8807 3.88071 21 2.5 21C1.11929 21 0 19.8807 0 18.5C0 17.1193 1.11929 16 2.5 16C3.88071 16 5 17.1193 5 18.5Z" fill="white"/>
</mask>
<g mask="url(#mask0)">
<g id="UI/Color/Flat/Primary Grey">
<rect id="Base" width="5" height="21" transform="matrix(-1 0 0 1 5 0)" fill="#354052"/>
</g>
</g>
</g>
</g>
</svg>
