<svg xmlns="http://www.w3.org/2000/svg" width="25" height="25" viewBox="0 0 25 25"><path fill="#D46240" fill-rule="evenodd" d="M25 25l-6.4-1.6a12.499 12.499 0 0 1-16.07-3.366A12.493 12.493 0 0 1 3.66 3.659a12.499 12.499 0 0 1 16.38-1.127 12.493 12.493 0 0 1 3.363 16.066L25 25zM19.349 5.622A9.712 9.712 0 0 0 5.937 5.3a9.708 9.708 0 0 0-.935 13.38 9.712 9.712 0 0 0 13.326 1.546l2.847.95-.949-2.849a9.699 9.699 0 0 0-.877-12.705zm-1.413 8.513a1.63 1.63 0 1 1 0-3.26 1.63 1.63 0 0 1 0 3.26zm-5.433 0a1.63 1.63 0 1 1 0-3.26 1.63 1.63 0 0 1 0 3.26zm-5.434 0a1.63 1.63 0 1 1 0-3.26 1.63 1.63 0 0 1 0 3.26z"/></svg>