<svg xmlns="http://www.w3.org/2000/svg" width="36" height="36" viewBox="0 0 36 36"><g fill="none" fill-rule="evenodd"><circle cx="18" cy="18" r="16.5" stroke="#FFF" stroke-width="3"/><path fill="#FFF" d="M27 27l-4.609-1.152a9 9 0 0 1-11.569-2.424 8.995 8.995 0 0 1 .814-11.79 9 9 0 0 1 11.793-.81 8.995 8.995 0 0 1 2.42 11.567L27 27zm-4.07-13.952a6.993 6.993 0 0 0-9.656-.232 6.99 6.99 0 0 0-.673 9.634 6.993 6.993 0 0 0 9.595 1.113l2.05.684-.683-2.051a6.983 6.983 0 0 0-.632-9.148zm-1.016 6.13a1.174 1.174 0 1 1 0-2.348 1.174 1.174 0 0 1 0 2.347zm-3.912 0a1.174 1.174 0 1 1 0-2.348 1.174 1.174 0 0 1 0 2.347zm-3.912 0a1.174 1.174 0 1 1 0-2.348 1.174 1.174 0 0 1 0 2.347z"/></g></svg>