<svg xmlns="http://www.w3.org/2000/svg" xmlns:xlink="http://www.w3.org/1999/xlink" width="19" height="19" viewBox="0 0 19 19"><defs><path id="a" d="M.041 9.5a9.459 9.459 0 1 0 18.918 0A9.459 9.459 0 0 0 .04 9.5z"/></defs><g fill="none" fill-rule="evenodd"><mask id="b" fill="#fff"><use xlink:href="#a"/></mask><path fill="#FFFFF7" d="M-2.303 21.385h23.606V-2.303H-2.303z" mask="url(#b)"/><path fill="#728EA6" fill-rule="nonzero" d="M9.5-.175c5.343 0 9.675 4.332 9.675 9.675 0 5.343-4.332 9.675-9.675 9.675-5.343 0-9.675-4.332-9.675-9.675 0-5.343 4.332-9.675 9.675-9.675zm0 .922a8.753 8.753 0 1 0 0 17.506A8.753 8.753 0 0 0 9.5.747z" mask="url(#b)"/><path fill="#142B3C" d="M5.346 9.84h8.371V8.719h-8.37z" mask="url(#b)"/></g></svg>