<svg xmlns="http://www.w3.org/2000/svg" width="36" height="36" viewBox="0 0 36 36"><g fill="#FFF" fill-rule="evenodd"><path fill-rule="nonzero" d="M18 33c8.284 0 15-6.716 15-15 0-8.284-6.716-15-15-15C9.716 3 3 9.716 3 18c0 8.284 6.716 15 15 15zm0 3C8.059 36 0 27.941 0 18S8.059 0 18 0s18 8.059 18 18-8.059 18-18 18z"/><path d="M26.77 18A8.771 8.771 0 0 1 18 26.77 8.771 8.771 0 0 1 9.23 18 8.771 8.771 0 0 1 18 9.23 8.771 8.771 0 0 1 26.77 18zm-1.95-.049c0-3.783-3.085-6.869-6.869-6.869-3.783 0-6.869 3.086-6.869 6.87 0 3.783 3.086 6.869 6.87 6.869 3.783 0 6.869-3.086 6.869-6.87zm-10.035-1.315h7.182v2.175h-7.182v-2.175z"/></g></svg>