<svg xmlns="http://www.w3.org/2000/svg" width="26" height="27" viewBox="0 0 26 27"><path d="M13.229 8.37h11.858a.72.72 0 1 0 0-1.44H13.23A3.683 3.683 0 0 0 9.617 4a3.683 3.683 0 0 0-3.613 2.93H.726a.72.72 0 1 0 0 1.44h5.278a3.683 3.683 0 0 0 3.613 2.93 3.681 3.681 0 0 0 3.612-2.93zm-5.843-.72c0-1.22 1-2.211 2.23-2.211 1.232 0 2.232.991 2.232 2.211 0 1.22-1 2.212-2.231 2.212a2.222 2.222 0 0 1-2.23-2.212zm5.198 10.28H.726a.72.72 0 1 0 0 1.44h11.858a3.683 3.683 0 0 0 3.612 2.93 3.683 3.683 0 0 0 3.613-2.93h5.278a.72.72 0 1 0 0-1.44H19.81A3.683 3.683 0 0 0 16.196 15a3.681 3.681 0 0 0-3.612 2.93zm5.843.72c0 1.22-1 2.212-2.23 2.212a2.222 2.222 0 0 1-2.231-2.212c0-1.22 1-2.211 2.23-2.211 1.231 0 2.231.991 2.231 2.211z" fill="#1A3D52" fill-rule="evenodd" stroke="#1A3D52"/></svg>