<svg xmlns="http://www.w3.org/2000/svg" width="22" height="24" viewBox="0 0 22 24"><path fill="#D46240" fill-rule="evenodd" d="M17.875 16c1.137 0 2.108.382 2.915 1.147C21.597 17.91 22 18.862 22 20c0 1.102-.403 2.044-1.21 2.827-.807.782-1.778 1.173-2.915 1.173s-2.108-.391-2.915-1.173c-.807-.783-1.21-1.725-1.21-2.827 0-.107.01-.231.028-.373.018-.143.027-.25.027-.32l-7.15-4.16c-.77.569-1.613.853-2.53.853-1.137 0-2.108-.391-2.915-1.173C.403 14.044 0 13.102 0 12c0-1.102.403-2.044 1.21-2.827C2.017 8.391 2.988 8 4.125 8c.99 0 1.833.267 2.53.8l7.15-4.16c0-.071-.01-.178-.027-.32A2.745 2.745 0 0 1 13.75 4c0-1.102.403-2.044 1.21-2.827C15.767.391 16.738 0 17.875 0s2.108.382 2.915 1.147C21.597 1.91 22 2.862 22 4c0 1.102-.403 2.044-1.21 2.827C19.983 7.609 19.012 8 17.875 8c-.953 0-1.778-.284-2.475-.853l-7.205 4.16c.037.142.055.373.055.693 0 .284-.018.498-.055.64L15.4 16.8c.66-.533 1.485-.8 2.475-.8z"/></svg>