<svg width="17" height="15" viewBox="0 0 17 15" fill="none" xmlns="http://www.w3.org/2000/svg">
<path fill-rule="evenodd" clip-rule="evenodd" d="M16.0999 0H0.692116C0.309871 0 0 0.309871 0 0.692117C0 1.07436 0.30987 1.38423 0.692116 1.38423H16.0999C16.4821 1.38423 16.792 1.07436 16.792 0.692117C16.792 0.309871 16.4821 0 16.0999 0ZM0.692116 4.61407H12.5523C12.9345 4.61407 13.2444 4.92394 13.2444 5.30619C13.2444 5.68843 12.9345 5.9983 12.5523 5.9983H0.692116C0.309871 5.9983 0 5.68843 0 5.30619C0 4.92394 0.309871 4.61407 0.692116 4.61407ZM9.12293 9.22826H0.692116C0.309871 9.22826 0 9.53813 0 9.92038C0 10.3026 0.309872 10.6125 0.692118 10.6125H9.12293C9.50518 10.6125 9.81505 10.3026 9.81505 9.92038C9.81505 9.53813 9.50518 9.22826 9.12293 9.22826ZM5.69358 13.6117H0.692116C0.309871 13.6117 0 13.9216 0 14.3038C0 14.686 0.309871 14.9959 0.692116 14.9959H5.69358C6.07582 14.9959 6.38569 14.686 6.38569 14.3038C6.38569 13.9216 6.07582 13.6117 5.69358 13.6117ZM14.9307 13.2735L16.1167 12.1166C16.3181 11.9179 16.6479 11.9179 16.8492 12.1166C17.0506 12.3153 17.0506 12.6347 16.8492 12.8311L14.7803 14.8492C14.7706 14.861 14.756 14.8728 14.7439 14.8823C14.7403 14.8847 14.7372 14.887 14.7342 14.8894C14.7312 14.8918 14.7281 14.8941 14.7245 14.8965C14.7172 14.9036 14.7099 14.9083 14.7027 14.9131L14.6808 14.9272C14.6772 14.9296 14.6736 14.9314 14.6699 14.9332C14.6663 14.9349 14.6627 14.9367 14.659 14.9391C14.6554 14.9414 14.6511 14.9432 14.6469 14.945C14.6426 14.9468 14.6384 14.9485 14.6348 14.9509C14.6311 14.9521 14.6275 14.9539 14.6238 14.9556C14.6202 14.9574 14.6166 14.9592 14.6129 14.9604C14.6032 14.9651 14.5959 14.9675 14.5887 14.9698C14.5828 14.9737 14.5753 14.9759 14.5689 14.9779C14.5673 14.9784 14.5658 14.9788 14.5644 14.9793C14.5547 14.9793 14.5474 14.9817 14.5402 14.984C14.5353 14.9852 14.5311 14.9864 14.5268 14.9876C14.5226 14.9888 14.5183 14.9899 14.5135 14.9911C14.5096 14.9924 14.5051 14.993 14.5002 14.9936C14.4959 14.9942 14.4914 14.9948 14.4868 14.9959C14.4832 14.9959 14.4795 14.9965 14.4759 14.997C14.4722 14.9976 14.4686 14.9982 14.465 14.9982C14.431 15.0006 14.3971 15.0006 14.3631 14.9982C14.3595 14.9982 14.3558 14.9976 14.3522 14.997C14.3485 14.9965 14.3449 14.9959 14.3413 14.9959C14.3374 14.9946 14.3329 14.994 14.328 14.9934C14.3237 14.9928 14.3191 14.9922 14.3146 14.9911C14.3097 14.9899 14.3055 14.9888 14.3013 14.9876C14.297 14.9864 14.2928 14.9852 14.2879 14.984C14.2782 14.984 14.2709 14.9817 14.2637 14.9793C14.2578 14.9755 14.2503 14.9732 14.2438 14.9712C14.2423 14.9707 14.2408 14.9703 14.2394 14.9698C14.2297 14.9651 14.2224 14.9627 14.2151 14.9604C14.2115 14.9592 14.2079 14.9574 14.2042 14.9556C14.2006 14.9539 14.197 14.9521 14.1933 14.9509C14.1899 14.9492 14.1867 14.9479 14.1838 14.9466C14.1785 14.9442 14.1738 14.9421 14.1691 14.9391C14.1618 14.9367 14.1545 14.932 14.1472 14.9272L14.1254 14.9131C14.1218 14.9107 14.1181 14.9077 14.1145 14.9048C14.1108 14.9018 14.1072 14.8989 14.1036 14.8965C14.0963 14.8918 14.089 14.887 14.0842 14.8823C14.0696 14.8728 14.0575 14.861 14.0454 14.8492L11.9764 12.8311C11.7751 12.6324 11.7727 12.313 11.9764 12.1166C12.1801 11.9202 12.5076 11.9202 12.7089 12.1166L13.895 13.2735V7.42509C13.895 7.14829 14.1278 6.92117 14.414 6.92117C14.6978 6.92117 14.9307 7.14829 14.9307 7.42509V13.2735Z" fill="#A4A5B0"/>
</svg>
