<svg width="25" height="25" viewBox="0 0 25 25" fill="none" xmlns="http://www.w3.org/2000/svg">
<rect width="25" height="25" rx="12.5" fill="#6C8793"/>
<path d="M12.5 6.25C8.35742 6.25 5 8.97754 5 12.3438C5 13.7969 5.62695 15.127 6.66992 16.1729C6.30371 17.6494 5.0791 18.9648 5.06445 18.9795C5 19.0469 4.98242 19.1465 5.02051 19.2344C5.05859 19.3223 5.14062 19.375 5.23438 19.375C7.17676 19.375 8.63281 18.4434 9.35352 17.8691C10.3115 18.2295 11.375 18.4375 12.5 18.4375C16.6426 18.4375 20 15.71 20 12.3438C20 8.97754 16.6426 6.25 12.5 6.25ZM8.75 13.2812C8.23145 13.2812 7.8125 12.8623 7.8125 12.3438C7.8125 11.8252 8.23145 11.4062 8.75 11.4062C9.26855 11.4062 9.6875 11.8252 9.6875 12.3438C9.6875 12.8623 9.26855 13.2812 8.75 13.2812ZM12.5 13.2812C11.9814 13.2812 11.5625 12.8623 11.5625 12.3438C11.5625 11.8252 11.9814 11.4062 12.5 11.4062C13.0186 11.4062 13.4375 11.8252 13.4375 12.3438C13.4375 12.8623 13.0186 13.2812 12.5 13.2812ZM16.25 13.2812C15.7314 13.2812 15.3125 12.8623 15.3125 12.3438C15.3125 11.8252 15.7314 11.4062 16.25 11.4062C16.7686 11.4062 17.1875 11.8252 17.1875 12.3438C17.1875 12.8623 16.7686 13.2812 16.25 13.2812Z" fill="#F2F2FA"/>
</svg>
