<svg width="25" height="25" viewBox="0 0 25 25" fill="none" xmlns="http://www.w3.org/2000/svg">
<path d="M12.5 1.52588e-05C5.59476 1.52588e-05 0 5.59477 0 12.5C0 19.4052 5.59476 25 12.5 25C19.4052 25 25 19.4052 25 12.5C25 5.59477 19.4052 1.52588e-05 12.5 1.52588e-05ZM13.5131 9.98489C13.7147 8.71473 15.2369 7.86291 16.5323 7.86291C17.8276 7.86291 19.3498 8.71473 19.5514 9.98489C19.6371 10.5444 18.9768 10.9073 18.5534 10.5292L18.0746 10.1008C17.3286 9.43549 15.746 9.43549 15 10.1008L14.5161 10.5343C14.0927 10.9073 13.4274 10.5494 13.5131 9.98489ZM8.46774 7.6613C9.35987 7.6613 10.0806 8.38207 10.0806 9.2742C10.0806 10.1663 9.35987 10.8871 8.46774 10.8871C7.5756 10.8871 6.85484 10.1663 6.85484 9.2742C6.85484 8.38207 7.5756 7.6613 8.46774 7.6613ZM20.1058 15.0202C19.6572 18.5988 16.6028 21.371 12.9032 21.371H12.0968C8.39717 21.371 5.34274 18.5988 4.89415 15.0202C4.83367 14.5413 5.21169 14.1129 5.69556 14.1129H19.3044C19.7883 14.1129 20.1663 14.5363 20.1058 15.0202Z" fill="#20AC9B"/>
</svg>
