<svg width="75" height="75" viewBox="0 0 75 75" fill="none" xmlns="http://www.w3.org/2000/svg">
<path d="M72.8555 10.2532C71.7522 9.14794 69.962 9.14603 68.8587 10.2485L34.9486 44.0691L22.7139 30.781C21.6567 29.6335 19.8693 29.5591 18.7198 30.6161C17.5713 31.6733 17.4977 33.4616 18.5549 34.6101L32.7823 50.0615C33.3034 50.6278 34.0326 50.9566 34.8015 50.9726C34.8221 50.9735 34.8421 50.9735 34.8618 50.9735C35.6091 50.9735 36.3279 50.6767 36.8574 50.1491L72.8499 14.2509C73.956 13.1486 73.9579 11.3584 72.8555 10.2532Z" fill="#F73A18"/>
<path d="M72.1733 34.6733C70.6121 34.6733 69.3467 35.9386 69.3467 37.5C69.3467 55.061 55.061 69.3467 37.5 69.3467C19.94 69.3467 5.65327 55.061 5.65327 37.5C5.65327 19.94 19.94 5.65327 37.5 5.65327C39.0612 5.65327 40.3267 4.38794 40.3267 2.82671C40.3267 1.26533 39.0612 0 37.5 0C16.8223 0 0 16.8223 0 37.5C0 58.1769 16.8223 75 37.5 75C58.1769 75 75 58.1769 75 37.5C75 35.9388 73.7347 34.6733 72.1733 34.6733Z" fill="black"/>
</svg>
