<svg width="15" height="15" viewBox="0 0 15 15" fill="none" xmlns="http://www.w3.org/2000/svg">
<g clip-path="url(#clip0)">
<path d="M11.1633 7.28408L4.28841 0.0966598C4.19991 0.00449309 4.06441 -0.0254186 3.946 0.0228034C3.82758 0.0701172 3.75006 0.185164 3.75006 0.312721V1.56271C3.75006 1.64266 3.78059 1.71957 3.83552 1.77755L9.25721 7.50011L3.83555 13.2227C3.78062 13.2807 3.75009 13.3576 3.75009 13.4375V14.6875C3.75009 14.8151 3.82761 14.9301 3.94603 14.9775C3.98388 14.9927 4.02354 15 4.0626 15C4.14621 15 4.228 14.9665 4.28841 14.9036L11.1633 7.71621C11.2787 7.59536 11.2787 7.40493 11.1633 7.28408Z" fill="white"/>
</g>
<defs>
<clipPath id="clip0">
<rect width="15" height="15" fill="white"/>
</clipPath>
</defs>
</svg>
