<svg width="20" height="16" viewBox="0 0 20 16" fill="none" xmlns="http://www.w3.org/2000/svg">
<path d="M12.5 10H16.3889C16.5417 10 16.6667 9.875 16.6667 9.72222V9.16667C16.6667 9.01389 16.5417 8.88889 16.3889 8.88889H12.5C12.3472 8.88889 12.2222 9.01389 12.2222 9.16667V9.72222C12.2222 9.875 12.3472 10 12.5 10ZM12.5 7.77778H16.3889C16.5417 7.77778 16.6667 7.65278 16.6667 7.5V6.94445C16.6667 6.79167 16.5417 6.66667 16.3889 6.66667H12.5C12.3472 6.66667 12.2222 6.79167 12.2222 6.94445V7.5C12.2222 7.65278 12.3472 7.77778 12.5 7.77778ZM12.5 12.2222H16.3889C16.5417 12.2222 16.6667 12.0972 16.6667 11.9444V11.3889C16.6667 11.2361 16.5417 11.1111 16.3889 11.1111H12.5C12.3472 11.1111 12.2222 11.2361 12.2222 11.3889V11.9444C12.2222 12.0972 12.3472 12.2222 12.5 12.2222ZM6.66667 11.1111C8.20139 11.1111 9.44444 9.86806 9.44444 8.33333C9.44444 6.79861 8.20139 5.55556 6.66667 5.55556C5.13194 5.55556 3.88889 6.79861 3.88889 8.33333C3.88889 9.86806 5.13194 11.1111 6.66667 11.1111ZM6.66667 6.66667C7.58681 6.66667 8.33333 7.4132 8.33333 8.33333C8.33333 9.25347 7.58681 10 6.66667 10C5.74653 10 5 9.25347 5 8.33333C5 7.4132 5.74653 6.66667 6.66667 6.66667ZM17.7778 0H2.22222C0.996528 0 0 0.996528 0 2.22222V13.3333C0 14.559 0.996528 15.5556 2.22222 15.5556H17.7778C19.0035 15.5556 20 14.559 20 13.3333V2.22222C20 0.996528 19.0035 0 17.7778 0ZM9.44444 14.4444H3.88889V13.9201C3.88889 13.6771 3.96181 13.441 4.09722 13.2396C4.29167 12.9514 4.64583 12.7813 5.04514 12.7813C5.47569 12.7813 5.76736 13.0243 6.67014 13.0243C7.56945 13.0243 7.86111 12.7813 8.29514 12.7813C8.69444 12.7813 9.04861 12.9549 9.24306 13.2396C9.37847 13.441 9.45139 13.6771 9.45139 13.9201V14.4444H9.44444ZM18.8889 13.3333C18.8889 13.9444 18.3889 14.4444 17.7778 14.4444H10.5556V13.9201C10.5556 13.4375 10.4097 12.9896 10.1597 12.6181C9.73958 11.9965 9.02431 11.6667 8.29167 11.6667C7.61458 11.6667 7.44444 11.9097 6.66667 11.9097C5.88889 11.9097 5.71875 11.6667 5.04167 11.6667C4.30556 11.6667 3.59028 11.9931 3.17361 12.6181C2.92361 12.9896 2.77778 13.4375 2.77778 13.9201V14.4444H2.22222C1.61111 14.4444 1.11111 13.9444 1.11111 13.3333V4.44445H18.8889V13.3333ZM18.8889 3.33333H1.11111V2.22222C1.11111 1.61111 1.61111 1.11111 2.22222 1.11111H17.7778C18.3889 1.11111 18.8889 1.61111 18.8889 2.22222V3.33333Z" fill="#234D60"/>
</svg>
