<svg width="20" height="16" viewBox="0 0 20 16" fill="none" xmlns="http://www.w3.org/2000/svg">
<path d="M19.9063 15.1641L0.718824 0.0547076C0.667055 0.013334 0.600977 -0.00579215 0.535113 0.00153262C0.469249 0.0088574 0.408987 0.0420337 0.367574 0.0937701L0.0550737 0.484708C0.013665 0.536438 -0.00551338 0.602491 0.00175257 0.668353C0.00901851 0.734216 0.0421344 0.7945 0.0938237 0.835959L19.2813 15.9454C19.307 15.9659 19.3364 15.9812 19.368 15.9903C19.3995 15.9995 19.4325 16.0023 19.4652 15.9987C19.4978 15.9951 19.5295 15.985 19.5582 15.9692C19.587 15.9533 19.6124 15.932 19.6329 15.9063L19.9454 15.5154C19.9868 15.4636 20.0059 15.3975 19.9986 15.3316C19.9912 15.2658 19.9581 15.2055 19.9063 15.1641ZM10.0001 3.00002C11.0606 3.00118 12.0773 3.42298 12.8272 4.17288C13.5771 4.92277 13.9989 5.93952 14.0001 7.00003C14.0001 7.67566 13.8157 8.30285 13.5188 8.8616L14.3141 9.4866C14.7391 8.75285 15.0001 7.91066 15.0001 7.00003C15.0001 5.84909 14.5966 4.80284 13.9444 3.95846C15.6918 4.84057 17.1128 6.25614 18.0016 8.00003C17.4704 9.03126 16.7523 9.95484 15.8838 10.7238L16.6751 11.3469C17.5648 10.5257 18.3273 9.55753 18.8916 8.45597C18.9631 8.31456 19.0004 8.15833 19.0004 7.99988C19.0004 7.84142 18.9631 7.68519 18.8916 7.54378C17.1969 4.23721 13.8419 2.00002 10.0001 2.00002C8.59643 1.99928 7.20925 2.30236 5.93382 2.88846L7.36414 4.01346C8.07007 3.39127 8.98632 3.00002 10.0001 3.00002ZM11.9019 7.58847C11.9999 7.28996 12.0251 6.97237 11.9756 6.66213C11.9261 6.3519 11.8032 6.05797 11.6172 5.80479C11.4311 5.55162 11.1874 5.34651 10.9061 5.20654C10.6248 5.06657 10.3142 4.99576 10.0001 5.00003C9.96882 5.00003 9.94101 5.00753 9.91101 5.00909C10.0323 5.33391 10.0296 5.69205 9.90351 6.01503L11.9019 7.58847ZM5.10132 6.05222C5.03635 6.36403 5.00243 6.68152 5.00007 7.00003C4.99686 7.83775 5.20499 8.66276 5.60521 9.3987C6.00542 10.1347 6.58479 10.7578 7.28971 11.2104C7.99463 11.663 8.80233 11.9306 9.63807 11.9882C10.4738 12.0459 11.3106 11.8919 12.071 11.5403L11.1466 10.8125C10.781 10.9228 10.4013 11 10.0004 11C8.93985 10.9989 7.92307 10.5771 7.17313 9.8272C6.42318 9.07731 6.00131 8.06057 6.00007 7.00003C6.00007 6.92378 6.01851 6.85253 6.02257 6.77753L5.10132 6.05222ZM10.0001 13C6.64507 13 3.57914 11.0841 2.00007 8.00003C2.54476 6.93753 3.28414 6.04003 4.13476 5.29003L3.32664 4.65346C2.43664 5.47472 1.67445 6.44253 1.11007 7.54409C1.03859 7.6855 1.00134 7.84174 1.00134 8.00019C1.00134 8.15864 1.03859 8.31487 1.11007 8.45628C2.80351 11.7628 6.15851 14 10.0001 14C11.4037 14.0008 12.7909 13.6977 14.0663 13.1116L13.1523 12.3929C12.1582 12.7763 11.0985 13 10.0001 13Z" fill="#234D60"/>
</svg>
