<svg width="14" height="15" viewBox="0 0 14 15" fill="none" xmlns="http://www.w3.org/2000/svg">
<path d="M12.5 0H1.5C0.671562 0 0 0.719531 0 1.60714V13.3929C0 14.2805 0.671562 15 1.5 15H12.5C13.3284 15 14 14.2805 14 13.3929V1.60714C14 0.719531 13.3284 0 12.5 0ZM12.5 1.07143C12.7757 1.07143 13 1.31176 13 1.60714V13.3929C13 13.6882 12.7757 13.9286 12.5 13.9286H1.5C1.22431 13.9286 1 13.6882 1 13.3929V1.60714C1 1.31176 1.22431 1.07143 1.5 1.07143H12.5ZM11.4281 4.36249L11.164 4.07722C11.0182 3.91969 10.7807 3.91865 10.6337 4.07494L5.52616 9.5034L3.37066 7.17529C3.22481 7.01776 2.98738 7.01672 2.84034 7.17301L2.57409 7.45597C2.42706 7.61223 2.42609 7.86663 2.57197 8.02416L5.25566 10.9228C5.4015 11.0803 5.63894 11.0814 5.78597 10.9251L11.426 4.93068C11.573 4.77442 11.5739 4.52002 11.4281 4.36249Z" fill="#E25E2A"/>
</svg>
