<svg width="14" height="13" viewBox="0 0 14 13" fill="none" xmlns="http://www.w3.org/2000/svg"><path d="M12.8867 4.35428L9.17759 3.81352L7.51979 0.452219C7.22275 -0.146926 6.36212 -0.154542 6.06254 0.452219L4.40474 3.81352L0.695629 4.35428C0.0304771 4.45075 -0.236092 5.27076 0.246271 5.74043L2.92973 8.35534L2.29504 12.0492C2.1808 12.7169 2.88403 13.217 3.47302 12.9048L6.79116 11.1607L10.1093 12.9048C10.6983 13.2145 11.4015 12.7169 11.2873 12.0492L10.6526 8.35534L13.3361 5.74043C13.8184 5.27076 13.5519 4.45075 12.8867 4.35428ZM9.78181 8.071L10.4876 12.1838L6.79116 10.2442L3.09729 12.1863L3.80306 8.07354L0.812412 5.15652L4.94296 4.55738L6.79116 0.812721L8.63937 4.55738L12.7699 5.15652L9.78181 8.071Z" fill="#828282"/></svg>