<svg xmlns="http://www.w3.org/2000/svg" xmlns:xlink="http://www.w3.org/1999/xlink" viewBox="0 0 200 200"><defs><style>.cls-1{isolation:isolate;}.cls-2{fill:url(#radial-gradient);}.cls-3{opacity:0.5;fill:url(#linear-gradient);}.cls-4{fill:#fff;}.cls-5{fill:#9b9bba;}.cls-6{fill:#6a6ac6;}.cls-7{fill:url(#linear-gradient-2);}.cls-8{fill:#ff1d3e;}.cls-10,.cls-8{opacity:0.47;}.cls-9{fill:url(#linear-gradient-3);}.cls-10{fill:#ff1fa5;mix-blend-mode:color;}.cls-11{fill:url(#linear-gradient-4);}.cls-12,.cls-13{fill:#f2b8d6;}.cls-12{mix-blend-mode:multiply;}.cls-13{opacity:0.56;}</style><radialGradient id="radial-gradient" cx="100" cy="99.65" r="92" gradientUnits="userSpaceOnUse"><stop offset="0" stop-color="#ffd25e"/><stop offset="0.74" stop-color="#ffe294"/><stop offset="1" stop-color="#ffeebf"/></radialGradient><linearGradient id="linear-gradient" x1="100" y1="123.38" x2="100" y2="177.96" gradientUnits="userSpaceOnUse"><stop offset="0" stop-color="#adc3ff"/><stop offset="0.72" stop-color="#63bbff"/></linearGradient><linearGradient id="linear-gradient-2" x1="123.84" y1="165.45" x2="160.12" y2="200.07" gradientUnits="userSpaceOnUse"><stop offset="0" stop-color="#6a6ac6"/><stop offset="0.65" stop-color="#a179bd"/><stop offset="1" stop-color="#d1c3b0"/></linearGradient><linearGradient id="linear-gradient-3" x1="56.44" y1="86.49" x2="95.88" y2="86.49" gradientUnits="userSpaceOnUse"><stop offset="0.03" stop-color="#ff1d3e"/><stop offset="1" stop-color="red" stop-opacity="0"/></linearGradient><linearGradient id="linear-gradient-4" x1="129.69" y1="-5.5" x2="129.69" y2="218.9" gradientUnits="userSpaceOnUse"><stop offset="0" stop-color="#b3f0ff"/><stop offset="0.45" stop-color="#ffb5e3"/><stop offset="0.67" stop-color="#ffebd4"/></linearGradient></defs><title>classic</title><g class="cls-1"><g id="Layer_1" data-name="Layer 1"><circle class="cls-2" cx="100" cy="99.65" r="92"/><path class="cls-3" d="M51.28,178c48.25-2.23,48.47-10.8,70.66-14.08a143.16,143.16,0,0,1,43.63.62,92.17,92.17,0,0,0,23.58-41.12H10.86A92.39,92.39,0,0,0,51.28,178Z"/><path class="cls-4" d="M169,156.28a2,2,0,0,0-1.93,1.51,2.92,2.92,0,0,0-1.19-.26,2.65,2.65,0,0,0-.89.16,4.09,4.09,0,0,0-7.2,0,2.77,2.77,0,0,0-.49,1.27,5.27,5.27,0,0,0-2.56-.66,5.2,5.2,0,0,0-3,.95,2.89,2.89,0,0,0,.12-.78,2.67,2.67,0,0,0-5.34,0,2.61,2.61,0,0,0,.18.93,2.25,2.25,0,0,0-1.93-1.1,2.58,2.58,0,0,0-.39,0,3.71,3.71,0,0,0-5.24-1.63,1.74,1.74,0,0,0-3.11,1.09,1.24,1.24,0,0,0,0,.27,2.55,2.55,0,0,0-.61.13,4.45,4.45,0,0,0-2.91-1.33,4.52,4.52,0,0,0-4.64,3.21A3.67,3.67,0,0,0,125,162a2.41,2.41,0,0,0-.93-.18,2.48,2.48,0,1,0,0,4.95,2.44,2.44,0,0,0,1.49-.51,3.67,3.67,0,0,0,5.74-.44,4.63,4.63,0,0,0,.65.1,4.58,4.58,0,0,0,3.46-1.28,2,2,0,0,0,2.95.81,2.15,2.15,0,0,0,1.47.58l.2,0a4.21,4.21,0,0,0,4,2.38,5.17,5.17,0,0,0,1.54-.24,3.9,3.9,0,0,0,1.67.38,4,4,0,0,0,3.31-1.76,5.26,5.26,0,0,0,9.43-3.21v0a3.93,3.93,0,0,0,1.38.25,4.1,4.1,0,0,0,2.77-1.08,2.86,2.86,0,0,0,4.59-2.29c0-.05,0-.1,0-.15a2.3,2.3,0,0,0,.26,0,2,2,0,0,0,0-4Zm-21.66,7.09c0,.06-.09.11-.13.16l-.19,0v0a2.19,2.19,0,0,0-.14-.77A2.57,2.57,0,0,0,147.37,163.37Z"/><circle class="cls-4" cx="151.46" cy="158.94" r="9"/><circle class="cls-4" cx="158.67" cy="155.04" r="9"/><circle class="cls-4" cx="178.67" cy="162.13" r="5.62"/><circle class="cls-4" cx="154.51" cy="167.48" r="11.25"/><circle class="cls-4" cx="168.3" cy="162.12" r="11.25"/><path class="cls-4" d="M187.05,161.84a19.13,19.13,0,0,1-37.3-.22c-2.28-10.31,9.21,7.18,19.52,4.9S187.69,159.13,187.05,161.84Z"/><ellipse class="cls-4" cx="137.43" cy="168.38" rx="9" ry="7.5" transform="translate(-33.16 33.7) rotate(-12.49)"/><ellipse class="cls-4" cx="125.88" cy="165.66" rx="8.44" ry="7.03" transform="translate(-32.84 31.13) rotate(-12.49)"/><ellipse class="cls-4" cx="113.53" cy="167.15" rx="5.62" ry="4.69" transform="translate(-33.45 28.5) rotate(-12.49)"/><ellipse class="cls-4" cx="102.05" cy="170.71" rx="4.84" ry="3.47" transform="translate(-27.52 19.82) rotate(-9.78)"/><ellipse class="cls-4" cx="107.89" cy="170.89" rx="3.57" ry="3.37" transform="translate(-27.46 20.81) rotate(-9.78)"/><path class="cls-4" d="M119,168.43s-.73-3.29-6-1a50.8,50.8,0,0,1-6.34,2.56,9.44,9.44,0,0,0,9.51,1.35c5.25-2.32,2.81-2.93,2.81-2.93"/><path class="cls-4" d="M182.61,166.06c.33-.26,5.7,3.16,8.26-.87s.74-7.08,7.33-8.53a5.67,5.67,0,0,0-5.74.11h0s-8-1.49-11.69,6.15Z"/><circle class="cls-4" cx="75.01" cy="168.69" r="9.89"/><circle class="cls-4" cx="61.57" cy="164.74" r="4.35"/><circle class="cls-4" cx="54.84" cy="165.13" r="5.54"/><circle class="cls-4" cx="36.65" cy="165.93" r="2.37"/><circle class="cls-4" cx="34.28" cy="167.11" r="1.98"/><circle class="cls-4" cx="31.51" cy="166.32" r="1.98"/><path class="cls-4" d="M49.31,167.9a6.72,6.72,0,0,0-6.73-6.72c-3.71,0-5.31,3.29-6.72,6.72-.08.19,3.56,6.73,7.91,3.56S49.31,171.62,49.31,167.9Z"/><circle class="cls-4" cx="46.93" cy="174.63" r="5.54"/><circle class="cls-4" cx="56.03" cy="173.44" r="7.51"/><circle class="cls-4" cx="67.89" cy="178.98" r="9.1"/><circle class="cls-4" cx="76.6" cy="175.81" r="9.1"/><path class="cls-4" d="M38.23,168.3s11.87-3.17,12.66-2.37,10.28.79,11.86.79,11.87,3.16,11.87,3.95,0,5.54-.79,5.54-8.7,1.58-10.68.79-9.1-4-9.89-4S38.23,168.3,38.23,168.3Z"/><path class="cls-4" d="M80.15,182.54A12.27,12.27,0,0,0,87.27,177c4.75-7.91,7.91-4.75,7.91-4.75s-.79-4.74-4.74-3.16-7.91,1.58-10.29,0S80.15,182.54,80.15,182.54Z"/><path class="cls-5" d="M131,87.39s-5.25,2.4-3.45,10.65,3.29,13.49,3.29,13.49c-.61.49-5.38,9.33-3.44,20.24C129.54,143.59,138.1,176,138.1,176s22.48,2.39,32.22-15.75l-29.24-49-.45-14.39Z"/><path class="cls-6" d="M129.27,88.85s-2.84.32-3.44,5.88-1.38,21.58-1.38,21.58l-.15,13.77s-.52,8,3.2,7.41c1.06-1.37.06-2.57-1.4-6.76l1.65-13.44L130.62,97Z"/><polygon class="cls-6" points="143.5 88.1 146.23 108.4 147.78 121.43 149.31 127.14 145.24 122.36 143.23 109.56 140.3 89.66 143.5 88.1"/><ellipse class="cls-6" cx="133.62" cy="78.12" rx="6.71" ry="9.11"/><path class="cls-6" d="M134.88,69c-3.58,0-8,4.31-8,9.11s5.57,19.47,17.77,29.36l-1.39-6a33.88,33.88,0,0,0,8.9,2.53c-5.74-5-5.55-7.13-5.55-7.13a13.26,13.26,0,0,0,3.85,1.31C139.16,89.11,144.59,71.1,134.88,69Z"/><path class="cls-7" d="M103.15,199.34,145.37,175h44.7S158.61,201.78,103.15,199.34Z"/><path class="cls-8" d="M79.65,81.38c1.8-3.24,1.5-7.71-.91-11.82L53,63.3c2.14,4.49,1.59,9.35-1.66,12.79ZM74.28,65.89c1.32-2.1,1.16-5.14-.49-8L59.34,53.63c1.42,3,1.12,6.13-.87,8.22ZM81,98.78c2.2-4.26,1.82-9.84-1.14-14.77L51,79a14.7,14.7,0,0,1-2.13,16.49Zm.25,3.33L48.33,99.25c3.51,6.93,2.58,15.24-2.86,22.09l37.25-.23A19.92,19.92,0,0,0,81.25,102.11Z"/><path class="cls-9" d="M91,79.8c1.82-3.36,1.52-8-.92-12.26L64,61.11c2.16,4.66,1.61,9.7-1.67,13.27ZM85.05,63.49c1.33-2.18,1.17-5.34-.5-8.33-4.66-1.39-6.91-2-12-3.52,1.43,3.09,1.14,6.34-.88,8.52C77.26,61.61,80,62.17,85.05,63.49Zm7.3,34.36c2.23-4.42,1.85-10.21-1.15-15.32L62,77.38A15.58,15.58,0,0,1,59.82,94.5Zm.26,3.46L59.33,98.42c3.54,7.18,2.61,15.8-2.89,22.92L94.1,121A21.11,21.11,0,0,0,92.61,101.31Z"/><polygon class="cls-6" points="137.42 171.87 138.46 178.9 131.39 185.95 144.87 181.18 144.25 178.9 145.29 169.8 137.42 171.87"/><path class="cls-10" d="M60.69,112.9h0a24,24,0,0,1-4.25,8.44L94.1,121a19.36,19.36,0,0,0,1.67-6.26Z"/><path class="cls-10" d="M63.48,88.17c-.22,3.06-3.57,6.36-3.57,6.36l32.44,3.32s1.56-2.69,1.41-4.74Z"/><path class="cls-5" d="M96.25,118.32s-.56,7.28-5.25,10.47H55.19l-2.25-6.06s15.38.06,22.88-1.06S86.88,117.38,96.25,118.32Z"/><path class="cls-11" d="M132.1,92.48l-3.19-6.55s-1.73,0-1.63.36S132.1,92.48,132.1,92.48Z"/><path class="cls-12" d="M133.08,112.06s-2.9,9.72-2.9,13.45,9.73,50.7,9.73,50.7h2.69s.82-44.29.82-49.87-4.34-14.49-4.34-14.49Z"/><path class="cls-13" d="M127.64,134.2s5.23,17.43,14.58,41l-4.75.14Z"/><path class="cls-12" d="M139.08,111.85l.41-9.26L130.91,91s-2.63.54-3.24,4.51-.76,13-.76,13l2.9-8.08,3.27,11.68Z"/><path class="cls-12" d="M133.83,71.52c-2.62,0-4.47,3.69-2.72,11.37s11.18,15.85,11.18,15.85-4.28-6-5.54-11.47a14.39,14.39,0,0,0,4,3.69,92.47,92.47,0,0,1-1.07-9.82C139.76,78.91,138.72,71.52,133.83,71.52Z"/></g></g></svg>