<svg id="Layer_1" data-name="Layer 1" xmlns="http://www.w3.org/2000/svg" xmlns:xlink="http://www.w3.org/1999/xlink" viewBox="0 0 200 200"><defs><style>.cls-1{fill:#ffa4a4;}.cls-2{fill:url(#linear-gradient);}.cls-3{fill:#b3ff8f;opacity:0.43;}.cls-4{fill:url(#linear-gradient-2);}.cls-5{fill:#2c94ce;}.cls-6{fill:url(#linear-gradient-3);}.cls-7{fill:url(#linear-gradient-4);}.cls-8{fill:url(#linear-gradient-5);}.cls-9{fill:#9c7fa3;}.cls-10,.cls-27{fill:none;stroke-miterlimit:10;}.cls-10{stroke:#9c7fa3;}.cls-11{fill:url(#linear-gradient-6);}.cls-12{fill:#fffffe;}.cls-13{fill:url(#linear-gradient-7);}.cls-14{fill:url(#linear-gradient-8);}.cls-15{fill:url(#linear-gradient-9);}.cls-16{fill:url(#linear-gradient-10);}.cls-17{fill:url(#linear-gradient-11);}.cls-18{fill:#a4f7a4;}.cls-19,.cls-20,.cls-26{fill:#8d759b;}.cls-19{opacity:0.52;}.cls-20{opacity:0.44;}.cls-21{opacity:0.42;fill:url(#linear-gradient-12);}.cls-22{fill:#85c2ff;opacity:0.33;}.cls-23{fill:#fff;}.cls-24{fill:url(#linear-gradient-13);}.cls-25{fill:url(#linear-gradient-14);}.cls-27{stroke:#8d759b;stroke-width:0.5px;}</style><linearGradient id="linear-gradient" x1="73.36" y1="62.44" x2="161.25" y2="62.44" gradientUnits="userSpaceOnUse"><stop offset="0" stop-color="#6ce06d"/><stop offset="0.12" stop-color="#6ad975"/><stop offset="0.32" stop-color="#64c58c"/><stop offset="0.55" stop-color="#5aa4b0"/><stop offset="0.83" stop-color="#4d77e2"/><stop offset="0.96" stop-color="#455dff"/></linearGradient><linearGradient id="linear-gradient-2" x1="98.64" y1="71.86" x2="151.36" y2="71.86" gradientUnits="userSpaceOnUse"><stop offset="0" stop-color="#6ce06d"/><stop offset="0.13" stop-color="#6add75"/><stop offset="0.33" stop-color="#64d48c"/><stop offset="0.57" stop-color="#5ac6b0"/><stop offset="0.86" stop-color="#4db3e2"/><stop offset="1" stop-color="#45a8ff"/></linearGradient><linearGradient id="linear-gradient-3" x1="-1620.06" y1="-195.48" x2="-1557.88" y2="-165.89" gradientTransform="translate(1160.77 -978.79) rotate(-52.24)" gradientUnits="userSpaceOnUse"><stop offset="0" stop-color="#b3f0ff"/><stop offset="1" stop-color="#3372ff"/></linearGradient><linearGradient id="linear-gradient-4" x1="99.11" y1="147.39" x2="139.54" y2="147.39" gradientUnits="userSpaceOnUse"><stop offset="0" stop-color="#fffffe"/><stop offset="0.57" stop-color="#6ce06d"/><stop offset="0.72" stop-color="#6ce075"/><stop offset="0.97" stop-color="#6ce08b"/><stop offset="1" stop-color="#6ce08f"/></linearGradient><linearGradient id="linear-gradient-5" x1="92.8" y1="138.57" x2="92.8" y2="184.96" gradientUnits="userSpaceOnUse"><stop offset="0" stop-color="#c4a683"/><stop offset="0.15" stop-color="#c4a683"/><stop offset="1" stop-color="#8c6fb0"/></linearGradient><linearGradient id="linear-gradient-6" x1="179.83" y1="112.45" x2="172.84" y2="157.43" gradientTransform="translate(-83.4 -23.21) rotate(4.63)" gradientUnits="userSpaceOnUse"><stop offset="0" stop-color="#fffffe"/><stop offset="1" stop-color="#d8ffd8"/></linearGradient><linearGradient id="linear-gradient-7" x1="93.74" y1="56.29" x2="93.74" y2="70.89" gradientUnits="userSpaceOnUse"><stop offset="0.31" stop-color="#ffd096"/><stop offset="1" stop-color="#fff"/></linearGradient><linearGradient id="linear-gradient-8" x1="183.62" y1="91.23" x2="213.83" y2="91.23" gradientTransform="translate(-83.4 -23.21) rotate(4.63)" xlink:href="#linear-gradient-7"/><linearGradient id="linear-gradient-9" x1="97.27" y1="61.46" x2="161.63" y2="61.46" gradientUnits="userSpaceOnUse"><stop offset="0" stop-color="#20bf7a"/><stop offset="1" stop-color="#6ce08f"/></linearGradient><linearGradient id="linear-gradient-10" x1="83.47" y1="56.84" x2="95.19" y2="56.84" xlink:href="#linear-gradient-7"/><linearGradient id="linear-gradient-11" x1="77.96" y1="53.71" x2="98.17" y2="53.71" xlink:href="#linear-gradient-9"/><linearGradient id="linear-gradient-12" x1="85.09" y1="134.06" x2="81.68" y2="155.96" gradientUnits="userSpaceOnUse"><stop offset="0.04" stop-color="#2acce8"/><stop offset="0.96" stop-color="#455dff"/></linearGradient><linearGradient id="linear-gradient-13" x1="86.1" y1="87.49" x2="86.1" y2="102.37" xlink:href="#linear-gradient"/><linearGradient id="linear-gradient-14" x1="98.66" y1="87.49" x2="98.66" y2="102.37" xlink:href="#linear-gradient"/></defs><title>fantasy</title><path class="cls-1" d="M172.91,52.09a21.42,21.42,0,0,1-15-6.07,28.2,28.2,0,0,1-14.15,3.76,27.69,27.69,0,0,1-24.43-14.25c-19-1-33.9-10.75-33.9-22.59a14.42,14.42,0,0,1,.39-3.28l-.23,0A48.57,48.57,0,0,1,79.88,13C76.09,21.6,68,27.53,58.67,27.53a21.89,21.89,0,0,1-11-3A92,92,0,1,0,177.2,51.66,21.6,21.6,0,0,1,172.91,52.09Z"/><path class="cls-2" d="M96.24,40.2a22.56,22.56,0,0,0-11-.14c-5.5,1.5-11.36,7.27-11.84,15.85s1.35,20.58,20.71,22.36,14.51,3,23.73,4.94,13.32.43,13.32.43,6,2.75,10.33,1.49S146.64,83,146.64,83s10.27-1.76,13.22-7.55.69-9.86-1.92-14.92a9.38,9.38,0,0,1-4.87,9.63c-6.11,3.6-11.15-2-15-3.27a28.78,28.78,0,0,0-6.37-1.16,63.07,63.07,0,0,0-7.27-6.08c-4-2.8-10.32-2.88-10.32-2.88s-3.55-8-7.16-11.36-9-3.63-9-3.63Z"/><path class="cls-3" d="M123.32,84.05S116,81.4,114.83,70.44,97.52,56.07,97.52,56.07s8.52,8.06,10,13.63S114.51,84.13,123.32,84.05Z"/><path class="cls-4" d="M98.64,66.73s-.33,3,10.33,2.21,15.59,5.7,17.46,8,3.74,8.52,12.42,8.52,12.51-8.19,12.51-8.19l-2.19-.11s-3.08,4.29-6.92,4.84-8.35-4.07-11.87-11a17,17,0,0,0-17.79-9.23,16,16,0,0,1-12.19-3.51Z"/><path class="cls-5" d="M31.62,165.74s32,16.61,59.13,9.12,34.5-21.53,42.08-45.43c0,0,62.79-14.38,53.39,7.85s-27.52,40-52.13,49.44c-26.31,10.09-72,14.78-104.78-8.94Z"/><path class="cls-6" d="M73.13,140S85,150,77.35,161.85s-31.92,9.62-43.08,14.37-4.05,14.3,1.89,14.53c10,.38,6.05,7.06,6.05,7.06s2-7.23-10.11-1.42c-13,6.26-28-3.16-30.1-17.42s8.39-26.47,17.55-28.65,24.54,2.26,30,4.91,14.27,1.52,11.85-5S68.9,134.92,73.13,140Z"/><path class="cls-7" d="M105.39,150.71s6.35-15.71,20.45-17.08a23.53,23.53,0,0,1,.71,7.83s6.66-2.56,13-1.29c0,0,.35,12.24-13.56,16s-20.38.2-25.43,4.2S105.39,150.71,105.39,150.71Z"/><path class="cls-8" d="M113,135.22l-40.15.17a72.81,72.81,0,0,0-4.36,23.31,69.51,69.51,0,0,0,4.2,22.74c0,4.1,9.07,7.42,20.27,7.42s20.26-3.32,20.26-7.42a61.69,61.69,0,0,0,4-22.48A70.27,70.27,0,0,0,113,135.22Z"/><ellipse class="cls-9" cx="92.93" cy="136.21" rx="20.27" ry="6.62"/><line class="cls-10" x1="92.93" y1="142.83" x2="92.93" y2="182.84"/><path class="cls-10" d="M101.41,140.77s2.83,28.78-.08,43.33"/><path class="cls-10" d="M107.84,139s4.69,24,.41,42.26"/><path class="cls-10" d="M111.54,136.07s8.57,21.75.58,44.82"/><path class="cls-10" d="M84.19,141.75s-1.7,17.25,1,42.55"/><path class="cls-10" d="M76.63,145.76s-.81,21.09,3.55,41"/><path class="cls-10" d="M71,147.81S69.26,168.29,76.23,186"/><path class="cls-9" d="M92.93,142.83s-6.38,4.86-11.65,6.94S68.74,153.4,68.53,160s-2-14.72.89-20S92.93,142.83,92.93,142.83Z"/><path class="cls-11" d="M109.27,116.47a34,34,0,0,0-4.3-9.55c-1.62-2.29,1.17-11.56,1.42-13.18s2.52-2.36,2.72-7.64,2.74-9.39.91-11.29S101.27,70,96.55,70.69a88.27,88.27,0,0,0-8.72,1.8s-11,.74-8.62,5.07a19.6,19.6,0,0,1,2.47,7.68s-3.91,3.69-1.57,6.44,3.23,2.54,3.23,2.54.52,5.8,1.59,8.33.94,2.12-.47,3.69a29.23,29.23,0,0,0-6.18,8.08c-.94.29-1.88.61-2.8,1-21.5,8-25.89,17.59-23.75,28.3,2,9.77,16.79,17.78,16.79,17.78l0-5.62a8.39,8.39,0,0,1,2.64-6.4c7.26-6.25,11.3-4.08,19.15-8.42s17.69-9.58,19.11-17.32a13.82,13.82,0,0,0-.18-6.48A1.73,1.73,0,0,0,109.27,116.47Z"/><path class="cls-12" d="M80,93.12A47.45,47.45,0,0,1,74.84,102c-2.72,3.33-4.81,3.28-5.44,3s-2.2-2.27-3.55-4.36-7.07-11.94-7.74-13a7.22,7.22,0,0,1-.84-1.82s-.16-6,.95-5.28,1.81,0,2.73,1.5,5.84,6.3,8.74,10.85c0,0,5.2-8.79,5.29-10s1.44-7,4.11-8.23,3.46-1,3.66.07S83.47,86.76,80,93.12Z"/><path class="cls-13" d="M89.24,64.54l-.75,9.27s1.21,2.89,6.3,2.72S98.91,73,98.91,73L98,64S89.32,60.35,89.24,64.54Z"/><path class="cls-12" d="M59.92,81.2a6.66,6.66,0,0,0-.69-3.35c-.83-1.51-2.6-2-3.2-2.44a14.4,14.4,0,0,1-1.85-2.12A1.19,1.19,0,0,0,54,74.81a12.09,12.09,0,0,0,1.37,2c.35.34.45,1,0,1A24.55,24.55,0,0,1,50.82,76a42.23,42.23,0,0,0-3.71-3.43,3.38,3.38,0,0,0,.44,3.06,19.19,19.19,0,0,0-.61,2.24,27.46,27.46,0,0,0,.31,2.84,25.55,25.55,0,0,0,1.69,2.11A11,11,0,0,0,54.4,85c2.74.22,4.22.39,4.22.39Z"/><path class="cls-12" d="M105.79,72.37s3.67,0,7.69,7.26,8.11,14.18,7.92,15.1-.53,3.74-1.47,3.78a10,10,0,0,1-4-1.14c-.78-.53-3.15-1.42-4.07-3.07s-5.1-11.08-5.1-11.08Z"/><path class="cls-14" d="M120.66,97.41a9.07,9.07,0,0,0,.13-8A36.06,36.06,0,0,0,112,77.94c-3.63-3.32-5.15-4.79-6.76-5.73a21.59,21.59,0,0,0-4.7-1.67l-3.47-1s-3.94.18-3.8.8,2.7.51,3.79.77a6.84,6.84,0,0,1,2,.86s-1.08,1.77-1.28,2.17S96.91,75.5,97,76a3.53,3.53,0,0,0,1.26,1.79,8.87,8.87,0,0,0,1.4.64l.75-.64s2.64.57,2.93.53L106.5,78a8.55,8.55,0,0,1,2.41,2.59c.76,1.45,4.3,8.79,4.31,9.38a9.09,9.09,0,0,0,6.44,8.21A2.19,2.19,0,0,0,120.66,97.41Z"/><path class="cls-12" d="M96.83,68.44c1,.09,2.55-1.23,3.48-3.06A13.6,13.6,0,0,0,102,59c0-2.6-.43-2.44-.29-3.67s.9-2.5-.21-4.57-1.12-3.86-5.28-5.36-8.82-3.31-10.94.4-1.78,12.36-1.65,12.64.58,2.5,2.54,2.66a15.28,15.28,0,0,0,4.28,5.7A10.56,10.56,0,0,0,96.83,68.44Z"/><path class="cls-15" d="M122.62,65.66c-3.7-.87-8.35-4.64-10.33-8.19s-3.4-14.9-13.66-12.9l-1.36,2.82s3.34.06,3.72,2,2.23,1.69.49,7.25c0,0,2,3.18,3.92,6.14S110,74.38,119.12,74.26s16.87-4.26,20.8,0c5.94,6.41,16.47,5.43,20-.85s1.39-15.84-4.37-17.92c0,0,5,8.28-1.57,12.7s-10.67-.31-14.09-1.58C132.78,64,127.16,66.73,122.62,65.66Z"/><path class="cls-16" d="M92.27,48.49s-4.78-3.25-5.15-3.25c-.14,0-.81.09-1.66.24-.08.12-.16.22-.23.35-2.13,3.71-1.78,12.36-1.65,12.64s.58,2.5,2.54,2.66a15.28,15.28,0,0,0,4.28,5.7,9.48,9.48,0,0,0,4.79,1.6C86.8,67.11,92.27,48.49,92.27,48.49Z"/><path class="cls-17" d="M98.17,46.93s-8,.8-8.52,5.45-2.84,5.1-2.84,5.1-4-1.94-4.54.28.31,6.16,2.78,7.5c0,0-7.69-.79-7.06-10.6s9.79-13.1,14.42-12.4A7,7,0,0,1,98.17,46.93Z"/><path class="cls-18" d="M92.09,90.3c-.25,3.13-4,5.37-7,5.12a5.53,5.53,0,0,1-4.94-6.09c.25-3.12,2.62-5.58,2.49-5.74C84.72,90.48,92.34,87.18,92.09,90.3Z"/><path class="cls-18" d="M105.2,91.37a5.8,5.8,0,0,1-6.37,5.17c-3.26-.26-7-3.11-6.74-6.24s9-1,10.46-5.57C104.47,87.06,105.45,88.24,105.2,91.37Z"/><path class="cls-12" d="M29.79,147.21a4.71,4.71,0,0,0-6.22,2.16c-2.44,4.06,2.3,8,2.3,8s-1.36,2.57-.27,4.06a4.59,4.59,0,0,0,2.7,1.76,2.56,2.56,0,0,0,.27,3.65c1.9,1.9,4.74-.27,4.74-.27a6.29,6.29,0,0,0-.27,7.31c2.08,3.13,7.18,2.44,7.18,2.44a6.4,6.4,0,0,0,5.27,4.2,8.67,8.67,0,0,0,8.4-4.06s5.14,1.08,7-1.49l.94-1.9a6.08,6.08,0,0,0,2.57-3.92c.28-2.44-2.16-3.93-2.16-3.93s.81-4.2-1.63-6.5a8.6,8.6,0,0,0-5.41-2.3s2-3,0-5.28-5.41-1.35-5.41-1.35.67-2.3-.95-3.52-3.66,0-3.66,0a4.71,4.71,0,0,0-2.7-1.89,4,4,0,0,0-2.71.13,4,4,0,0,0-3.66-1.89,3.81,3.81,0,0,0-3.38,2.16S29.66,144.64,29.79,147.21Z"/><path class="cls-5" d="M68.11,185.23c-.47-.43,29.59,3.43,54.89-15.86l2.36,16.94S87,202.6,68.11,185.23Z"/><path class="cls-19" d="M15.86,98.46s7.9,1.13,9.2,6.29c0,0,1.61-6.94,11.61-6.13,0,0-6.94-2.26-11.94,1C24.73,99.59,20.21,96.36,15.86,98.46Z"/><path class="cls-20" d="M46.49,103.49s4.26,3.85,3,7.45c0,0,3.75-3.49,9.39,1,0,0-3.23-4.13-7.51-4.21C51.33,107.73,49.93,104,46.49,103.49Z"/><path class="cls-21" d="M109.71,120.65a9.75,9.75,0,0,1-6.38,6.64C93.2,131,67.47,133.4,63,141c-3.54,5.94-4.4,11.84.41,17.08a52.66,52.66,0,0,0,5.15,3.31l0-5.62a8.39,8.39,0,0,1,2.64-6.4c7.26-6.25,11.3-4.08,19.15-8.42s17.69-9.58,19.11-17.32A16.64,16.64,0,0,0,109.71,120.65Z"/><path class="cls-22" d="M62.28,165.21s.81-4.2-1.63-6.5a8.6,8.6,0,0,0-5.41-2.3s2-3,0-5.28a5.22,5.22,0,0,0-4.5-1.51h0a6.3,6.3,0,0,0-.91.16,4.81,4.81,0,0,0,.13-.88c-1.32-1-4.23-2.44-8.06.58,0,0-4.18-1.29-3.7,3.54,0,0-3.86-1.13-5.31,2.25-1.87,4.36.65,6.39.65,6.39s3.53,2.13,5.78.2l.49,1.61s-2.74-.64-4,1.61.32,4.82.32,4.82-1.94.82-1.13,5.64h0a10.33,10.33,0,0,0,5.24.77,6.4,6.4,0,0,0,5.27,4.2,8.67,8.67,0,0,0,8.4-4.06s5.14,1.08,7-1.49l.94-1.9a6.08,6.08,0,0,0,2.57-3.92C64.72,166.7,62.28,165.21,62.28,165.21Z"/><circle class="cls-23" cx="169.51" cy="91.79" r="2.08"/><circle class="cls-23" cx="179.91" cy="104.95" r="1.04"/><circle class="cls-23" cx="155.14" cy="90.58" r="0.87"/><circle class="cls-23" cx="125.87" cy="102.88" r="1.73"/><circle class="cls-23" cx="35.63" cy="136.65" r="1.21"/><circle class="cls-23" cx="23.5" cy="143.23" r="1.21"/><circle class="cls-23" cx="50.17" cy="168.52" r="1.91"/><circle class="cls-23" cx="151.5" cy="149.29" r="1.39"/><circle class="cls-23" cx="117.36" cy="165.78" r="1.39"/><circle class="cls-23" cx="130.31" cy="162.25" r="1.39"/><circle class="cls-23" cx="86.03" cy="177.09" r="2.1"/><path class="cls-24" d="M80.22,90.88a5.43,5.43,0,0,0,4.84,4.54c2.59.21,5.8-1.45,6.76-3.94.1-.37.15-.6.15-.6C87.33,94.39,81.48,91.57,80.22,90.88Z"/><path class="cls-25" d="M92.2,91.54a9.12,9.12,0,0,0,1.93,2.94,8.5,8.5,0,0,0,4.7,2.06,5.8,5.8,0,0,0,6.37-5.17c0-.2,0-.37,0-.55-1.07,1.17-3.32,1.88-5.75,2.32-2.82.51-6.66-1.74-7.37-2.18A3.91,3.91,0,0,0,92.2,91.54Z"/><path class="cls-26" d="M92.11,58.13a9.59,9.59,0,0,0,3.69,0"/><path class="cls-26" d="M99.49,58.16s1.8.77,2-.55"/><path class="cls-27" d="M95.67,55.11a4.45,4.45,0,0,0-3.9-.18"/><line class="cls-27" x1="100" y1="55.11" x2="102.08" y2="55.21"/><path class="cls-23" d="M131,163.62s-24.73,24.72-65.94,23.55c0,0-1.17-2.36,2.36-3.53s4.12,1.47,4.12,1.47.59-3.83,5.3-5A8.17,8.17,0,0,1,84.51,182a3,3,0,0,1,2.94-1.92,2.31,2.31,0,0,1,2.36,2.36h2.35A2.58,2.58,0,0,1,91,178.93c1.17-2.36,4.71-1.18,4.71-1.18a4.13,4.13,0,0,1,1.17,2.35h1.18s-1.18-3.53,1.18-3.53,2.35,1.18,2.35,1.18h2.36s-3.54-1.18-1.18-3.53,3.53,2.35,3.53,2.35l1.77-.44s-5.3-4.27.59-6.62,7.06,2.35,7.06,2.35,0-2.35,1.18-2.35h2.35s0-2.36,1.18-2.36a4.08,4.08,0,0,1,2.35,1.18S124,166,125.13,166,131,163.62,131,163.62Z"/><path class="cls-12" d="M136.67,109s-8.7,4.14-7,14.12,7.71,12.13,7.71,12.13,0,8.55,7.56,11.12,10.84,1.71,10.84,1.71,2.56,5.42,10.12,3.57a4.64,4.64,0,0,0,4.14,2.42c3,0,3.28-1.57,3.28-1.57s2.85,2.43,5.42,2.43,6.28-2.28,6.28-2.28a6.23,6.23,0,0,0,7.41-3.43s-3.13-3-5.84-1.14a5.08,5.08,0,0,0,3.85-3.85,10.91,10.91,0,0,0-.86-6.42s5.14-1.57,5.14-6.56a5.3,5.3,0,0,0-3.43-2.71s-2.42,1.71-5.13-1.28c0,0,3-1.57,2.71-3.85,0,0-2.43.57-4-.57,0,0,3.85-.57,3-5.57,0,0-2.28,1.57-3.85.86a5.48,5.48,0,0,0,0-5.85s-3,2.57-5.28,1.86a4.84,4.84,0,0,0-.57-4c-1.28-2.28-4.85-2.14-4.85-2.14a5.74,5.74,0,0,0-3.56-5.7c-4-1.71-8.56,1.14-8.56,1.14s-1.86-3.28-7.56-3.14-8.42,5.71-8.42,5.71a6.24,6.24,0,0,0-5.7-1.72C136.25,105.17,136.67,109,136.67,109Z"/><path class="cls-22" d="M186.11,149.48c3.74-4.54,1.53-11.47,1.53-11.47-1.28,6.37-6.38,3.31-6.38,3.31-2,2.55-7.39,3.06-9.18-.25s.77-6.38.77-6.38l-3.06-1c-.26,4.34-5.36,6.89-5.36,6.89A11.31,11.31,0,0,1,151.68,136c-7.14,3.06-14.29-.7-14.29-.7s0,8.55,7.56,11.12,10.84,1.71,10.84,1.71,2.56,5.42,10.12,3.57a4.64,4.64,0,0,0,4.14,2.42c3,0,3.28-1.57,3.28-1.57s2.85,2.43,5.42,2.43a12.59,12.59,0,0,0,5-1.56A19.58,19.58,0,0,1,186.11,149.48Z"/></svg>