<svg xmlns="http://www.w3.org/2000/svg" xmlns:xlink="http://www.w3.org/1999/xlink" viewBox="0 0 200 200"><defs><style>.cls-1{isolation:isolate;}.cls-2{fill:#0f3394;}.cls-3{fill:#03287c;}.cls-4{fill:url(#linear-gradient);}.cls-5{fill:url(#linear-gradient-2);}.cls-6{fill:url(#linear-gradient-3);}.cls-7{fill:url(#linear-gradient-4);}.cls-8{fill:url(#linear-gradient-5);}.cls-9{fill:url(#linear-gradient-6);}.cls-10{fill:url(#linear-gradient-7);}.cls-11{fill:url(#linear-gradient-8);}.cls-12{fill:url(#linear-gradient-9);}.cls-13{fill:url(#linear-gradient-10);}.cls-14{fill:url(#linear-gradient-11);}.cls-15{fill:url(#linear-gradient-12);}.cls-16{fill:#fffffe;}.cls-17,.cls-19,.cls-44,.cls-45,.cls-46,.cls-47,.cls-48,.cls-49{mix-blend-mode:multiply;}.cls-17{fill:url(#linear-gradient-13);}.cls-18,.cls-51{fill:#31ffd7;}.cls-18,.cls-50{opacity:0.4;}.cls-19{fill:url(#linear-gradient-14);}.cls-20{fill:url(#radial-gradient);}.cls-21{fill:#fff;}.cls-22,.cls-24{fill:#b1a6ff;}.cls-22{opacity:0.77;}.cls-23{fill:#2a3273;}.cls-24{opacity:0.55;}.cls-25{fill:url(#linear-gradient-15);}.cls-26{fill:none;stroke:#2a3273;stroke-miterlimit:10;}.cls-27{fill:url(#linear-gradient-16);}.cls-28{fill:url(#linear-gradient-17);}.cls-29{fill:url(#linear-gradient-18);}.cls-30{fill:url(#linear-gradient-19);}.cls-31{fill:url(#linear-gradient-20);}.cls-32{fill:url(#linear-gradient-21);}.cls-33{fill:url(#linear-gradient-22);}.cls-34{fill:url(#linear-gradient-23);}.cls-35{fill:url(#linear-gradient-24);}.cls-36{fill:url(#linear-gradient-25);}.cls-37{fill:url(#linear-gradient-26);}.cls-38{fill:url(#linear-gradient-27);}.cls-39{fill:url(#linear-gradient-28);}.cls-40{fill:url(#linear-gradient-29);}.cls-41{fill:url(#linear-gradient-30);}.cls-42{fill:url(#linear-gradient-31);}.cls-43{fill:url(#linear-gradient-32);}.cls-44,.cls-45,.cls-47,.cls-48,.cls-49{opacity:0.33;}.cls-44{fill:url(#linear-gradient-33);}.cls-45{fill:url(#linear-gradient-34);}.cls-46{opacity:0.07;fill:url(#linear-gradient-35);}.cls-47{fill:url(#linear-gradient-36);}.cls-48{fill:url(#linear-gradient-37);}.cls-49{fill:url(#linear-gradient-38);}</style><linearGradient id="linear-gradient" x1="12.93" y1="-3023.64" x2="94.35" y2="-3023.64" gradientTransform="translate(95 -2985) rotate(180)" gradientUnits="userSpaceOnUse"><stop offset="0" stop-color="#fff"/><stop offset="0.1" stop-color="#eff7ff"/><stop offset="0.29" stop-color="#c4e1ff"/><stop offset="0.56" stop-color="#7ebfff"/><stop offset="0.89" stop-color="#2090ff"/><stop offset="1" stop-color="#0080ff"/></linearGradient><linearGradient id="linear-gradient-2" x1="12.93" y1="-3029.29" x2="94.35" y2="-3029.29" xlink:href="#linear-gradient"/><linearGradient id="linear-gradient-3" x1="12.93" y1="-3028.72" x2="94.35" y2="-3028.72" xlink:href="#linear-gradient"/><linearGradient id="linear-gradient-4" x1="12.93" y1="-3027.59" x2="94.35" y2="-3027.59" xlink:href="#linear-gradient"/><linearGradient id="linear-gradient-5" x1="12.93" y1="-3025.9" x2="94.35" y2="-3025.9" xlink:href="#linear-gradient"/><linearGradient id="linear-gradient-6" x1="12.93" y1="-3027.03" x2="94.35" y2="-3027.03" xlink:href="#linear-gradient"/><linearGradient id="linear-gradient-7" x1="12.93" y1="-3026.41" x2="94.35" y2="-3026.41" xlink:href="#linear-gradient"/><linearGradient id="linear-gradient-8" x1="12.93" y1="-3015.16" x2="94.35" y2="-3015.16" xlink:href="#linear-gradient"/><linearGradient id="linear-gradient-9" x1="12.93" y1="-3016.86" x2="94.35" y2="-3016.86" xlink:href="#linear-gradient"/><linearGradient id="linear-gradient-10" x1="12.93" y1="-3008.95" x2="94.35" y2="-3008.95" xlink:href="#linear-gradient"/><linearGradient id="linear-gradient-11" x1="12.93" y1="-3013.47" x2="94.35" y2="-3013.47" xlink:href="#linear-gradient"/><linearGradient id="linear-gradient-12" x1="12.93" y1="-3019.61" x2="94.35" y2="-3019.61" xlink:href="#linear-gradient"/><linearGradient id="linear-gradient-13" x1="76.41" y1="66.57" x2="105.59" y2="89.54" gradientUnits="userSpaceOnUse"><stop offset="0.04" stop-color="#2acce8"/><stop offset="0.96" stop-color="#455dff"/></linearGradient><linearGradient id="linear-gradient-14" x1="30.18" y1="31.58" x2="48.73" y2="31.58" xlink:href="#linear-gradient-13"/><radialGradient id="radial-gradient" cx="51.9" cy="7.69" r="5.85" gradientUnits="userSpaceOnUse"><stop offset="0" stop-color="#00aeff"/><stop offset="0.96" stop-color="#2c59bf"/></radialGradient><linearGradient id="linear-gradient-15" x1="130.26" y1="167.1" x2="130.26" y2="187.39" gradientUnits="userSpaceOnUse"><stop offset="0.09" stop-color="#ff0043"/><stop offset="1" stop-color="#ff0043" stop-opacity="0"/></linearGradient><linearGradient id="linear-gradient-16" x1="95.07" y1="118.03" x2="118.24" y2="118.03" gradientUnits="userSpaceOnUse"><stop offset="0" stop-color="#bd66ff"/><stop offset="0.01" stop-color="#bf6bff"/><stop offset="0.11" stop-color="#d092ff"/><stop offset="0.21" stop-color="#dfb4ff"/><stop offset="0.32" stop-color="#eacfff"/><stop offset="0.44" stop-color="#f4e5ff"/><stop offset="0.57" stop-color="#faf3ff"/><stop offset="0.73" stop-color="#fefcff"/><stop offset="0.96" stop-color="#fff"/></linearGradient><linearGradient id="linear-gradient-17" x1="100.06" y1="125.06" x2="117.02" y2="125.06" gradientTransform="matrix(1, 0, 0, 1, 2.68, 0.24)" xlink:href="#linear-gradient-16"/><linearGradient id="linear-gradient-18" x1="110.21" y1="135.24" x2="119.22" y2="135.24" gradientTransform="matrix(1, 0, 0, 1, 2.68, 0.24)" xlink:href="#linear-gradient-16"/><linearGradient id="linear-gradient-19" x1="104.67" y1="72.54" x2="186.09" y2="72.54" gradientTransform="matrix(1, 0, 0, 1, 0, 0)" xlink:href="#linear-gradient"/><linearGradient id="linear-gradient-20" x1="104.67" y1="66.89" x2="186.09" y2="66.89" gradientTransform="matrix(1, 0, 0, 1, 0, 0)" xlink:href="#linear-gradient"/><linearGradient id="linear-gradient-21" x1="104.67" y1="67.46" x2="186.09" y2="67.46" gradientTransform="matrix(1, 0, 0, 1, 0, 0)" xlink:href="#linear-gradient"/><linearGradient id="linear-gradient-22" x1="104.67" y1="68.59" x2="186.09" y2="68.59" gradientTransform="matrix(1, 0, 0, 1, 0, 0)" xlink:href="#linear-gradient"/><linearGradient id="linear-gradient-23" x1="104.67" y1="70.28" x2="186.09" y2="70.28" gradientTransform="matrix(1, 0, 0, 1, 0, 0)" xlink:href="#linear-gradient"/><linearGradient id="linear-gradient-24" x1="104.67" y1="69.15" x2="186.09" y2="69.15" gradientTransform="matrix(1, 0, 0, 1, 0, 0)" xlink:href="#linear-gradient"/><linearGradient id="linear-gradient-25" x1="104.67" y1="69.77" x2="186.09" y2="69.77" gradientTransform="matrix(1, 0, 0, 1, 0, 0)" xlink:href="#linear-gradient"/><linearGradient id="linear-gradient-26" x1="104.67" y1="81.02" x2="186.09" y2="81.02" gradientTransform="matrix(1, 0, 0, 1, 0, 0)" xlink:href="#linear-gradient"/><linearGradient id="linear-gradient-27" x1="104.67" y1="79.32" x2="186.09" y2="79.32" gradientTransform="matrix(1, 0, 0, 1, 0, 0)" xlink:href="#linear-gradient"/><linearGradient id="linear-gradient-28" x1="104.67" y1="87.23" x2="186.09" y2="87.23" gradientTransform="matrix(1, 0, 0, 1, 0, 0)" xlink:href="#linear-gradient"/><linearGradient id="linear-gradient-29" x1="104.67" y1="82.71" x2="186.09" y2="82.71" gradientTransform="matrix(1, 0, 0, 1, 0, 0)" xlink:href="#linear-gradient"/><linearGradient id="linear-gradient-30" x1="104.67" y1="76.56" x2="186.09" y2="76.56" gradientTransform="matrix(1, 0, 0, 1, 0, 0)" xlink:href="#linear-gradient"/><linearGradient id="linear-gradient-31" x1="104.67" y1="82.48" x2="186.09" y2="82.48" gradientTransform="matrix(1, 0, 0, 1, 0, 0)" xlink:href="#linear-gradient"/><linearGradient id="linear-gradient-32" x1="125.95" y1="164.39" x2="136.37" y2="210.88" gradientUnits="userSpaceOnUse"><stop offset="0.1" stop-color="#2a3273"/><stop offset="0.96" stop-color="#455dff"/></linearGradient><linearGradient id="linear-gradient-33" x1="1061.73" y1="-282.39" x2="1066.25" y2="-282.39" gradientTransform="translate(-206.54 -1002.75) rotate(90)" xlink:href="#linear-gradient-13"/><linearGradient id="linear-gradient-34" x1="-105.53" y1="446.45" x2="-103.2" y2="446.45" gradientTransform="translate(174.59 -282.09) scale(1 0.8)" xlink:href="#linear-gradient-13"/><linearGradient id="linear-gradient-35" x1="-100.75" y1="440.82" x2="-97.05" y2="440.82" gradientTransform="translate(174.02 -282.71) scale(1 0.8)" xlink:href="#linear-gradient-13"/><linearGradient id="linear-gradient-36" x1="-633.31" y1="-2649.83" x2="-626.92" y2="-2649.83" gradientTransform="matrix(0, -1.32, 1, 0, 2728.3, -750.8)" xlink:href="#linear-gradient-13"/><linearGradient id="linear-gradient-37" x1="-627.9" y1="-2640.78" x2="-625.8" y2="-2640.78" gradientTransform="matrix(0, -1.32, 1, 0, 2721.77, -756.2)" xlink:href="#linear-gradient-13"/><linearGradient id="linear-gradient-38" x1="-632.84" y1="-2644.65" x2="-629.77" y2="-2644.65" gradientTransform="matrix(0, -1.32, 1, 0, 2727.65, -755.33)" xlink:href="#linear-gradient-13"/></defs><title>fantastic</title><g class="cls-1"><g id="Layer_1" data-name="Layer 1"><path class="cls-2" d="M99,7.25A92,92,0,0,0,18.29,143.32a9.66,9.66,0,0,1,1.62-.14c.21,0,.42,0,.62,0a11.3,11.3,0,0,1,22.55,1.1c0,.34,0,.67,0,1l.26.24A7.91,7.91,0,0,1,57.77,150a7.78,7.78,0,0,1-1.67,4.84,4.64,4.64,0,0,1,1.67-.32A4.52,4.52,0,0,1,62.29,159a4.83,4.83,0,0,1-.16,1.15A10.15,10.15,0,0,1,77,168.71a9,9,0,0,1,12.46,8.37,10.54,10.54,0,0,1-.08,1.13,10.54,10.54,0,0,1,.08,1.13,9,9,0,0,1-10.21,9c-.14.23-.29.45-.45.67a91.08,91.08,0,0,0,14.68,2.1,6.27,6.27,0,0,1,9.06.11,93.13,93.13,0,0,0,13.67-1.53,9.39,9.39,0,0,1,5.3-1.58,9,9,0,0,1,1.28.09A92,92,0,0,0,99,7.25Z"/><path class="cls-3" d="M90.55,59.54A18.05,18.05,0,0,0,76.4,66.38a3.31,3.31,0,0,0-.55,0,3.39,3.39,0,0,0-3.39,3.39A3.34,3.34,0,0,0,73.37,72,18.08,18.08,0,1,0,90.55,59.54Z"/><circle class="cls-4" cx="26.69" cy="38.64" r="14.13"/><circle class="cls-5" cx="45.91" cy="44.29" r="6.22"/><circle class="cls-6" cx="55.51" cy="43.72" r="7.91"/><circle class="cls-7" cx="81.51" cy="42.59" r="3.39"/><circle class="cls-8" cx="84.9" cy="40.9" r="2.83"/><circle class="cls-9" cx="88.85" cy="42.03" r="2.83"/><path class="cls-10" d="M63.42,39.77A9.6,9.6,0,0,0,73,49.37c5.3,0,7.58-4.7,9.61-9.6.1-.27-5.09-9.61-11.31-5.09S63.42,34.46,63.42,39.77Z"/><circle class="cls-11" cx="66.81" cy="30.16" r="7.91"/><circle class="cls-12" cx="53.82" cy="31.86" r="10.74"/><circle class="cls-13" cx="36.86" cy="23.95" r="13"/><circle class="cls-14" cx="24.43" cy="28.47" r="13"/><path class="cls-15" d="M79.25,39.2s-17,4.52-18.09,3.39-14.69-1.13-16.95-1.13-16.95-4.52-16.95-5.65,0-7.91,1.13-7.91,12.43-2.26,15.26-1.13,13,5.65,14.12,5.65S79.25,39.2,79.25,39.2Z"/><circle class="cls-16" cx="83.2" cy="72.54" r="19.78"/><path class="cls-17" d="M76.4,66.38a3.31,3.31,0,0,0-.55,0,3.39,3.39,0,0,0-3.39,3.39A3.34,3.34,0,0,0,73.37,72a18,18,0,0,0,6.2,20,19.74,19.74,0,0,0,20.52-29.68A18,18,0,0,0,76.4,66.38Z"/><path class="cls-18" d="M97.75,59.18A20.31,20.31,0,0,1,69.84,87.09,19.75,19.75,0,0,0,97.75,59.18Z"/><circle class="cls-16" cx="36.27" cy="30.13" r="10.14"/><circle class="cls-19" cx="39.46" cy="31.58" r="9.27"/><polygon class="cls-20" points="52.98 5.3 54.28 7.96 56.94 9.25 54.28 10.55 52.98 13.21 51.69 10.55 49.03 9.25 51.69 7.96 52.98 5.3"/><polygon class="cls-18" points="42.22 111.53 45.23 117.04 50.74 120.06 45.23 123.07 42.22 128.58 39.2 123.07 33.69 120.06 39.2 117.04 42.22 111.53"/><polygon class="cls-21" points="139.33 29.63 142.52 35.45 148.34 38.64 142.52 41.82 139.33 47.64 136.15 41.82 130.33 38.64 136.15 35.45 139.33 29.63"/><circle class="cls-21" cx="96.76" cy="105.32" r="1.7"/><circle class="cls-21" cx="121.63" cy="20.55" r="1.7"/><circle class="cls-21" cx="57.21" cy="19.42" r="1.7"/><circle class="cls-21" cx="165.7" cy="52.2" r="1.7"/><polygon class="cls-21" points="135.79 103.62 136.16 180.75 139.57 180.75 136.16 103.62 135.79 103.62"/><path class="cls-22" d="M111.51,160.66l50.73-3s8.29,15.91,0,21.55c0,0-8.29-5.3-24.53-4.64s-22.55,7-22.55,7C114.13,182.09,106.58,178.44,111.51,160.66Z"/><path class="cls-22" d="M112,123.67l43.08-3.4,10.07,34.21S157.67,150,136.88,150s-29.38,9.24-29.38,9.24Z"/><polygon class="cls-23" points="123.36 93.45 123.73 170.58 127.14 170.58 123.73 93.45 123.36 93.45"/><path class="cls-21" d="M96.52,145.26l57.83-3.4s9.45,18.14,0,24.56c0,0-9.45-6-28-5.29s-25.7,7.94-25.7,7.94C99.5,169.69,90.9,165.52,96.52,145.26Z"/><path class="cls-21" d="M103,113.5,146,110.1l11.72,33.26s-12.51-9.22-33.3-9.22A41,41,0,0,0,92.74,149Z"/><path class="cls-24" d="M97.61,133.29S103,124,122.19,122.83s31.93,7.63,31.93,7.63l3.11,12.72s-17-9-32.78-9-31.64,14.69-31.64,14.69Z"/><path class="cls-24" d="M121.06,153.35a45.88,45.88,0,0,0-26,8.43c1.24,6.18,4.9,7.68,5.64,7.29,0,0,7.18-7.18,25.7-7.94s28,5.29,28,5.29a9.54,9.54,0,0,0,4-6.76C148.41,155,131.39,153.35,121.06,153.35Z"/><path class="cls-25" d="M106.35,179.26c1.51-5.67,9.45-9.83,9.45-9.83s13.22,4.16,18.89,6.42,16.63,7.19,18.15,8.7a9.29,9.29,0,0,1,2,5.15c.34-3.3-.93-6.33-2-7.41-1.52-1.51-12.48-6.43-18.15-8.7s-18.89-6.42-18.89-6.42-7.94,4.16-9.45,9.83a26.82,26.82,0,0,0-.71,7.55A24.18,24.18,0,0,1,106.35,179.26Z"/><path class="cls-21" d="M111.26,110.85l2.65-9.83,21.16-2.65L140,109a28.51,28.51,0,0,0-15.5-4.16A18.72,18.72,0,0,0,111.26,110.85Z"/><line class="cls-26" x1="124.17" y1="94.58" x2="96.2" y2="125.66"/><polygon class="cls-27" points="95.07 123.96 106.37 136.4 118.24 99.67 95.07 123.96"/><polygon class="cls-28" points="103.01 140.93 115.45 147.69 119.89 102.47 103.01 140.93"/><polygon class="cls-29" points="113.18 154.49 122.19 154.48 119.93 116.05 113.18 154.49"/><polygon class="cls-23" points="119.67 168.04 94.84 122.63 93.94 122.94 116.94 166.53 119.67 168.04"/><circle class="cls-30" cx="160.05" cy="72.54" r="14.13"/><circle class="cls-31" cx="140.84" cy="66.89" r="6.22"/><circle class="cls-32" cx="131.23" cy="67.46" r="7.91"/><circle class="cls-33" cx="105.24" cy="68.59" r="3.39"/><circle class="cls-34" cx="101.85" cy="70.28" r="2.83"/><circle class="cls-35" cx="97.89" cy="69.15" r="2.83"/><path class="cls-36" d="M123.32,71.41a9.6,9.6,0,0,0-9.61-9.6c-5.3,0-7.58,4.7-9.6,9.6-.11.27,5.08,9.61,11.3,5.09S123.32,76.72,123.32,71.41Z"/><circle class="cls-37" cx="119.93" cy="81.02" r="7.91"/><circle class="cls-38" cx="132.93" cy="79.32" r="10.74"/><circle class="cls-39" cx="149.88" cy="87.23" r="13"/><circle class="cls-40" cx="162.31" cy="82.71" r="13"/><path class="cls-41" d="M107.5,72s17-4.52,18.08-3.39,14.69,1.13,17,1.13,17,4.52,17,5.65,0,7.91-1.13,7.91-12.44,2.26-15.26,1.13-13-5.65-14.13-5.65S107.5,72,107.5,72Z"/><path class="cls-42" d="M167.4,92.32a17.51,17.51,0,0,0,10.17-7.91c6.78-11.3,11.3-6.78,11.3-6.78s-1.13-6.78-6.78-4.52-11.3,2.26-14.69,0S167.4,92.32,167.4,92.32Z"/><path class="cls-43" d="M109.37,192.12a10.14,10.14,0,0,0,4,1.39c.85-3.15,4.22-5.5,8.26-5.5,3.83,0,7.07,2.12,8.11,5a10.68,10.68,0,0,1,2.62-.33,10.54,10.54,0,0,1,3.81.71q1.5-.15,3-.36a9,9,0,0,1,9-8.07,8.47,8.47,0,0,1,1.76.18,9,9,0,0,1,4.72-2.31,8.4,8.4,0,0,0-1.82-4c-1.52-1.52-12.48-6.43-18.15-8.7s-18.89-6.42-18.89-6.42-7.94,4.16-9.45,9.83S105.59,189.48,109.37,192.12Z"/><ellipse class="cls-44" cx="75.85" cy="61.24" rx="2.83" ry="2.26" transform="translate(-19.79 80.1) rotate(-50.07)"/><circle class="cls-45" cx="70.23" cy="74.11" r="1.16" transform="translate(-8.35 8.92) rotate(-6.86)"/><ellipse class="cls-46" cx="75.12" cy="68.99" rx="1.85" ry="1.84" transform="translate(-7.7 9.47) rotate(-6.86)"/><ellipse class="cls-47" cx="78.47" cy="78.31" rx="3.99" ry="4.2" transform="translate(-31.94 88.22) rotate(-50.07)"/><ellipse class="cls-48" cx="80.99" cy="68.62" rx="1.31" ry="1.38" transform="translate(-23.61 86.68) rotate(-50.07)"/><ellipse class="cls-49" cx="83" cy="75.34" rx="1.92" ry="2.02" transform="translate(-28.05 90.63) rotate(-50.07)"/><g class="cls-50"><path class="cls-51" d="M140.65,53.89a1.5,1.5,0,0,0,0-3,1.5,1.5,0,0,0,0,3Z"/></g><g class="cls-50"><path class="cls-51" d="M182.09,101.17a1.5,1.5,0,0,0,0-3,1.5,1.5,0,0,0,0,3Z"/></g><g class="cls-50"><path class="cls-51" d="M180.39,117.55a1.5,1.5,0,0,0,0-3,1.5,1.5,0,0,0,0,3Z"/></g><g class="cls-50"><path class="cls-51" d="M162.31,111.34a1.5,1.5,0,0,0,0-3,1.5,1.5,0,0,0,0,3Z"/></g><g class="cls-50"><path class="cls-51" d="M62.29,130.55a1.5,1.5,0,0,0,0-3,1.5,1.5,0,0,0,0,3Z"/></g><g class="cls-50"><path class="cls-51" d="M23.61,114.73a1.5,1.5,0,0,0,0-3,1.5,1.5,0,0,0,0,3Z"/></g></g></g></svg>