<svg id="Layer_1" data-name="Layer 1" xmlns="http://www.w3.org/2000/svg" xmlns:xlink="http://www.w3.org/1999/xlink" viewBox="0 0 200 200"><defs><style>.cls-1{fill:#fff1d2;}.cls-2{opacity:0.47;fill:url(#linear-gradient);}.cls-3{fill:#ff855f;}.cls-4{fill:#3459a5;}.cls-5{fill:#9576ad;}.cls-6{fill:#669acc;}.cls-7{fill:#295da8;}</style><linearGradient id="linear-gradient" x1="100.57" y1="77.71" x2="100.57" y2="192.53" gradientUnits="userSpaceOnUse"><stop offset="0" stop-color="#abc7ff"/><stop offset="0.13" stop-color="#e3eeff"/><stop offset="0.89" stop-color="#7dc5ff"/></linearGradient></defs><title>love</title><circle class="cls-1" cx="100.57" cy="100.53" r="92"/><path class="cls-2" d="M8.57,100.53A92,92,0,1,0,189.71,77.71H11.42A92.22,92.22,0,0,0,8.57,100.53Z"/><path class="cls-1" d="M25.15,153.22a92,92,0,0,0,150.83,0Z"/><path class="cls-3" d="M142.19,181.41s-7.59-16.21-9.14-19.35l1.64-.28,4-.65c.39-.22-.2-.57-1.21-.7-.75-.09-9.49-.16-10.75-.16-2.64,0-.61.92.3,1.29l-2,.07,2.89,14.67s-8.77-14.91-10.29-15.05l-1-.06.66-.35c.43-.22-.1-.57-1.08-.69-.73-.1-5-.17-6.25-.17-2.15,0-1.28.62-.42,1h-.59s4.93,12.51,7.21,17.89a51.76,51.76,0,0,0-8.54-7c-4-2.36-13.38-11.37-13.38-11.37h0l2-.46a17.87,17.87,0,0,0-2.91-.4c-.71.05-5-.12-5-.12l-.17,1c-.79,0-1.56.06-2.27.11.35-.23-.08-.54-1-.65a21.41,21.41,0,0,0-2.93-.17c-3.27,0-2.54,1-2.54,1l.45.4c-1.55.12-3.31.27-5.91.64-5.09.72-14.36,4.65-19,6.26a99.85,99.85,0,0,1-10.36,2.85c1.52,0,3.48-.06,3.48-.06.94-.22,9.65.44,19.29,2.35,9.93,2,27.6,7.13,30.29,8.34l1.14.51c-2.57.56-6.63,2.16-6.14,2.77s5.9,5.2,8.81,7.67a92.23,92.23,0,0,0,21.29-2.69L120.11,184c1.59,1.37,3.22,2.71,3.22,2.71h.88c.29.46.85,1.33,1.54,2.38a90.94,90.94,0,0,0,16.89-6.68ZM97.81,185.1l4.27-1.46a14.7,14.7,0,0,1,1.69,1,2.36,2.36,0,0,1,.69.74,10.56,10.56,0,0,0-4.53.21l2.46,2.55Zm6.92,4.58-2.34-1.54,2.52.77C104.86,189.16,104.8,189.41,104.73,189.68Z"/><path class="cls-4" d="M85.05,9.84l-1.14.2L51.64,96.09H27.83L23.71,50c-.3.45-.59.91-.88,1.36l4,44.78H8.68c-.07,1.47-.11,3-.11,4.44,0,1,0,2,0,3.08h8.56v13.23H10c.1.57.21,1.13.32,1.69h6.85v15.64H14.91l.69,1.69h1.58v3.58c.83,1.76,1.7,3.49,2.63,5.19v-8.77H30.38l1,11a3.42,3.42,0,0,0-1.7,3.26s0,.1,0,.14H23.14q1.86,2.9,3.92,5.62l147.42-.54c.46-.61.91-1.24,1.35-1.86l2-3.22H156.18V135.86H180.6v10.06c.93-1.63,1.8-3.29,2.63-5v-5.08h2.3c.24-.56.47-1.12.69-1.69h-3V118.53h7.57c.11-.56.22-1.12.32-1.69h-7.89V103.61h9.28c0-1,.06-2,.06-3.08,0-1.49,0-3-.11-4.44H52.7Zm71.13,93.77H180.6v13.23H156.18Zm0,14.92H180.6v15.64H156.18ZM47.4,103.61h1.42l-1.42,3.78Zm-27.59,0H27.5l1.18,13.23H19.81Zm0,30.56V118.53h9l1.4,15.64Zm11.42,0-1.4-15.64H43.22l-5.86,15.64Zm1.13,12.61-1-10.92h5.34l-4.13,11A2.29,2.29,0,0,0,32.36,146.78Zm12.41,3.45H34.16s0-.09,0-.14a4.2,4.2,0,0,0-.77-2.52l4.39-11.71h7Zm0-16.06H38.42l5.87-15.64h.48Zm0-19.77-.92,2.44H29.68L28.5,103.61H44.77Zm81.72,35.83H47.4V135.86h79.09Zm0-16.06H47.4V118.53h79.09Zm2.63-30.56h24.43v13.23H129.12Zm0,14.92h24.43v15.64H129.12Zm0,17.33h24.43v14.37H129.12Zm-2.63-32.25v13.23H47.4v-6.6l2.49-6.63Z"/><path class="cls-5" d="M137,185H64.17c.9.39,1.8.77,2.72,1.13h67.35C135.16,185.81,136.07,185.43,137,185Z"/><path class="cls-5" d="M48,176c.55.38,1.1.76,1.66,1.13H151.5l1.65-1.13Z"/><path class="cls-5" d="M30.58,160.24h140c.32-.37.64-.75.95-1.13H29.63C29.94,159.49,30.26,159.87,30.58,160.24Z"/><path class="cls-5" d="M33.62,163.62l1.08,1.13H166.43c.37-.37.73-.75,1.09-1.13Z"/><path class="cls-5" d="M39.42,169.26l1.29,1.13H160.43l1.28-1.13Z"/><rect class="cls-6" x="75.2" y="118.67" width="2.63" height="34.38"/><polygon class="cls-7" points="88.89 61.31 88.79 65.56 88.69 69.83 92.74 69.43 93.35 60.91 88.89 61.31"/><path class="cls-7" d="M89.45,66l-7.76,6.69s4.11,10.81,4.56,13.7.92,4.72.46,6.39a37.59,37.59,0,0,1-3.5,7.15c-1.67,2.89-14.61,15.82-22.67,21s-15.83,7-16.74,6.39a13.77,13.77,0,0,0-3.2-.15A66.92,66.92,0,0,1,51,135.26c4.87,4.72,15.37,16.74,20.7,19s7.15,2,10.65,3.35,10.11.91,10.11.91,3-27.39,5.1-33.93,3.81-23.89,3.35-28.3-2.13-19.93-2.13-19.93l.3-9.44S92.8,65.12,89.45,66Z"/><path class="cls-7" d="M81.69,72.72s-4.11,18-4.26,19.63,6.08,6.85,7.76,6.85,2.58-2.59,2.58-2.59l-6.23-4.87,5.32-15.82Z"/><path class="cls-7" d="M96.29,75.16s10.81,6.24,12.94,6.54,10.8-.76,10.8-.76,2.89-1.83,2.28-3.8-3.19-1.68-3.19-1.68-.15,2.44-1.37,2.44a45.73,45.73,0,0,1-8.52-1.22c-1.68-.61-7.67-9.13-10.2-9.74S96.29,75.16,96.29,75.16Z"/><path class="cls-7" d="M93.56,49c4.26,0,5.93,3.34,5.93,7.45s-1.83,8.22-7.15,8.22-6.85-.61-8.22-1.07a10.49,10.49,0,0,0-5.78-.3,7.9,7.9,0,0,1,2.89-3A18.8,18.8,0,0,0,84.73,58s-1.22.77-5,.61-7.46,2.13-7.61,4.72A8.31,8.31,0,0,1,72.41,59c1.37-3,4.12-4.11,7.15-4.11,2.47,0,7.76-.91,9.13-3A6.72,6.72,0,0,1,93.56,49Z"/><polygon class="cls-7" points="109.53 48.53 108.77 56.74 115.47 58.27 114.55 47.92 109.53 48.53"/><path class="cls-7" d="M108.79,55.38S115,58.21,117,57.6l6.39,2.13s-1.22,6.15-2.13,12.39-3.5,16.76-3.5,16.76L102.38,89s-.91-20.12-.76-22-1.42-7.88-.05-9.86S108.79,55.38,108.79,55.38Z"/><path class="cls-7" d="M123.38,59.73s2.71,1.49,4.54,8.64a56.38,56.38,0,0,0,5,12.72l10.5,11,5.94.76,3.8,2.74a18.59,18.59,0,0,1-3.8.76,9.07,9.07,0,0,1-2-1.22l-3,1.52-3-1.37L141,94S128.51,87,127.86,85.24c-1.67-4.42-8.74-11.76-8.74-17.23S121.25,61.4,123.38,59.73Z"/><path class="cls-7" d="M101.12,58.46S93.71,74.4,93.4,75s-9.61,10-9.61,10l-.73,5.64a4.09,4.09,0,0,0,3.83.46c2.41-.77,8.8-5.63,10.17-7.31s5.47-10.5,6.54-11.11S106.7,57.57,101.12,58.46Z"/><path class="cls-7" d="M119.12,88.63,121,100.31s8.7,54.28,8.7,54.88-7.76-.3-7.76-.3l-9.39-42s3.81,42.75,2.44,43.21-8.37.76-8.37.76-6.71-54.29-6.71-56.27,1.74-12.36,1.74-12.36Z"/><path class="cls-7" d="M112.58,51.88s-4.26-.61-5.63-4.11-1.37-11.87,4-13.09,7.91,4,8.07,8.68S116.84,51.42,112.58,51.88Z"/><path class="cls-7" d="M89.59,156.67l5.08,3.38s-1.88,1.51-2.63,1.32a32.22,32.22,0,0,0-4.89.37l-1.3-5.32,1.31-4.32Z"/><path class="cls-7" d="M82,155.73,83.94,158a1.45,1.45,0,0,1-.47,2.26,6.52,6.52,0,0,1-2.82.55,2.94,2.94,0,0,1-3.08-3.19l.74-4.32Z"/><path class="cls-7" d="M113.07,155.17l1.91,2.25a1.47,1.47,0,0,1-.47,2.27,35.32,35.32,0,0,1-6.09.55c-3.27,0-.68-4.67-.68-4.67l1.61-2.84Z"/><path class="cls-7" d="M131.3,154.42l4.55,2.06a1.47,1.47,0,0,1-.48,2.27c-.65.3-9.26.55-10.51.55-3.27,0-.69-4.67-.69-4.67l1.62-2.84Z"/></svg>