<svg width="43" height="43" viewBox="0 0 43 43" fill="none" xmlns="http://www.w3.org/2000/svg">
<g filter="url(#filter0_d)">
<circle cx="19.5" cy="19.5" r="17.5" fill="white"/>
<circle cx="19.5" cy="19.5" r="17" stroke="#9D9683"/>
</g>
<g clip-path="url(#clip0)">
<path d="M14.1183 19.1212L23.0812 10.1583C23.2922 9.94724 23.6307 9.94724 23.8417 10.1583C24.0528 10.3693 24.0528 10.7078 23.8417 10.9188L15.261 19.4995L23.8417 28.0802C24.0528 28.2912 24.0528 28.6297 23.8417 28.8407C23.7382 28.9443 23.5988 29 23.4635 29C23.3281 29 23.1887 28.9482 23.0852 28.8407L14.1222 19.8778C13.9112 19.6707 13.9112 19.3283 14.1183 19.1212Z" fill="#FF1C00"/>
</g>
<defs>
<filter id="filter0_d" x="0" y="0" width="43" height="43" filterUnits="userSpaceOnUse" color-interpolation-filters="sRGB">
<feFlood flood-opacity="0" result="BackgroundImageFix"/>
<feColorMatrix in="SourceAlpha" type="matrix" values="0 0 0 0 0 0 0 0 0 0 0 0 0 0 0 0 0 0 127 0"/>
<feOffset dx="2" dy="2"/>
<feGaussianBlur stdDeviation="2"/>
<feColorMatrix type="matrix" values="0 0 0 0 0 0 0 0 0 0 0 0 0 0 0 0 0 0 0.07 0"/>
<feBlend mode="normal" in2="BackgroundImageFix" result="effect1_dropShadow"/>
<feBlend mode="normal" in="SourceGraphic" in2="effect1_dropShadow" result="shape"/>
</filter>
<clipPath id="clip0">
<rect width="19" height="19" transform="matrix(-1 0 0 1 28 10)" fill="white"/>
</clipPath>
</defs>
</svg>
