<svg width="43" height="43" viewBox="0 0 43 43" fill="none" xmlns="http://www.w3.org/2000/svg">
<g filter="url(#filter0_d)">
<circle r="17.5" transform="matrix(-1 0 0 1 19.5 19.5)" fill="white"/>
<circle r="17" transform="matrix(-1 0 0 1 19.5 19.5)" stroke="#9D9683"/>
</g>
<g clip-path="url(#clip0)">
<path d="M24.8817 19.1212L15.9188 10.1583C15.7078 9.94724 15.3693 9.94724 15.1583 10.1583C14.9472 10.3693 14.9472 10.7078 15.1583 10.9188L23.739 19.4995L15.1583 28.0802C14.9472 28.2912 14.9472 28.6297 15.1583 28.8407C15.2618 28.9443 15.4012 29 15.5365 29C15.6719 29 15.8113 28.9482 15.9148 28.8407L24.8778 19.8778C25.0888 19.6707 25.0888 19.3283 24.8817 19.1212Z" fill="#FF1C00"/>
</g>
<defs>
<filter id="filter0_d" x="0" y="0" width="43" height="43" filterUnits="userSpaceOnUse" color-interpolation-filters="sRGB">
<feFlood flood-opacity="0" result="BackgroundImageFix"/>
<feColorMatrix in="SourceAlpha" type="matrix" values="0 0 0 0 0 0 0 0 0 0 0 0 0 0 0 0 0 0 127 0"/>
<feOffset dx="2" dy="2"/>
<feGaussianBlur stdDeviation="2"/>
<feColorMatrix type="matrix" values="0 0 0 0 0 0 0 0 0 0 0 0 0 0 0 0 0 0 0.07 0"/>
<feBlend mode="normal" in2="BackgroundImageFix" result="effect1_dropShadow"/>
<feBlend mode="normal" in="SourceGraphic" in2="effect1_dropShadow" result="shape"/>
</filter>
<clipPath id="clip0">
<rect x="11" y="10" width="19" height="19" fill="white"/>
</clipPath>
</defs>
</svg>
