<?xml version="1.0" standalone="no"?>
<!DOCTYPE svg PUBLIC "-//W3C//DTD SVG 20010904//EN"
 "http://www.w3.org/TR/2001/REC-SVG-20010904/DTD/svg10.dtd">
<svg version="1.0" xmlns="http://www.w3.org/2000/svg"
 width="450.000000pt" height="150.000000pt" viewBox="0 0 450.000000 150.000000"
 preserveAspectRatio="xMidYMid meet">
<metadata>
Created by potrace 1.15, written by Peter Selinger 2001-2017
</metadata>
<g transform="translate(0.000000,150.000000) scale(0.100000,-0.100000)"
fill="#007397" stroke="none">
<path d="M281 1175 c-109 -31 -158 -100 -149 -210 8 -101 48 -133 213 -176
162 -42 205 -76 179 -144 -19 -48 -155 -62 -214 -22 -33 22 -44 36 -54 70 -4
14 -17 17 -72 17 l-67 0 7 -42 c9 -58 52 -118 106 -148 37 -20 62 -25 140 -28
149 -6 225 24 268 108 19 36 23 57 20 110 -6 109 -41 138 -231 190 -125 35
-167 58 -167 94 0 56 69 93 152 80 45 -8 98 -49 98 -78 0 -13 12 -16 65 -16
55 0 65 3 65 18 0 25 -44 114 -66 134 -56 50 -196 70 -293 43z"/>
<path d="M2230 863 c0 -299 1 -311 21 -337 17 -21 29 -26 65 -26 l44 0 0 190
0 190 40 0 40 0 0 65 0 65 -40 0 -40 0 0 58 c0 75 -12 91 -77 99 l-53 6 0
-310z"/>
<path d="M873 1020 c-81 -17 -128 -54 -160 -125 -15 -34 -18 -78 -21 -317 l-4
-278 44 0 c24 0 54 7 66 16 20 14 22 23 22 110 0 52 4 94 9 94 5 0 26 -7 47
-16 50 -21 140 -22 179 -1 80 41 117 112 123 233 7 143 -29 220 -125 268 -39
20 -125 28 -180 16z m116 -123 c77 -39 83 -229 10 -281 -37 -26 -94 -21 -129
12 -48 44 -59 159 -22 229 27 49 89 67 141 40z"/>
<path d="M1405 1020 c-113 -18 -175 -97 -183 -232 -8 -139 31 -228 121 -273
111 -55 258 -19 318 79 32 53 26 66 -30 66 -42 0 -54 -5 -79 -30 -26 -25 -38
-30 -81 -30 -63 0 -99 28 -108 83 l-6 37 168 0 168 0 -5 73 c-5 82 -31 141
-77 180 -48 40 -130 59 -206 47z m114 -127 c12 -10 25 -33 30 -50 l10 -33
-104 0 -104 0 10 33 c12 45 43 67 94 67 26 0 51 -7 64 -17z"/>
<path d="M1919 1019 c-80 -12 -126 -46 -165 -119 -15 -28 -19 -57 -19 -140 0
-96 2 -109 28 -156 17 -30 45 -61 69 -77 69 -45 179 -49 255 -10 43 22 103 95
103 124 0 16 -7 19 -56 19 -49 0 -59 -4 -84 -30 -23 -24 -36 -30 -72 -30 -80
0 -118 51 -118 159 0 105 32 151 104 151 33 0 52 -7 74 -25 25 -21 40 -25 92
-25 59 0 61 1 55 23 -12 40 -60 92 -106 113 -53 27 -99 33 -160 23z"/>
<path d="M3427 1016 c-65 -18 -97 -43 -124 -96 -21 -41 -23 -57 -23 -232 l0
-188 65 0 65 0 0 181 0 181 29 29 c38 37 88 39 128 5 l28 -24 3 -186 3 -186
65 0 64 0 0 179 c0 99 3 187 6 196 9 22 56 45 93 45 17 0 42 -10 58 -24 l28
-24 3 -169 c4 -199 6 -203 89 -203 l53 0 0 218 c0 214 0 219 -23 240 -70 66
-233 88 -328 45 -44 -20 -46 -20 -80 -2 -49 25 -143 32 -202 15z"/>
<path d="M2674 1009 c-118 -15 -191 -77 -213 -180 -6 -27 -11 -113 -11 -189
l0 -140 70 0 70 0 0 159 c0 153 1 161 23 187 18 21 35 28 75 32 l52 5 0 68 c0
38 -1 68 -2 68 -2 -1 -31 -5 -64 -10z"/>
<path d="M2782 823 c3 -171 6 -192 25 -230 37 -68 105 -103 203 -103 97 0 167
35 200 100 18 35 20 60 20 230 l0 190 -49 0 c-77 0 -81 -11 -81 -205 0 -155
-1 -162 -22 -183 -30 -27 -67 -36 -103 -22 -52 20 -54 30 -55 228 l0 182 -71
0 -71 0 4 -187z"/>
<path d="M4100 715 l0 -206 33 22 c56 40 227 172 232 179 2 4 -56 53 -130 109
l-135 102 0 -206z"/>
</g>
</svg>
