<svg xmlns="http://www.w3.org/2000/svg" width="17" height="14" viewBox="0 0 17 14"><path fill="#718FA7" fill-rule="evenodd" d="M8.526 10.36a7.068 7.068 0 0 1-2.734-.6l1.058-.946c1.399.831 3.285.49 4.214-.761a2.484 2.484 0 0 0 0-3.01l1.303-1.165a14.7 14.7 0 0 1 3.3 2.667c-.896.972-3.803 3.815-7.14 3.815zM6.7 6.545c0-.902.818-1.634 1.827-1.634.272 0 .54.057.783.163L6.882 7.246a1.47 1.47 0 0 1-.183-.7zm3.654 0c0 .903-.818 1.635-1.827 1.635-.271 0-.539-.057-.782-.163l2.427-2.172c.119.218.181.458.182.7zm-8.968 0c.896-.971 3.804-3.814 7.141-3.814.95.017 1.883.222 2.734.6l-1.057.945c-1.399-.83-3.286-.49-4.214.762a2.484 2.484 0 0 0 0 3.01L4.685 9.212a14.718 14.718 0 0 1-3.3-2.668zm11.868-3.458l2.403-2.15a.505.505 0 0 0 .015-.77.66.66 0 0 0-.876 0L12.17 2.513a8.605 8.605 0 0 0-3.643-.872C3.898 1.641.27 6.038.116 6.225a.5.5 0 0 0 0 .64 15.56 15.56 0 0 0 3.684 3.14l-2.403 2.15a.505.505 0 0 0-.015.77.66.66 0 0 0 .876 0l2.625-2.346a8.59 8.59 0 0 0 3.643.871c4.629 0 8.258-4.396 8.41-4.583a.5.5 0 0 0 0-.64 15.559 15.559 0 0 0-3.683-3.139z"/></svg>