<svg xmlns="http://www.w3.org/2000/svg" width="50" height="50" viewBox="0 0 50 50">
	<path fill="#ffffff" d="M34.977 49.248H14.619L.222 34.852V14.493L14.619.096h20.358l14.398 14.397v20.359zm-19.53-2h18.702l13.225-13.225V15.321L34.149 2.097H15.447L2.222 15.321v18.702z"/>
	<path fill="#ffffff" d="M21.511 22.378h-4.219V11.586h4.219z"/>
	<path fill="#ffffff" d="M16.78 34.737h16.036v4.219H16.78z"/>
	<path fill="#ffffff" d="M11.385 30.519h5.396v4.218h-5.396z"/>
	<path fill="#ffffff" d="M7.166 25.123h4.219v5.396H7.166z"/>
	<path fill="#ffffff" d="M38.136 25.123h4.218v5.396h-4.218z"/>
	<path fill="#ffffff" d="M32.741 30.519h5.396v4.218h-5.396z"/>
	<path fill="#ffffff" d="M32.152 22.378h-4.219V11.586h4.219z"/>
</svg>