<svg xmlns="http://www.w3.org/2000/svg" width="26" height="26" viewBox="0 0 26 26"><path fill="#FFA24C" stroke="#FFA24C" stroke-width=".5" d="M24.792 23.776l-5.833-5.832a10.19 10.19 0 0 0 2.512-6.71C21.471 5.586 16.878 1 11.236 1 5.588 1 1 5.592 1 11.233c0 5.641 4.593 10.234 10.236 10.234 2.565 0 4.912-.948 6.711-2.512l5.834 5.832a.723.723 0 0 0 .506.213.72.72 0 0 0 .506-1.224zM2.432 11.233c0-4.853 3.95-8.796 8.798-8.796 4.854 0 8.799 3.948 8.799 8.796 0 4.848-3.945 8.802-8.799 8.802-4.849 0-8.798-3.949-8.798-8.802z"/></svg>