<svg xmlns="http://www.w3.org/2000/svg" width="23" height="25" viewBox="0 0 23 25"><path fill="#FFA24C" stroke="#FFA24C" stroke-width=".5" d="M18.544 15.776c-1.321 0-2.5.63-3.253 1.605l-6.31-3.53a4.13 4.13 0 0 0 .228-1.356 4.04 4.04 0 0 0-.234-1.36l6.306-3.525a4.1 4.1 0 0 0 3.258 1.614 4.113 4.113 0 0 0 0-8.224 4.113 4.113 0 0 0-3.873 5.473L8.365 9.998a4.085 4.085 0 0 0-3.258-1.615A4.116 4.116 0 0 0 1 12.495a4.117 4.117 0 0 0 4.112 4.112 4.106 4.106 0 0 0 3.262-1.619l6.306 3.53c-.152.43-.238.893-.238 1.37A4.116 4.116 0 0 0 18.549 24a4.113 4.113 0 0 0 4.107-4.112 4.117 4.117 0 0 0-4.112-4.112zm0-13.482a2.823 2.823 0 0 1 0 5.645 2.823 2.823 0 0 1 0-5.645zM5.112 15.318a2.823 2.823 0 0 1 0-5.645 2.823 2.823 0 0 1 0 5.645zm13.432 7.388a2.823 2.823 0 0 1 0-5.645 2.823 2.823 0 0 1 0 5.645z"/></svg>