<svg id="Layer_1" data-name="Layer 1" xmlns="http://www.w3.org/2000/svg" xmlns:xlink="http://www.w3.org/1999/xlink" viewBox="0 0 200 200"><defs><style>.cls-1{fill:url(#linear-gradient);}.cls-2{fill:url(#radial-gradient);}.cls-3{fill:url(#linear-gradient-2);}.cls-4{fill:url(#linear-gradient-3);}.cls-5{fill:url(#radial-gradient-2);}.cls-20,.cls-6{fill:#fff;}.cls-6{opacity:0.44;}.cls-7{fill:#f24a00;opacity:0.2;}.cls-8{fill:url(#linear-gradient-4);}.cls-9{fill:url(#linear-gradient-5);}.cls-10{fill:url(#linear-gradient-6);}.cls-11{fill:url(#linear-gradient-7);}.cls-12{fill:url(#linear-gradient-8);}.cls-13{fill:url(#linear-gradient-9);}.cls-14,.cls-21{fill:none;}.cls-15{font-size:53.63px;font-family:Cambria-Bold, Cambria;font-weight:700;letter-spacing:-0.05em;}.cls-15,.cls-23{fill:#ff6903;}.cls-16{opacity:0.62;}.cls-17{fill:url(#linear-gradient-10);}.cls-18{fill:#ef5500;opacity:0.65;}.cls-19{fill:#c3d1dd;}.cls-21{stroke:#649bdd;stroke-miterlimit:10;stroke-width:3px;}.cls-22{fill:#ff7300;}</style><linearGradient id="linear-gradient" x1="100.1" y1="29.77" x2="100.1" y2="101.65" gradientUnits="userSpaceOnUse"><stop offset="0" stop-color="#ffe6a6"/><stop offset="0.55" stop-color="#ffa82e"/><stop offset="1" stop-color="#ff6363"/></linearGradient><radialGradient id="radial-gradient" cx="99.49" cy="186.45" r="172.85" gradientUnits="userSpaceOnUse"><stop offset="0" stop-color="#ffd25e"/><stop offset="0.74" stop-color="#ffe294"/><stop offset="1" stop-color="#ffeebf"/></radialGradient><linearGradient id="linear-gradient-2" x1="27.06" y1="208.53" x2="87.54" y2="176.28" xlink:href="#linear-gradient"/><linearGradient id="linear-gradient-3" x1="6.4" y1="176.22" x2="63.23" y2="170.08" xlink:href="#linear-gradient"/><radialGradient id="radial-gradient-2" cx="100.1" cy="190.43" r="34.97" xlink:href="#linear-gradient"/><linearGradient id="linear-gradient-4" x1="20.74" y1="185.88" x2="20.74" y2="115.33" xlink:href="#linear-gradient"/><linearGradient id="linear-gradient-5" x1="-10.57" y1="130.17" x2="25.14" y2="108.86" xlink:href="#linear-gradient"/><linearGradient id="linear-gradient-6" x1="15712.29" y1="208.53" x2="15772.77" y2="176.28" gradientTransform="matrix(-1, 0, 0, 1, 15885.33, 0)" xlink:href="#linear-gradient"/><linearGradient id="linear-gradient-7" x1="15691.63" y1="176.22" x2="15748.46" y2="170.08" gradientTransform="matrix(-1, 0, 0, 1, 15885.33, 0)" xlink:href="#linear-gradient"/><linearGradient id="linear-gradient-8" x1="15705.97" y1="185.88" x2="15705.97" y2="115.33" gradientTransform="matrix(-1, 0, 0, 1, 15885.33, 0)" xlink:href="#linear-gradient"/><linearGradient id="linear-gradient-9" x1="15674.66" y1="130.17" x2="15710.37" y2="108.86" gradientTransform="matrix(-1, 0, 0, 1, 15885.33, 0)" xlink:href="#linear-gradient"/><linearGradient id="linear-gradient-10" x1="99.7" y1="147.48" x2="99.7" y2="183.22" gradientUnits="userSpaceOnUse"><stop offset="0.51" stop-color="#f96217"/><stop offset="0.51" stop-color="#ffdc7a"/><stop offset="1" stop-color="#ff6417"/></linearGradient><symbol id="New_Symbol" data-name="New Symbol" viewBox="0 0 200 200"><circle class="cls-1" cx="100.1" cy="97.74" r="92.74"/><path class="cls-2" d="M196.47,98.19l-8.94-2-87.43,2-87.42-2-8.95,2s-3,16.89,8,29.8a40.73,40.73,0,0,0-6.95,2s0,16.89,20.86,28.81c0,0-3,1-6,5l29.8,18.88-3,7.94s7.39,2.69,20.87,1l7.94-1s10.93,8.95,24.84,8.95,24.84-8.95,24.84-8.95l7.95,1c7.94,1,20.86-1,20.86-1-1-6-3-7.94-3-7.94,26.82-7.95,29.8-18.88,29.8-18.88-3-4-6-5-6-5C195.47,146.87,195.47,130,195.47,130a40.73,40.73,0,0,0-6.95-2C199.45,115.08,196.47,98.19,196.47,98.19Z"/><polygon class="cls-3" points="46.31 190.58 56.14 195.09 75.12 190.58 75.99 180.85 46.31 190.58"/><polygon class="cls-4" points="53.91 173.36 19.48 163.76 29.64 178.96 49.29 182.64 53.91 173.36"/><path class="cls-5" d="M124,180.85S113.76,200,100,200s-23.93-19.15-23.93-19.15l-.83,9.77c.71.56,11.36,8.91,24.79,8.91,13.91,0,24.84-8.95,24.84-8.95h0Z"/><polygon class="cls-6" points="53.84 173.2 54.03 167.83 25.03 158.23 19.27 163.99 53.84 173.2"/><polygon class="cls-6" points="48.46 184.34 75.34 180.12 75.72 181.27 46.16 191.25 48.46 184.34"/><circle class="cls-7" cx="99.92" cy="113.3" r="50.69"/><path class="cls-8" d="M4.58,130l6.63,20.18s10.3,6.39,14.23,8.63c8.67-3.23,11.46-5.19,11.46-5.19Z"/><path class="cls-9" d="M29.93,129.31,3.66,98.37l-.15.36c-.24,1.8-.37,19.17-.37,19.17L11.54,128Z"/><polygon class="cls-6" points="14.79 96.14 29.77 128.91 3.14 98.32 14.79 96.14"/><polygon class="cls-6" points="4.3 129.43 19.02 128.4 36.68 152.34 4.3 129.43"/><polygon class="cls-10" points="153.8 190.58 143.96 195.09 124.98 190.58 124.11 180.85 153.8 190.58"/><polygon class="cls-11" points="146.19 173.36 180.62 163.76 170.46 178.96 150.81 182.64 146.19 173.36"/><polygon class="cls-6" points="146.27 173.2 146.08 167.83 175.07 158.23 180.83 163.99 146.27 173.2"/><polygon class="cls-6" points="151.64 184.34 124.76 180.12 124.38 181.27 153.95 191.25 151.64 184.34"/><path class="cls-12" d="M195.52,130l-6.63,20.18s-10.3,6.39-14.23,8.63c-8.67-3.23-11.46-5.19-11.46-5.19Z"/><path class="cls-13" d="M170.17,129.31l26.28-30.94s.05.14.14.36c.24,1.8.37,19.17.37,19.17L188.57,128Z"/><polygon class="cls-6" points="185.31 96.14 170.33 128.91 196.96 98.32 185.31 96.14"/><polygon class="cls-6" points="195.81 129.43 181.09 128.4 163.42 152.34 195.81 129.43"/><rect class="cls-14" width="200" height="200"/></symbol></defs><title>map1</title><use width="200" height="200" xlink:href="#New_Symbol"/><text class="cls-15" transform="translate(90.31 183.22)">I</text><g class="cls-16"><path class="cls-17" d="M103.74,176.64c0,.62,0,1.18.05,1.71a6.18,6.18,0,0,0,.21,1.28,2.43,2.43,0,0,0,.46.84,2.72,2.72,0,0,0,.83.59,6.57,6.57,0,0,0,1.28.43v1.73H92.82v-1.73a7.61,7.61,0,0,0,1.53-.56,1.9,1.9,0,0,0,.84-.84,3.8,3.8,0,0,0,.35-1.36,20.32,20.32,0,0,0,.08-2.09V154.05q0-1.26-.06-2.07a3.81,3.81,0,0,0-.34-1.35,2.08,2.08,0,0,0-.84-.85,7.28,7.28,0,0,0-1.56-.58v-1.72h13.75v1.72a6.08,6.08,0,0,0-1.59.62,2.26,2.26,0,0,0-.77.8,3.39,3.39,0,0,0-.36,1.23,17.26,17.26,0,0,0-.11,2.22Z"/></g><polygon class="cls-18" points="173.56 135.54 123.58 147.7 80.05 135.54 28.66 147.7 28.66 68.32 80.05 56.16 123.58 68.32 173.56 56.16 173.56 135.54"/><polygon class="cls-19" points="172.52 120.27 124.48 134.53 77.93 120.27 28.38 134.53 52.37 98.31 77.93 27.18 124.48 41.44 172.52 27.18 172.52 120.27"/><polygon class="cls-20" points="173.56 120.27 124.54 134.53 124.54 41.44 173.56 27.18 173.56 120.27"/><polyline class="cls-21" points="82.67 61.42 89.26 54.84 95.84 61.42"/><polygon class="cls-20" points="28.66 41.44 28.66 75.22 38.72 72.68 39.69 76.51 28.66 79.3 28.66 85.76 32.13 84.89 33.1 88.72 28.66 89.84 28.66 134.53 77.93 120.27 77.93 27.18 28.66 41.44"/><path class="cls-22" d="M34.43,111.25l-4.5-2.17A64.43,64.43,0,0,1,34.79,101l4.11,2.85A62.34,62.34,0,0,0,34.43,111.25ZM44.27,97l-3.74-3.32a66.21,66.21,0,0,1,6.65-6.56l3.25,3.8A61.82,61.82,0,0,0,44.27,97Zm83-1.6a21.06,21.06,0,0,1-3.77-.34l.86-4.92a15.6,15.6,0,0,0,7.67-.5l1.56,4.75A20.24,20.24,0,0,1,127.27,95.4Zm-12.91-3.24a68,68,0,0,1-7.32-4l-.8-.48,2.57-4.29.81.49a61.93,61.93,0,0,0,6.79,3.71Zm27.78-2.91-3.37-3.7A30.26,30.26,0,0,0,144,79.13l4.26,2.61A35.07,35.07,0,0,1,142.14,89.25ZM57.38,85.91l-2.56-4.3a45.84,45.84,0,0,1,8.62-4l1.61,4.73A41.74,41.74,0,0,0,57.38,85.91Zm41.24-2.16a42,42,0,0,0-8.15-2.29l.9-4.92a46.93,46.93,0,0,1,9.11,2.57ZM73.25,80.56l-.48-5c1.31-.13,2.64-.19,4-.19,1.9,0,3.69,0,5.39.13l-.25,5c-1.62-.08-3.34-.12-5.13-.12h0C75.57,80.39,74.4,80.45,73.25,80.56Z"/><rect class="cls-19" x="144.12" y="54.31" width="5.92" height="30.4" transform="translate(92.23 -83.64) rotate(45)"/><rect class="cls-19" x="143.65" y="54.31" width="6.86" height="30.4" transform="translate(300.23 14.66) rotate(135)"/><polyline class="cls-21" points="39.2 58.79 50.4 47.59 61.59 58.79"/><polyline class="cls-21" points="56.33 54.84 62.91 48.25 69.5 54.84"/><rect class="cls-23" x="144.26" y="49.95" width="5.92" height="30.4" transform="translate(89.19 -85.01) rotate(45)"/><rect class="cls-23" x="143.79" y="49.95" width="6.86" height="30.4" transform="translate(297.38 7.13) rotate(135)"/><path class="cls-21" d="M124.6,107.09a11.47,11.47,0,0,0-9.32.44c-9.46,4.72-15,19.3-15,19.3"/><path class="cls-21" d="M169,96.3s-7.68,14.77-23,16c-9.9.77-15.87-3.38-21.4-5.16"/><rect class="cls-20" x="108.19" y="22.45" width="1.18" height="1.18"/><rect class="cls-20" x="64.47" y="22.45" width="2.36" height="2.36"/><rect class="cls-20" x="124.73" y="28.36" width="1.18" height="1.18"/><rect class="cls-20" x="180.27" y="85.08" width="1.18" height="1.18"/><rect class="cls-20" x="23.11" y="80.35" width="1.18" height="1.18"/><rect class="cls-20" x="121.18" y="14.18" width="3.54" height="3.54"/><rect class="cls-20" x="110.55" y="27.18" width="3.54" height="3.54"/></svg>