<svg id="Layer_1" data-name="Layer 1" xmlns="http://www.w3.org/2000/svg" xmlns:xlink="http://www.w3.org/1999/xlink" viewBox="0 0 200 200"><defs><style>.cls-1{fill:url(#linear-gradient);}.cls-2{fill:url(#radial-gradient);}.cls-3{fill:url(#linear-gradient-2);}.cls-4{fill:url(#linear-gradient-3);}.cls-5{fill:url(#radial-gradient-2);}.cls-19,.cls-27,.cls-6{fill:#fff;}.cls-6{opacity:0.44;}.cls-7{fill:#f24a00;opacity:0.2;}.cls-8{fill:url(#linear-gradient-4);}.cls-9{fill:url(#linear-gradient-5);}.cls-10{fill:url(#linear-gradient-6);}.cls-11{fill:url(#linear-gradient-7);}.cls-12{fill:url(#linear-gradient-8);}.cls-13{fill:url(#linear-gradient-9);}.cls-14{fill:none;}.cls-15{font-size:53.63px;fill:#ff6903;font-family:Cambria-Bold, Cambria;font-weight:700;letter-spacing:-0.05em;}.cls-16{opacity:0.62;}.cls-17{fill:url(#linear-gradient-10);}.cls-18{fill:#ea2c00;opacity:0.5;}.cls-20{fill:url(#linear-gradient-11);}.cls-21{fill:url(#radial-gradient-3);}.cls-22{fill:url(#linear-gradient-12);}.cls-23{fill:url(#linear-gradient-13);}.cls-24{fill:url(#linear-gradient-14);}.cls-25{fill:url(#radial-gradient-4);}.cls-26{fill:#ff9e57;opacity:0.35;}.cls-27{opacity:0.59;}.cls-28{fill:url(#linear-gradient-15);}.cls-29{fill:url(#linear-gradient-16);}.cls-30{fill:url(#radial-gradient-5);}.cls-31{fill:url(#linear-gradient-17);}.cls-32{fill:url(#linear-gradient-18);}.cls-33{fill:url(#linear-gradient-19);}.cls-34{fill:url(#radial-gradient-6);}</style><linearGradient id="linear-gradient" x1="100.1" y1="29.77" x2="100.1" y2="101.65" gradientUnits="userSpaceOnUse"><stop offset="0" stop-color="#ffe6a6"/><stop offset="0.55" stop-color="#ffa82e"/><stop offset="1" stop-color="#ff6363"/></linearGradient><radialGradient id="radial-gradient" cx="99.49" cy="186.45" r="172.85" gradientUnits="userSpaceOnUse"><stop offset="0" stop-color="#ffd25e"/><stop offset="0.74" stop-color="#ffe294"/><stop offset="1" stop-color="#ffeebf"/></radialGradient><linearGradient id="linear-gradient-2" x1="27.06" y1="208.53" x2="87.54" y2="176.28" xlink:href="#linear-gradient"/><linearGradient id="linear-gradient-3" x1="6.4" y1="176.22" x2="63.23" y2="170.08" xlink:href="#linear-gradient"/><radialGradient id="radial-gradient-2" cx="100.1" cy="190.43" r="34.97" xlink:href="#linear-gradient"/><linearGradient id="linear-gradient-4" x1="20.74" y1="185.88" x2="20.74" y2="115.33" xlink:href="#linear-gradient"/><linearGradient id="linear-gradient-5" x1="-10.57" y1="130.17" x2="25.14" y2="108.86" xlink:href="#linear-gradient"/><linearGradient id="linear-gradient-6" x1="15712.29" y1="208.53" x2="15772.77" y2="176.28" gradientTransform="matrix(-1, 0, 0, 1, 15885.33, 0)" xlink:href="#linear-gradient"/><linearGradient id="linear-gradient-7" x1="15691.63" y1="176.22" x2="15748.46" y2="170.08" gradientTransform="matrix(-1, 0, 0, 1, 15885.33, 0)" xlink:href="#linear-gradient"/><linearGradient id="linear-gradient-8" x1="15705.97" y1="185.88" x2="15705.97" y2="115.33" gradientTransform="matrix(-1, 0, 0, 1, 15885.33, 0)" xlink:href="#linear-gradient"/><linearGradient id="linear-gradient-9" x1="15674.66" y1="130.17" x2="15710.37" y2="108.86" gradientTransform="matrix(-1, 0, 0, 1, 15885.33, 0)" xlink:href="#linear-gradient"/><linearGradient id="linear-gradient-10" x1="99.7" y1="147.48" x2="99.7" y2="183.22" gradientUnits="userSpaceOnUse"><stop offset="0.51" stop-color="#f96217"/><stop offset="0.51" stop-color="#ffdc7a"/><stop offset="1" stop-color="#ff6417"/></linearGradient><linearGradient id="linear-gradient-11" x1="34.2" y1="90.88" x2="71.94" y2="90.88" gradientUnits="userSpaceOnUse"><stop offset="0" stop-color="#fffa96"/><stop offset="1" stop-color="#ffdc66"/></linearGradient><radialGradient id="radial-gradient-3" cx="90.12" cy="90.52" r="22.22" gradientUnits="userSpaceOnUse"><stop offset="0" stop-color="#ffdc66"/><stop offset="1" stop-color="#fffa96"/></radialGradient><linearGradient id="linear-gradient-12" x1="71.94" y1="59.92" x2="132.92" y2="59.92" xlink:href="#linear-gradient-11"/><linearGradient id="linear-gradient-13" x1="10.89" y1="59.98" x2="71.94" y2="59.98" xlink:href="#radial-gradient-3"/><linearGradient id="linear-gradient-14" x1="71.91" y1="32.85" x2="90.79" y2="32.85" xlink:href="#linear-gradient-11"/><radialGradient id="radial-gradient-4" cx="62.5" cy="32.85" r="43.86" gradientUnits="userSpaceOnUse"><stop offset="0" stop-color="#fffa96"/><stop offset="1" stop-color="#fff"/></radialGradient><linearGradient id="linear-gradient-15" x1="128.28" y1="124.65" x2="128.28" y2="140.81" xlink:href="#linear-gradient-11"/><linearGradient id="linear-gradient-16" x1="383.08" y1="-92.93" x2="401.51" y2="-92.93" gradientTransform="translate(-209.57 -116.9) rotate(45)" xlink:href="#linear-gradient-11"/><radialGradient id="radial-gradient-5" cx="410.39" cy="-93.1" r="10.85" gradientTransform="translate(-209.57 -116.9) rotate(45)" xlink:href="#radial-gradient-3"/><linearGradient id="linear-gradient-17" x1="401.51" y1="-108.05" x2="431.29" y2="-108.05" gradientTransform="translate(-209.57 -116.9) rotate(45)" xlink:href="#linear-gradient-11"/><linearGradient id="linear-gradient-18" x1="371.69" y1="-108.02" x2="401.51" y2="-108.02" gradientTransform="translate(-209.57 -116.9) rotate(45)" xlink:href="#radial-gradient-3"/><linearGradient id="linear-gradient-19" x1="401.49" y1="-121.27" x2="410.72" y2="-121.27" gradientTransform="translate(-209.57 -116.9) rotate(45)" xlink:href="#linear-gradient-11"/><radialGradient id="radial-gradient-6" cx="396.9" cy="-121.27" r="21.42" gradientTransform="translate(-209.57 -116.9) rotate(45)" xlink:href="#radial-gradient-4"/><symbol id="New_Symbol" data-name="New Symbol" viewBox="0 0 200 200"><circle class="cls-1" cx="100.1" cy="97.74" r="92.74"/><path class="cls-2" d="M196.47,98.19l-8.94-2-87.43,2-87.42-2-8.95,2s-3,16.89,8,29.8a40.73,40.73,0,0,0-6.95,2s0,16.89,20.86,28.81c0,0-3,1-6,5l29.8,18.88-3,7.94s7.39,2.69,20.87,1l7.94-1s10.93,8.95,24.84,8.95,24.84-8.95,24.84-8.95l7.95,1c7.94,1,20.86-1,20.86-1-1-6-3-7.94-3-7.94,26.82-7.95,29.8-18.88,29.8-18.88-3-4-6-5-6-5C195.47,146.87,195.47,130,195.47,130a40.73,40.73,0,0,0-6.95-2C199.45,115.08,196.47,98.19,196.47,98.19Z"/><polygon class="cls-3" points="46.31 190.58 56.14 195.09 75.12 190.58 75.99 180.85 46.31 190.58"/><polygon class="cls-4" points="53.91 173.36 19.48 163.76 29.64 178.96 49.29 182.64 53.91 173.36"/><path class="cls-5" d="M124,180.85S113.76,200,100,200s-23.93-19.15-23.93-19.15l-.83,9.77c.71.56,11.36,8.91,24.79,8.91,13.91,0,24.84-8.95,24.84-8.95h0Z"/><polygon class="cls-6" points="53.84 173.2 54.03 167.83 25.03 158.23 19.27 163.99 53.84 173.2"/><polygon class="cls-6" points="48.46 184.34 75.34 180.12 75.72 181.27 46.16 191.25 48.46 184.34"/><circle class="cls-7" cx="99.92" cy="113.3" r="50.69"/><path class="cls-8" d="M4.58,130l6.63,20.18s10.3,6.39,14.23,8.63c8.67-3.23,11.46-5.19,11.46-5.19Z"/><path class="cls-9" d="M29.93,129.31,3.66,98.37l-.15.36c-.24,1.8-.37,19.17-.37,19.17L11.54,128Z"/><polygon class="cls-6" points="14.79 96.14 29.77 128.91 3.14 98.32 14.79 96.14"/><polygon class="cls-6" points="4.3 129.43 19.02 128.4 36.68 152.34 4.3 129.43"/><polygon class="cls-10" points="153.8 190.58 143.96 195.09 124.98 190.58 124.11 180.85 153.8 190.58"/><polygon class="cls-11" points="146.19 173.36 180.62 163.76 170.46 178.96 150.81 182.64 146.19 173.36"/><polygon class="cls-6" points="146.27 173.2 146.08 167.83 175.07 158.23 180.83 163.99 146.27 173.2"/><polygon class="cls-6" points="151.64 184.34 124.76 180.12 124.38 181.27 153.95 191.25 151.64 184.34"/><path class="cls-12" d="M195.52,130l-6.63,20.18s-10.3,6.39-14.23,8.63c-8.67-3.23-11.46-5.19-11.46-5.19Z"/><path class="cls-13" d="M170.17,129.31l26.28-30.94s.05.14.14.36c.24,1.8.37,19.17.37,19.17L188.57,128Z"/><polygon class="cls-6" points="185.31 96.14 170.33 128.91 196.96 98.32 185.31 96.14"/><polygon class="cls-6" points="195.81 129.43 181.09 128.4 163.42 152.34 195.81 129.43"/><rect class="cls-14" width="200" height="200"/></symbol></defs><title>star1</title><use id="New_Symbol-3" data-name="New Symbol" width="200" height="200" xlink:href="#New_Symbol"/><text class="cls-15" transform="translate(90.31 183.22)">I</text><g class="cls-16"><path class="cls-17" d="M103.74,176.64c0,.62,0,1.18.05,1.71a6.18,6.18,0,0,0,.21,1.28,2.43,2.43,0,0,0,.46.84,2.72,2.72,0,0,0,.83.59,6.57,6.57,0,0,0,1.28.43v1.73H92.82v-1.73a7.61,7.61,0,0,0,1.53-.56,1.9,1.9,0,0,0,.84-.84,3.8,3.8,0,0,0,.35-1.36,20.32,20.32,0,0,0,.08-2.09V154.05q0-1.26-.06-2.07a3.81,3.81,0,0,0-.34-1.35,2.08,2.08,0,0,0-.84-.85,7.28,7.28,0,0,0-1.56-.58v-1.72h13.75v1.72a6.08,6.08,0,0,0-1.59.62,2.26,2.26,0,0,0-.77.8,3.39,3.39,0,0,0-.36,1.23,17.26,17.26,0,0,0-.11,2.22Z"/></g><polygon class="cls-18" points="77.06 16.14 95.92 54.36 138.1 60.49 107.58 90.24 114.78 132.25 77.06 112.42 39.33 132.25 46.54 90.24 16.02 60.49 58.2 54.36 77.06 16.14"/><polygon class="cls-19" points="71.93 0.75 90.79 38.98 132.97 45.1 102.45 74.86 109.66 116.86 71.93 97.03 34.2 116.86 41.41 74.86 10.89 45.1 53.07 38.98 71.93 0.75"/><polygon class="cls-20" points="34.2 116.86 71.94 64.89 71.93 97.03 34.2 116.86"/><polygon class="cls-21" points="108.3 116.15 71.94 64.89 71.94 97.03 108.3 116.15"/><polygon class="cls-22" points="102.45 74.86 132.91 44.99 71.94 64.89 102.45 74.86"/><polygon class="cls-23" points="41.41 74.86 71.94 64.89 10.89 45.1 41.41 74.86"/><polygon class="cls-24" points="71.91 0.82 71.94 64.89 90.79 38.98 71.91 0.82"/><polygon class="cls-25" points="53.07 38.98 71.94 64.89 71.91 0.82 53.07 38.98"/><polygon class="cls-19" points="66.31 12.16 71.94 64.89 71.91 0.82 66.31 12.16"/><polygon class="cls-19" points="55.79 42.71 71.92 22.63 71.92 33.65 55.33 46.57 55.79 42.71"/><polygon class="cls-26" points="71.92 22.63 86.15 45.36 83.89 48.47 71.92 33.65 71.92 22.63"/><polygon class="cls-19" points="94.11 73.3 96.9 98.91 89.1 91.12 91.7 70.25 94.11 73.3"/><polygon class="cls-27" points="96.9 98.91 70.76 92.9 71.93 89.1 89.1 91.12 96.9 98.91"/><polygon class="cls-26" points="45.8 98.91 71.94 92.9 70.77 89.1 53.6 91.12 45.8 98.91"/><polygon class="cls-18" points="171.05 79.54 164.36 99.25 176.81 115.94 156 115.67 143.98 132.66 137.8 112.79 117.92 106.61 134.92 94.59 134.65 73.77 151.33 86.22 171.05 79.54"/><polygon class="cls-18" points="138.59 125.17 135.68 133.73 141.09 140.97 132.05 140.86 126.83 148.24 124.15 139.61 115.52 136.92 122.9 131.71 122.78 122.67 130.03 128.07 138.59 125.17"/><polygon class="cls-28" points="137.46 122.62 134.87 130.26 139.69 136.73 131.63 136.62 126.97 143.21 124.58 135.51 116.87 133.11 123.46 128.46 123.36 120.39 129.82 125.21 137.46 122.62"/><polygon class="cls-19" points="123.78 15.47 121.19 23.11 126.02 29.57 117.95 29.47 113.29 36.06 110.9 28.35 103.19 25.96 109.78 21.3 109.68 13.24 116.14 18.06 123.78 15.47"/><polygon class="cls-19" points="171.17 70.17 164.49 89.89 176.94 106.57 156.12 106.3 144.1 123.3 137.92 103.42 118.04 97.24 135.04 85.22 134.77 64.41 151.46 76.86 171.17 70.17"/><polygon class="cls-29" points="118.04 97.24 149.02 92.32 137.92 103.42 118.04 97.24"/><polygon class="cls-30" points="143.88 122.58 149.02 92.32 137.92 103.42 143.88 122.58"/><polygon class="cls-31" points="156.12 106.3 176.96 106.51 149.02 92.32 156.12 106.3"/><polygon class="cls-32" points="135.04 85.22 149.02 92.32 134.77 64.41 135.04 85.22"/><polygon class="cls-33" points="171.14 70.19 149.02 92.32 164.49 89.89 171.14 70.19"/><polygon class="cls-34" points="151.46 76.86 149.02 92.32 171.14 70.19 151.46 76.86"/><polygon class="cls-19" points="165.29 72.17 149.02 92.32 171.14 70.19 165.29 72.17"/><polygon class="cls-19" points="153.78 102.88 145.9 112.69 145.89 107.31 154 101 153.78 102.88"/><rect class="cls-19" x="64.83" y="127.12" width="3.42" height="3.42"/><rect class="cls-19" x="116.12" y="81.53" width="3.42" height="3.42"/><rect class="cls-19" x="136.64" y="47.33" width="2.28" height="2.28"/></svg>