<svg id="Layer_1" data-name="Layer 1" xmlns="http://www.w3.org/2000/svg" xmlns:xlink="http://www.w3.org/1999/xlink" viewBox="0 0 200 200"><defs><style>.cls-1{fill:url(#linear-gradient);}.cls-2{fill:url(#radial-gradient);}.cls-3{fill:url(#linear-gradient-2);}.cls-4{fill:url(#linear-gradient-3);}.cls-5{fill:url(#radial-gradient-2);}.cls-16,.cls-24,.cls-6{fill:#fff;}.cls-6{opacity:0.44;}.cls-7{fill:#f24a00;opacity:0.2;}.cls-8{fill:url(#linear-gradient-4);}.cls-9{fill:url(#linear-gradient-5);}.cls-10{fill:url(#linear-gradient-6);}.cls-11{fill:url(#linear-gradient-7);}.cls-12{fill:url(#linear-gradient-8);}.cls-13{fill:url(#linear-gradient-9);}.cls-14{fill:none;}.cls-15{fill:#ea2c00;opacity:0.5;}.cls-17{fill:url(#linear-gradient-10);}.cls-18{fill:url(#radial-gradient-3);}.cls-19{fill:url(#linear-gradient-11);}.cls-20{fill:url(#linear-gradient-12);}.cls-21{fill:url(#linear-gradient-13);}.cls-22{fill:url(#radial-gradient-4);}.cls-23{fill:#ff9e57;opacity:0.35;}.cls-24{opacity:0.59;}.cls-25{fill:url(#linear-gradient-14);}.cls-26{fill:url(#linear-gradient-15);}.cls-27{fill:url(#radial-gradient-5);}.cls-28{fill:url(#linear-gradient-16);}.cls-29{fill:url(#linear-gradient-17);}.cls-30{fill:url(#linear-gradient-18);}.cls-31{fill:url(#radial-gradient-6);}.cls-32{font-size:53.63px;fill:#ff6903;font-family:Cambria-Bold, Cambria;font-weight:700;letter-spacing:-0.05em;}.cls-33{opacity:0.62;}.cls-34{fill:url(#linear-gradient-19);}</style><linearGradient id="linear-gradient" x1="100.1" y1="29.77" x2="100.1" y2="101.65" gradientUnits="userSpaceOnUse"><stop offset="0" stop-color="#ffe6a6"/><stop offset="0.55" stop-color="#ffa82e"/><stop offset="1" stop-color="#ff6363"/></linearGradient><radialGradient id="radial-gradient" cx="99.49" cy="186.45" r="172.85" gradientUnits="userSpaceOnUse"><stop offset="0" stop-color="#ffd25e"/><stop offset="0.74" stop-color="#ffe294"/><stop offset="1" stop-color="#ffeebf"/></radialGradient><linearGradient id="linear-gradient-2" x1="27.06" y1="208.53" x2="87.54" y2="176.28" xlink:href="#linear-gradient"/><linearGradient id="linear-gradient-3" x1="6.4" y1="176.22" x2="63.23" y2="170.08" xlink:href="#linear-gradient"/><radialGradient id="radial-gradient-2" cx="100.1" cy="190.43" r="34.97" xlink:href="#linear-gradient"/><linearGradient id="linear-gradient-4" x1="20.74" y1="185.88" x2="20.74" y2="115.33" xlink:href="#linear-gradient"/><linearGradient id="linear-gradient-5" x1="-10.57" y1="130.17" x2="25.14" y2="108.86" xlink:href="#linear-gradient"/><linearGradient id="linear-gradient-6" x1="15712.29" y1="208.53" x2="15772.77" y2="176.28" gradientTransform="matrix(-1, 0, 0, 1, 15885.33, 0)" xlink:href="#linear-gradient"/><linearGradient id="linear-gradient-7" x1="15691.63" y1="176.22" x2="15748.46" y2="170.08" gradientTransform="matrix(-1, 0, 0, 1, 15885.33, 0)" xlink:href="#linear-gradient"/><linearGradient id="linear-gradient-8" x1="15705.97" y1="185.88" x2="15705.97" y2="115.33" gradientTransform="matrix(-1, 0, 0, 1, 15885.33, 0)" xlink:href="#linear-gradient"/><linearGradient id="linear-gradient-9" x1="15674.66" y1="130.17" x2="15710.37" y2="108.86" gradientTransform="matrix(-1, 0, 0, 1, 15885.33, 0)" xlink:href="#linear-gradient"/><linearGradient id="linear-gradient-10" x1="34.04" y1="90.88" x2="71.77" y2="90.88" gradientUnits="userSpaceOnUse"><stop offset="0" stop-color="#fffa96"/><stop offset="1" stop-color="#ffdc66"/></linearGradient><radialGradient id="radial-gradient-3" cx="89.95" cy="90.52" r="22.22" gradientUnits="userSpaceOnUse"><stop offset="0" stop-color="#ffdc66"/><stop offset="1" stop-color="#fffa96"/></radialGradient><linearGradient id="linear-gradient-11" x1="71.77" y1="59.92" x2="132.75" y2="59.92" xlink:href="#linear-gradient-10"/><linearGradient id="linear-gradient-12" x1="10.72" y1="59.98" x2="71.77" y2="59.98" xlink:href="#radial-gradient-3"/><linearGradient id="linear-gradient-13" x1="71.74" y1="32.85" x2="90.63" y2="32.85" xlink:href="#linear-gradient-10"/><radialGradient id="radial-gradient-4" cx="62.33" cy="32.85" r="43.86" gradientUnits="userSpaceOnUse"><stop offset="0" stop-color="#fffa96"/><stop offset="1" stop-color="#fff"/></radialGradient><linearGradient id="linear-gradient-14" x1="128.12" y1="124.65" x2="128.12" y2="140.81" xlink:href="#linear-gradient-10"/><linearGradient id="linear-gradient-15" x1="170.12" y1="-606.64" x2="188.55" y2="-606.64" gradientTransform="translate(-422.41 396.93) rotate(45)" xlink:href="#linear-gradient-10"/><radialGradient id="radial-gradient-5" cx="197.43" cy="-606.82" r="10.85" gradientTransform="translate(-422.41 396.93) rotate(45)" xlink:href="#radial-gradient-3"/><linearGradient id="linear-gradient-16" x1="188.55" y1="-621.76" x2="218.33" y2="-621.76" gradientTransform="translate(-422.41 396.93) rotate(45)" xlink:href="#linear-gradient-10"/><linearGradient id="linear-gradient-17" x1="158.74" y1="-621.73" x2="188.55" y2="-621.73" gradientTransform="translate(-422.41 396.93) rotate(45)" xlink:href="#radial-gradient-3"/><linearGradient id="linear-gradient-18" x1="188.54" y1="-634.98" x2="197.76" y2="-634.98" gradientTransform="translate(-422.41 396.93) rotate(45)" xlink:href="#linear-gradient-10"/><radialGradient id="radial-gradient-6" cx="183.94" cy="-634.98" r="21.42" gradientTransform="translate(-422.41 396.93) rotate(45)" xlink:href="#radial-gradient-4"/><linearGradient id="linear-gradient-19" x1="104.94" y1="147.48" x2="104.94" y2="183.4" gradientUnits="userSpaceOnUse"><stop offset="0.51" stop-color="#f96217"/><stop offset="0.51" stop-color="#ffdc7a"/><stop offset="1" stop-color="#ff6417"/></linearGradient><symbol id="New_Symbol" data-name="New Symbol" viewBox="0 0 200 200"><circle class="cls-1" cx="100.1" cy="97.74" r="92.74"/><path class="cls-2" d="M196.47,98.19l-8.94-2-87.43,2-87.42-2-8.95,2s-3,16.89,8,29.8a40.73,40.73,0,0,0-6.95,2s0,16.89,20.86,28.81c0,0-3,1-6,5l29.8,18.88-3,7.94s7.39,2.69,20.87,1l7.94-1s10.93,8.95,24.84,8.95,24.84-8.95,24.84-8.95l7.95,1c7.94,1,20.86-1,20.86-1-1-6-3-7.94-3-7.94,26.82-7.95,29.8-18.88,29.8-18.88-3-4-6-5-6-5C195.47,146.87,195.47,130,195.47,130a40.73,40.73,0,0,0-6.95-2C199.45,115.08,196.47,98.19,196.47,98.19Z"/><polygon class="cls-3" points="46.31 190.58 56.14 195.09 75.12 190.58 75.99 180.85 46.31 190.58"/><polygon class="cls-4" points="53.91 173.36 19.48 163.76 29.64 178.96 49.29 182.64 53.91 173.36"/><path class="cls-5" d="M124,180.85S113.76,200,100,200s-23.93-19.15-23.93-19.15l-.83,9.77c.71.56,11.36,8.91,24.79,8.91,13.91,0,24.84-8.95,24.84-8.95h0Z"/><polygon class="cls-6" points="53.84 173.2 54.03 167.83 25.03 158.23 19.27 163.99 53.84 173.2"/><polygon class="cls-6" points="48.46 184.34 75.34 180.12 75.72 181.27 46.16 191.25 48.46 184.34"/><circle class="cls-7" cx="99.92" cy="113.3" r="50.69"/><path class="cls-8" d="M4.58,130l6.63,20.18s10.3,6.39,14.23,8.63c8.67-3.23,11.46-5.19,11.46-5.19Z"/><path class="cls-9" d="M29.93,129.31,3.66,98.37l-.15.36c-.24,1.8-.37,19.17-.37,19.17L11.54,128Z"/><polygon class="cls-6" points="14.79 96.14 29.77 128.91 3.14 98.32 14.79 96.14"/><polygon class="cls-6" points="4.3 129.43 19.02 128.4 36.68 152.34 4.3 129.43"/><polygon class="cls-10" points="153.8 190.58 143.96 195.09 124.98 190.58 124.11 180.85 153.8 190.58"/><polygon class="cls-11" points="146.19 173.36 180.62 163.76 170.46 178.96 150.81 182.64 146.19 173.36"/><polygon class="cls-6" points="146.27 173.2 146.08 167.83 175.07 158.23 180.83 163.99 146.27 173.2"/><polygon class="cls-6" points="151.64 184.34 124.76 180.12 124.38 181.27 153.95 191.25 151.64 184.34"/><path class="cls-12" d="M195.52,130l-6.63,20.18s-10.3,6.39-14.23,8.63c-8.67-3.23-11.46-5.19-11.46-5.19Z"/><path class="cls-13" d="M170.17,129.31l26.28-30.94s.05.14.14.36c.24,1.8.37,19.17.37,19.17L188.57,128Z"/><polygon class="cls-6" points="185.31 96.14 170.33 128.91 196.96 98.32 185.31 96.14"/><polygon class="cls-6" points="195.81 129.43 181.09 128.4 163.42 152.34 195.81 129.43"/><rect class="cls-14" width="200" height="200"/></symbol></defs><title>star4</title><use id="New_Symbol-3" data-name="New Symbol" width="200" height="200" transform="translate(-0.17)" xlink:href="#New_Symbol"/><polygon class="cls-15" points="76.89 16.14 95.75 54.36 137.94 60.49 107.41 90.24 114.62 132.25 76.89 112.42 39.17 132.25 46.37 90.24 15.85 60.49 58.03 54.36 76.89 16.14"/><polygon class="cls-16" points="71.76 0.75 90.63 38.98 132.81 45.1 102.28 74.86 109.49 116.86 71.76 97.03 34.04 116.86 41.24 74.86 10.72 45.1 52.9 38.98 71.76 0.75"/><polygon class="cls-17" points="34.04 116.86 71.77 64.89 71.76 97.03 34.04 116.86"/><polygon class="cls-18" points="108.13 116.15 71.77 64.89 71.77 97.03 108.13 116.15"/><polygon class="cls-19" points="102.28 74.86 132.75 44.99 71.77 64.89 102.28 74.86"/><polygon class="cls-20" points="41.24 74.86 71.77 64.89 10.72 45.1 41.24 74.86"/><polygon class="cls-21" points="71.74 0.82 71.77 64.89 90.63 38.98 71.74 0.82"/><polygon class="cls-22" points="52.9 38.98 71.77 64.89 71.74 0.82 52.9 38.98"/><polygon class="cls-16" points="66.14 12.16 71.77 64.89 71.74 0.82 66.14 12.16"/><polygon class="cls-16" points="55.62 42.71 71.75 22.63 71.76 33.65 55.16 46.57 55.62 42.71"/><polygon class="cls-23" points="71.75 22.63 85.98 45.36 83.72 48.47 71.76 33.65 71.75 22.63"/><polygon class="cls-16" points="93.94 73.3 96.73 98.91 88.94 91.12 91.54 70.25 93.94 73.3"/><polygon class="cls-24" points="96.73 98.91 70.6 92.9 71.76 89.1 88.94 91.12 96.73 98.91"/><polygon class="cls-23" points="45.64 98.91 71.77 92.9 70.6 89.1 53.43 91.12 45.64 98.91"/><polygon class="cls-15" points="170.88 79.54 164.2 99.25 176.65 115.94 155.83 115.67 143.81 132.66 137.63 112.79 117.75 106.61 134.75 94.59 134.48 73.77 151.17 86.22 170.88 79.54"/><polygon class="cls-15" points="138.42 125.17 135.52 133.73 140.92 140.97 131.89 140.86 126.67 148.24 123.98 139.61 115.36 136.92 122.73 131.71 122.62 122.67 129.86 128.07 138.42 125.17"/><polygon class="cls-25" points="137.29 122.62 134.7 130.26 139.53 136.73 131.46 136.62 126.81 143.21 124.41 135.51 116.71 133.11 123.29 128.46 123.19 120.39 129.66 125.21 137.29 122.62"/><polygon class="cls-16" points="123.61 15.47 121.03 23.11 125.85 29.57 117.78 29.47 113.13 36.06 110.73 28.35 103.03 25.96 109.61 21.3 109.51 13.24 115.98 18.06 123.61 15.47"/><polygon class="cls-16" points="171 70.17 164.32 89.89 176.77 106.57 155.95 106.3 143.93 123.3 137.75 103.42 117.88 97.24 134.87 85.22 134.61 64.41 151.29 76.86 171 70.17"/><polygon class="cls-26" points="117.88 97.24 148.86 92.32 137.75 103.42 117.88 97.24"/><polygon class="cls-27" points="143.71 122.58 148.86 92.32 137.76 103.42 143.71 122.58"/><polygon class="cls-28" points="155.95 106.3 176.79 106.51 148.86 92.32 155.95 106.3"/><polygon class="cls-29" points="134.87 85.22 148.86 92.32 134.61 64.41 134.87 85.22"/><polygon class="cls-30" points="170.98 70.19 148.86 92.32 164.32 89.89 170.98 70.19"/><polygon class="cls-31" points="151.29 76.86 148.86 92.32 170.98 70.19 151.29 76.86"/><polygon class="cls-16" points="165.12 72.17 148.86 92.32 170.98 70.19 165.12 72.17"/><polygon class="cls-16" points="153.61 102.88 145.73 112.69 145.73 107.31 153.83 101 153.61 102.88"/><rect class="cls-16" x="64.66" y="127.12" width="3.42" height="3.42"/><rect class="cls-16" x="115.96" y="81.53" width="3.42" height="3.42"/><rect class="cls-16" x="136.47" y="47.33" width="2.28" height="2.28"/><text class="cls-32" transform="translate(78.54 183.22)">IV</text><g class="cls-33"><path class="cls-34" d="M92,176.64c0,.62,0,1.18.06,1.71a5.08,5.08,0,0,0,.21,1.28,2.26,2.26,0,0,0,.45.84,2.72,2.72,0,0,0,.83.59,7.07,7.07,0,0,0,1.28.43v1.73H81.06v-1.73a8.1,8.1,0,0,0,1.53-.56,2,2,0,0,0,.84-.84,3.8,3.8,0,0,0,.35-1.36c0-.55.08-1.25.08-2.09V154.05c0-.84,0-1.53-.07-2.07a3.43,3.43,0,0,0-.34-1.35,2,2,0,0,0-.84-.85,7,7,0,0,0-1.55-.58v-1.72H94.8v1.72a6.14,6.14,0,0,0-1.58.62,2.18,2.18,0,0,0-.77.8,3.38,3.38,0,0,0-.37,1.23,17.26,17.26,0,0,0-.11,2.22Z"/><path class="cls-34" d="M119.43,156.06a19.41,19.41,0,0,0,.62-2.06,9.68,9.68,0,0,0,.22-2.05,2.66,2.66,0,0,0-.67-2,3.12,3.12,0,0,0-2-.79v-1.72h11.28v1.72a4.12,4.12,0,0,0-1.69.64,4.74,4.74,0,0,0-1.25,1.39,17.51,17.51,0,0,0-1.33,3l-11,29.22h-6L98.9,154.07a18.59,18.59,0,0,0-1-2.78,3.76,3.76,0,0,0-1-1.34,4.11,4.11,0,0,0-1.75-.75v-1.72h14.48v1.72a3.59,3.59,0,0,0-2,.76,2.24,2.24,0,0,0-.65,1.71,9.37,9.37,0,0,0,.15,1.68q.16.83.66,2.64l5.18,18.8Z"/></g></svg>