<svg id="Layer_1" data-name="Layer 1" xmlns="http://www.w3.org/2000/svg" xmlns:xlink="http://www.w3.org/1999/xlink" viewBox="0 0 200 200"><defs><style>.cls-1{fill:url(#linear-gradient);}.cls-2{fill:url(#radial-gradient);}.cls-3{fill:url(#linear-gradient-2);}.cls-4{fill:url(#linear-gradient-3);}.cls-5{fill:url(#radial-gradient-2);}.cls-16,.cls-24,.cls-6{fill:#fff;}.cls-6{opacity:0.44;}.cls-7{fill:#f24a00;opacity:0.2;}.cls-8{fill:url(#linear-gradient-4);}.cls-9{fill:url(#linear-gradient-5);}.cls-10{fill:url(#linear-gradient-6);}.cls-11{fill:url(#linear-gradient-7);}.cls-12{fill:url(#linear-gradient-8);}.cls-13{fill:url(#linear-gradient-9);}.cls-14{fill:none;}.cls-15{fill:#ea2c00;opacity:0.5;}.cls-17{fill:url(#linear-gradient-10);}.cls-18{fill:url(#radial-gradient-3);}.cls-19{fill:url(#linear-gradient-11);}.cls-20{fill:url(#linear-gradient-12);}.cls-21{fill:url(#linear-gradient-13);}.cls-22{fill:url(#radial-gradient-4);}.cls-23{fill:#ff9e57;opacity:0.35;}.cls-24{opacity:0.59;}.cls-25{fill:url(#linear-gradient-14);}.cls-26{fill:url(#linear-gradient-15);}.cls-27{fill:url(#radial-gradient-5);}.cls-28{fill:url(#linear-gradient-16);}.cls-29{fill:url(#linear-gradient-17);}.cls-30{fill:url(#linear-gradient-18);}.cls-31{fill:url(#radial-gradient-6);}.cls-32{font-size:55px;fill:#ff6903;font-family:Cambria-Bold, Cambria;font-weight:700;letter-spacing:-0.05em;}.cls-33{opacity:0.62;}.cls-34{fill:url(#linear-gradient-19);}</style><linearGradient id="linear-gradient" x1="100.1" y1="29.77" x2="100.1" y2="101.65" gradientUnits="userSpaceOnUse"><stop offset="0" stop-color="#ffe6a6"/><stop offset="0.55" stop-color="#ffa82e"/><stop offset="1" stop-color="#ff6363"/></linearGradient><radialGradient id="radial-gradient" cx="99.49" cy="186.45" r="172.85" gradientUnits="userSpaceOnUse"><stop offset="0" stop-color="#ffd25e"/><stop offset="0.74" stop-color="#ffe294"/><stop offset="1" stop-color="#ffeebf"/></radialGradient><linearGradient id="linear-gradient-2" x1="27.06" y1="208.53" x2="87.54" y2="176.28" xlink:href="#linear-gradient"/><linearGradient id="linear-gradient-3" x1="6.4" y1="176.22" x2="63.23" y2="170.08" xlink:href="#linear-gradient"/><radialGradient id="radial-gradient-2" cx="100.1" cy="190.43" r="34.97" xlink:href="#linear-gradient"/><linearGradient id="linear-gradient-4" x1="20.74" y1="185.88" x2="20.74" y2="115.33" xlink:href="#linear-gradient"/><linearGradient id="linear-gradient-5" x1="-10.57" y1="130.17" x2="25.14" y2="108.86" xlink:href="#linear-gradient"/><linearGradient id="linear-gradient-6" x1="15712.29" y1="208.53" x2="15772.77" y2="176.28" gradientTransform="matrix(-1, 0, 0, 1, 15885.33, 0)" xlink:href="#linear-gradient"/><linearGradient id="linear-gradient-7" x1="15691.63" y1="176.22" x2="15748.46" y2="170.08" gradientTransform="matrix(-1, 0, 0, 1, 15885.33, 0)" xlink:href="#linear-gradient"/><linearGradient id="linear-gradient-8" x1="15705.97" y1="185.88" x2="15705.97" y2="115.33" gradientTransform="matrix(-1, 0, 0, 1, 15885.33, 0)" xlink:href="#linear-gradient"/><linearGradient id="linear-gradient-9" x1="15674.66" y1="130.17" x2="15710.37" y2="108.86" gradientTransform="matrix(-1, 0, 0, 1, 15885.33, 0)" xlink:href="#linear-gradient"/><linearGradient id="linear-gradient-10" x1="33.54" y1="90.88" x2="71.27" y2="90.88" gradientUnits="userSpaceOnUse"><stop offset="0" stop-color="#fffa96"/><stop offset="1" stop-color="#ffdc66"/></linearGradient><radialGradient id="radial-gradient-3" cx="89.45" cy="90.52" r="22.22" gradientUnits="userSpaceOnUse"><stop offset="0" stop-color="#ffdc66"/><stop offset="1" stop-color="#fffa96"/></radialGradient><linearGradient id="linear-gradient-11" x1="71.27" y1="59.92" x2="132.25" y2="59.92" xlink:href="#linear-gradient-10"/><linearGradient id="linear-gradient-12" x1="10.22" y1="59.98" x2="71.27" y2="59.98" xlink:href="#radial-gradient-3"/><linearGradient id="linear-gradient-13" x1="71.24" y1="32.85" x2="90.13" y2="32.85" xlink:href="#linear-gradient-10"/><radialGradient id="radial-gradient-4" cx="61.83" cy="32.85" r="43.86" gradientUnits="userSpaceOnUse"><stop offset="0" stop-color="#fffa96"/><stop offset="1" stop-color="#fff"/></radialGradient><linearGradient id="linear-gradient-14" x1="127.62" y1="124.65" x2="127.62" y2="140.81" xlink:href="#linear-gradient-10"/><linearGradient id="linear-gradient-15" x1="99.04" y1="-777.06" x2="117.46" y2="-777.06" gradientTransform="translate(-493.14 567.7) rotate(45)" xlink:href="#linear-gradient-10"/><radialGradient id="radial-gradient-5" cx="126.35" cy="-777.23" r="10.85" gradientTransform="translate(-493.14 567.7) rotate(45)" xlink:href="#radial-gradient-3"/><linearGradient id="linear-gradient-16" x1="117.46" y1="-792.17" x2="147.25" y2="-792.17" gradientTransform="translate(-493.14 567.7) rotate(45)" xlink:href="#linear-gradient-10"/><linearGradient id="linear-gradient-17" x1="87.65" y1="-792.15" x2="117.46" y2="-792.15" gradientTransform="translate(-493.14 567.7) rotate(45)" xlink:href="#radial-gradient-3"/><linearGradient id="linear-gradient-18" x1="117.45" y1="-805.39" x2="126.67" y2="-805.39" gradientTransform="translate(-493.14 567.7) rotate(45)" xlink:href="#linear-gradient-10"/><radialGradient id="radial-gradient-6" cx="112.86" cy="-805.39" r="21.42" gradientTransform="translate(-493.14 567.7) rotate(45)" xlink:href="#radial-gradient-4"/><linearGradient id="linear-gradient-19" x1="101.06" y1="146.13" x2="101.06" y2="182.97" gradientUnits="userSpaceOnUse"><stop offset="0.51" stop-color="#f96217"/><stop offset="0.51" stop-color="#ffdc7a"/><stop offset="1" stop-color="#ff6417"/></linearGradient><symbol id="New_Symbol" data-name="New Symbol" viewBox="0 0 200 200"><circle class="cls-1" cx="100.1" cy="97.74" r="92.74"/><path class="cls-2" d="M196.47,98.19l-8.94-2-87.43,2-87.42-2-8.95,2s-3,16.89,8,29.8a40.73,40.73,0,0,0-6.95,2s0,16.89,20.86,28.81c0,0-3,1-6,5l29.8,18.88-3,7.94s7.39,2.69,20.87,1l7.94-1s10.93,8.95,24.84,8.95,24.84-8.95,24.84-8.95l7.95,1c7.94,1,20.86-1,20.86-1-1-6-3-7.94-3-7.94,26.82-7.95,29.8-18.88,29.8-18.88-3-4-6-5-6-5C195.47,146.87,195.47,130,195.47,130a40.73,40.73,0,0,0-6.95-2C199.45,115.08,196.47,98.19,196.47,98.19Z"/><polygon class="cls-3" points="46.31 190.58 56.14 195.09 75.12 190.58 75.99 180.85 46.31 190.58"/><polygon class="cls-4" points="53.91 173.36 19.48 163.76 29.64 178.96 49.29 182.64 53.91 173.36"/><path class="cls-5" d="M124,180.85S113.76,200,100,200s-23.93-19.15-23.93-19.15l-.83,9.77c.71.56,11.36,8.91,24.79,8.91,13.91,0,24.84-8.95,24.84-8.95h0Z"/><polygon class="cls-6" points="53.84 173.2 54.03 167.83 25.03 158.23 19.27 163.99 53.84 173.2"/><polygon class="cls-6" points="48.46 184.34 75.34 180.12 75.72 181.27 46.16 191.25 48.46 184.34"/><circle class="cls-7" cx="99.92" cy="113.3" r="50.69"/><path class="cls-8" d="M4.58,130l6.63,20.18s10.3,6.39,14.23,8.63c8.67-3.23,11.46-5.19,11.46-5.19Z"/><path class="cls-9" d="M29.93,129.31,3.66,98.37l-.15.36c-.24,1.8-.37,19.17-.37,19.17L11.54,128Z"/><polygon class="cls-6" points="14.79 96.14 29.77 128.91 3.14 98.32 14.79 96.14"/><polygon class="cls-6" points="4.3 129.43 19.02 128.4 36.68 152.34 4.3 129.43"/><polygon class="cls-10" points="153.8 190.58 143.96 195.09 124.98 190.58 124.11 180.85 153.8 190.58"/><polygon class="cls-11" points="146.19 173.36 180.62 163.76 170.46 178.96 150.81 182.64 146.19 173.36"/><polygon class="cls-6" points="146.27 173.2 146.08 167.83 175.07 158.23 180.83 163.99 146.27 173.2"/><polygon class="cls-6" points="151.64 184.34 124.76 180.12 124.38 181.27 153.95 191.25 151.64 184.34"/><path class="cls-12" d="M195.52,130l-6.63,20.18s-10.3,6.39-14.23,8.63c-8.67-3.23-11.46-5.19-11.46-5.19Z"/><path class="cls-13" d="M170.17,129.31l26.28-30.94s.05.14.14.36c.24,1.8.37,19.17.37,19.17L188.57,128Z"/><polygon class="cls-6" points="185.31 96.14 170.33 128.91 196.96 98.32 185.31 96.14"/><polygon class="cls-6" points="195.81 129.43 181.09 128.4 163.42 152.34 195.81 129.43"/><rect class="cls-14" width="200" height="200"/></symbol></defs><title>star5</title><use id="New_Symbol-3" data-name="New Symbol" width="200" height="200" transform="translate(-0.67)" xlink:href="#New_Symbol"/><polygon class="cls-15" points="76.39 16.14 95.25 54.36 137.44 60.49 106.91 90.24 114.12 132.25 76.39 112.42 38.67 132.25 45.87 90.24 15.35 60.49 57.53 54.36 76.39 16.14"/><polygon class="cls-16" points="71.26 0.75 90.13 38.98 132.31 45.1 101.78 74.86 108.99 116.86 71.26 97.03 33.54 116.86 40.74 74.86 10.22 45.1 52.4 38.98 71.26 0.75"/><polygon class="cls-17" points="33.54 116.86 71.27 64.89 71.26 97.03 33.54 116.86"/><polygon class="cls-18" points="107.63 116.15 71.27 64.89 71.27 97.03 107.63 116.15"/><polygon class="cls-19" points="101.78 74.86 132.25 44.99 71.27 64.89 101.78 74.86"/><polygon class="cls-20" points="40.74 74.86 71.27 64.89 10.22 45.1 40.74 74.86"/><polygon class="cls-21" points="71.24 0.82 71.27 64.89 90.13 38.98 71.24 0.82"/><polygon class="cls-22" points="52.4 38.98 71.27 64.89 71.24 0.82 52.4 38.98"/><polygon class="cls-16" points="65.64 12.16 71.27 64.89 71.24 0.82 65.64 12.16"/><polygon class="cls-16" points="55.12 42.71 71.25 22.63 71.26 33.65 54.66 46.57 55.12 42.71"/><polygon class="cls-23" points="71.25 22.63 85.48 45.36 83.22 48.47 71.26 33.65 71.25 22.63"/><polygon class="cls-16" points="93.44 73.3 96.23 98.91 88.44 91.12 91.04 70.25 93.44 73.3"/><polygon class="cls-24" points="96.23 98.91 70.1 92.9 71.26 89.1 88.44 91.12 96.23 98.91"/><polygon class="cls-23" points="45.14 98.91 71.27 92.9 70.1 89.1 52.93 91.12 45.14 98.91"/><polygon class="cls-15" points="170.38 79.54 163.7 99.25 176.15 115.94 155.33 115.67 143.31 132.66 137.13 112.79 117.25 106.61 134.25 94.59 133.98 73.77 150.67 86.22 170.38 79.54"/><polygon class="cls-15" points="137.92 125.17 135.02 133.73 140.42 140.97 131.39 140.86 126.17 148.24 123.48 139.61 114.86 136.92 122.23 131.71 122.12 122.67 129.36 128.07 137.92 125.17"/><polygon class="cls-25" points="136.79 122.62 134.2 130.26 139.03 136.73 130.96 136.62 126.31 143.21 123.91 135.51 116.21 133.11 122.79 128.46 122.69 120.39 129.16 125.21 136.79 122.62"/><polygon class="cls-16" points="123.11 15.47 120.53 23.11 125.35 29.57 117.28 29.47 112.63 36.06 110.23 28.35 102.53 25.96 109.11 21.3 109.01 13.24 115.48 18.06 123.11 15.47"/><polygon class="cls-16" points="170.5 70.17 163.82 89.89 176.27 106.57 155.45 106.3 143.43 123.3 137.25 103.42 117.38 97.24 134.37 85.22 134.11 64.41 150.79 76.86 170.5 70.17"/><polygon class="cls-26" points="117.38 97.24 148.36 92.32 137.25 103.42 117.38 97.24"/><polygon class="cls-27" points="143.21 122.58 148.36 92.32 137.26 103.42 143.21 122.58"/><polygon class="cls-28" points="155.45 106.3 176.29 106.51 148.36 92.32 155.45 106.3"/><polygon class="cls-29" points="134.37 85.22 148.36 92.32 134.11 64.41 134.37 85.22"/><polygon class="cls-30" points="170.48 70.19 148.36 92.32 163.82 89.89 170.48 70.19"/><polygon class="cls-31" points="150.79 76.86 148.36 92.32 170.48 70.19 150.79 76.86"/><polygon class="cls-16" points="164.62 72.17 148.36 92.32 170.48 70.19 164.62 72.17"/><polygon class="cls-16" points="153.11 102.88 145.23 112.69 145.23 107.31 153.33 101 153.11 102.88"/><rect class="cls-16" x="64.16" y="127.12" width="3.42" height="3.42"/><rect class="cls-16" x="115.46" y="81.53" width="3.42" height="3.42"/><rect class="cls-16" x="135.97" y="47.33" width="2.28" height="2.28"/><text class="cls-32" transform="translate(83.23 182.79)">V</text><g class="cls-33"><path class="cls-34" d="M108.69,154.94a18.82,18.82,0,0,0,.63-2.12,9.52,9.52,0,0,0,.23-2.1,2.72,2.72,0,0,0-.69-2,3.14,3.14,0,0,0-2.1-.81v-1.77h11.57v1.77a4.12,4.12,0,0,0-1.73.66,4.6,4.6,0,0,0-1.29,1.42,18,18,0,0,0-1.36,3L102.7,183H96.5L87.63,152.9a20.29,20.29,0,0,0-1-2.86,3.85,3.85,0,0,0-1-1.37,4.17,4.17,0,0,0-1.8-.77v-1.77H98.64v1.77a3.6,3.6,0,0,0-2.06.78,2.23,2.23,0,0,0-.67,1.74,9.08,9.08,0,0,0,.16,1.74c.1.56.33,1.46.67,2.7l5.32,19.28Z"/></g></svg>