<svg width="11" height="11" viewBox="0 0 11 11" fill="none" xmlns="http://www.w3.org/2000/svg"><path d="M5.5 7.3629C5.15705 7.3629 4.87903 7.64092 4.87903 7.98387C4.87903 8.32682 5.15705 8.60484 5.5 8.60484C5.84295 8.60484 6.12097 8.32682 6.12097 7.98387C6.12097 7.64092 5.84295 7.3629 5.5 7.3629ZM5.6701 6.83065H5.31526C5.16829 6.83065 5.04913 6.71149 5.04913 6.56452V6.55607C5.04913 4.99604 6.76655 5.14516 6.76655 4.17403C6.76655 3.73013 6.37266 3.28226 5.49268 3.28226C4.84634 3.28226 4.511 3.49625 4.17953 3.91857C4.09286 4.02902 3.93439 4.05153 3.8192 3.97127L3.52792 3.76834C3.40317 3.68143 3.37578 3.50729 3.46926 3.3874C3.94 2.78358 4.49851 2.39516 5.49268 2.39516C6.653 2.39516 7.65365 3.05496 7.65365 4.17403C7.65365 5.6691 5.93623 5.59004 5.93623 6.55607V6.56452C5.93623 6.71149 5.81707 6.83065 5.6701 6.83065ZM5.5 0.709677C8.13071 0.709677 10.2903 2.84037 10.2903 5.5C10.2903 8.14557 8.14776 10.2903 5.5 10.2903C2.85548 10.2903 0.709677 8.14883 0.709677 5.5C0.709677 2.85639 2.85206 0.709677 5.5 0.709677ZM5.5 0C2.46265 0 0 2.46353 0 5.5C0 8.53824 2.46265 11 5.5 11C8.53735 11 11 8.53824 11 5.5C11 2.46353 8.53735 0 5.5 0Z" fill="#828282"/></svg>
