<svg width="11" height="11" viewBox="0 0 11 11" fill="none" xmlns="http://www.w3.org/2000/svg"><path d="M5.5 0C2.46243 0 0 2.46243 0 5.5C0 8.53757 2.46243 11 5.5 11C8.53757 11 11 8.53757 11 5.5C11 2.46243 8.53757 0 5.5 0ZM5.5 10.2903C2.86834 10.2903 0.709677 8.16007 0.709677 5.5C0.709677 2.86836 2.83993 0.709677 5.5 0.709677C8.13166 0.709677 10.2903 2.83993 10.2903 5.5C10.2903 8.13164 8.16007 10.2903 5.5 10.2903ZM8.64099 4.1924L4.63841 8.16286C4.53406 8.26637 4.36556 8.2657 4.26206 8.16136L2.3575 6.24141C2.254 6.13707 2.25467 5.96856 2.35901 5.86506L2.54796 5.67764C2.65231 5.57414 2.82081 5.5748 2.92431 5.67915L4.45402 7.22121L8.07872 3.62559C8.18307 3.52208 8.35157 3.52275 8.45507 3.62709L8.6425 3.81605C8.74602 3.92039 8.74533 4.08889 8.64099 4.1924Z" fill="#8BB671"/></svg>
