<svg width="10" height="14" viewBox="0 0 10 14" fill="none" xmlns="http://www.w3.org/2000/svg"><path d="M5 2.55682C3.62148 2.55682 2.5 3.70379 2.5 5.11364C2.5 6.52348 3.62148 7.67045 5 7.67045C6.37852 7.67045 7.5 6.52348 7.5 5.11364C7.5 3.70379 6.37852 2.55682 5 2.55682ZM5 6.81818C4.08099 6.81818 3.33333 6.05353 3.33333 5.11364C3.33333 4.17374 4.08099 3.40909 5 3.40909C5.91901 3.40909 6.66667 4.17374 6.66667 5.11364C6.66667 6.05353 5.91901 6.81818 5 6.81818ZM5 0C2.23857 0 0 2.28944 0 5.11364C0 7.17542 0.702344 7.75118 4.48615 13.3612C4.73443 13.728 5.26555 13.7281 5.51388 13.3612C9.29766 7.75118 10 7.17542 10 5.11364C10 2.28944 7.76143 0 5 0ZM5 12.6225C1.37253 7.25732 0.833333 6.83134 0.833333 5.11364C0.833333 3.97537 1.26674 2.90526 2.05372 2.1004C2.8407 1.29553 3.88703 0.852273 5 0.852273C6.11297 0.852273 7.1593 1.29553 7.94628 2.1004C8.73325 2.90526 9.16667 3.97537 9.16667 5.11364C9.16667 6.83123 8.62781 7.25684 5 12.6225Z" fill="#828282"/></svg>
