<svg width="22" height="25" viewBox="0 0 22 25" fill="none" xmlns="http://www.w3.org/2000/svg">
<rect x="0.5" y="0.623581" width="8.90109" height="23.7527" rx="1.5" stroke="#333333" stroke-linejoin="round"/>
<path d="M16.6131 24.9093L11.972 20.2682C11.8511 20.1473 11.8511 19.9515 11.972 19.8307C12.0929 19.7098 12.2887 19.7098 12.4095 19.8307L16.5225 23.9436L16.5225 10.4578C16.5225 10.2868 16.6609 10.1484 16.8319 10.1484C17.0029 10.1484 17.1413 10.2868 17.1413 10.4578L17.1413 23.9436L21.2542 19.8307C21.3751 19.7098 21.5709 19.7098 21.6917 19.8307C21.7522 19.8911 21.7824 19.9703 21.7824 20.0494C21.7824 20.1286 21.7522 20.2078 21.6917 20.2682L17.0506 24.9093C16.9298 25.0302 16.734 25.0302 16.6131 24.9093Z" fill="#333333"/>
<path d="M17.0506 0.090703L21.6917 4.73182C21.8126 4.85269 21.8126 5.04849 21.6917 5.16933C21.5708 5.2902 21.375 5.2902 21.2542 5.16933L17.1412 1.05637L17.1412 14.5422C17.1412 14.7132 17.0028 14.8516 16.8318 14.8516C16.6608 14.8516 16.5224 14.7132 16.5224 14.5422L16.5224 1.05637L12.4095 5.16933C12.2886 5.2902 12.0928 5.2902 11.972 5.16933C11.9115 5.10891 11.8813 5.02972 11.8813 4.95056C11.8813 4.8714 11.9115 4.79224 11.972 4.73179L16.6131 0.0906738C16.7339 -0.0301693 16.9297 -0.030169 17.0506 0.090703Z" fill="#333333"/>
</svg>
