<svg width="30" height="30" viewBox="0 0 30 30" fill="none" xmlns="http://www.w3.org/2000/svg">
<g clip-path="url(#clip0)">
<path d="M28.7311 24.795H28.3144C28.3186 24.7361 28.3186 24.6771 28.3144 24.6182V2.34703C28.3144 1.66369 27.761 1.10974 27.0784 1.10974H15.0017C14.3191 1.10974 13.7658 1.66369 13.7658 2.34703V11.5383C12.6159 11.8176 11.6097 12.5126 10.9408 13.4897C10.1205 14.6728 9.86694 16.1594 10.2487 17.548C10.7572 19.4994 10.8207 22.0871 9.76842 23.1618C9.16255 23.6994 8.31029 23.8597 7.55081 23.5789C6.73387 23.4494 6.03636 22.9184 5.69339 22.1649C4.57047 19.5701 7.37425 14.6633 7.38131 14.6421C7.55081 14.3876 11.4563 8.31429 7.46606 4.74383C7.30363 4.57415 3.4546 0.501702 0.481316 0.897634C0.179043 0.936697 -0.0344187 1.21367 0.00460127 1.51628C0.0436212 1.81888 0.320292 2.03258 0.622564 1.99352C1.33711 1.95057 2.04935 2.10982 2.67773 2.45308L1.88674 3.40756C1.45805 3.93933 1.54121 4.71829 2.07239 5.14745C2.08105 5.15444 2.08979 5.16133 2.09861 5.16805L4.75409 7.28911C4.97241 7.46428 5.24413 7.55911 5.52389 7.55778H5.62983C5.95541 7.52101 6.25291 7.35557 6.45614 7.09822L7.22594 6.1296C9.61304 9.18393 6.5197 14.0482 6.44201 14.126C6.31489 14.3452 3.34866 19.5418 4.6764 22.6103C5.16724 23.6758 6.15413 24.428 7.31069 24.6182C7.6669 24.7046 8.03185 24.7497 8.39831 24.7525C9.19018 24.7764 9.95681 24.472 10.517 23.9112C11.9295 22.4335 11.8165 19.4216 11.2657 17.2864C10.6797 15.3209 11.7909 13.2509 13.7516 12.6554V24.6182C13.7474 24.6771 13.7474 24.7361 13.7516 24.795H13.3985C12.7161 24.7793 12.1502 25.3205 12.1347 26.0036C12.1344 26.0132 12.1343 26.0227 12.1343 26.0323V27.8917C12.1342 28.5751 12.6873 29.1292 13.3699 29.1294C13.3794 29.1294 13.389 29.1293 13.3985 29.129H28.7311C29.4136 29.129 29.967 28.5751 29.967 27.8917V26.0323C29.967 25.349 29.4136 24.795 28.7311 24.795ZM6.41376 5.47206L5.62983 6.44068C5.5999 6.4771 5.55665 6.49999 5.50977 6.50432C5.46439 6.51024 5.41849 6.49742 5.38265 6.46897L2.72717 4.3479C2.6599 4.27914 2.6599 4.1692 2.72717 4.10044L3.5111 3.12475C3.54103 3.08834 3.58428 3.06545 3.63116 3.06112C3.67654 3.0552 3.72244 3.06801 3.75829 3.09647L6.41376 5.21754C6.45075 5.24697 6.47379 5.29054 6.47732 5.33773C6.47688 5.3897 6.45366 5.43883 6.41376 5.47206ZM14.811 2.34703C14.811 2.24937 14.89 2.17027 14.9876 2.17027H27.0926C27.1901 2.17027 27.2691 2.24937 27.2691 2.34703V24.6182C27.2691 24.7159 27.1901 24.795 27.0926 24.795H15.0017C14.9045 24.8027 14.8194 24.7302 14.8115 24.6329C14.8112 24.628 14.8109 24.6231 14.811 24.6182V2.34703ZM28.9359 27.8917C28.9359 27.9894 28.8569 28.0685 28.7593 28.0685H13.3985C13.301 28.0685 13.2219 27.9894 13.2219 27.8917V26.0323C13.2219 25.9346 13.301 25.8555 13.3985 25.8555H28.7311C28.8273 25.8399 28.918 25.9053 28.9336 26.0017C28.9352 26.0118 28.936 26.022 28.9359 26.0323V27.8917Z" fill="#333333"/>
<path d="M24.6984 3.85301H17.3817C16.6992 3.85301 16.1458 4.40696 16.1458 5.0903V12.4221C16.1458 13.1055 16.6992 13.6594 17.3817 13.6594H24.6984C25.381 13.6594 25.9344 13.1055 25.9344 12.4221V5.0903C25.9344 4.40705 25.381 3.85301 24.6984 3.85301ZM24.875 12.4292C24.8712 12.524 24.7932 12.599 24.6984 12.5989H17.3817C17.2842 12.5989 17.2052 12.5198 17.2052 12.4221V5.0903C17.2052 4.99264 17.2842 4.91355 17.3817 4.91355H24.6984C24.796 4.91355 24.875 4.99264 24.875 5.0903V12.4292Z" fill="#333333"/>
<path d="M23.8721 15.6604H18.2222C17.9296 15.6604 17.6925 15.8977 17.6925 16.1906C17.6925 16.4835 17.9296 16.7209 18.2222 16.7209H23.8721C24.1647 16.7209 24.4018 16.4835 24.4018 16.1906C24.4018 15.8977 24.1647 15.6604 23.8721 15.6604Z" fill="#333333"/>
</g>
<defs>
<clipPath id="clip0">
<rect width="29.967" height="30" fill="white"/>
</clipPath>
</defs>
</svg>
