<svg width="25" height="25" viewBox="0 0 25 25" fill="none" xmlns="http://www.w3.org/2000/svg">
<g clip-path="url(#clip0)">
<path d="M23.7238 8.33333H22.8914C22.6616 8.33333 22.4752 8.5199 22.4752 8.75V10H21.6428V7.5C21.6428 7.2699 21.4565 7.08333 21.2266 7.08333H17.4807V6.25H19.1456C19.3754 6.25 19.5618 6.06344 19.5618 5.83333V4.16667C19.5618 3.93656 19.3754 3.75 19.1456 3.75H12.07C11.8402 3.75 11.6538 3.93656 11.6538 4.16667V5.83333C11.6538 6.06344 11.8402 6.25 12.07 6.25H13.7349V7.08333H10.4052C10.3552 7.08328 10.3056 7.09219 10.2587 7.10958L6.99978 8.33333H3.74587C3.51602 8.33333 3.32966 8.5199 3.32966 8.75V12.0833H2.49725V8.75C2.49725 8.5199 2.31089 8.33333 2.08104 8.33333H0.416208C0.186357 8.33333 0 8.5199 0 8.75V18.3333C0 18.5634 0.186357 18.75 0.416208 18.75H2.08104C2.31089 18.75 2.49725 18.5634 2.49725 18.3333V15H3.32966V18.3333C3.32966 18.5634 3.51602 18.75 3.74587 18.75H6.93694L10.1555 21.1667C10.2275 21.2208 10.3151 21.25 10.4052 21.25H19.1456C19.2401 21.2501 19.3319 21.2179 19.4057 21.1588L21.4867 19.4921C21.5854 19.413 21.6429 19.2932 21.6428 19.1667V17.0833H22.4752V18.3333C22.4752 18.5634 22.6616 18.75 22.8914 18.75H23.7238C24.4135 18.75 24.9725 18.1904 24.9725 17.5V9.58333C24.9725 8.89297 24.4135 8.33333 23.7238 8.33333ZM1.66483 12.5V17.9167H0.832416V9.16667H1.66483V12.5ZM3.32966 14.1667H2.49725V12.9167H3.32966V14.1667ZM12.4862 5.41667V4.58333H18.7294V5.41667H12.4862ZM16.6483 6.25V7.08333H14.5673V6.25H16.6483ZM24.1401 17.5C24.1401 17.7301 23.9537 17.9167 23.7238 17.9167H23.3076V16.6667C23.3076 16.4366 23.1213 16.25 22.8914 16.25H21.2266C20.9968 16.25 20.8104 16.4366 20.8104 16.6667V18.9667L18.9995 20.4167H10.5438L7.32526 18C7.2532 17.9459 7.16559 17.9167 7.07553 17.9167H4.16208V9.16667H7.07553C7.12553 9.16672 7.17516 9.15781 7.22204 9.14042L10.4809 7.91667H20.8104V10.4167C20.8104 10.6468 20.9968 10.8333 21.2266 10.8333H22.8914C23.1213 10.8333 23.3076 10.6468 23.3076 10.4167V9.16667H23.7238C23.9537 9.16667 24.1401 9.35323 24.1401 9.58333V17.5Z" fill="#333333"/>
<path d="M17.3478 12.1949C17.2708 12.1232 17.1696 12.0834 17.0645 12.0833H15.701L17.0096 9.79166C17.1245 9.59239 17.0563 9.33754 16.8572 9.22249C16.7937 9.18577 16.7217 9.1665 16.6483 9.16666H13.3186C13.1348 9.16666 12.9727 9.28744 12.9199 9.46374L11.6713 13.6304C11.6053 13.8508 11.7304 14.0831 11.9505 14.1491C11.9893 14.1607 12.0296 14.1667 12.07 14.1667H13.0885L11.2751 18.1608C11.1802 18.3704 11.273 18.6173 11.4823 18.7123C11.645 18.7861 11.8366 18.7478 11.9585 18.6171L17.3692 12.7837C17.5257 12.6153 17.5161 12.3516 17.3478 12.1949ZM13.0939 16.1667L14.1136 13.9208C14.2078 13.7109 14.1143 13.4643 13.9046 13.3699C13.8512 13.3459 13.7934 13.3334 13.7349 13.3333H12.6294L13.6283 9.99999H15.9308L14.6222 12.2917C14.5073 12.4909 14.5755 12.7458 14.7745 12.8608C14.8381 12.8975 14.9101 12.9168 14.9835 12.9167H16.1101L13.0939 16.1667Z" fill="#333333"/>
</g>
<defs>
<clipPath id="clip0">
<rect width="24.9725" height="25" fill="white"/>
</clipPath>
</defs>
</svg>
