<svg fill="#ffffff" xmlns="http://www.w3.org/2000/svg" width="24" height="20" viewBox="0 0 24 20"><g><g opacity="1"><path d="M24 2.843c-.404.222-1.617.669-2.746.78.724-.392 1.798-1.672 2.062-2.69-.697.447-2.297 1.095-3.088 1.095v.002c-.9-.942-2.17-1.686-3.578-1.686-2.734 0-4.732 2.373-4.732 5.106 0 .38.044.75.125 1.106h-.001C8.333 6.458 4.059 4.412 1.616 1.23c-1.5 2.6-.202 5.676 1.502 6.73-.583.044-1.657-.067-2.162-.56-.034 1.724.795 4.01 3.82 4.838-.583.314-1.614.224-2.062.157.157 1.457 2.196 3.36 4.426 3.36-.795.919-3.784 2.586-7.14 2.056A14.873 14.873 0 0 0 7.745 20c7.988 0 14.535-6.474 14.201-14.46 0-.009 0-.017-.002-.027l.002-.063-.003-.072C22.671 4.88 23.303 4 24 2.843z"/></g></g></svg>