<svg fill="#ffffff" xmlns="http://www.w3.org/2000/svg" width="24" height="21" viewBox="0 0 24 21"><g><g opacity="1"><path d="M13.979 16.625c0 2.454-2.221 4.365-6.522 4.365-3.773 0-7.488-1.38-7.488-3.833 0-2.493 3.435-4.517 7.208-4.517.41 0 .789-.005 1.179-.005-.516-.506-.926-1.106-.926-1.864 0-.451.143-.86.345-1.245-.206.015-.415.07-.63.07-3.1 0-5.175-2.103-5.175-4.838C1.97 2.086 4.836-.02 7.883-.02h6.796l-1.522 1h-2.154c1.429 0 2.065 2.065 2.065 3.775 0 1.434-.67 2.518-1.794 3.395-1.096.857-1.304 1.217-1.304 1.944 0 .621 1.174 1.679 1.788 2.113 1.796 1.271 2.22 2.449 2.22 4.42zM10.75 4.734C10.447 2.437 8.783.59 7.033.539 5.283.487 4.11 2.247 4.413 4.545c.3 2.3 1.964 4.206 3.716 4.257 1.75.052 2.923-1.768 2.621-4.068zm1.388 12.165c0-.237-.03-.472-.083-.697-.287-1.124-1.052-1.681-2.468-2.665a5.718 5.718 0 0 0-1.692-.27c-2.608-.03-4.943 1.589-4.943 3.531 0 1.984 1.884 3.104 4.491 3.104 3.667 0 4.695-1.019 4.695-3.003zM21.007.932v3.049H24v2.014h-2.993v3h-2.001v-3H16.01V3.98h2.995V.932z"/></g></g></svg>