<svg fill="#ffffff" xmlns="http://www.w3.org/2000/svg" width="24" height="24" viewBox="0 0 24 24"><g><g opacity="1"><path d="M24 12c0 6.627-5.373 12-12 12S0 18.627 0 12 5.373 0 12 0s12 5.373 12 12zm-9.789-2.15c.268.55.53 1.118.785 1.7 2.006-.318 4.328-.303 7.02.169a9.974 9.974 0 0 0-2.142-5.91c-1.582 1.867-3.511 3.157-5.663 4.042zM12 1.978c-.814 0-1.604.1-2.362.284A51.402 51.402 0 0 1 13.3 8.072c2.007-.803 3.781-1.983 5.194-3.698A9.975 9.975 0 0 0 12 1.977zM2.246 9.699c3.188-.009 6.337-.218 9.152-.991a49.163 49.163 0 0 0-3.707-5.757A10.064 10.064 0 0 0 2.246 9.7zm2.21 8.892c1.788-2.62 4.395-5.372 8.578-6.599a43.862 43.862 0 0 0-.698-1.486c-3.18.936-6.726 1.17-10.297 1.17h-.054c-.004.108-.008.216-.008.324 0 2.52.937 4.827 2.48 6.59zM12 22.024c1.351 0 2.64-.27 3.818-.758-.387-2.633-1.117-5.139-2.014-7.436-3.837 1.059-6.195 3.58-7.887 6.129A9.968 9.968 0 0 0 12 22.024zm9.876-8.324c-2.336-.429-4.352-.482-6.106-.26.81 2.126 1.482 4.42 1.892 6.827a10.044 10.044 0 0 0 4.214-6.567z"/></g></g></svg>