<svg width="32" height="32" viewBox="0 0 32 32" fill="none" xmlns="http://www.w3.org/2000/svg">
<circle cx="16" cy="16" r="15.5" fill="white" stroke="#D0D0D0"/>
<path d="M26.1968 14.4135L25.7391 13.9288L24.1327 9.59872C23.859 8.86731 23.159 8.38269 22.3782 8.3782H10.9045C10.1237 8.3782 9.42372 8.86731 9.15 9.59872L7.56603 13.875L6.90641 14.4853C6.33205 14.9744 6 15.6923 6 16.4462V22.7551C6.00449 23.7872 6.84359 24.6218 7.87564 24.6218H9.06026C10.0923 24.6218 10.9314 23.7872 10.9359 22.7551V21.8397H22.0641V22.7551C22.0686 23.7872 22.9077 24.6218 23.9397 24.6218H25.1244C26.1564 24.6218 26.9955 23.7872 27 22.7551V16.2801C26.9955 15.5756 26.7083 14.9026 26.1968 14.4135ZM9.99359 9.90385C10.1372 9.52244 10.5006 9.27564 10.9045 9.27564H22.3827C22.7865 9.27564 23.15 9.52692 23.2936 9.90385L24.6936 13.6731H23.6481C23.4013 11.9904 21.8353 10.8282 20.1526 11.0795C18.8109 11.2769 17.7564 12.3314 17.559 13.6731H8.59359L9.99359 9.90385ZM22.7327 13.6731H18.4654C18.7122 12.4929 19.8699 11.7391 21.05 11.9859C21.8936 12.1654 22.5532 12.825 22.7327 13.6731ZM10.0385 22.7551C10.034 23.2936 9.59872 23.7244 9.06026 23.7244H7.87564C7.33718 23.7244 6.90192 23.2936 6.89744 22.7551V21.5795C7.16667 21.7545 7.52115 21.8397 7.87564 21.8397H10.0385V22.7551ZM26.1026 22.7551C26.0981 23.2936 25.6628 23.7244 25.1244 23.7244H23.9397C23.4013 23.7244 22.966 23.2891 22.9615 22.7551V21.8397H25.1244C25.4788 21.8397 25.8333 21.7545 26.1026 21.5795V22.7551ZM25.1244 20.9423H7.87564C7.34167 20.9468 6.90192 20.5205 6.89744 19.9821V16.4462C6.89744 15.9526 7.11731 15.4814 7.49423 15.1628C7.49872 15.1583 7.50769 15.1494 7.51218 15.1449L8.12244 14.5705H25.1154L25.5462 15.0327C25.5506 15.0417 25.5641 15.0462 25.5686 15.0551C25.9051 15.3737 26.0981 15.8179 26.0981 16.2801V19.9821H26.1026C26.0981 20.516 25.6583 20.9468 25.1244 20.9423Z" fill="#FF0101"/>
<path d="M11.9231 16.3654H8.55767C8.31087 16.3654 8.10895 16.5673 8.10895 16.8141V19.1474C8.10895 19.3942 8.31087 19.5962 8.55767 19.5962H11.9231C12.1698 19.5962 12.3718 19.3942 12.3718 19.1474V16.8141C12.3718 16.5673 12.1698 16.3654 11.9231 16.3654ZM11.4743 18.6987H9.00638V17.2628H11.4743V18.6987Z" fill="#FF0101"/>
<path d="M24.4423 16.3654H21.0769C20.8301 16.3654 20.6282 16.5673 20.6282 16.8141V19.1474C20.6282 19.3942 20.8301 19.5962 21.0769 19.5962H24.4423C24.6891 19.5962 24.891 19.3942 24.891 19.1474V16.8141C24.891 16.5673 24.6891 16.3654 24.4423 16.3654ZM23.9936 18.6987H21.5256V17.2628H23.9936V18.6987Z" fill="#FF0101"/>
<path d="M18.6673 18.25H14.3327C14.0859 18.25 13.884 18.4519 13.884 18.6987C13.884 18.9455 14.0859 19.1474 14.3327 19.1474H18.6673C18.9141 19.1474 19.116 18.9455 19.116 18.6987C19.116 18.4519 18.9141 18.25 18.6673 18.25Z" fill="#FF0101"/>
<path d="M18.6673 16.859H14.3327C14.0859 16.859 13.884 17.0609 13.884 17.3077C13.884 17.5545 14.0859 17.7564 14.3327 17.7564H18.6673C18.9141 17.7564 19.116 17.5545 19.116 17.3077C19.116 17.0609 18.9141 16.859 18.6673 16.859Z" fill="#FF0101"/>
</svg>
