<svg width="40" height="40" viewBox="0 0 40 40" fill="none" xmlns="http://www.w3.org/2000/svg">
<circle cx="20" cy="20" r="20" fill="url(#paint0_linear)"/>
<path d="M29.1566 17.9424C29.1566 18.1496 29.0624 18.6316 28.1875 18.6316H24.1706V31.9273C24.1759 31.963 24.1813 32.0134 24.1813 32.0714C24.1813 32.3076 24.0916 32.5253 23.9273 32.6861C23.7149 32.8941 23.3903 33 22.9619 33H16.7877C15.9333 33 15.7079 32.3942 15.7079 32.0742V18.9115H12.0256C10.9967 18.9115 10.8434 18.4213 10.8434 18.1294C10.8434 17.6616 11.2891 17.1945 11.3784 17.1054C11.6145 16.7854 17.9971 8.3191 18.9258 7.38817C19.2646 7.05112 19.6046 6.99128 19.8299 7.00095C20.3721 7.02325 20.7419 7.44065 20.7821 7.4886L28.5754 16.9052C28.6879 17.0081 29.1566 17.4866 29.1566 17.9424Z" fill="white"/>
<defs>
<linearGradient id="paint0_linear" x1="20" y1="0" x2="20" y2="40" gradientUnits="userSpaceOnUse">
<stop stop-color="#FF0101"/>
<stop offset="1" stop-color="#FF8002"/>
</linearGradient>
</defs>
</svg>
