<svg xmlns="http://www.w3.org/2000/svg" xmlns:xlink="http://www.w3.org/1999/xlink" width="17" height="10" viewBox="0 0 17 10"><defs><path id="a" d="M.002.001h16.984v9.997H.002z"/></defs><g fill="none" fill-rule="evenodd"><mask id="b" fill="#fff"><use xlink:href="#a"/></mask><path fill="#718FA7" d="M1.481 5c.847.95 3.708 3.851 7.012 3.851 3.31 0 6.166-2.9 7.012-3.85-.847-.95-3.708-3.851-7.012-3.851-3.31 0-6.166 2.9-7.012 3.85zm7.012 5C3.875 10 .26 5.497.108 5.306a.486.486 0 0 1 0-.61C.259 4.503 3.875 0 8.493 0s8.234 4.503 8.385 4.694a.485.485 0 0 1 0 .61C16.727 5.498 13.111 10 8.493 10z" mask="url(#b)"/><path fill="#718FA7" d="M8.5 2.3c-1.642 0-2.978 1.234-2.978 2.75S6.858 7.8 8.5 7.8c1.642 0 2.978-1.234 2.978-2.75S10.142 2.3 8.5 2.3"/></g></svg>