<svg xmlns="http://www.w3.org/2000/svg" width="26" height="25" viewBox="0 0 26 25"><path fill="#FFA24C" d="M22.64 0a2.458 2.458 0 0 0-2.451 2.337c-2.55.874-6.798 2.573-13.37 2.573H5.73a2.46 2.46 0 0 0-2.336 1.697A4.098 4.098 0 0 0 0 10.638a4.097 4.097 0 0 0 3.393 4.031 2.463 2.463 0 0 0 1.89 1.656l1.044 6.18a2.448 2.448 0 0 0 2.421 2.045 2.42 2.42 0 0 0 2.387-2.817l-.866-5.195c4.602.448 7.134 1.446 9.92 2.402a2.458 2.458 0 0 0 2.452 2.337 2.458 2.458 0 0 0 2.455-2.455V2.455A2.458 2.458 0 0 0 22.64 0zM3.274 12.953a2.46 2.46 0 0 1-1.636-2.315 2.46 2.46 0 0 1 1.636-2.314v4.63zm5.475 9.96c-.4 0-.74-.286-.807-.682l-.991-5.864c.542.002 1.09.017 1.639.046l.931 5.589a.783.783 0 0 1-.772.911zm.908-8.071a36.798 36.798 0 0 0-2.837-.112H5.73a.82.82 0 0 1-.819-.818V7.365a.82.82 0 0 1 .818-.818H6.82c.936 0 1.886-.039 2.837-.112v8.407zm10.53 2.366c-2.187-.75-4.607-1.689-8.893-2.204V6.273c4.245-.51 6.64-1.432 8.893-2.205v13.14zm3.273 1.614a.82.82 0 0 1-1.637 0V2.455a.82.82 0 0 1 1.637 0v16.367z"/></svg>