<svg width="15" height="15" viewBox="0 0 15 15" fill="none" xmlns="http://www.w3.org/2000/svg">
<circle cx="7.5" cy="7.5" r="7" fill="white" stroke="#F73A18"/>
<path d="M6.77734 8.91016C6.77734 8.47721 6.83105 8.13216 6.93848 7.875C7.0459 7.61784 7.25749 7.33626 7.57324 7.03027C7.89225 6.72103 8.09408 6.5013 8.17871 6.37109C8.30892 6.17253 8.37402 5.95768 8.37402 5.72656C8.37402 5.42057 8.29753 5.18783 8.14453 5.02832C7.99479 4.86556 7.77344 4.78418 7.48047 4.78418C7.20052 4.78418 6.97428 4.86393 6.80176 5.02344C6.63249 5.17969 6.54785 5.3929 6.54785 5.66309H5.36133C5.36784 5.08691 5.56315 4.63118 5.94727 4.2959C6.33464 3.96061 6.8457 3.79297 7.48047 3.79297C8.13477 3.79297 8.64421 3.95898 9.00879 4.29102C9.37663 4.62305 9.56055 5.08691 9.56055 5.68262C9.56055 6.21322 9.31315 6.73568 8.81836 7.25L8.21777 7.84082C8.00293 8.08496 7.89225 8.44141 7.88574 8.91016H6.77734ZM6.69434 10.4287C6.69434 10.2367 6.75456 10.082 6.875 9.96484C6.99544 9.8444 7.1582 9.78418 7.36328 9.78418C7.57161 9.78418 7.736 9.84603 7.85645 9.96973C7.97689 10.0902 8.03711 10.2432 8.03711 10.4287C8.03711 10.6077 7.97852 10.7575 7.86133 10.8779C7.74414 10.9984 7.57812 11.0586 7.36328 11.0586C7.14844 11.0586 6.98242 10.9984 6.86523 10.8779C6.7513 10.7575 6.69434 10.6077 6.69434 10.4287Z" fill="black"/>
</svg>
