<svg fill="#fff" height="512" viewBox="0 0 60 54" width="512" xmlns="http://www.w3.org/2000/svg"><g id="031---24-Hour-Protection"><path id="Shape" d="m3.245 23.673c-1.2600359 4.8415222-.87303571 9.964701 1.1 14.562 4.3050059 9.2216234 13.5136751 15.1604182 23.69 15.278 9.78 0 18.937-5.573 25.132-13.513 3.7 1.989 3.908 2.2 4.6 2.2.5735744-.0004127 1.1193662-.2470639 1.4987036-.6772858.3793375-.4302218.5557066-1.0026023.4842964-1.5717142l-2.592-20.751c-.0781887-.6253293-.4465382-1.1772301-.9940183-1.4893449s-1.2100456-.347932-1.7879817-.0966551l-3.508 1.525c-3.815-7.389-8.9-12.926-16.949-15.009-.3888321-2.37725302-2.4401639-4.12441752-4.849-4.13h-24.07c-2.76005315.00330612-4.99669388 2.23994685-5 5v14c.00827967 2.0797722 1.29915003 3.9387051 3.245 4.673zm51.928-4.223 2.595 20.75c-4.43-2.382-4.427-2.411-4.707-2.457-.2518949-.0389978-.5092461.018112-.721.16-.04.028-.234.207-.241.217-5.871 7.86-14.047 12.719-22.432 13.333-9.58.716-19.457-5.2-23.5-14.05-1.80603539-4.2359895-2.13913186-8.9553257-.946-13.403h8.266c-1.787 8.833 5.522 16.881 13.957 16.881 4.447 0 10.03-2.818 13.756-8.352.01-.015.01-.032.019-.047s.023-.023.031-.038c.0186966-.0455571.0330926-.0927625.043-.141.0268404-.0619179.0466314-.1266581.059-.193.0071794-.126317.0008098-.2530396-.019-.378-.145-.585-.227-.5-6.046-3.636zm-27.173 4.55h1c2.7600532-.0033061 4.9966939-2.2399468 5-5v-3.62c3.6 1.693 5.489 4.288 7.428 7.865l-6.938 3.017c-.7024906.3051535-1.1690169.9846961-1.2013712 1.7499182-.0323543.7652222.3751461 1.4817194 1.0493712 1.8450818l4.545 2.448c-2.2610367 3.1133944-5.528384 5.3499147-9.249 6.331-4.228.983-9.163-1-12-4.824-2.1178539-2.798623-2.8838569-6.3930859-2.091-9.812 2.893 0 2.988-.082 3.364.247 8.031 7.027 7.561 6.753 8.093 6.753.5522847 0 1-.4477153 1-1zm21.03-4.06-5.762 2.506c-2.343-4.346-4.712-7.408-9.268-9.246v-6.953c5.631 1.627 10.636 5.239 15.03 13.693zm-47.03-14.94c0-1.65685425 1.34314575-3 3-3h24.07c.7877409.00495733 1.5407539.32487841 2.0911681.88844245.5504143.56356404.852471 1.32391918.8388319 2.11155755v14c0 1.6568542-1.3431458 3-3 3h-1c-1.1045695 0-2 .8954305-2 2v3.8l-5.776-5.054c-.5462006-.4797493-1.2480246-.7448434-1.975-.746-14.273 0-13.4.015-13.672-.031-1.47812929-.2105193-2.57648798-1.4759547-2.577-2.969z"/><path id="Shape" d="m6 17.993c0 .5522847.44771525 1 1 1h8c.5522847 0 1-.4477153 1-1s-.4477153-1-1-1h-6.721c.714-1.343 2.628-2.665 3.886-3.53 1.2266641-.7022329 2.286909-1.6615021 3.108-2.812.9151194-1.43715875.9092604-3.27570288-.015-4.707-2.295-3.356-9.146-2.427-9.258 3.049 0 .55228475.44771525 1 1 1s1-.44771525 1-1c-.01918026-1.39142573.94137197-2.60506259 2.3-2.906 1.2019075-.32225036 2.4828916.05899031 3.313.986.4806475.78408706.4627012 1.77581618-.046 2.542-1.282 2.108-7.567 4.32-7.567 8.378z"/><path id="Shape" d="m17 15h6v3c0 .5522847.4477153 1 1 1s1-.4477153 1-1v-3h2c.5522847 0 1-.4477153 1-1s-.4477153-1-1-1h-2v-8c.0003821-.42756257-.2711087-.80806653-.6755402-.94679329-.4044314-.13872676-.8523184-.00498145-1.1144598.33279329l-7 9c-.2345926.301572-.2768437.7104599-.1088735 1.0536295.1679703.3431696.5168011.5606357.8988735.5603705zm6-7.085v5.085h-3.956z"/></g></svg>