<svg id="Layer_1" data-name="Layer 1" xmlns="http://www.w3.org/2000/svg" xmlns:xlink="http://www.w3.org/1999/xlink" viewBox="0 0 200 200"><defs><style>.cls-1{fill:url(#linear-gradient);}.cls-2{fill:url(#radial-gradient);}.cls-3{fill:url(#linear-gradient-2);}.cls-4{fill:url(#linear-gradient-3);}.cls-5{fill:url(#radial-gradient-2);}.cls-19,.cls-6{fill:#fff;}.cls-6{opacity:0.44;}.cls-7{fill:#f24a00;opacity:0.2;}.cls-8{fill:url(#linear-gradient-4);}.cls-9{fill:url(#linear-gradient-5);}.cls-10{fill:url(#linear-gradient-6);}.cls-11{fill:url(#linear-gradient-7);}.cls-12{fill:url(#linear-gradient-8);}.cls-13{fill:url(#linear-gradient-9);}.cls-14{fill:none;}.cls-15{fill:#8e008b;}.cls-15,.cls-16{opacity:0.18;}.cls-16{fill:#022f51;}.cls-17,.cls-18{fill:#ff9e57;}.cls-17{opacity:0.65;}.cls-20{fill:#f7c7a6;}.cls-21{fill:#ff5d24;}.cls-22{fill:#c68142;stroke:#fff;stroke-width:3px;}.cls-22,.cls-23{stroke-miterlimit:10;}.cls-23{fill:#842703;stroke:#ff5d24;}.cls-24{fill:#c3d1dd;}.cls-25{fill:#a1db65;}.cls-26{font-size:53.63px;fill:#ff6903;font-family:Cambria-Bold, Cambria;font-weight:700;letter-spacing:-0.05em;}.cls-27{opacity:0.62;}.cls-28{fill:url(#linear-gradient-10);}</style><linearGradient id="linear-gradient" x1="100.1" y1="29.77" x2="100.1" y2="101.65" gradientUnits="userSpaceOnUse"><stop offset="0" stop-color="#ffe6a6"/><stop offset="0.55" stop-color="#ffa82e"/><stop offset="1" stop-color="#ff6363"/></linearGradient><radialGradient id="radial-gradient" cx="99.49" cy="186.45" r="172.85" gradientUnits="userSpaceOnUse"><stop offset="0" stop-color="#ffd25e"/><stop offset="0.74" stop-color="#ffe294"/><stop offset="1" stop-color="#ffeebf"/></radialGradient><linearGradient id="linear-gradient-2" x1="27.06" y1="208.53" x2="87.54" y2="176.28" xlink:href="#linear-gradient"/><linearGradient id="linear-gradient-3" x1="6.4" y1="176.22" x2="63.23" y2="170.08" xlink:href="#linear-gradient"/><radialGradient id="radial-gradient-2" cx="100.1" cy="190.43" r="34.97" xlink:href="#linear-gradient"/><linearGradient id="linear-gradient-4" x1="20.74" y1="185.88" x2="20.74" y2="115.33" xlink:href="#linear-gradient"/><linearGradient id="linear-gradient-5" x1="-10.57" y1="130.17" x2="25.14" y2="108.86" xlink:href="#linear-gradient"/><linearGradient id="linear-gradient-6" x1="15712.29" y1="208.53" x2="15772.77" y2="176.28" gradientTransform="matrix(-1, 0, 0, 1, 15885.33, 0)" xlink:href="#linear-gradient"/><linearGradient id="linear-gradient-7" x1="15691.63" y1="176.22" x2="15748.46" y2="170.08" gradientTransform="matrix(-1, 0, 0, 1, 15885.33, 0)" xlink:href="#linear-gradient"/><linearGradient id="linear-gradient-8" x1="15705.97" y1="185.88" x2="15705.97" y2="115.33" gradientTransform="matrix(-1, 0, 0, 1, 15885.33, 0)" xlink:href="#linear-gradient"/><linearGradient id="linear-gradient-9" x1="15674.66" y1="130.17" x2="15710.37" y2="108.86" gradientTransform="matrix(-1, 0, 0, 1, 15885.33, 0)" xlink:href="#linear-gradient"/><linearGradient id="linear-gradient-10" x1="104.94" y1="147.48" x2="104.94" y2="183.4" gradientUnits="userSpaceOnUse"><stop offset="0.51" stop-color="#f96217"/><stop offset="0.51" stop-color="#ffdc7a"/><stop offset="1" stop-color="#ff6417"/></linearGradient><symbol id="New_Symbol" data-name="New Symbol" viewBox="0 0 200 200"><circle class="cls-1" cx="100.1" cy="97.74" r="92.74"/><path class="cls-2" d="M196.47,98.19l-8.94-2-87.43,2-87.42-2-8.95,2s-3,16.89,8,29.8a40.73,40.73,0,0,0-6.95,2s0,16.89,20.86,28.81c0,0-3,1-6,5l29.8,18.88-3,7.94s7.39,2.69,20.87,1l7.94-1s10.93,8.95,24.84,8.95,24.84-8.95,24.84-8.95l7.95,1c7.94,1,20.86-1,20.86-1-1-6-3-7.94-3-7.94,26.82-7.95,29.8-18.88,29.8-18.88-3-4-6-5-6-5C195.47,146.87,195.47,130,195.47,130a40.73,40.73,0,0,0-6.95-2C199.45,115.08,196.47,98.19,196.47,98.19Z"/><polygon class="cls-3" points="46.31 190.58 56.14 195.09 75.12 190.58 75.99 180.85 46.31 190.58"/><polygon class="cls-4" points="53.91 173.36 19.48 163.76 29.64 178.96 49.29 182.64 53.91 173.36"/><path class="cls-5" d="M124,180.85S113.76,200,100,200s-23.93-19.15-23.93-19.15l-.83,9.77c.71.56,11.36,8.91,24.79,8.91,13.91,0,24.84-8.95,24.84-8.95h0Z"/><polygon class="cls-6" points="53.84 173.2 54.03 167.83 25.03 158.23 19.27 163.99 53.84 173.2"/><polygon class="cls-6" points="48.46 184.34 75.34 180.12 75.72 181.27 46.16 191.25 48.46 184.34"/><circle class="cls-7" cx="99.92" cy="113.3" r="50.69"/><path class="cls-8" d="M4.58,130l6.63,20.18s10.3,6.39,14.23,8.63c8.67-3.23,11.46-5.19,11.46-5.19Z"/><path class="cls-9" d="M29.93,129.31,3.66,98.37l-.15.36c-.24,1.8-.37,19.17-.37,19.17L11.54,128Z"/><polygon class="cls-6" points="14.79 96.14 29.77 128.91 3.14 98.32 14.79 96.14"/><polygon class="cls-6" points="4.3 129.43 19.02 128.4 36.68 152.34 4.3 129.43"/><polygon class="cls-10" points="153.8 190.58 143.96 195.09 124.98 190.58 124.11 180.85 153.8 190.58"/><polygon class="cls-11" points="146.19 173.36 180.62 163.76 170.46 178.96 150.81 182.64 146.19 173.36"/><polygon class="cls-6" points="146.27 173.2 146.08 167.83 175.07 158.23 180.83 163.99 146.27 173.2"/><polygon class="cls-6" points="151.64 184.34 124.76 180.12 124.38 181.27 153.95 191.25 151.64 184.34"/><path class="cls-12" d="M195.52,130l-6.63,20.18s-10.3,6.39-14.23,8.63c-8.67-3.23-11.46-5.19-11.46-5.19Z"/><path class="cls-13" d="M170.17,129.31l26.28-30.94s.05.14.14.36c.24,1.8.37,19.17.37,19.17L188.57,128Z"/><polygon class="cls-6" points="185.31 96.14 170.33 128.91 196.96 98.32 185.31 96.14"/><polygon class="cls-6" points="195.81 129.43 181.09 128.4 163.42 152.34 195.81 129.43"/><rect class="cls-14" width="200" height="200"/></symbol><symbol id="New_Symbol_1" data-name="New Symbol 1" viewBox="0 0 192.5 128.04"><path class="cls-15" d="M2,85.51,171.83,49.85s14,18.35,13.13,46.24l-27.52,10.69H1S-1.8,95.21,2,85.51Z"/><polygon class="cls-16" points="113.05 40.18 111.75 104.92 138.22 105.63 113.05 40.18"/><polygon class="cls-16" points="72.29 20.06 55.12 107.57 76.08 107.57 72.29 20.06"/><polygon class="cls-17" points="63.43 14.53 31.26 105.88 59.69 106.08 63.43 14.53"/><polygon class="cls-18" points="169.19 128.04 15.35 128.04 6.37 108.49 180.5 108.49 169.19 128.04"/><path class="cls-19" d="M113.56,8.05A18.71,18.71,0,0,0,102.79,5c-6.77,0-10,3.08-10,3.08v99.28h20.74Z"/><rect class="cls-17" x="92.78" y="20.66" width="20.78" height="2.44"/><rect class="cls-20" x="92.82" y="91.43" width="20.74" height="3.66"/><polygon class="cls-16" points="113.56 41.12 101.15 107.3 113.56 107.3 113.56 41.12"/><path class="cls-19" d="M41,107.9l-21.88-4.53,18-87.05s3.56-2.85,12.29-1S59,20.85,59,20.85Z"/><path class="cls-19" d="M92.29,19.73s-1.47-3.18-9.4-3.18-9.6,3.18-9.6,3.18v87.6h19Z"/><rect class="cls-20" x="73.29" y="30.42" width="19.52" height="2.44"/><rect class="cls-20" x="73.29" y="91.43" width="19.52" height="2.44"/><polygon class="cls-16" points="92.29 8.05 82.71 107.37 92.29 107.37 92.29 8.05"/><polygon class="cls-19" points="76.02 1.85 66.9 0 45.34 106.43 54.46 108.27 76.02 1.85"/><rect class="cls-19" x="6.18" y="106.08" width="182.91" height="2.44"/><polygon class="cls-19" points="117.79 43.39 129.58 44.71 142.96 94.64 130.65 94.23 117.79 43.39"/><polygon class="cls-21" points="133.71 96.1 127.5 98.25 111.9 40.48 118.11 38.33 133.71 96.1"/><path class="cls-21" d="M141.63,106.08c-7.8,0-13.66-5.15-14.11-8.08l6-2.66c.1.6,1.18,5.87,8.1,5.87Z"/><path class="cls-22" d="M129.73,51.72s14,19.06,16,27.59-3.42,13.38-3.42,13.38"/><path class="cls-22" d="M143.62,91s3.88-7.3,14.15-6.21c9.64,1,28.7,7.37,28.7,7.37"/><polygon class="cls-19" points="139.18 91.34 140.22 103.15 191.92 103.15 185.85 91.99 139.18 91.34"/><polygon class="cls-21" points="140.34 106.08 140.34 101.21 192.5 101.21 192.5 106.08 140.34 106.08"/><path class="cls-23" d="M130.78,94.36s10.73-2.33,9.37,9.18"/><polygon class="cls-24" points="143.97 96.31 143.97 120.08 149.07 115.45 153.83 119.76 153.83 96.31 143.97 96.31"/><polygon class="cls-25" points="153.83 91.43 153.83 110.96 156.27 108.52 158.71 110.96 158.71 91.43 153.83 91.43"/><rect class="cls-19" x="150.17" y="65.81" width="3.66" height="3.66"/><rect class="cls-19" x="164.81" y="74.35" width="3.66" height="3.66"/><rect class="cls-19" x="170.91" y="51.16" width="3.66" height="3.66"/><rect class="cls-19" x="148.95" y="38.96" width="3.66" height="3.66"/><rect class="cls-19" x="152.61" y="76.79" width="2.44" height="2.44"/><rect class="cls-19" x="159.93" y="62.15" width="2.44" height="2.44"/></symbol></defs><title>book4</title><use id="New_Symbol-3" data-name="New Symbol" width="200" height="200" transform="translate(-0.17)" xlink:href="#New_Symbol"/><text class="cls-26" transform="translate(78.54 183.22)">IV</text><g class="cls-27"><path class="cls-28" d="M92,176.64c0,.62,0,1.18.06,1.71a5.08,5.08,0,0,0,.21,1.28,2.26,2.26,0,0,0,.45.84,2.72,2.72,0,0,0,.83.59,7.07,7.07,0,0,0,1.28.43v1.73H81.06v-1.73a8.1,8.1,0,0,0,1.53-.56,2,2,0,0,0,.84-.84,3.8,3.8,0,0,0,.35-1.36c0-.55.08-1.25.08-2.09V154.05c0-.84,0-1.53-.07-2.07a3.43,3.43,0,0,0-.34-1.35,2,2,0,0,0-.84-.85,7,7,0,0,0-1.55-.58v-1.72H94.8v1.72a6.14,6.14,0,0,0-1.58.62,2.18,2.18,0,0,0-.77.8,3.38,3.38,0,0,0-.37,1.23,17.26,17.26,0,0,0-.11,2.22Z"/><path class="cls-28" d="M119.43,156.06a19.41,19.41,0,0,0,.62-2.06,9.68,9.68,0,0,0,.22-2.05,2.66,2.66,0,0,0-.67-2,3.12,3.12,0,0,0-2-.79v-1.72h11.28v1.72a4.12,4.12,0,0,0-1.69.64,4.74,4.74,0,0,0-1.25,1.39,17.51,17.51,0,0,0-1.33,3l-11,29.22h-6L98.9,154.07a18.59,18.59,0,0,0-1-2.78,3.76,3.76,0,0,0-1-1.34,4.11,4.11,0,0,0-1.75-.75v-1.72h14.48v1.72a3.59,3.59,0,0,0-2,.76,2.24,2.24,0,0,0-.65,1.71,9.37,9.37,0,0,0,.15,1.68q.16.83.66,2.64l5.18,18.8Z"/></g><use id="New_Symbol_1-3" data-name="New Symbol 1" width="192.5" height="128.04" transform="translate(7 0.94)" xlink:href="#New_Symbol_1"/></svg>