<svg id="Layer_1" data-name="Layer 1" xmlns="http://www.w3.org/2000/svg" xmlns:xlink="http://www.w3.org/1999/xlink" viewBox="0 0 200 200"><defs><style>.cls-1{fill:url(#linear-gradient);}.cls-2{fill:url(#radial-gradient);}.cls-3{fill:url(#linear-gradient-2);}.cls-4{fill:url(#linear-gradient-3);}.cls-5{fill:url(#radial-gradient-2);}.cls-15,.cls-20,.cls-21,.cls-6{fill:#fff;}.cls-18,.cls-6{opacity:0.44;}.cls-7{fill:#f24a00;opacity:0.2;}.cls-8{fill:url(#linear-gradient-4);}.cls-9{fill:url(#linear-gradient-5);}.cls-10{fill:url(#linear-gradient-6);}.cls-11{fill:url(#linear-gradient-7);}.cls-12{fill:url(#linear-gradient-8);}.cls-13{fill:url(#linear-gradient-9);}.cls-14,.cls-18{fill:none;}.cls-16{fill:#ff3c08;opacity:0.78;}.cls-17{fill:#ffdcd5;}.cls-18{stroke:#84502d;stroke-miterlimit:10;}.cls-19{fill:#ff8533;}.cls-20{opacity:0.21;}.cls-21{opacity:0.38;}.cls-22{font-size:53.63px;fill:#ff6903;font-family:Cambria-Bold, Cambria;font-weight:700;letter-spacing:-0.05em;}.cls-23{opacity:0.62;}.cls-24{fill:url(#linear-gradient-10);}</style><linearGradient id="linear-gradient" x1="100.1" y1="29.77" x2="100.1" y2="101.65" gradientUnits="userSpaceOnUse"><stop offset="0" stop-color="#ffe6a6"/><stop offset="0.55" stop-color="#ffa82e"/><stop offset="1" stop-color="#ff6363"/></linearGradient><radialGradient id="radial-gradient" cx="99.49" cy="186.45" r="172.85" gradientUnits="userSpaceOnUse"><stop offset="0" stop-color="#ffd25e"/><stop offset="0.74" stop-color="#ffe294"/><stop offset="1" stop-color="#ffeebf"/></radialGradient><linearGradient id="linear-gradient-2" x1="27.06" y1="208.53" x2="87.54" y2="176.28" xlink:href="#linear-gradient"/><linearGradient id="linear-gradient-3" x1="6.4" y1="176.22" x2="63.23" y2="170.08" xlink:href="#linear-gradient"/><radialGradient id="radial-gradient-2" cx="100.1" cy="190.43" r="34.97" xlink:href="#linear-gradient"/><linearGradient id="linear-gradient-4" x1="20.74" y1="185.88" x2="20.74" y2="115.33" xlink:href="#linear-gradient"/><linearGradient id="linear-gradient-5" x1="-10.57" y1="130.17" x2="25.14" y2="108.86" xlink:href="#linear-gradient"/><linearGradient id="linear-gradient-6" x1="15712.29" y1="208.53" x2="15772.77" y2="176.28" gradientTransform="matrix(-1, 0, 0, 1, 15885.33, 0)" xlink:href="#linear-gradient"/><linearGradient id="linear-gradient-7" x1="15691.63" y1="176.22" x2="15748.46" y2="170.08" gradientTransform="matrix(-1, 0, 0, 1, 15885.33, 0)" xlink:href="#linear-gradient"/><linearGradient id="linear-gradient-8" x1="15705.97" y1="185.88" x2="15705.97" y2="115.33" gradientTransform="matrix(-1, 0, 0, 1, 15885.33, 0)" xlink:href="#linear-gradient"/><linearGradient id="linear-gradient-9" x1="15674.66" y1="130.17" x2="15710.37" y2="108.86" gradientTransform="matrix(-1, 0, 0, 1, 15885.33, 0)" xlink:href="#linear-gradient"/><linearGradient id="linear-gradient-10" x1="104.94" y1="147.48" x2="104.94" y2="183.4" gradientUnits="userSpaceOnUse"><stop offset="0.51" stop-color="#f96217"/><stop offset="0.51" stop-color="#ffdc7a"/><stop offset="1" stop-color="#ff6417"/></linearGradient><symbol id="New_Symbol" data-name="New Symbol" viewBox="0 0 200 200"><circle class="cls-1" cx="100.1" cy="97.74" r="92.74"/><path class="cls-2" d="M196.47,98.19l-8.94-2-87.43,2-87.42-2-8.95,2s-3,16.89,8,29.8a40.73,40.73,0,0,0-6.95,2s0,16.89,20.86,28.81c0,0-3,1-6,5l29.8,18.88-3,7.94s7.39,2.69,20.87,1l7.94-1s10.93,8.95,24.84,8.95,24.84-8.95,24.84-8.95l7.95,1c7.94,1,20.86-1,20.86-1-1-6-3-7.94-3-7.94,26.82-7.95,29.8-18.88,29.8-18.88-3-4-6-5-6-5C195.47,146.87,195.47,130,195.47,130a40.73,40.73,0,0,0-6.95-2C199.45,115.08,196.47,98.19,196.47,98.19Z"/><polygon class="cls-3" points="46.31 190.58 56.14 195.09 75.12 190.58 75.99 180.85 46.31 190.58"/><polygon class="cls-4" points="53.91 173.36 19.48 163.76 29.64 178.96 49.29 182.64 53.91 173.36"/><path class="cls-5" d="M124,180.85S113.76,200,100,200s-23.93-19.15-23.93-19.15l-.83,9.77c.71.56,11.36,8.91,24.79,8.91,13.91,0,24.84-8.95,24.84-8.95h0Z"/><polygon class="cls-6" points="53.84 173.2 54.03 167.83 25.03 158.23 19.27 163.99 53.84 173.2"/><polygon class="cls-6" points="48.46 184.34 75.34 180.12 75.72 181.27 46.16 191.25 48.46 184.34"/><circle class="cls-7" cx="99.92" cy="113.3" r="50.69"/><path class="cls-8" d="M4.58,130l6.63,20.18s10.3,6.39,14.23,8.63c8.67-3.23,11.46-5.19,11.46-5.19Z"/><path class="cls-9" d="M29.93,129.31,3.66,98.37l-.15.36c-.24,1.8-.37,19.17-.37,19.17L11.54,128Z"/><polygon class="cls-6" points="14.79 96.14 29.77 128.91 3.14 98.32 14.79 96.14"/><polygon class="cls-6" points="4.3 129.43 19.02 128.4 36.68 152.34 4.3 129.43"/><polygon class="cls-10" points="153.8 190.58 143.96 195.09 124.98 190.58 124.11 180.85 153.8 190.58"/><polygon class="cls-11" points="146.19 173.36 180.62 163.76 170.46 178.96 150.81 182.64 146.19 173.36"/><polygon class="cls-6" points="146.27 173.2 146.08 167.83 175.07 158.23 180.83 163.99 146.27 173.2"/><polygon class="cls-6" points="151.64 184.34 124.76 180.12 124.38 181.27 153.95 191.25 151.64 184.34"/><path class="cls-12" d="M195.52,130l-6.63,20.18s-10.3,6.39-14.23,8.63c-8.67-3.23-11.46-5.19-11.46-5.19Z"/><path class="cls-13" d="M170.17,129.31l26.28-30.94s.05.14.14.36c.24,1.8.37,19.17.37,19.17L188.57,128Z"/><polygon class="cls-6" points="185.31 96.14 170.33 128.91 196.96 98.32 185.31 96.14"/><polygon class="cls-6" points="195.81 129.43 181.09 128.4 163.42 152.34 195.81 129.43"/><rect class="cls-14" width="200" height="200"/></symbol><symbol id="New_Symbol_3" data-name="New Symbol 3" viewBox="0 0 133.93 119.5"><path class="cls-15" d="M86.16,68.25s-22-13.75-27.5-23.83S33,27.92,31.16,25.17s-2.75-8.25-6.41-7.33S20.16,26.09,22,29.76,35.75,45.34,34.83,48.09,15.58,49.92,11,52.67,0,56.34,0,62.75s4.58,7.33,4.58,7.33-2.75,2.75-.91,7.34,4.58,5.5,4.58,5.5-2.75,2.75,0,7.33,4.58,4.58,4.58,4.58-.91,1.83,0,5.5,6.42,7.33,12.83,7.33S48.58,104,55,102.16s11-7.33,16.5-5.5a39.14,39.14,0,0,0,11,1.84Z"/><path class="cls-16" d="M81.33,101.39,84.15,66a10.92,10.92,0,0,1,8-.81c4.83,1.21,41,3.62,41,3.62s4.83,21.73-10.86,50.7C122.37,119.5,82.54,107.43,81.33,101.39Z"/><rect class="cls-15" x="59.6" y="14.48" width="2.41" height="2.41"/><rect class="cls-15" x="80.12" width="2.41" height="2.41"/><rect class="cls-15" x="78.91" y="32.59" width="2.41" height="2.41"/><rect class="cls-15" x="42.7" y="16.9" width="2.41" height="2.41"/><polygon class="cls-15" points="70.47 20.31 67.05 14.48 70.47 8.66 73.88 14.48 70.47 20.31"/><polygon class="cls-15" points="91.09 38.52 89.03 35.01 91.09 31.49 93.15 35.01 91.09 38.52"/><polygon class="cls-15" points="58.5 34.9 56.44 31.38 58.5 27.87 60.56 31.38 58.5 34.9"/><path class="cls-17" d="M26.6,107.63c-.72-.64-5.22-4.62-7.44-6.84-2.41-2.41,0-8.45,0-8.45a22.5,22.5,0,0,1-3.62-4.83c-1.2-2.41,0-6,0-6a17.13,17.13,0,0,1-3.62-6c-1.2-3.62,1.21-7.24,1.21-7.24L9.51,61c-1.58-3.16-.07-6.31,1.17-8.11C6.13,55.46,0,56.48,0,62.75s4.58,7.33,4.58,7.33-2.75,2.75-.91,7.34,4.58,5.5,4.58,5.5-2.75,2.75,0,7.33,4.58,4.58,4.58,4.58-.91,1.83,0,5.5,6.42,7.33,12.83,7.33Z"/><line class="cls-18" x1="4.08" y1="70.01" x2="11.32" y2="68.8"/><line class="cls-18" x1="8.3" y1="82.68" x2="13.13" y2="81.48"/><line class="cls-18" x1="13.13" y1="94.76" x2="16.75" y2="93.55"/><path class="cls-19" d="M80.73,100.79s31.38-9.66,52.5-28.37c0,0,1.81,21.13-11.46,46.48C121.77,118.9,92.8,112.86,80.73,100.79Z"/><path class="cls-20" d="M88.57,67s4.56,4.33,2.28,24.88c8,7.57,37.6,8.65,37.6,8.65S133,80,130.73,71.3C127.31,69.14,88.57,67,88.57,67Z"/><path class="cls-21" d="M93.19,69.18S91,74.09,95.87,76.5s33,3.5,33,3.5,1.2-4.83-1.21-7.24S93.19,69.18,93.19,69.18Z"/></symbol></defs><title>like4</title><use id="New_Symbol-3" data-name="New Symbol" width="200" height="200" transform="translate(-0.17)" xlink:href="#New_Symbol"/><text class="cls-22" transform="translate(78.54 183.22)">IV</text><g class="cls-23"><path class="cls-24" d="M92,176.64c0,.62,0,1.18.06,1.71a5.08,5.08,0,0,0,.21,1.28,2.26,2.26,0,0,0,.45.84,2.72,2.72,0,0,0,.83.59,7.07,7.07,0,0,0,1.28.43v1.73H81.06v-1.73a8.1,8.1,0,0,0,1.53-.56,2,2,0,0,0,.84-.84,3.8,3.8,0,0,0,.35-1.36c0-.55.08-1.25.08-2.09V154.05c0-.84,0-1.53-.07-2.07a3.43,3.43,0,0,0-.34-1.35,2,2,0,0,0-.84-.85,7,7,0,0,0-1.55-.58v-1.72H94.8v1.72a6.14,6.14,0,0,0-1.58.62,2.18,2.18,0,0,0-.77.8,3.38,3.38,0,0,0-.37,1.23,17.26,17.26,0,0,0-.11,2.22Z"/><path class="cls-24" d="M119.43,156.06a19.41,19.41,0,0,0,.62-2.06,9.68,9.68,0,0,0,.22-2.05,2.66,2.66,0,0,0-.67-2,3.12,3.12,0,0,0-2-.79v-1.72h11.28v1.72a4.12,4.12,0,0,0-1.69.64,4.74,4.74,0,0,0-1.25,1.39,17.51,17.51,0,0,0-1.33,3l-11,29.22h-6L98.9,154.07a18.59,18.59,0,0,0-1-2.78,3.76,3.76,0,0,0-1-1.34,4.11,4.11,0,0,0-1.75-.75v-1.72h14.48v1.72a3.59,3.59,0,0,0-2,.76,2.24,2.24,0,0,0-.65,1.71,9.37,9.37,0,0,0,.15,1.68q.16.83.66,2.64l5.18,18.8Z"/></g><use width="133.93" height="119.5" transform="translate(34.13 14)" xlink:href="#New_Symbol_3"/></svg>