<svg id="Layer_1" data-name="Layer 1" xmlns="http://www.w3.org/2000/svg" xmlns:xlink="http://www.w3.org/1999/xlink" viewBox="0 0 200 200"><defs><style>.cls-1{fill:url(#linear-gradient);}.cls-2{fill:url(#radial-gradient);}.cls-3{fill:url(#linear-gradient-2);}.cls-4{fill:url(#linear-gradient-3);}.cls-5{fill:url(#radial-gradient-2);}.cls-17,.cls-21,.cls-23,.cls-6{fill:#fff;}.cls-22,.cls-24,.cls-6{opacity:0.44;}.cls-7{fill:#f24a00;opacity:0.2;}.cls-8{fill:url(#linear-gradient-4);}.cls-9{fill:url(#linear-gradient-5);}.cls-10{fill:url(#linear-gradient-6);}.cls-11{fill:url(#linear-gradient-7);}.cls-12{fill:url(#linear-gradient-8);}.cls-13{fill:url(#linear-gradient-9);}.cls-14,.cls-22,.cls-26{fill:none;}.cls-15,.cls-16,.cls-19{fill:#ff3c08;}.cls-15{opacity:0.29;}.cls-16{opacity:0.78;}.cls-18{fill:url(#radial-gradient-3);}.cls-19{opacity:0.6;}.cls-20{fill:#c3d1dd;}.cls-21{opacity:0.39;}.cls-22{stroke:#84502d;}.cls-22,.cls-26{stroke-miterlimit:10;}.cls-23{opacity:0.25;}.cls-24{fill:#84502d;}.cls-25{fill:#1c537c;opacity:0.12;}.cls-26{stroke:#bdf978;opacity:0.47;}.cls-27{fill:#ffdcd5;}.cls-28{font-size:55px;fill:#ff6903;font-family:Cambria-Bold, Cambria;font-weight:700;letter-spacing:-0.05em;}.cls-29{opacity:0.62;}.cls-30{fill:url(#linear-gradient-10);}</style><linearGradient id="linear-gradient" x1="100.1" y1="29.77" x2="100.1" y2="101.65" gradientUnits="userSpaceOnUse"><stop offset="0" stop-color="#ffe6a6"/><stop offset="0.55" stop-color="#ffa82e"/><stop offset="1" stop-color="#ff6363"/></linearGradient><radialGradient id="radial-gradient" cx="99.49" cy="186.45" r="172.85" gradientUnits="userSpaceOnUse"><stop offset="0" stop-color="#ffd25e"/><stop offset="0.74" stop-color="#ffe294"/><stop offset="1" stop-color="#ffeebf"/></radialGradient><linearGradient id="linear-gradient-2" x1="27.06" y1="208.53" x2="87.54" y2="176.28" xlink:href="#linear-gradient"/><linearGradient id="linear-gradient-3" x1="6.4" y1="176.22" x2="63.23" y2="170.08" xlink:href="#linear-gradient"/><radialGradient id="radial-gradient-2" cx="100.1" cy="190.43" r="34.97" xlink:href="#linear-gradient"/><linearGradient id="linear-gradient-4" x1="20.74" y1="185.88" x2="20.74" y2="115.33" xlink:href="#linear-gradient"/><linearGradient id="linear-gradient-5" x1="-10.57" y1="130.17" x2="25.14" y2="108.86" xlink:href="#linear-gradient"/><linearGradient id="linear-gradient-6" x1="15712.29" y1="208.53" x2="15772.77" y2="176.28" gradientTransform="matrix(-1, 0, 0, 1, 15885.33, 0)" xlink:href="#linear-gradient"/><linearGradient id="linear-gradient-7" x1="15691.63" y1="176.22" x2="15748.46" y2="170.08" gradientTransform="matrix(-1, 0, 0, 1, 15885.33, 0)" xlink:href="#linear-gradient"/><linearGradient id="linear-gradient-8" x1="15705.97" y1="185.88" x2="15705.97" y2="115.33" gradientTransform="matrix(-1, 0, 0, 1, 15885.33, 0)" xlink:href="#linear-gradient"/><linearGradient id="linear-gradient-9" x1="15674.66" y1="130.17" x2="15710.37" y2="108.86" gradientTransform="matrix(-1, 0, 0, 1, 15885.33, 0)" xlink:href="#linear-gradient"/><radialGradient id="radial-gradient-3" cx="47.53" cy="55.29" r="28.99" xlink:href="#radial-gradient"/><linearGradient id="linear-gradient-10" x1="101.06" y1="146.13" x2="101.06" y2="182.97" gradientUnits="userSpaceOnUse"><stop offset="0.51" stop-color="#f96217"/><stop offset="0.51" stop-color="#ffdc7a"/><stop offset="1" stop-color="#ff6417"/></linearGradient><symbol id="New_Symbol" data-name="New Symbol" viewBox="0 0 200 200"><circle class="cls-1" cx="100.1" cy="97.74" r="92.74"/><path class="cls-2" d="M196.47,98.19l-8.94-2-87.43,2-87.42-2-8.95,2s-3,16.89,8,29.8a40.73,40.73,0,0,0-6.95,2s0,16.89,20.86,28.81c0,0-3,1-6,5l29.8,18.88-3,7.94s7.39,2.69,20.87,1l7.94-1s10.93,8.95,24.84,8.95,24.84-8.95,24.84-8.95l7.95,1c7.94,1,20.86-1,20.86-1-1-6-3-7.94-3-7.94,26.82-7.95,29.8-18.88,29.8-18.88-3-4-6-5-6-5C195.47,146.87,195.47,130,195.47,130a40.73,40.73,0,0,0-6.95-2C199.45,115.08,196.47,98.19,196.47,98.19Z"/><polygon class="cls-3" points="46.31 190.58 56.14 195.09 75.12 190.58 75.99 180.85 46.31 190.58"/><polygon class="cls-4" points="53.91 173.36 19.48 163.76 29.64 178.96 49.29 182.64 53.91 173.36"/><path class="cls-5" d="M124,180.85S113.76,200,100,200s-23.93-19.15-23.93-19.15l-.83,9.77c.71.56,11.36,8.91,24.79,8.91,13.91,0,24.84-8.95,24.84-8.95h0Z"/><polygon class="cls-6" points="53.84 173.2 54.03 167.83 25.03 158.23 19.27 163.99 53.84 173.2"/><polygon class="cls-6" points="48.46 184.34 75.34 180.12 75.72 181.27 46.16 191.25 48.46 184.34"/><circle class="cls-7" cx="99.92" cy="113.3" r="50.69"/><path class="cls-8" d="M4.58,130l6.63,20.18s10.3,6.39,14.23,8.63c8.67-3.23,11.46-5.19,11.46-5.19Z"/><path class="cls-9" d="M29.93,129.31,3.66,98.37l-.15.36c-.24,1.8-.37,19.17-.37,19.17L11.54,128Z"/><polygon class="cls-6" points="14.79 96.14 29.77 128.91 3.14 98.32 14.79 96.14"/><polygon class="cls-6" points="4.3 129.43 19.02 128.4 36.68 152.34 4.3 129.43"/><polygon class="cls-10" points="153.8 190.58 143.96 195.09 124.98 190.58 124.11 180.85 153.8 190.58"/><polygon class="cls-11" points="146.19 173.36 180.62 163.76 170.46 178.96 150.81 182.64 146.19 173.36"/><polygon class="cls-6" points="146.27 173.2 146.08 167.83 175.07 158.23 180.83 163.99 146.27 173.2"/><polygon class="cls-6" points="151.64 184.34 124.76 180.12 124.38 181.27 153.95 191.25 151.64 184.34"/><path class="cls-12" d="M195.52,130l-6.63,20.18s-10.3,6.39-14.23,8.63c-8.67-3.23-11.46-5.19-11.46-5.19Z"/><path class="cls-13" d="M170.17,129.31l26.28-30.94s.05.14.14.36c.24,1.8.37,19.17.37,19.17L188.57,128Z"/><polygon class="cls-6" points="185.31 96.14 170.33 128.91 196.96 98.32 185.31 96.14"/><polygon class="cls-6" points="195.81 129.43 181.09 128.4 163.42 152.34 195.81 129.43"/><rect class="cls-14" width="200" height="200"/></symbol><symbol id="New_Symbol_4" data-name="New Symbol 4" viewBox="0 0 173.94 113.03"><polygon class="cls-15" points="90.94 93.46 155.63 93.46 144.64 106.48 90.94 106.48 90.94 93.46"/><rect class="cls-16" x="54.33" y="93.46" width="36.62" height="13.02"/><rect class="cls-17" x="60.99" y="3.52" width="2.01" height="2.01"/><polygon class="cls-18" points="61.15 93.95 54.54 93.27 33.91 17.23 40.18 16.62 61.15 93.95"/><polygon class="cls-19" points="120.83 77.76 61.29 93.91 40.2 16.15 99.73 0 120.83 77.76"/><rect class="cls-17" x="87.28" y="15.35" width="7.19" height="78.11"/><rect class="cls-20" x="94.6" y="15.35" width="59.81" height="78.11"/><rect class="cls-17" x="97.04" y="15.35" width="7.19" height="78.11"/><rect class="cls-20" x="104.37" y="15.35" width="59.81" height="78.11"/><rect class="cls-17" x="106.81" y="15.35" width="7.19" height="78.11"/><rect class="cls-20" x="114.13" y="15.35" width="59.81" height="78.11"/><path class="cls-17" d="M42.12,36.1s17.09-8.54,18.31-9.76,3.66,1.22,2.44,4.88-4.88,6.1-7.32,7.32-6.11,6.1-6.11,6.1l-1.22,6.11,14.65-7.33c2.44-1.22,11-1.22,14.65-1.22s7.32,0,7.32,2.44-1.22,3.67-7.32,4.89-11,2.44-11,2.44l-6.1,3.66h9.76c3.66,0,12.21,3.66,12.21,4.88S81.18,64.17,80,64.17H66.53s-6.1,2.44-8.54,3.66a99.36,99.36,0,0,1,11,2.44c3.66,1.22,7.32,4.89,7.32,7.33s0,2.44-2.44,2.44-8.54-2.44-8.54-2.44L58,80l-1.22,2.44s0,3.66-3.66,7.32-9.77,11-14.65,14.65-12.21,2.44-12.21,2.44-7.32,4.88-13.42,6.1S3.06,88.58,3.06,88.58s11-1.22,14.65-3.66S31.14,60.51,33.58,58.07,40.9,37.32,42.12,36.1Z"/><rect class="cls-21" x="60.02" y="20.5" width="1.98" height="1.97"/><polyline class="cls-22" points="64.7 55.02 55.55 55.63 53.96 55.87"/><path class="cls-23" d="M113.52,56.24l59.2-28.07V15.35H114.13S112.61,57.15,113.52,56.24Z"/><path class="cls-24" d="M58,67.83l-1.53-1.37,6.41-2.29h8.54s3,1.53,1.53,1.37-6.41-.15-6.41-.15Z"/><polygon class="cls-25" points="154.41 15.35 123.89 92.85 173.94 92.85 173.94 15.35 154.41 15.35"/><line class="cls-26" x1="108.44" y1="16.16" x2="108.44" y2="93.46"/><path class="cls-27" d="M60.43,75.16s-6.1,7.32-7.63,8.23S37.24,98.35,36,99.57,25,102,25,102l-14.34,7.32c-.2.23-.38.46-.56.68,1.16,2,2.47,3.27,3.92,3,6.1-1.22,13.42-6.1,13.42-6.1s7.33,1.22,12.21-2.44,11-11,14.65-14.65S58,82.48,58,82.48L59.21,80l7.32-2.44S72.63,80,75.07,80l-7.32-4.88Z"/><rect class="cls-17" x="20" y="38" width="3" height="3"/><rect class="cls-17" y="57" width="3" height="3"/><rect class="cls-17" x="106" y="4.5" width="1.5" height="1.5"/></symbol></defs><title>shelf5</title><use id="New_Symbol-3" data-name="New Symbol" width="200" height="200" transform="translate(-0.67)" xlink:href="#New_Symbol"/><text class="cls-28" transform="translate(83.23 182.79)">V</text><g class="cls-29"><path class="cls-30" d="M108.69,154.94a18.82,18.82,0,0,0,.63-2.12,9.52,9.52,0,0,0,.23-2.1,2.72,2.72,0,0,0-.69-2,3.14,3.14,0,0,0-2.1-.81v-1.77h11.57v1.77a4.12,4.12,0,0,0-1.73.66,4.6,4.6,0,0,0-1.29,1.42,18,18,0,0,0-1.36,3L102.7,183H96.5L87.63,152.9a20.29,20.29,0,0,0-1-2.86,3.85,3.85,0,0,0-1-1.37,4.17,4.17,0,0,0-1.8-.77v-1.77H98.64v1.77a3.6,3.6,0,0,0-2.06.78,2.23,2.23,0,0,0-.67,1.74,9.08,9.08,0,0,0,.16,1.74c.1.56.33,1.46.67,2.7l5.32,19.28Z"/></g><use width="173.94" height="113.03" transform="translate(23 22.5)" xlink:href="#New_Symbol_4"/></svg>