<svg width="12" height="13" viewBox="0 0 12 13" fill="none" xmlns="http://www.w3.org/2000/svg">
<path d="M9.74746 7.82793L10.3543 6.23848C10.4559 5.97187 10.2604 5.6875 9.97344 5.6875H8.87656C8.91465 5.48945 8.9375 5.28633 8.9375 5.07812C8.9375 4.89531 8.91465 4.71758 8.88164 4.54238C9.90996 4.29355 10.5625 3.92793 10.5625 3.52168C10.5625 3.10273 9.87695 2.72949 8.80293 2.48066C8.57695 1.62754 8.10723 0.756641 7.7543 0.312305C7.59434 0.10918 7.35566 0 7.11191 0C6.8707 0 6.79961 0.0609375 6.05059 0.436719C5.72559 0.599219 5.43359 0.490039 5.32441 0.436719C4.56777 0.0583985 4.50176 0 4.26309 0C4.01934 0 3.7832 0.10918 3.62324 0.309766C3.27031 0.754102 2.80059 1.625 2.57461 2.47812C1.49805 2.72695 0.8125 3.10273 0.8125 3.52168C0.8125 3.93047 1.46504 4.29609 2.49336 4.54238C2.46035 4.71758 2.4375 4.89531 2.4375 5.07812C2.4375 5.28633 2.46035 5.48945 2.49844 5.6875H1.42949C1.1375 5.6875 0.941992 5.98457 1.05625 6.25371L1.71133 7.78223C0.693164 8.37383 0 9.46309 0 10.725V11.8625C0 12.4896 0.510352 13 1.1375 13H10.2375C10.8646 13 11.375 12.4896 11.375 11.8625V10.725C11.375 9.49609 10.7199 8.42969 9.74746 7.82793ZM3.25 5.07812C3.25 5.00957 3.25762 4.94355 3.26523 4.87754C3.29824 4.89785 3.39473 4.96133 3.4125 5.01465C3.51152 5.3168 3.59023 5.63926 3.83145 5.8627C4.03457 6.05059 5.0248 6.5 5.45645 5.22793C5.52754 5.01465 5.84746 5.01465 5.92109 5.22793C6.32734 6.43145 7.28965 6.10137 7.54609 5.8627C7.7873 5.63926 7.86856 5.3168 7.96504 5.01465C7.98281 4.96133 8.07676 4.89785 8.1123 4.87754C8.11992 4.94355 8.12754 5.00957 8.12754 5.07812C8.12754 6.42129 7.0332 7.51562 5.69004 7.51562C4.34688 7.51562 3.25 6.42129 3.25 5.07812ZM3.23223 3.16113C3.25 3.09258 3.54453 1.71387 4.26055 0.8125C4.98926 1.17813 5.21777 1.33301 5.6875 1.33301C6.15977 1.33301 6.39082 1.17305 7.11445 0.8125L7.11699 0.815039C7.83047 1.71387 8.125 3.09004 8.14277 3.16113C8.68613 3.28555 9.05176 3.36172 9.4377 3.52168C8.8207 3.77305 7.52324 4.0625 5.6875 4.0625C3.85176 4.0625 2.5543 3.77305 1.9373 3.52168C2.32324 3.36172 2.69648 3.28555 3.23223 3.16113ZM1.1375 12.1875C0.957227 12.1875 0.8125 12.0428 0.8125 11.8625V10.725C0.8125 9.79824 1.3 8.96035 2.11758 8.48555L2.74219 8.125L2.04648 6.5H2.78027C2.89961 6.74375 4.41289 9.25488 4.41289 9.25488L3.62832 12.1875H1.1375ZM4.46875 12.1875L5.28125 9.14062L4.7252 8.16563C5.03242 8.26211 5.3498 8.32812 5.6875 8.32812C6.0252 8.32812 6.34512 8.26211 6.6498 8.16563L6.09375 9.14062L6.90625 12.1875H4.46875ZM10.5625 11.8625C10.5625 12.0428 10.4178 12.1875 10.2375 12.1875H7.74668L6.96465 9.25488C6.96465 9.25488 8.47793 6.74375 8.59727 6.5H9.38438L8.74961 8.16563L9.3209 8.51855C10.0979 8.99844 10.5625 9.82363 10.5625 10.725V11.8625Z" fill="#828282"/>
</svg>
