<svg width="15" height="13" viewBox="0 0 15 13" fill="none" xmlns="http://www.w3.org/2000/svg">
<path d="M13.5938 0.875H1.40625C0.62959 0.875 0 1.50459 0 2.28125V10.7188C0 11.4954 0.62959 12.125 1.40625 12.125H13.5938C14.3704 12.125 15 11.4954 15 10.7188V2.28125C15 1.50459 14.3704 0.875 13.5938 0.875ZM14.0625 10.7188C14.0625 10.9772 13.8522 11.1875 13.5938 11.1875H1.40625C1.14779 11.1875 0.9375 10.9772 0.9375 10.7188V2.28125C0.9375 2.02279 1.14779 1.8125 1.40625 1.8125H13.5938C13.8522 1.8125 14.0625 2.02279 14.0625 2.28125V10.7188ZM3.28125 5.79688C4.18734 5.79688 4.92188 5.06234 4.92188 4.15625C4.92188 3.25016 4.18734 2.51562 3.28125 2.51562C2.37516 2.51562 1.64062 3.25016 1.64062 4.15625C1.64062 5.06234 2.37516 5.79688 3.28125 5.79688ZM3.28125 3.45312C3.66896 3.45312 3.98438 3.76854 3.98438 4.15625C3.98438 4.54396 3.66896 4.85938 3.28125 4.85938C2.89354 4.85938 2.57812 4.54396 2.57812 4.15625C2.57812 3.76854 2.89354 3.45312 3.28125 3.45312ZM9.34655 4.1278L6.5625 6.91188L5.65345 6.00283C5.37885 5.72823 4.93365 5.72823 4.65908 6.00283L2.08096 8.58096C2.01566 8.64624 1.96387 8.72375 1.92853 8.80906C1.89319 8.89436 1.875 8.98579 1.875 9.07812V9.89844C1.875 10.0926 2.03241 10.25 2.22656 10.25H12.7734C12.9676 10.25 13.125 10.0926 13.125 9.89844V7.20312C13.125 7.01665 13.0509 6.83779 12.9191 6.70593L10.3409 4.1278C10.0663 3.85323 9.62115 3.85323 9.34655 4.1278ZM12.1875 9.3125H2.8125V9.17521L5.15625 6.83146L6.5625 8.23771L9.84375 4.95646L12.1875 7.30021V9.3125Z" fill="#828282"/>
</svg>
