<svg width="25" height="25" viewBox="0 0 25 25" fill="none" xmlns="http://www.w3.org/2000/svg">
<path d="M24.8279 22.8944L18.9004 16.9669C18.7881 16.8546 18.6417 16.7961 18.4854 16.7961H17.8409C19.3789 15.0139 20.3115 12.6947 20.3115 10.1558C20.3115 4.54568 15.7658 0 10.1558 0C4.54568 0 0 4.54568 0 10.1558C0 15.7658 4.54568 20.3115 10.1558 20.3115C12.6947 20.3115 15.0139 19.3789 16.7961 17.8409V18.4854C16.7961 18.6417 16.8595 18.7881 16.9669 18.9004L22.8944 24.8279C23.1239 25.0574 23.4949 25.0574 23.7244 24.8279L24.8279 23.7244C25.0574 23.4949 25.0574 23.1239 24.8279 22.8944ZM10.1558 17.9679C5.83956 17.9679 2.34364 14.4719 2.34364 10.1558C2.34364 5.83956 5.83956 2.34364 10.1558 2.34364C14.4719 2.34364 17.9679 5.83956 17.9679 10.1558C17.9679 14.4719 14.4719 17.9679 10.1558 17.9679Z" fill="white"/>
</svg>
