<svg width="14" height="14" viewBox="0 0 14 14" fill="none" xmlns="http://www.w3.org/2000/svg"><path d="M10.5884 8.90718C9.79098 8.90718 9.07991 9.28719 8.62505 9.87447L4.81632 7.747C4.90557 7.49078 4.95451 7.21441 4.95451 6.9294C4.95451 6.64152 4.90557 6.36803 4.81344 6.10893L8.61929 3.98433C9.07127 4.5745 9.78523 4.95739 10.5855 4.95739C11.9501 4.95739 13.0642 3.84615 13.0642 2.47869C13.0642 1.11124 11.953 0 10.5855 0C9.21809 0 8.10685 1.11124 8.10685 2.47869C8.10685 2.76658 8.1558 3.04295 8.24792 3.29917L4.44495 5.42376C3.99297 4.83072 3.27902 4.45071 2.47869 4.45071C1.11412 4.45071 0 5.56195 0 6.9294C0 8.29686 1.11412 9.4081 2.48157 9.4081C3.28189 9.4081 3.99585 9.02521 4.45071 8.43217L8.25655 10.5596C8.16443 10.8187 8.11261 11.098 8.11261 11.3859C8.11261 12.7504 9.22385 13.8646 10.5913 13.8646C11.9588 13.8646 13.07 12.7533 13.07 11.3859C13.07 10.0184 11.9559 8.90718 10.5884 8.90718Z" fill="#354052"/></svg>
