<svg width="12" height="12" viewBox="0 0 12 12" fill="none" xmlns="http://www.w3.org/2000/svg">
<path fill-rule="evenodd" clip-rule="evenodd" d="M1.47193 0.337069C1.15933 0.0271294 0.652512 0.0271294 0.339916 0.337069C0.0273196 0.647008 0.0273197 1.14952 0.339916 1.45946L4.91969 6.00031L0.339988 10.5411C0.0274871 10.8509 0.0274872 11.3533 0.339988 11.6631C0.652488 11.973 1.15915 11.973 1.47165 11.6631L6.05135 7.12235L10.528 11.561C10.8406 11.8709 11.3474 11.8709 11.66 11.561C11.9726 11.251 11.9726 10.7485 11.66 10.4386L7.18337 5.99996L11.6601 1.56127C11.9726 1.25143 11.9726 0.749073 11.6601 0.439228C11.3476 0.129383 10.8409 0.129384 10.5284 0.439229L6.0517 4.87792L1.47193 0.337069Z" fill="#A4A5B0"/>
</svg>
