<svg xmlns="http://www.w3.org/2000/svg" width="17" height="17" viewBox="0 0 17 17"><path d="M9.821 3.21l4.631 4.635-9.262 9.272H.559v-4.636L9.82 3.21zm.601 2.14c0-.146-.1-.246-.245-.246a.26.26 0 0 0-.189.078l-6.034 6.04a.261.261 0 0 0-.078.19c0 .144.1.245.245.245a.26.26 0 0 0 .19-.078l6.033-6.04a.261.261 0 0 0 .078-.19zM4.6 15.69l1.013-1.013-2.616-2.62-1.013 1.015v1.192h1.425v1.427h1.19zM17.425 4.28c0-.38-.156-.747-.412-1.015L14.397.657a1.442 1.442 0 0 0-1.013-.423c-.379 0-.746.156-1.002.423l-1.848 1.84 4.63 4.635 1.849-1.85c.256-.256.412-.624.412-1.003z" fill="#1A3D52" fill-rule="evenodd"/></svg>