<svg width="9" height="9" viewBox="0 0 9 9" fill="none" xmlns="http://www.w3.org/2000/svg">
<path fill-rule="evenodd" clip-rule="evenodd" d="M1.31791 4.14645C1.12265 4.34171 1.12265 4.65829 1.31791 4.85355L4.14634 7.68198C4.3416 7.87724 4.65818 7.87724 4.85344 7.68198L7.68187 4.85355C7.87713 4.65829 7.87713 4.34171 7.68187 4.14645C7.48661 3.95118 7.17002 3.95118 6.97476 4.14645L4.49989 6.62132L2.02502 4.14645C1.82975 3.95118 1.51317 3.95118 1.31791 4.14645Z" fill="#CAD4E1"/>
<mask id="mask0" mask-type="alpha" maskUnits="userSpaceOnUse" x="0" y="0" width="9" height="9">
<path fill-rule="evenodd" clip-rule="evenodd" d="M1.31791 4.14645C1.12265 4.34171 1.12265 4.65829 1.31791 4.85355L4.14634 7.68198C4.3416 7.87724 4.65818 7.87724 4.85344 7.68198L7.68187 4.85355C7.87713 4.65829 7.87713 4.34171 7.68187 4.14645C7.48661 3.95118 7.17002 3.95118 6.97476 4.14645L4.49989 6.62132L2.02502 4.14645C1.82975 3.95118 1.51317 3.95118 1.31791 4.14645Z" fill="white"/>
</mask>
<g mask="url(#mask0)">
</g>
</svg>
