<svg xmlns="http://www.w3.org/2000/svg" width="27" height="25" viewBox="0 0 27 25"><path fill="#D46240" stroke="#D46240" d="M3.381 8.659c0-2.898 2.275-5.24 5.073-5.24 1.63 0 3.13.798 4.083 2.129l.963 1.345.963-1.345c.952-1.331 2.453-2.13 4.083-2.13 2.798 0 5.073 2.343 5.073 5.24a5.315 5.315 0 0 1-1.26 3.457l.051-.057-.173.18-.458.474-1.39 1.437-.006.006-1.388 1.433-2.307 2.375-2.54 2.614-1.154 1.189a.604.604 0 0 1 .867-.002L4.541 12l.056.064A5.316 5.316 0 0 1 3.381 8.66zM1 8.659c0 1.841.636 3.586 1.775 4.96l.057.064 9.32 9.765a1.75 1.75 0 0 0 2.537.016l1.155-1.188 2.539-2.615 2.307-2.375c.348-.359.823-.848 1.391-1.436l.006-.006 1.39-1.438.459-.474.174-.18.05-.056A7.755 7.755 0 0 0 26 8.659C26 4.432 22.666 1 18.546 1c-2.402 0-4.614 1.177-6.009 3.125h1.926C13.068 2.177 10.856 1 8.454 1 4.334 1 1 4.432 1 8.659z"/></svg>