<svg xmlns="http://www.w3.org/2000/svg" width="36" height="36" viewBox="0 0 36 36"><g fill="none" fill-rule="evenodd"><circle cx="18" cy="18" r="16.5" stroke="#FFF" stroke-width="3"/><path fill="#FFF" d="M29.35 14.85l-5.758-5.64a.718.718 0 0 0-1.226.496v2.819h-2.52c-3.689 0-8.278.639-9.841 4.44-.472 1.167-.596 2.434-.596 3.668 0 1.542.787 3.558 1.428 4.968.124.253.248.605.416.837.08.11.158.187.315.187.225 0 .36-.176.36-.386 0-.176-.045-.374-.056-.55a18.189 18.189 0 0 1-.056-1.355c0-5.255 3.183-6.169 8.03-6.169h2.52v2.82a.718.718 0 0 0 1.226.496l5.759-5.64a.694.694 0 0 0 .213-.496.694.694 0 0 0-.213-.496z"/></g></svg>