<svg width="41" height="27" viewBox="0 0 41 27" fill="none" xmlns="http://www.w3.org/2000/svg">
<path fill-rule="evenodd" clip-rule="evenodd" d="M36.5992 0.0079413L25.9667 4.83368L36.6949 2.6295L36.899 0.267201C36.9119 0.120054 36.7964 0 36.6596 0C36.6398 0 36.6196 0.00256924 36.5992 0.0079413ZM4.10098 0.267201L4.3053 2.6295L15.0333 4.83368L4.40058 0.0079413C4.38037 0.00256924 4.36017 0 4.34043 0C4.2036 0 4.08812 0.120054 4.10098 0.267201ZM20.5 0.69344C20.4943 0.693215 20.4895 0.690522 20.4837 0.690522C20.4803 0.690522 20.4778 0.692093 20.4743 0.692093V0.697703C20.2699 0.717002 20.1085 0.861968 20.1085 1.04463V1.70461C19.4113 1.78562 17.3322 2.79948 17.3322 3.06226L17.332 7.22049L16.7299 14.736L16.1383 7.0762L0.841333 9.48295C0.302836 9.5662 -0.0673371 10.0565 0.0102799 10.5839L3.12989 25.4038C3.20911 25.942 3.7235 26.3129 4.27279 26.2278L17.805 24.0944C17.8852 24.4396 18.3118 24.8668 19.3022 24.8861H21.6978C22.688 24.8668 23.1147 24.4396 23.1953 24.0944L36.727 26.2278C37.2766 26.3129 37.7909 25.942 37.8699 25.4038L40.9898 10.5839C41.0672 10.0565 40.697 9.5662 40.1587 9.48295L24.8617 7.0762L24.2702 14.736L23.6679 7.22049V3.06226C23.6679 2.79948 21.5885 1.78562 20.8913 1.70461V1.04463C20.8913 0.861968 20.7299 0.717002 20.5257 0.697703V0.692093C20.5225 0.692093 20.5195 0.690522 20.5163 0.690522C20.5106 0.690522 20.5058 0.693215 20.5 0.69344ZM21.8667 6.15397V3.61338C21.8667 3.58182 21.8904 3.55571 21.9205 3.55191C22.1295 3.52509 22.3185 3.49257 22.4787 3.45412C22.5163 3.44558 22.55 3.47477 22.55 3.51512V6.05072C22.55 6.07992 22.5325 6.10531 22.5051 6.1122C22.3433 6.15207 22.1505 6.18625 21.9358 6.21402C21.9332 6.21449 21.9305 6.21473 21.9278 6.21473C21.895 6.21473 21.8667 6.18886 21.8667 6.15397ZM18.381 6.21402C18.1663 6.18625 17.9733 6.15207 17.8116 6.1122C17.7843 6.10531 17.7667 6.07992 17.7667 6.05072V3.51512C17.7667 3.47477 17.8005 3.44558 17.8382 3.45412C17.9983 3.49257 18.1871 3.52509 18.3963 3.55191C18.4265 3.55571 18.45 3.58182 18.45 3.61338V6.15397C18.45 6.18886 18.4218 6.21473 18.3892 6.21473C18.3865 6.21473 18.3837 6.21449 18.381 6.21402ZM20.5286 4.15204V4.15155C20.7221 4.15106 20.912 4.14836 21.0959 4.14321C21.1444 4.14174 21.1833 4.17093 21.1833 4.20748V6.83143C21.1833 6.86626 21.1477 6.8952 21.1015 6.89643C20.9067 6.90232 20.7058 6.90502 20.5001 6.90526C20.2944 6.90502 20.0936 6.90232 19.8985 6.89643C19.8525 6.8952 19.8167 6.86626 19.8167 6.83143V4.20748C19.8167 4.17093 19.8558 4.14174 19.9044 4.14321C20.0882 4.14836 20.2784 4.15106 20.4716 4.15155V4.15204C20.4752 4.15204 20.4785 4.15204 20.4821 4.15204C20.4882 4.15204 20.494 4.1518 20.5001 4.1518C20.5062 4.1518 20.5121 4.15204 20.5179 4.15204C20.5215 4.15204 20.525 4.15204 20.5286 4.15204ZM13.6667 9.32228C13.6667 9.13153 13.8197 8.97684 14.0081 8.97684C14.1969 8.97684 14.35 9.13153 14.35 9.32228C14.35 9.51267 14.1969 9.66736 14.0081 9.66736C13.8197 9.66736 13.6667 9.51267 13.6667 9.32228ZM32.1167 10.0124C32.1167 9.82205 32.2697 9.66736 32.4581 9.66736C32.6469 9.66736 32.8 9.82205 32.8 10.0124C32.8 10.2032 32.6469 10.3579 32.4581 10.3579C32.2697 10.3579 32.1167 10.2032 32.1167 10.0124ZM27.3333 10.0126C27.3333 9.82214 27.4861 9.66736 27.675 9.66736C27.8639 9.66736 28.0167 9.82214 28.0167 10.0126C28.0167 10.2035 27.8639 10.3579 27.675 10.3579C27.4861 10.3579 27.3333 10.2035 27.3333 10.0126ZM10.25 11.0484C10.9514 10.9316 11.5014 10.376 11.6168 9.66736C11.7324 10.376 12.2822 10.9316 12.9833 11.0484C12.2822 11.1652 11.7324 11.7206 11.6168 12.4295C11.5014 11.7206 10.9514 11.1652 10.25 11.0484ZM8.2 10.7033C8.2 10.5126 8.35308 10.3579 8.54148 10.3579C8.73025 10.3579 8.88333 10.5126 8.88333 10.7033C8.88333 10.8937 8.73025 11.0484 8.54148 11.0484C8.35308 11.0484 8.2 10.8937 8.2 10.7033ZM38.2667 10.7032C38.2667 10.5123 38.4197 10.3579 38.6085 10.3579C38.7969 10.3579 38.95 10.5123 38.95 10.7032C38.95 10.894 38.7969 11.0484 38.6085 11.0484C38.4197 11.0484 38.2667 10.894 38.2667 10.7032ZM34.1667 12.0842C34.6928 11.9968 35.105 11.58 35.1918 11.0484C35.2783 11.58 35.6908 11.9968 36.2167 12.0842C35.6908 12.1719 35.2783 12.5884 35.1918 13.12C35.105 12.5884 34.6928 12.1719 34.1667 12.0842ZM2.05 12.0842C2.05 11.8933 2.20308 11.7389 2.39148 11.7389C2.58026 11.7389 2.73333 11.8933 2.73333 12.0842C2.73333 12.2751 2.58026 12.4295 2.39148 12.4295C2.20308 12.4295 2.05 12.2751 2.05 12.0842ZM3.41667 13.4651C3.94274 13.3777 4.35515 12.9609 4.44167 12.4295C4.52842 12.9609 4.94083 13.3777 5.46666 13.4651C4.94083 13.5526 4.52842 13.9694 4.44167 14.5011C4.35515 13.9694 3.94274 13.5526 3.41667 13.4651ZM30.75 12.7747C30.75 12.5839 30.9031 12.4295 31.0915 12.4295C31.2803 12.4295 31.4333 12.5839 31.4333 12.7747C31.4333 12.9656 31.2803 13.12 31.0915 13.12C30.9031 13.12 30.75 12.9656 30.75 12.7747ZM26.65 13.4653C26.65 13.2748 26.8032 13.12 26.9917 13.12C27.1805 13.12 27.3333 13.2748 27.3333 13.4653C27.3333 13.6561 27.1805 13.8105 26.9917 13.8105C26.8032 13.8105 26.65 13.6561 26.65 13.4653ZM13.6667 13.4653C13.6667 13.2748 13.8192 13.12 14.0081 13.12C14.1971 13.12 14.35 13.2748 14.35 13.4653C14.35 13.6561 14.1971 13.8105 14.0081 13.8105C13.8192 13.8105 13.6667 13.6561 13.6667 13.4653ZM8.88334 13.4651C8.88334 13.2743 9.03614 13.12 9.22501 13.12C9.41388 13.12 9.56668 13.2743 9.56668 13.4651C9.56668 13.6558 9.41388 13.8105 9.22501 13.8105C9.03614 13.8105 8.88334 13.6558 8.88334 13.4651ZM36.9 14.8467C36.9 14.6558 37.0529 14.501 37.2419 14.501C37.4305 14.501 37.5833 14.6558 37.5833 14.8467C37.5833 15.0372 37.4305 15.1916 37.2419 15.1916C37.0529 15.1916 36.9 15.0372 36.9 14.8467ZM27.3333 15.882C28.0347 15.7654 28.5845 15.2098 28.7001 14.501C28.8157 15.2098 29.3655 15.7654 30.0667 15.882C29.3655 15.9988 28.8157 16.5541 28.7001 17.2632C28.5845 16.5541 28.0347 15.9988 27.3333 15.882ZM8.88334 16.5727C9.234 16.5145 9.50911 16.2366 9.56679 15.8821C9.62447 16.2366 9.89936 16.5145 10.25 16.5727C9.89936 16.631 9.62447 16.9087 9.56679 17.2632C9.50911 16.9087 9.234 16.631 8.88334 16.5727ZM5.46666 16.9179C5.46666 16.727 5.61946 16.5726 5.80833 16.5726C5.99721 16.5726 6.15 16.727 6.15 16.9179C6.15 17.1084 5.99721 17.2632 5.80833 17.2632C5.61946 17.2632 5.46666 17.1084 5.46666 16.9179ZM33.4833 17.608C33.4833 17.4179 33.6364 17.2631 33.8248 17.2631C34.0136 17.2631 34.1667 17.4179 34.1667 17.608C34.1667 17.7993 34.0136 17.9537 33.8248 17.9537C33.6364 17.9537 33.4833 17.7993 33.4833 17.608ZM39.3774 4.83368L25.2833 6.32758L39.3004 7.59579L39.631 5.12763C39.6516 4.97186 39.5345 4.83368 39.383 4.83368C39.3812 4.83368 39.3792 4.83368 39.3774 4.83368ZM1.36912 5.12763L1.69923 7.59579L15.7167 6.32758L1.62249 4.83368C1.62045 4.83368 1.61863 4.83368 1.61659 4.83368C1.46538 4.83368 1.348 4.97186 1.36912 5.12763Z" fill="#354052"/>
</svg>
