<svg xmlns="http://www.w3.org/2000/svg" width="22" height="22" viewBox="0 0 22 22"><path fill="#9B9B9B" fill-rule="evenodd" d="M8.794 17.672C3.937 17.672 0 13.716 0 8.836 0 3.956 3.937 0 8.794 0c4.856 0 8.794 3.956 8.794 8.836 0 1.99-.656 3.827-1.76 5.305l5.772 5.6c.519.505.537 1.332.032 1.857a1.3 1.3 0 0 1-1.847.033l-5.82-5.647a8.726 8.726 0 0 1-5.171 1.688zm-.079-2.566a6.158 6.158 0 0 0 3.65-1.191l1.314-1.3a6.228 6.228 0 0 0 1.242-3.744c0-3.444-2.778-6.236-6.206-6.236-3.427 0-6.205 2.792-6.205 6.236 0 3.443 2.778 6.235 6.205 6.235z"/></svg>