<svg width="28" height="17" viewBox="0 0 28 17" fill="none" xmlns="http://www.w3.org/2000/svg">
<path d="M12.7573 12.6416H4.15998L2.38044 16.8555H0L7.32619 0H9.61419L16.9635 16.8555H14.5368L12.7573 12.6416ZM11.9484 10.7153L8.45863 2.45609L4.96887 10.7153H11.9484Z" fill="#354052"/>
<path d="M22.7538 3.97309C24.4486 3.97309 25.7428 4.40652 26.6365 5.27337C27.5455 6.14023 28 7.43248 28 9.15014V16.8555H25.8969V15.17C25.5271 15.7639 24.9956 16.2214 24.3022 16.5425C23.6243 16.8475 22.8154 17 21.8756 17C20.5043 17 19.4027 16.6549 18.5707 15.9646C17.7541 15.2743 17.3458 14.3673 17.3458 13.2436C17.3458 12.1199 17.7387 11.221 18.5245 10.5467C19.3103 9.85647 20.5583 9.51133 22.2685 9.51133H25.7813V9.05382C25.7813 8.05855 25.504 7.29603 24.9493 6.76629C24.3947 6.23654 23.5781 5.97167 22.4996 5.97167C21.7754 5.97167 21.0667 6.10009 20.3734 6.35694C19.68 6.59773 19.0946 6.92682 18.6169 7.34419L17.6925 5.61048C18.3242 5.08074 19.0791 4.67941 19.9574 4.40652C20.8356 4.11756 21.7677 3.97309 22.7538 3.97309ZM22.2454 15.2181C23.0928 15.2181 23.8246 15.0255 24.4409 14.6402C25.0572 14.2389 25.504 13.6771 25.7813 12.9547V11.1728H22.3609C20.4812 11.1728 19.5414 11.831 19.5414 13.1473C19.5414 13.7894 19.7802 14.2951 20.2578 14.6643C20.7354 15.0335 21.398 15.2181 22.2454 15.2181Z" fill="#354052"/>
</svg>
