<svg xmlns="http://www.w3.org/2000/svg" xmlns:xlink="http://www.w3.org/1999/xlink" width="31" height="31" viewBox="0 0 31 31"><defs><filter id="a" width="110.3%" height="110.3%" x="-5.2%" y="-5.2%" filterUnits="objectBoundingBox"><feOffset in="SourceAlpha" result="shadowOffsetOuter1"/><feGaussianBlur in="shadowOffsetOuter1" result="shadowBlurOuter1" stdDeviation=".5"/><feColorMatrix in="shadowBlurOuter1" result="shadowMatrixOuter1" values="0 0 0 0 0.442854242 0 0 0 0 0.562212018 0 0 0 0 0.654443027 0 0 0 1 0"/><feMerge><feMergeNode in="shadowMatrixOuter1"/><feMergeNode in="SourceGraphic"/></feMerge></filter><path id="b" d="M29 18.812v.036a.92.92 0 0 1-.097.388l-2.958 5.1c-.149.292-.592.438-.888.292l-3.698-1.457c-.74.583-1.627 1.02-2.515 1.457l-.591 3.79c0 .29-.444.582-.74.582h-5.917c-.444 0-.74-.291-.74-.583l-.591-3.79c-.888-.436-1.776-.873-2.515-1.456l-3.698 1.457c-.444.146-.74 0-.888-.146l-2.958-5.1c-.148-.292-.148-.583.148-.874L3.46 16.03c-.148-.437-.148-.874-.148-1.457 0-.583.148-1.02.148-1.457L.354 10.784c-.296-.292-.444-.729-.296-.874l2.959-5.1c.295-.292.591-.438 1.035-.292l3.55 1.457c.887-.583 1.627-1.166 2.515-1.457l.592-3.935c0-.292.443-.583.74-.583h5.916c.296 0 .74.291.592.728l.591 3.79c.888.437 1.775.874 2.515 1.457l3.698-1.457c.443-.146.74 0 .887.145l2.96 5.101c.147.291.147.583-.149.874l-3.106 2.478c.148.437.148.874.148 1.457 0 .583-.148 1.02-.148 1.457l3.402 2.332c.168.083.24.26.245.45z"/><path id="d" d="M5.427 10.853A5.427 5.427 0 1 1 5.427 0a5.427 5.427 0 0 1 0 10.853z"/></defs><g fill="none" fill-rule="evenodd" filter="url(#a)" transform="translate(1 1)"><mask id="c" fill="#fff"><use xlink:href="#b"/></mask><path stroke="#1A3D52" stroke-width="3.5" d="M25.353 16.03c0-.437.147-.874.147-1.457 0-.583 0-1.02-.147-1.457l3.106-2.478c.296-.291.296-.583.148-.874l-2.959-5.1c-.148-.146-.443-.292-.887-.146l-3.698 1.457c-.74-.583-1.627-1.02-2.515-1.457l-.592-3.79C18.105.292 17.661 0 17.365 0h-5.917c-.296 0-.74.291-.74.583l-.591 3.935c-.888.291-1.627.874-2.515 1.457l-3.55-1.457c-.444-.146-.74 0-1.036.291L.058 9.91c-.148.146 0 .584.296.875l3.106 2.332c0 .437-.148.874-.148 1.457 0 .583 0 1.02.148 1.457L.354 18.508c-.296.291-.296.582-.148.874l2.958 5.1c.148.146.444.292.888.146l3.698-1.457c.74.583 1.627 1.02 2.514 1.457l.592 3.79c0 .29.296.582.74.582h5.917c.296 0 .74-.291.74-.583l.591-3.789c.888-.437 1.775-.874 2.515-1.457l3.698 1.457c.296.146.74 0 .887-.291l2.96-5.101c.147-.291.147-.728-.15-.874l-3.401-2.332z" mask="url(#c)"/><g transform="translate(8.74 8.74)"><mask id="e" fill="#fff"><use xlink:href="#d"/></mask><path stroke="#1A3D52" stroke-width="3.5" d="M5.427 10.853A5.427 5.427 0 1 0 5.427 0a5.427 5.427 0 0 0 0 10.853z" mask="url(#e)"/></g></g></svg>