<svg width="15" height="15" viewBox="0 0 15 15" fill="none" xmlns="http://www.w3.org/2000/svg">
<path d="M7.73434 9.375H12.8906C12.9528 9.375 13.0124 9.35031 13.0563 9.30635C13.1003 9.2624 13.125 9.20278 13.125 9.14062V8.67187C13.125 8.60971 13.1003 8.5501 13.0563 8.50615C13.0124 8.46219 12.9528 8.4375 12.8906 8.4375H7.73434C7.67218 8.4375 7.61256 8.46219 7.56861 8.50615C7.52465 8.5501 7.49996 8.60971 7.49996 8.67187V9.14062C7.49996 9.20278 7.52465 9.2624 7.56861 9.30635C7.61256 9.35031 7.67218 9.375 7.73434 9.375ZM7.73434 3.75H9.14059C9.20275 3.75 9.26236 3.72531 9.30632 3.68135C9.35027 3.6374 9.37497 3.57779 9.37497 3.51562V3.04687C9.37497 2.98471 9.35027 2.9251 9.30632 2.88115C9.26236 2.83719 9.20275 2.8125 9.14059 2.8125H7.73434C7.67218 2.8125 7.61256 2.83719 7.56861 2.88115C7.52465 2.9251 7.49996 2.98471 7.49996 3.04687V3.51562C7.49996 3.57779 7.52465 3.6374 7.56861 3.68135C7.61256 3.72531 7.67218 3.75 7.73434 3.75ZM7.73434 6.5625H11.0156C11.0778 6.5625 11.1374 6.53781 11.1813 6.49385C11.2253 6.4499 11.25 6.39028 11.25 6.32812V5.85937C11.25 5.79721 11.2253 5.7376 11.1813 5.69365C11.1374 5.64969 11.0778 5.625 11.0156 5.625H7.73434C7.67218 5.625 7.61256 5.64969 7.56861 5.69365C7.52465 5.7376 7.49996 5.79721 7.49996 5.85937V6.32812C7.49996 6.39028 7.52465 6.4499 7.56861 6.49385C7.61256 6.53781 7.67218 6.5625 7.73434 6.5625ZM14.7656 11.25H7.73434C7.67218 11.25 7.61256 11.2747 7.56861 11.3186C7.52465 11.3626 7.49996 11.4222 7.49996 11.4844V11.9531C7.49996 12.0153 7.52465 12.0749 7.56861 12.1189C7.61256 12.1628 7.67218 12.1875 7.73434 12.1875H14.7656C14.8278 12.1875 14.8874 12.1628 14.9313 12.1189C14.9753 12.0749 15 12.0153 15 11.9531V11.4844C15 11.4222 14.9753 11.3626 14.9313 11.3186C14.8874 11.2747 14.8278 11.25 14.7656 11.25ZM5.82799 10.8855C5.79568 10.8527 5.75722 10.8267 5.71481 10.8088C5.67239 10.7909 5.62686 10.7815 5.58083 10.7813C5.5348 10.781 5.48917 10.7899 5.44656 10.8073C5.40396 10.8248 5.36522 10.8505 5.33257 10.8829L3.75054 12.426V1.17187C3.75054 1.10971 3.72585 1.0501 3.68189 1.00615C3.63794 0.962193 3.57833 0.9375 3.51616 0.9375H3.04683C2.98467 0.9375 2.92505 0.962193 2.8811 1.00615C2.83715 1.0501 2.81245 1.10971 2.81245 1.17187V12.4195L1.23218 10.8858C1.16631 10.8204 1.0772 10.7836 0.984324 10.7836C0.891446 10.7836 0.802341 10.8204 0.736472 10.8858L0.571237 11.0517C0.538462 11.0843 0.512457 11.1231 0.494713 11.1659C0.476968 11.2086 0.467834 11.2544 0.467834 11.3007C0.467834 11.347 0.476968 11.3928 0.494713 11.4355C0.512457 11.4782 0.538462 11.517 0.571237 11.5497L3.03394 13.9608C3.09952 14.0263 3.1884 14.0631 3.28106 14.0631C3.37372 14.0631 3.46259 14.0263 3.52818 13.9608L5.98912 11.5491C6.02207 11.5166 6.04828 11.478 6.06625 11.4353C6.08422 11.3927 6.0936 11.3469 6.09384 11.3006C6.09409 11.2544 6.0852 11.2085 6.06768 11.1657C6.05016 11.1229 6.02436 11.0839 5.99176 11.0511L5.82799 10.8855Z" fill="#234D60"/>
</svg>
