<svg width="25" height="25" viewBox="0 0 25 25" fill="none" xmlns="http://www.w3.org/2000/svg">
<path d="M24.2508 11.0506C24.5192 9.96001 24.3889 8.61509 23.7807 7.66172C23.9914 6.50117 23.6294 5.25073 22.8908 4.38511C22.9846 1.75303 21.3745 1.23964e-06 18.4799 0.000684833C18.3157 -0.00078001 16.7461 0.000538349 16.4773 0.000684833C12.7243 -0.000340557 9.56626 1.95313 7.8125 1.95313H7.28296C7.00757 1.71021 6.64614 1.5625 6.25 1.5625H1.5625C0.699561 1.5625 0 2.26206 0 3.125V15.625C0 16.4879 0.699561 17.1875 1.5625 17.1875H6.25C7.11294 17.1875 7.8125 16.4879 7.8125 15.625V15.0156C7.854 15.0286 7.89321 15.0424 7.92881 15.0574C8.98438 15.625 10.7415 18.4204 11.8924 19.5713C12.3758 20.0547 12.5329 20.8623 12.6993 21.7173C12.9777 23.1485 13.5212 25 14.9858 25C17.8964 25 19.0341 23.307 19.0341 20.4551C19.0341 18.946 18.4494 17.8941 18.0236 17.046H21.4489C23.434 17.046 25 15.3421 25 13.5025C25 12.5 24.7355 11.6792 24.2508 11.0506ZM6.25 15.625H1.5625V3.125H6.25V15.625ZM21.4489 15.4835H15.9802C15.9802 17.4721 17.4716 18.395 17.4716 20.455C17.4716 21.7038 17.4716 23.438 14.9858 23.438C13.9916 22.4437 14.4887 19.9579 12.9972 18.4665C11.6004 17.0696 9.51714 13.4949 8.02563 13.4949H7.8125V3.55176H8.02563C9.72002 3.55176 12.9972 1.56314 16.4773 1.56314C16.6472 1.56314 18.3042 1.56167 18.4659 1.56314C20.3336 1.5811 21.6644 2.46323 21.2595 5.02866C22.0586 5.45737 22.6529 6.94444 21.9926 8.05581C23.0469 8.59375 23.0469 10.9375 22.2665 11.5063C23.0469 11.7188 23.4424 12.5006 23.4375 13.4949C23.4326 14.4892 22.5587 15.4835 21.4489 15.4835ZM5.07812 13.2813C5.07812 13.9285 4.55347 14.4531 3.90625 14.4531C3.25903 14.4531 2.73438 13.9285 2.73438 13.2813C2.73438 12.634 3.25903 12.1094 3.90625 12.1094C4.55347 12.1094 5.07812 12.634 5.07812 13.2813Z" fill="#234D60"/>
</svg>
