<svg width="15" height="15" viewBox="0 0 15 15" fill="none" xmlns="http://www.w3.org/2000/svg">
<path d="M13.2422 12.6562C13.2422 12.9785 12.9785 13.2422 12.6562 13.2422C12.334 13.2422 12.0703 12.9785 12.0703 12.6562C12.0703 12.334 12.334 12.0703 12.6562 12.0703C12.9785 12.0703 13.2422 12.334 13.2422 12.6562ZM10.7812 12.0703C10.459 12.0703 10.1953 12.334 10.1953 12.6562C10.1953 12.9785 10.459 13.2422 10.7812 13.2422C11.1035 13.2422 11.3672 12.9785 11.3672 12.6562C11.3672 12.334 11.1035 12.0703 10.7812 12.0703ZM15 10.6641V13.7109C15 14.4229 14.4229 15 13.7109 15H1.28906C0.577148 15 0 14.4229 0 13.7109V10.6641C0 9.95215 0.577148 9.375 1.28906 9.375H4.20117L2.54883 7.72266C1.81055 6.98438 2.33496 5.72168 3.37793 5.72168H4.92188V1.17188C4.92188 0.524414 5.44629 0 6.09375 0H8.90625C9.55371 0 10.0781 0.524414 10.0781 1.17188V5.72168H11.6221C12.665 5.72168 13.1865 6.98438 12.4512 7.72266L10.7988 9.375H13.7109C14.4229 9.375 15 9.95215 15 10.6641ZM7.33301 11.1826C7.42383 11.2734 7.57324 11.2734 7.66406 11.1826L11.7861 7.06055C11.9326 6.91406 11.8301 6.65918 11.6191 6.65918H9.14062V1.17188C9.14062 1.04297 9.03516 0.9375 8.90625 0.9375H6.09375C5.96484 0.9375 5.85938 1.04297 5.85938 1.17188V6.65918H3.37793C3.16992 6.65918 3.06445 6.91113 3.21094 7.06055L7.33301 11.1826ZM14.0625 10.6641C14.0625 10.4707 13.9043 10.3125 13.7109 10.3125H9.86133L8.3291 11.8447C7.87207 12.3018 7.12793 12.3018 6.6709 11.8447L5.13867 10.3125H1.28906C1.0957 10.3125 0.9375 10.4707 0.9375 10.6641V13.7109C0.9375 13.9043 1.0957 14.0625 1.28906 14.0625H13.7109C13.9043 14.0625 14.0625 13.9043 14.0625 13.7109V10.6641Z" fill="#234D60"/>
</svg>
