<svg width="10" height="15" viewBox="0 0 10 15" fill="none" xmlns="http://www.w3.org/2000/svg">
<path d="M9.375 1.17188V1.64062C9.375 1.70279 9.35031 1.7624 9.30635 1.80635C9.2624 1.85031 9.20279 1.875 9.14062 1.875H6.57715L3.76465 13.125H6.32812C6.39029 13.125 6.4499 13.1497 6.49385 13.1936C6.53781 13.2376 6.5625 13.2972 6.5625 13.3594V13.8281C6.5625 13.8903 6.53781 13.9499 6.49385 13.9939C6.4499 14.0378 6.39029 14.0625 6.32812 14.0625H0.234375C0.172215 14.0625 0.112601 14.0378 0.0686468 13.9939C0.024693 13.9499 0 13.8903 0 13.8281V13.3594C0 13.2972 0.024693 13.2376 0.0686468 13.1936C0.112601 13.1497 0.172215 13.125 0.234375 13.125H2.79785L5.61035 1.875H3.04688C2.98471 1.875 2.9251 1.85031 2.88115 1.80635C2.83719 1.7624 2.8125 1.70279 2.8125 1.64062V1.17188C2.8125 1.10971 2.83719 1.0501 2.88115 1.00615C2.9251 0.962193 2.98471 0.9375 3.04688 0.9375H9.14062C9.20279 0.9375 9.2624 0.962193 9.30635 1.00615C9.35031 1.0501 9.375 1.10971 9.375 1.17188Z" fill="#828282"/>
</svg>
