<svg width="15" height="15" viewBox="0 0 15 15" fill="none" xmlns="http://www.w3.org/2000/svg">
<path d="M8.82271 11.5636L6.5024 13.8836C5.01476 15.3718 2.60483 15.3726 1.11646 13.8836C-0.371788 12.3959 -0.372521 9.986 1.11646 8.49763L3.43648 6.17732C3.47036 6.14346 3.50486 6.11022 3.53996 6.07762C3.76115 5.8724 4.11989 6.01891 4.13199 6.32038C4.13765 6.46121 4.14951 6.60183 4.16762 6.74179C4.18171 6.85068 4.14576 6.95996 4.06809 7.03757C3.58528 7.52006 1.86667 9.23858 1.86204 9.24321C0.785731 10.3201 0.785936 12.0612 1.86204 13.1379C2.93896 14.2142 4.68005 14.214 5.75677 13.1379L8.07708 10.8176L8.08763 10.8071C9.15113 9.7327 9.14641 7.99253 8.07679 6.9229C7.83614 6.68225 7.56183 6.49575 7.26863 6.36306C7.13486 6.30254 7.05107 6.16774 7.05963 6.02117C7.06845 5.86928 7.09627 5.7191 7.14242 5.57413C7.20403 5.38074 7.42165 5.2823 7.6088 5.36085C8.05039 5.54612 8.46389 5.81846 8.82271 6.17729C10.3077 7.66232 10.3075 10.0788 8.82271 11.5636ZM6.17732 8.82271C6.53615 9.18154 6.94965 9.45388 7.39124 9.63916C7.57839 9.71767 7.796 9.61924 7.85762 9.42588C7.90377 9.2809 7.93158 9.13072 7.94041 8.97884C7.94896 8.83226 7.86515 8.69747 7.7314 8.63694C7.4382 8.50428 7.1639 8.31778 6.92325 8.07711C5.85362 7.00748 5.84891 5.2673 6.91241 4.19293L6.92296 4.18238L9.24327 1.86207C10.32 0.785964 12.0611 0.785759 13.138 1.86207C14.2141 2.93879 14.2143 4.67987 13.138 5.75679C13.1334 5.76139 11.4148 7.47995 10.9319 7.96244C10.8543 8.04008 10.8183 8.14932 10.8324 8.25822C10.8505 8.39809 10.8624 8.5387 10.868 8.67963C10.8801 8.98112 11.2389 9.1276 11.4601 8.92238C11.4952 8.88979 11.5297 8.85656 11.5636 8.82268L13.8836 6.50237C15.3726 5.014 15.3718 2.60407 13.8836 1.11643C12.3952 -0.372551 9.98527 -0.371819 8.49763 1.11643L6.17732 3.43645C4.69259 4.92128 4.69232 7.33771 6.17732 8.82271Z" fill="#828282"/>
</svg>
