<svg width="15" height="13" viewBox="0 0 15 13" fill="none" xmlns="http://www.w3.org/2000/svg">
<path d="M5.39062 1.44629L10.21 6.25098C10.3477 6.38867 10.3477 6.61133 10.21 6.74902L5.39062 11.5537C5.25293 11.6914 5.03027 11.6914 4.89258 11.5537L4.68457 11.3457C4.54688 11.208 4.54688 10.9854 4.68457 10.8477L8.55176 6.99805H0.351562C0.158203 6.99805 0 6.83984 0 6.64648V6.35352C0 6.16016 0.158203 6.00195 0.351562 6.00195H8.55176L4.6875 2.15234C4.5498 2.01465 4.5498 1.79199 4.6875 1.6543L4.89551 1.44629C5.03027 1.30859 5.25293 1.30859 5.39062 1.44629ZM15 10.7188V2.28125C15 1.50488 14.3701 0.875 13.5938 0.875H9.72656C9.5332 0.875 9.375 1.0332 9.375 1.22656V1.46094C9.375 1.6543 9.5332 1.8125 9.72656 1.8125H13.5938C13.8516 1.8125 14.0625 2.02344 14.0625 2.28125V10.7188C14.0625 10.9766 13.8516 11.1875 13.5938 11.1875H9.72656C9.5332 11.1875 9.375 11.3457 9.375 11.5391V11.7734C9.375 11.9668 9.5332 12.125 9.72656 12.125H13.5938C14.3701 12.125 15 11.4951 15 10.7188Z" />
</svg>
