<svg width="20" height="20" viewBox="0 0 20 20" fill="none" xmlns="http://www.w3.org/2000/svg">
<path d="M10 1.5625C14.6336 1.5625 18.4375 5.31543 18.4375 10C18.4375 14.6598 14.6637 18.4375 10 18.4375C5.34203 18.4375 1.5625 14.6655 1.5625 10C1.5625 5.34363 5.33602 1.5625 10 1.5625ZM10 0.3125C4.65012 0.3125 0.3125 4.65168 0.3125 10C0.3125 15.3514 4.65012 19.6875 10 19.6875C15.3499 19.6875 19.6875 15.3514 19.6875 10C19.6875 4.65168 15.3499 0.3125 10 0.3125ZM8.59375 13.75H9.0625V9.0625H8.59375C8.33488 9.0625 8.125 8.85262 8.125 8.59375V8.28125C8.125 8.02238 8.33488 7.8125 8.59375 7.8125H10.4688C10.7276 7.8125 10.9375 8.02238 10.9375 8.28125V13.75H11.4062C11.6651 13.75 11.875 13.9599 11.875 14.2188V14.5312C11.875 14.7901 11.6651 15 11.4062 15H8.59375C8.33488 15 8.125 14.7901 8.125 14.5312V14.2188C8.125 13.9599 8.33488 13.75 8.59375 13.75ZM10 4.375C9.30965 4.375 8.75 4.93465 8.75 5.625C8.75 6.31535 9.30965 6.875 10 6.875C10.6904 6.875 11.25 6.31535 11.25 5.625C11.25 4.93465 10.6904 4.375 10 4.375Z" fill="#234D60"/>
</svg>
