<svg width="15" height="13" viewBox="0 0 15 13" fill="none" xmlns="http://www.w3.org/2000/svg"><path d="M0.948926 5.5625C0.431543 5.5625 0 5.98232 0 6.5C0 7.01768 0.431543 7.4375 0.948926 7.4375C1.19757 7.4375 1.43602 7.33873 1.61184 7.16291C1.78765 6.9871 1.88643 6.74864 1.88643 6.5C1.88643 6.25136 1.78765 6.0129 1.61184 5.83709C1.43602 5.66127 1.19757 5.5625 0.948926 5.5625ZM0.948926 0.875C0.431543 0.875 0 1.29482 0 1.8125C0 2.33018 0.431543 2.75 0.948926 2.75C1.19757 2.75 1.43602 2.65123 1.61184 2.47541C1.78765 2.2996 1.88643 2.06114 1.88643 1.8125C1.88643 1.56386 1.78765 1.3254 1.61184 1.14959C1.43602 0.973772 1.19757 0.875 0.948926 0.875ZM0.948926 10.25C0.431543 10.25 0 10.6698 0 11.1875C0 11.7052 0.431543 12.125 0.948926 12.125C1.19757 12.125 1.43602 12.0262 1.61184 11.8504C1.78765 11.6746 1.88643 11.4361 1.88643 11.1875C1.88643 10.9389 1.78765 10.7004 1.61184 10.5246C1.43602 10.3488 1.19757 10.25 0.948926 10.25ZM14.7656 1.34375H3.98438C3.92221 1.34375 3.8626 1.36844 3.81865 1.4124C3.77469 1.45635 3.75 1.51596 3.75 1.57812V2.04688C3.75 2.10904 3.77469 2.16865 3.81865 2.2126C3.8626 2.25656 3.92221 2.28125 3.98438 2.28125H14.7656C14.8278 2.28125 14.8874 2.25656 14.9314 2.2126C14.9753 2.16865 15 2.10904 15 2.04688V1.57812C15 1.51596 14.9753 1.45635 14.9314 1.4124C14.8874 1.36844 14.8278 1.34375 14.7656 1.34375ZM14.7656 6.03125H3.98438C3.92221 6.03125 3.8626 6.05594 3.81865 6.0999C3.77469 6.14385 3.75 6.20346 3.75 6.26562V6.73438C3.75 6.79654 3.77469 6.85615 3.81865 6.9001C3.8626 6.94406 3.92221 6.96875 3.98438 6.96875H14.7656C14.8278 6.96875 14.8874 6.94406 14.9314 6.9001C14.9753 6.85615 15 6.79654 15 6.73438V6.26562C15 6.20346 14.9753 6.14385 14.9314 6.0999C14.8874 6.05594 14.8278 6.03125 14.7656 6.03125ZM14.7656 10.7188H3.98438C3.92221 10.7188 3.8626 10.7434 3.81865 10.7874C3.77469 10.8314 3.75 10.891 3.75 10.9531V11.4219C3.75 11.484 3.77469 11.5436 3.81865 11.5876C3.8626 11.6316 3.92221 11.6562 3.98438 11.6562H14.7656C14.8278 11.6562 14.8874 11.6316 14.9314 11.5876C14.9753 11.5436 15 11.484 15 11.4219V10.9531C15 10.891 14.9753 10.8314 14.9314 10.7874C14.8874 10.7434 14.8278 10.7188 14.7656 10.7188Z" fill="#828282"/></svg>