<svg width="40" height="38" viewBox="0 0 40 38" fill="none" xmlns="http://www.w3.org/2000/svg">
<path fill-rule="evenodd" clip-rule="evenodd" d="M37.9296 30.8191C38.8678 31.2477 39.2801 32.3551 38.8521 33.2929C38.4237 34.2306 37.3163 34.6433 36.3785 34.2149C34.799 33.4903 33.2838 32.6288 31.8349 31.6219C30.7075 32.7656 29.4095 33.779 27.9512 34.6209L27.9495 34.6177L27.9438 34.6209C26.7216 35.3264 25.458 35.8735 24.1748 36.268C22.8389 36.6793 21.4841 36.9296 20.1357 37.0261L20.135 37.0215C20.0944 37.0244 20.053 37.0261 20.011 37.0261C18.9805 37.03 18.1418 36.1978 18.1376 35.1673L18.1005 28.2699C18.0117 27.2684 18.7331 26.3695 19.739 26.2469C20.2465 26.1841 20.7359 26.0754 21.1996 25.9199C21.662 25.7649 22.1189 25.5596 22.5652 25.3019C23.077 25.0064 23.5311 24.6714 23.9257 24.3057C24.317 23.9432 24.6714 23.5297 24.9846 23.0757C25.0922 22.9084 25.2288 22.7555 25.3931 22.6251C26.2015 21.9824 27.3777 22.1169 28.0204 22.9253C29.0355 24.2013 30.1031 25.3464 31.2202 26.3666C31.9419 25.1793 32.4873 23.8979 32.844 22.5663C33.807 18.9727 33.4018 15.0152 31.4008 11.5453L31.3976 11.5471C29.3926 8.07471 26.1687 5.74295 22.5776 4.78089C19.5515 3.96998 16.267 4.12929 13.233 5.39502L20.4355 17.8699C20.7912 18.4844 20.7584 19.2169 20.4126 19.7828L12.1773 33.9016C11.6601 34.7945 10.5162 35.0993 9.62307 34.5821L9.61766 34.5788L9.61552 34.5821C8.25927 33.7904 7.00072 32.8163 5.87444 31.6854C4.76666 30.5733 3.79895 29.3168 3.004 27.9399C2.98301 27.9032 2.96301 27.8658 2.94453 27.828C1.16515 24.6999 0.410951 21.2677 0.577433 17.9222C0.750706 14.4257 1.92803 11.0185 3.98919 8.14664C4.59162 7.3102 5.75788 7.1202 6.59444 7.72213C7.43101 8.32456 7.621 9.49082 7.01895 10.3278C5.38254 12.6079 4.44765 15.3157 4.30971 18.0976C4.17705 20.7631 4.77408 23.4926 6.18339 25.9767C6.20263 26.0058 6.22086 26.0359 6.23872 26.0664C6.87422 27.1672 7.64452 28.1683 8.52383 29.0509C8.96858 29.4976 9.44477 29.9157 9.94887 30.3031L16.657 18.8019L9.00429 5.54691L9.00743 5.54478L9.00429 5.53937C8.49101 4.64609 8.79895 3.50586 9.69223 2.99296C14.0603 0.470819 19.0344 -0.0427134 23.5436 1.16555C28.0579 2.37531 32.1112 5.307 34.6319 9.67365L34.629 9.67541L34.6319 9.6812C37.154 14.0489 37.6677 19.023 36.4593 23.5326C35.9711 25.354 35.2025 27.1005 34.1725 28.7012C35.3722 29.5164 36.6251 30.2207 37.9296 30.8191ZM22.3038 9.7346C23.4236 9.08803 24.8562 9.47155 25.5028 10.5918C26.1493 11.7114 25.7654 13.1442 24.6454 13.7908C23.5256 14.4374 22.093 14.0535 21.4464 12.9336C20.7999 11.8136 21.1838 10.3812 22.3038 9.7346ZM28.881 29.2832C28.0752 28.5603 27.2963 27.7868 26.5456 26.9606C26.5165 26.9881 26.4872 27.0152 26.458 27.0426C25.8435 27.6118 25.1688 28.1152 24.4388 28.5364C23.7787 28.9175 23.0919 29.2251 22.3853 29.4617C22.2036 29.5231 22.0218 29.5791 21.8404 29.63L21.8586 33.0133C22.2684 32.9259 22.6748 32.8204 23.0772 32.6965C24.1091 32.3796 25.116 31.945 26.0798 31.3894L26.078 31.3861C27.1163 30.7867 28.053 30.0776 28.881 29.2832Z"/>
</svg>
