<svg width="15" height="15" viewBox="0 0 15 15" fill="none" xmlns="http://www.w3.org/2000/svg">
<path d="M9.14058 11.2499H7.73433C7.67217 11.2499 7.61256 11.2746 7.5686 11.3185C7.52465 11.3625 7.49995 11.4221 7.49995 11.4843V11.953C7.49995 12.0152 7.52465 12.0748 7.5686 12.1187C7.61256 12.1627 7.67217 12.1874 7.73433 12.1874H9.14058C9.20274 12.1874 9.26235 12.1627 9.30631 12.1187C9.35026 12.0748 9.37495 12.0152 9.37495 11.953V11.4843C9.37495 11.4221 9.35026 11.3625 9.30631 11.3185C9.26235 11.2746 9.20274 11.2499 9.14058 11.2499ZM11.0156 8.43738H7.73433C7.67217 8.43738 7.61256 8.46207 7.5686 8.50603C7.52465 8.54998 7.49995 8.6096 7.49995 8.67176V9.14051C7.49995 9.20267 7.52465 9.26228 7.5686 9.30624C7.61256 9.35019 7.67217 9.37488 7.73433 9.37488H11.0156C11.0777 9.37488 11.1374 9.35019 11.1813 9.30624C11.2253 9.26228 11.25 9.20267 11.25 9.14051V8.67176C11.25 8.6096 11.2253 8.54998 11.1813 8.50603C11.1374 8.46207 11.0777 8.43738 11.0156 8.43738ZM14.7656 2.81238H7.73433C7.67217 2.81238 7.61256 2.83707 7.5686 2.88103C7.52465 2.92498 7.49995 2.9846 7.49995 3.04676V3.51551C7.49995 3.57767 7.52465 3.63728 7.5686 3.68124C7.61256 3.72519 7.67217 3.74988 7.73433 3.74988H14.7656C14.8277 3.74988 14.8874 3.72519 14.9313 3.68124C14.9753 3.63728 15 3.57767 15 3.51551V3.04676C15 2.9846 14.9753 2.92498 14.9313 2.88103C14.8874 2.83707 14.8277 2.81238 14.7656 2.81238ZM12.8906 5.62488H7.73433C7.67217 5.62488 7.61256 5.64957 7.5686 5.69353C7.52465 5.73748 7.49995 5.7971 7.49995 5.85926V6.32801C7.49995 6.39017 7.52465 6.44978 7.5686 6.49373C7.61256 6.53769 7.67217 6.56238 7.73433 6.56238H12.8906C12.9527 6.56238 13.0124 6.53769 13.0563 6.49373C13.1003 6.44978 13.125 6.39017 13.125 6.32801V5.85926C13.125 5.7971 13.1003 5.73748 13.0563 5.69353C13.0124 5.64957 12.9527 5.62488 12.8906 5.62488ZM3.52847 1.04021C3.46289 0.974753 3.37401 0.937988 3.28135 0.937988C3.18869 0.937988 3.09981 0.974753 3.03423 1.04021L0.573294 3.45193C0.540346 3.48442 0.514135 3.52309 0.496164 3.56573C0.478193 3.60837 0.468817 3.65414 0.468572 3.70041C0.468327 3.74668 0.477218 3.79254 0.494737 3.83537C0.512255 3.8782 0.538055 3.91714 0.570658 3.94998L0.735013 4.11639C0.767315 4.14918 0.805777 4.17528 0.848192 4.19317C0.890607 4.21106 0.936138 4.22039 0.98217 4.22064C1.0282 4.22088 1.07383 4.21203 1.11643 4.1946C1.15904 4.17716 1.19777 4.15147 1.23042 4.11902L2.81245 2.57391V13.828C2.81245 13.8902 2.83715 13.9498 2.8811 13.9937C2.92506 14.0377 2.98467 14.0624 3.04683 14.0624H3.51558C3.57774 14.0624 3.63735 14.0377 3.68131 13.9937C3.72526 13.9498 3.74995 13.8902 3.74995 13.828V2.58035L5.33023 4.11404C5.3961 4.17952 5.4852 4.21627 5.57808 4.21627C5.67096 4.21627 5.76006 4.17952 5.82593 4.11404L5.99117 3.94822C6.02394 3.91556 6.04995 3.87675 6.06769 3.83402C6.08543 3.79128 6.09457 3.74547 6.09457 3.6992C6.09457 3.65293 6.08543 3.60711 6.06769 3.56438C6.04995 3.52165 6.02394 3.48284 5.99117 3.45017L3.52847 1.04021Z" fill="#234D60"/>
</svg>
