<svg width="22" height="27" viewBox="0 0 22 27" fill="none" xmlns="http://www.w3.org/2000/svg">
<rect x="0.5" y="1.5" width="9" height="24" rx="1.5" stroke="#333333" stroke-linejoin="round"/>
<path d="M16.7791 26.0333L12.0916 21.3458C11.9695 21.2238 11.9695 21.026 12.0916 20.904C12.2137 20.7819 12.4115 20.7819 12.5335 20.904L16.6875 25.058L16.6875 11.4374C16.6875 11.2647 16.8273 11.1249 17.0001 11.1249C17.1728 11.1249 17.3126 11.2647 17.3126 11.4374L17.3126 25.058L21.4666 20.904C21.5887 20.7819 21.7864 20.7819 21.9085 20.904C21.9695 20.965 22 21.045 22 21.1249C22 21.2049 21.9695 21.2848 21.9085 21.3459L17.221 26.0334C17.0989 26.1554 16.9012 26.1554 16.7791 26.0333Z" fill="#333333"/>
<path d="M17.221 0.966797L21.9084 5.65428C22.0305 5.77636 22.0305 5.97411 21.9084 6.09616C21.7864 6.21824 21.5886 6.21824 21.4666 6.09616L17.3125 1.94212L17.3125 15.5627C17.3125 15.7354 17.1727 15.8752 17 15.8752C16.8273 15.8752 16.6875 15.7354 16.6875 15.5627L16.6875 1.94212L12.5335 6.09616C12.4114 6.21824 12.2136 6.21824 12.0916 6.09616C12.0306 6.03514 12 5.95516 12 5.8752C12 5.79525 12.0306 5.7153 12.0916 5.65425L16.7791 0.966768C16.9011 0.844718 17.0989 0.844718 17.221 0.966797Z" fill="#333333"/>
</svg>
