<svg width="25" height="25" viewBox="0 0 25 25" fill="none" xmlns="http://www.w3.org/2000/svg">
<g clip-path="url(#clip0123)">
<path d="M23.9689 20.6625H23.6213C23.6249 20.6134 23.6249 20.5642 23.6213 20.5152V1.95587C23.6213 1.38642 23.1597 0.924794 22.5902 0.924794H12.5152C11.9457 0.924794 11.4841 1.38642 11.4841 1.95587V9.61527C10.5248 9.848 9.6854 10.4272 9.12737 11.2414C8.44303 12.2273 8.23151 13.4662 8.54997 14.6233C8.97418 16.2495 9.02721 18.4059 8.14932 19.3015C7.64387 19.7495 6.93287 19.8831 6.29928 19.6491C5.61774 19.5412 5.03585 19.0986 4.74972 18.4707C3.81292 16.3084 6.15198 12.2195 6.15788 12.2018C6.29928 11.9897 9.55747 6.92859 6.22858 3.9532C6.09306 3.8118 2.88201 0.418095 0.401538 0.748038C0.149367 0.780591 -0.0287138 1.0114 0.00383862 1.26358C0.0363911 1.51575 0.267204 1.69383 0.519375 1.66128C1.11548 1.62548 1.70968 1.7582 2.2339 2.04425L1.57402 2.83964C1.21638 3.28279 1.28576 3.93192 1.7289 4.28956C1.73612 4.29537 1.74341 4.30112 1.75077 4.30672L3.96611 6.07427C4.14824 6.22024 4.37493 6.29927 4.60832 6.29816H4.6967C4.96831 6.26752 5.21651 6.12965 5.38604 5.91519L6.02825 5.10801C8.0197 7.65329 5.43907 11.7069 5.37426 11.7717C5.26821 11.9543 2.79363 16.2848 3.9013 18.8419C4.31078 19.7298 5.13409 20.3567 6.09896 20.5152C6.39613 20.5872 6.70059 20.6248 7.0063 20.6271C7.66693 20.647 8.30649 20.3933 8.77386 19.926C9.95223 18.6946 9.85796 16.1847 9.39839 14.4053C8.90959 12.7674 9.8366 11.0424 11.4723 10.5462V20.5152C11.4688 20.5642 11.4688 20.6134 11.4723 20.6625H11.1777C10.6084 20.6495 10.1363 21.1004 10.1234 21.6697C10.1232 21.6777 10.1231 21.6856 10.1231 21.6936V23.2431C10.1229 23.8126 10.5844 24.2743 11.1539 24.2745C11.1618 24.2745 11.1698 24.2744 11.1777 24.2742H23.9689C24.5384 24.2742 25 23.8126 25 23.2431V21.6936C25 21.1242 24.5384 20.6625 23.9689 20.6625ZM5.35069 4.56006L4.6967 5.36725C4.67173 5.39759 4.63564 5.41667 4.59654 5.42027C4.55868 5.42521 4.52038 5.41453 4.49048 5.39082L2.27515 3.62326C2.21903 3.56596 2.21903 3.47434 2.27515 3.41705L2.92914 2.60397C2.95411 2.57363 2.9902 2.55455 3.0293 2.55094C3.06716 2.54601 3.10546 2.55669 3.13536 2.5804L5.35069 4.34796C5.38155 4.37248 5.40077 4.40879 5.40372 4.44812C5.40335 4.49142 5.38398 4.53237 5.35069 4.56006ZM12.3561 1.95587C12.3561 1.87449 12.422 1.80857 12.5034 1.80857H22.602C22.6834 1.80857 22.7493 1.87449 22.7493 1.95587V20.5152C22.7493 20.5966 22.6834 20.6625 22.602 20.6625H12.5152C12.4341 20.669 12.3631 20.6085 12.3565 20.5274C12.3562 20.5234 12.356 20.5192 12.3561 20.5152V1.95587ZM24.1398 23.2431C24.1398 23.3245 24.0739 23.3904 23.9925 23.3904H11.1777C11.0964 23.3904 11.0304 23.3245 11.0304 23.2431V21.6936C11.0304 21.6122 11.0964 21.5463 11.1777 21.5463H23.9689C24.0492 21.5332 24.1249 21.5878 24.1379 21.6681C24.1393 21.6765 24.1399 21.685 24.1398 21.6936V23.2431Z" fill="#333333"/>
<path d="M20.6047 3.21085H14.5007C13.9313 3.21085 13.4697 3.67247 13.4697 4.24192V10.3518C13.4697 10.9212 13.9313 11.3828 14.5007 11.3828H20.6047C21.1741 11.3828 21.6358 10.9212 21.6358 10.3518V4.24192C21.6358 3.67255 21.1741 3.21085 20.6047 3.21085ZM20.752 10.3577C20.7488 10.4367 20.6838 10.4991 20.6047 10.4991H14.5007C14.4194 10.4991 14.3534 10.4331 14.3534 10.3518V4.24192C14.3534 4.16054 14.4194 4.09462 14.5007 4.09462H20.6047C20.6861 4.09462 20.752 4.16054 20.752 4.24192V10.3577Z" fill="#333333"/>
<path d="M19.9154 13.0503H15.2019C14.9578 13.0503 14.76 13.2481 14.76 13.4922C14.76 13.7363 14.9578 13.9341 15.2019 13.9341H19.9154C20.1594 13.9341 20.3573 13.7363 20.3573 13.4922C20.3573 13.2481 20.1594 13.0503 19.9154 13.0503Z" fill="#333333"/>
</g>
<defs>
<clipPath id="clip0123">
<rect width="25" height="25" fill="white"/>
</clipPath>
</defs>
</svg>
