<svg width="25" height="25" viewBox="0 0 25 25" fill="none" xmlns="http://www.w3.org/2000/svg">
<path d="M23.75 8.33333H22.9167C22.6866 8.33333 22.5 8.5199 22.5 8.75V10H21.6667V7.5C21.6667 7.2699 21.4801 7.08333 21.25 7.08333H17.5V6.25H19.1667C19.3968 6.25 19.5833 6.06344 19.5833 5.83333V4.16667C19.5833 3.93656 19.3968 3.75 19.1667 3.75H12.0833C11.8532 3.75 11.6667 3.93656 11.6667 4.16667V5.83333C11.6667 6.06344 11.8532 6.25 12.0833 6.25H13.75V7.08333H10.4167C10.3666 7.08328 10.3169 7.09219 10.27 7.10958L7.0075 8.33333H3.75C3.5199 8.33333 3.33333 8.5199 3.33333 8.75V12.0833H2.5V8.75C2.5 8.5199 2.31344 8.33333 2.08333 8.33333H0.416667C0.186562 8.33333 0 8.5199 0 8.75V18.3333C0 18.5634 0.186562 18.75 0.416667 18.75H2.08333C2.31344 18.75 2.5 18.5634 2.5 18.3333V15H3.33333V18.3333C3.33333 18.5634 3.5199 18.75 3.75 18.75H6.94458L10.1667 21.1667C10.2388 21.2208 10.3265 21.25 10.4167 21.25H19.1667C19.2613 21.2501 19.3532 21.2179 19.4271 21.1587L21.5104 19.4921C21.6092 19.413 21.6667 19.2932 21.6667 19.1667V17.0833H22.5V18.3333C22.5 18.5634 22.6866 18.75 22.9167 18.75H23.75C24.4404 18.75 25 18.1904 25 17.5V9.58333C25 8.89297 24.4404 8.33333 23.75 8.33333ZM1.66667 12.5V17.9167H0.833333V9.16667H1.66667V12.5ZM3.33333 14.1667H2.5V12.9167H3.33333V14.1667ZM12.5 5.41667V4.58333H18.75V5.41667H12.5ZM16.6667 6.25V7.08333H14.5833V6.25H16.6667ZM24.1667 17.5C24.1667 17.7301 23.9801 17.9167 23.75 17.9167H23.3333V16.6667C23.3333 16.4366 23.1468 16.25 22.9167 16.25H21.25C21.0199 16.25 20.8333 16.4366 20.8333 16.6667V18.9667L19.0204 20.4167H10.5554L7.33333 18C7.2612 17.9459 7.17349 17.9167 7.08333 17.9167H4.16667V9.16667H7.08333C7.13339 9.16672 7.18307 9.15781 7.23 9.14042L10.4925 7.91667H20.8333V10.4167C20.8333 10.6468 21.0199 10.8333 21.25 10.8333H22.9167C23.1468 10.8333 23.3333 10.6468 23.3333 10.4167V9.16667H23.75C23.9801 9.16667 24.1667 9.35323 24.1667 9.58333V17.5Z" fill="#333333"/>
<path d="M17.367 12.1949C17.2899 12.1232 17.1886 12.0834 17.0833 12.0833H15.7183L17.0283 9.79166C17.1434 9.59239 17.0751 9.33754 16.8758 9.22249C16.8122 9.18577 16.7401 9.1665 16.6667 9.16666H13.3333C13.1493 9.16666 12.987 9.28744 12.9342 9.46374L11.6842 13.6304C11.6181 13.8508 11.7433 14.0831 11.9637 14.1491C12.0025 14.1607 12.0428 14.1667 12.0833 14.1667H13.1029L11.2875 18.1608C11.1925 18.3704 11.2854 18.6173 11.495 18.7123C11.6579 18.7861 11.8497 18.7478 11.9717 18.6171L17.3883 12.7837C17.545 12.6153 17.5355 12.3516 17.367 12.1949ZM13.1083 16.1667L14.1292 13.9208C14.2235 13.7109 14.1298 13.4643 13.9199 13.3699C13.8665 13.3459 13.8086 13.3334 13.75 13.3333H12.6433L13.6433 9.99999H15.9483L14.6383 12.2917C14.5233 12.4909 14.5916 12.7458 14.7908 12.8608C14.8544 12.8975 14.9266 12.9168 15 12.9167H16.1279L13.1083 16.1667Z" fill="#333333"/>
</svg>
