<svg width="25" height="25" viewBox="0 0 25 25" fill="none" xmlns="http://www.w3.org/2000/svg">
<path d="M12.5 25C5.60742 25 0 19.3926 0 12.5C0 5.60742 5.60742 0 12.5 0C19.3926 0 25 5.60742 25 12.5C25 19.3926 19.3926 25 12.5 25ZM12.5 0.78125C6.03828 0.78125 0.78125 6.03828 0.78125 12.5C0.78125 18.9617 6.03828 24.2188 12.5 24.2188C18.9617 24.2188 24.2188 18.9617 24.2188 12.5C24.2188 6.03828 18.9617 0.78125 12.5 0.78125Z" fill="#333333"/>
<path d="M12.5 23.4375C6.46914 23.4375 1.5625 18.5309 1.5625 12.5C1.5625 6.46914 6.46914 1.5625 12.5 1.5625C18.5309 1.5625 23.4375 6.46914 23.4375 12.5C23.4375 18.5309 18.5309 23.4375 12.5 23.4375ZM12.5 2.34375C6.89961 2.34375 2.34375 6.89961 2.34375 12.5C2.34375 18.1004 6.89961 22.6562 12.5 22.6562C18.1004 22.6562 22.6562 18.1004 22.6562 12.5C22.6562 6.89961 18.1004 2.34375 12.5 2.34375Z" fill="#333333"/>
<path d="M12.5 16.4062C10.3461 16.4062 8.59375 14.6539 8.59375 12.5C8.59375 10.3461 10.3461 8.59375 12.5 8.59375C14.6539 8.59375 16.4062 10.3461 16.4062 12.5C16.4062 14.6539 14.6539 16.4062 12.5 16.4062ZM12.5 9.375C10.777 9.375 9.375 10.777 9.375 12.5C9.375 14.223 10.777 15.625 12.5 15.625C14.223 15.625 15.625 14.223 15.625 12.5C15.625 10.777 14.223 9.375 12.5 9.375Z" fill="#333333"/>
<path d="M12.5 15.2344C10.9926 15.2344 9.76562 14.0074 9.76562 12.5C9.76562 10.9926 10.9926 9.76562 12.5 9.76562C14.0074 9.76562 15.2344 10.9926 15.2344 12.5C15.2344 14.0074 14.0074 15.2344 12.5 15.2344ZM12.5 10.5469C11.423 10.5469 10.5469 11.423 10.5469 12.5C10.5469 13.577 11.423 14.4531 12.5 14.4531C13.577 14.4531 14.4531 13.577 14.4531 12.5C14.4531 11.423 13.577 10.5469 12.5 10.5469Z" fill="#333333"/>
<path d="M17.9688 19.1429C17.7527 19.1429 17.5781 18.9683 17.5781 18.7523V6.24841C17.5781 6.0324 17.7527 5.85779 17.9688 5.85779C18.1848 5.85779 18.3594 6.0324 18.3594 6.24841V18.7523C18.3594 18.9683 18.1848 19.1429 17.9688 19.1429Z" fill="#333333"/>
<path d="M16.4062 12.1097C16.1902 12.1097 16.0156 11.9351 16.0156 11.7191V6.24841C16.0156 6.0324 16.1902 5.85779 16.4062 5.85779C16.6223 5.85779 16.7969 6.0324 16.7969 6.24841V11.7191C16.7969 11.9351 16.6223 12.1097 16.4062 12.1097Z" fill="#333333"/>
<path d="M16.4062 19.1429C16.1902 19.1429 16.0156 18.9683 16.0156 18.7523V13.2816C16.0156 13.0656 16.1902 12.891 16.4062 12.891C16.6223 12.891 16.7969 13.0656 16.7969 13.2816V18.7523C16.7969 18.9683 16.6223 19.1429 16.4062 19.1429Z" fill="#333333"/>
<path d="M17.1875 19.9234C16.5414 19.9234 16.0156 19.3976 16.0156 18.7515C16.0156 18.5355 16.1902 18.3609 16.4062 18.3609C16.6223 18.3609 16.7969 18.5355 16.7969 18.7515C16.7969 18.9672 16.9719 19.1422 17.1875 19.1422C17.4031 19.1422 17.5781 18.9672 17.5781 18.7515C17.5781 18.5355 17.7527 18.3609 17.9688 18.3609C18.1848 18.3609 18.3594 18.5355 18.3594 18.7515C18.3594 19.3976 17.8336 19.9234 17.1875 19.9234Z" fill="#333333"/>
<path d="M14.0629 19.9234C13.4168 19.9234 12.891 19.3976 12.891 18.7515C12.891 18.5355 13.0656 18.3609 13.2816 18.3609C13.4976 18.3609 13.6722 18.5355 13.6722 18.7515C13.6722 18.9672 13.8472 19.1422 14.0629 19.1422C14.2785 19.1422 14.4535 18.9672 14.4535 18.7515C14.4535 18.5355 14.6281 18.3609 14.8441 18.3609C15.0601 18.3609 15.2347 18.5355 15.2347 18.7515C15.2347 19.3976 14.709 19.9234 14.0629 19.9234Z" fill="#333333"/>
<path d="M17.9688 6.63904C17.7527 6.63904 17.5781 6.46443 17.5781 6.24841C17.5781 6.03279 17.4031 5.85779 17.1875 5.85779C16.9719 5.85779 16.7969 6.03279 16.7969 6.24841C16.7969 6.46443 16.6223 6.63904 16.4062 6.63904C16.1902 6.63904 16.0156 6.46443 16.0156 6.24841C16.0156 5.60232 16.5414 5.07654 17.1875 5.07654C17.8336 5.07654 18.3594 5.60232 18.3594 6.24841C18.3594 6.46443 18.1848 6.63904 17.9688 6.63904Z" fill="#333333"/>
<path d="M13.2816 9.46287C13.0656 9.46287 12.891 9.28826 12.891 9.07224V6.24841C12.891 6.0324 13.0656 5.85779 13.2816 5.85779C13.4976 5.85779 13.6722 6.0324 13.6722 6.24841V9.07224C13.6722 9.28787 13.4976 9.46287 13.2816 9.46287Z" fill="#333333"/>
<path d="M13.2816 19.1429C13.0656 19.1429 12.891 18.9683 12.891 18.7523V15.9285C12.891 15.7125 13.0656 15.5379 13.2816 15.5379C13.4976 15.5379 13.6722 15.7125 13.6722 15.9285V18.7523C13.6722 18.9683 13.4976 19.1429 13.2816 19.1429Z" fill="#333333"/>
<path d="M14.8441 10.2722C14.6281 10.2722 14.4535 10.0976 14.4535 9.88162V6.24841C14.4535 6.0324 14.6281 5.85779 14.8441 5.85779C15.0601 5.85779 15.2347 6.0324 15.2347 6.24841V9.88162C15.2347 10.0976 15.0601 10.2722 14.8441 10.2722Z" fill="#333333"/>
<path d="M14.8441 19.1429C14.6281 19.1429 14.4535 18.9683 14.4535 18.7523V15.1176C14.4535 14.9015 14.6281 14.7269 14.8441 14.7269C15.0601 14.7269 15.2347 14.9015 15.2347 15.1176V18.7523C15.2347 18.9683 15.0601 19.1429 14.8441 19.1429Z" fill="#333333"/>
<path d="M14.8441 6.63904C14.6281 6.63904 14.4535 6.46443 14.4535 6.24841C14.4535 6.03279 14.2785 5.85779 14.0629 5.85779C13.8472 5.85779 13.6722 6.03279 13.6722 6.24841C13.6722 6.46443 13.4976 6.63904 13.2816 6.63904C13.0656 6.63904 12.891 6.46443 12.891 6.24841C12.891 5.60232 13.4168 5.07654 14.0629 5.07654C14.709 5.07654 15.2347 5.60232 15.2347 6.24841C15.2347 6.46443 15.0601 6.63904 14.8441 6.63904Z" fill="#333333"/>
<path d="M16.4078 13.6722C16.1918 13.6722 16.0164 13.4976 16.0164 13.2816C16.0164 13.0656 16.1902 12.891 16.4063 12.891H16.4078C16.6238 12.891 16.7985 13.0656 16.7985 13.2816C16.7985 13.4976 16.6238 13.6722 16.4078 13.6722V13.6722Z" fill="#333333"/>
<path d="M16.4078 12.1097C16.1918 12.1097 16.0164 11.9351 16.0164 11.7191C16.0164 11.5031 16.1902 11.3285 16.4063 11.3285H16.4078C16.6238 11.3285 16.7985 11.5031 16.7985 11.7191C16.7985 11.9351 16.6238 12.1097 16.4078 12.1097V12.1097Z" fill="#333333"/>
<path d="M10.9375 19.9234C10.2914 19.9234 9.76562 19.3976 9.76562 18.7515C9.76562 18.5355 9.94023 18.3609 10.1562 18.3609C10.3723 18.3609 10.5469 18.5355 10.5469 18.7515C10.5469 18.9672 10.7219 19.1422 10.9375 19.1422C11.1531 19.1422 11.3281 18.9672 11.3281 18.7515C11.3281 18.5355 11.5027 18.3609 11.7188 18.3609C11.9348 18.3609 12.1094 18.5355 12.1094 18.7515C12.1094 19.3976 11.5836 19.9234 10.9375 19.9234Z" fill="#333333"/>
<path d="M10.1562 10.2722C9.94023 10.2722 9.76562 10.0976 9.76562 9.88162V6.24841C9.76562 6.0324 9.94023 5.85779 10.1562 5.85779C10.3723 5.85779 10.5469 6.0324 10.5469 6.24841V9.88162C10.5469 10.0976 10.3723 10.2722 10.1562 10.2722Z" fill="#333333"/>
<path d="M10.1562 19.1429C9.94023 19.1429 9.76562 18.9683 9.76562 18.7523V15.1187C9.76562 14.9027 9.94023 14.7281 10.1562 14.7281C10.3723 14.7281 10.5469 14.9027 10.5469 15.1187V18.7523C10.5469 18.9683 10.3723 19.1429 10.1562 19.1429Z" fill="#333333"/>
<path d="M11.7188 9.46287C11.5027 9.46287 11.3281 9.28826 11.3281 9.07224V6.24841C11.3281 6.0324 11.5027 5.85779 11.7188 5.85779C11.9348 5.85779 12.1094 6.0324 12.1094 6.24841V9.07224C12.1094 9.28787 11.9348 9.46287 11.7188 9.46287Z" fill="#333333"/>
<path d="M11.7188 19.1429C11.5027 19.1429 11.3281 18.9683 11.3281 18.7523V15.9281C11.3281 15.7121 11.5027 15.5375 11.7188 15.5375C11.9348 15.5375 12.1094 15.7121 12.1094 15.9281V18.7523C12.1094 18.9683 11.9348 19.1429 11.7188 19.1429Z" fill="#333333"/>
<path d="M7.8125 19.9234C7.16641 19.9234 6.64062 19.3976 6.64062 18.7515C6.64062 18.5355 6.81523 18.3609 7.03125 18.3609C7.24727 18.3609 7.42188 18.5355 7.42188 18.7515C7.42188 18.9672 7.59688 19.1422 7.8125 19.1422C8.02812 19.1422 8.20312 18.9672 8.20312 18.7515C8.20312 18.5355 8.37773 18.3609 8.59375 18.3609C8.80977 18.3609 8.98438 18.5355 8.98438 18.7515C8.98438 19.3976 8.45859 19.9234 7.8125 19.9234Z" fill="#333333"/>
<path d="M7.03125 19.1429C6.81523 19.1429 6.64062 18.9683 6.64062 18.7523V12.4996C6.64062 12.2836 6.81523 12.1089 7.03125 12.1089C7.24727 12.1089 7.42188 12.2836 7.42188 12.4996V18.7523C7.42188 18.9683 7.24727 19.1429 7.03125 19.1429Z" fill="#333333"/>
<path d="M8.59375 19.1429C8.37773 19.1429 8.20312 18.9683 8.20312 18.7523V13.2816C8.20312 13.0656 8.37773 12.891 8.59375 12.891C8.80977 12.891 8.98438 13.0656 8.98438 13.2816V18.7523C8.98438 18.9683 8.80977 19.1429 8.59375 19.1429Z" fill="#333333"/>
<path d="M11.7188 6.63904C11.5027 6.63904 11.3281 6.46443 11.3281 6.24841C11.3281 6.03279 11.1531 5.85779 10.9375 5.85779C10.7219 5.85779 10.5469 6.03279 10.5469 6.24841C10.5469 6.46443 10.3723 6.63904 10.1562 6.63904C9.94023 6.63904 9.76562 6.46443 9.76562 6.24841C9.76562 5.60232 10.2914 5.07654 10.9375 5.07654C11.5836 5.07654 12.1094 5.60232 12.1094 6.24841C12.1094 6.46443 11.9348 6.63904 11.7188 6.63904Z" fill="#333333"/>
<path d="M8.67229 13.6722H8.59338C8.37737 13.6722 8.20276 13.4976 8.20276 13.2816C8.20276 13.0656 8.37737 12.891 8.59338 12.891H8.67229C8.88831 12.891 9.06291 13.0656 9.06291 13.2816C9.06291 13.4976 8.88831 13.6722 8.67229 13.6722Z" fill="#333333"/>
<path d="M9.07227 12.1097H7.8125C7.59648 12.1097 7.42188 11.9351 7.42188 11.7191C7.42188 11.5031 7.59648 11.3285 7.8125 11.3285H9.07227C9.28828 11.3285 9.46289 11.5031 9.46289 11.7191C9.46289 11.9351 9.28789 12.1097 9.07227 12.1097Z" fill="#333333"/>
<path d="M7.03125 12.891C6.81523 12.891 6.64062 12.7164 6.64062 12.5004C6.64062 11.8543 7.16641 11.3285 7.8125 11.3285C8.02852 11.3285 8.20312 11.5031 8.20312 11.7191C8.20312 11.9351 8.02852 12.1097 7.8125 12.1097C7.59688 12.1097 7.42188 12.2847 7.42188 12.5004C7.42188 12.7164 7.24727 12.891 7.03125 12.891Z" fill="#333333"/>
<path d="M9.07227 13.6723H8.59375C8.37773 13.6723 8.20312 13.4977 8.20312 13.2816C8.20312 13.0656 8.37773 12.891 8.59375 12.891H9.07227C9.28828 12.891 9.46289 13.0656 9.46289 13.2816C9.46289 13.4977 9.28789 13.6723 9.07227 13.6723Z" fill="#333333"/>
<path d="M16.4062 12.1098H15.9277C15.7117 12.1098 15.5371 11.9352 15.5371 11.7191C15.5371 11.5031 15.7117 11.3285 15.9277 11.3285H16.4062C16.6223 11.3285 16.7969 11.5031 16.7969 11.7191C16.7969 11.9352 16.6223 12.1098 16.4062 12.1098Z" fill="#333333"/>
<path d="M16.4062 13.6723H15.9277C15.7117 13.6723 15.5371 13.4977 15.5371 13.2816C15.5371 13.0656 15.7117 12.891 15.9277 12.891H16.4062C16.6223 12.891 16.7969 13.0656 16.7969 13.2816C16.7969 13.4977 16.6223 13.6723 16.4062 13.6723Z" fill="#333333"/>
</svg>
