<?xml version="1.0" encoding="UTF-8"?>
<svg width="18px" height="18px" viewBox="0 0 18 18" version="1.1" xmlns="http://www.w3.org/2000/svg" xmlns:xlink="http://www.w3.org/1999/xlink">
    <!-- Generator: sketchtool 54.1 (76490) - https://sketchapp.com -->
    <title>F9CB1980-FD6E-460E-A917-E3F2E54F86B7</title>
    <desc>Created with sketchtool.</desc>
    <g id="book" stroke="none" stroke-width="1" fill="none" fill-rule="evenodd">
        <g id="Extra-large:-Desktops---12-col-_-about-book_-review" transform="translate(-176.000000, -710.000000)" fill-rule="nonzero">
            <g id="Group" transform="translate(176.000000, 671.000000)">
                <g id="litres-app-читай_ru-2" transform="translate(0.000000, 39.000000)">
                    <g id="litres-app-читай_ru">
                        <g id="Rectangle-3905" transform="translate(1.105053, 0.365111)">
                            <g id="Mask" transform="translate(0.000000, 0.195652)" fill="#EFE9DA">
                                <path d="M4.32765957,0.0391304348 L4.32765957,6.69130435 L0,6.69130435 L0,0.0391304348 C0.478723404,0.391304348 1.26382979,0.606521739 2.16382979,0.606521739 C3.06382979,0.606521739 3.84893617,0.391304348 4.32765957,0.0391304348 Z" id="path-1_1_"></path>
                            </g>
                            <rect id="Rectangle" fill="#D5CBB4" x="0" y="0.0782608696" width="1" height="6.20217391"></rect>
                        </g>
                        <g id="Rectangle-3906">
                            <g id="Mask_1_" transform="translate(0.382979, 0.195652)" fill="#CDCDCD">
                                <path d="M5.78297872,5.36086957 L5.78297872,16.3173913 C5.78297872,16.9826087 4.48085106,17.5304348 2.89148936,17.5304348 C1.30212766,17.5304348 0,16.9826087 0,16.3173913 L0,5.36086957 L0,0.195652174 C0,0.0782608696 0.0765957447,0 0.191489362,0 L0.536170213,0 C0.631914894,0 0.727659574,0.0782608696 0.727659574,0.195652174 L0.727659574,6.12391304 C1.26382979,6.39782609 2.02978723,6.57391304 2.89148936,6.57391304 C3.75319149,6.57391304 4.51914894,6.39782609 5.05531915,6.12391304 L5.05531915,0.195652174 C5.05531915,0.0782608696 5.13191489,0 5.24680851,0 L5.59148936,0 C5.68723404,0 5.78297872,0.0782608696 5.78297872,0.195652174 L5.78297872,5.36086957 Z" id="path-3_1_"></path>
                            </g>
                            <rect id="Rectangle" fill-opacity="0.2" fill="#FFFFFF" x="0.134042553" y="0.0782608696" width="3.1212766" height="17.7652174"></rect>
                        </g>
                        <polygon id="Rectangle-3900" fill="#FF4C00" points="1.81914894 5.90869565 4.7106383 5.90869565 4.7106383 11.6413043 3.27446809 10.8978261 1.81914894 11.6413043"></polygon>
                        <g id="Rectangle-3905-Copy" transform="translate(6.881649, 0.365111)">
                            <g id="Mask_2_" transform="translate(0.000000, 0.195652)" fill="#EFE9DA">
                                <path d="M4.32765957,0.0391304348 L4.32765957,6.69130435 L0,6.69130435 L0,0.0391304348 C0.478723404,0.391304348 1.26382979,0.606521739 2.16382979,0.606521739 C3.06382979,0.606521739 3.84893617,0.391304348 4.32765957,0.0391304348 Z" id="path-5_1_"></path>
                            </g>
                            <rect id="Rectangle-3905_1_" fill="#D5CBB4" x="0" y="0.0782608696" width="1" height="6.20217391"></rect>
                        </g>
                        <g id="Rectangle-3906-Copy" transform="translate(5.776596, 0.000000)">
                            <g id="Mask_3_" transform="translate(0.382979, 0.195652)" fill="#3B393F">
                                <path d="M5.78297872,5.36086957 L5.78297872,16.3173913 C5.78297872,16.9826087 4.48085106,17.5304348 2.89148936,17.5304348 C1.30212766,17.5304348 0,16.9826087 0,16.3173913 L0,5.36086957 L0,0.195652174 C0,0.0782608696 0.0765957447,0 0.191489362,0 L0.536170213,0 C0.631914894,0 0.727659574,0.0782608696 0.727659574,0.195652174 L0.727659574,6.12391304 C1.26382979,6.39782609 2.02978723,6.57391304 2.89148936,6.57391304 C3.75319149,6.57391304 4.51914894,6.39782609 5.05531915,6.12391304 L5.05531915,0.195652174 C5.05531915,0.0782608696 5.13191489,0 5.24680851,0 L5.59148936,0 C5.68723404,0 5.78297872,0.0782608696 5.78297872,0.195652174 L5.78297872,5.36086957 Z" id="path-7_1_"></path>
                            </g>
                            <rect id="Rectangle-3906_1_" fill-opacity="0.05" fill="#FFFFFF" x="0.134042553" y="0.0782608696" width="3.1212766" height="17.7652174"></rect>
                        </g>
                        <g id="Rectangle-3905-Copy-2" transform="translate(12.658245, 0.365111)">
                            <g id="Mask_4_" transform="translate(0.000000, 0.195652)" fill="#EFE9DA">
                                <path d="M4.32765957,0.0391304348 L4.32765957,6.69130435 L0,6.69130435 L0,0.0391304348 C0.478723404,0.391304348 1.26382979,0.606521739 2.16382979,0.606521739 C3.06382979,0.606521739 3.84893617,0.391304348 4.32765957,0.0391304348 Z" id="path-9_1_"></path>
                            </g>
                            <rect id="Rectangle-3905_2_" fill="#D5CBB4" x="0" y="0.0782608696" width="1" height="6.20217391"></rect>
                        </g>
                        <g id="Rectangle-3906-Copy-2" transform="translate(11.553191, 0.000000)">
                            <g id="Mask_5_" transform="translate(0.382979, 0.195652)" fill="#FF4C00">
                                <path d="M5.78297872,5.36086957 L5.78297872,16.3173913 C5.78297872,16.9826087 4.48085106,17.5304348 2.89148936,17.5304348 C1.30212766,17.5304348 0,16.9826087 0,16.3173913 L0,5.36086957 L0,0.195652174 C0,0.0782608696 0.0765957447,0 0.191489362,0 L0.536170213,0 C0.631914894,0 0.727659574,0.0782608696 0.727659574,0.195652174 L0.727659574,6.12391304 C1.26382979,6.39782609 2.02978723,6.57391304 2.89148936,6.57391304 C3.75319149,6.57391304 4.51914894,6.39782609 5.05531915,6.12391304 L5.05531915,0.195652174 C5.05531915,0.0782608696 5.13191489,0 5.24680851,0 L5.59148936,0 C5.68723404,0 5.78297872,0.0782608696 5.78297872,0.195652174 L5.78297872,5.36086957 Z" id="path-11_1_"></path>
                            </g>
                            <rect id="Rectangle-3906_2_" fill-opacity="0.1" fill="#FFFFFF" x="0.134042553" y="0.0782608696" width="3.1212766" height="17.7652174"></rect>
                        </g>
                    </g>
                </g>
            </g>
        </g>
    </g>
</svg>