<svg width="20" height="20" viewBox="0 0 20 20" fill="none" xmlns="http://www.w3.org/2000/svg"><path d="M19.2614 13.7229L15.0274 11.9065C14.784 11.8028 14.5137 11.7806 14.2567 11.8432C13.9997 11.9059 13.7698 12.0501 13.6016 12.2542L11.8789 14.3596C9.16937 13.027 6.9772 10.8348 5.64456 8.12527L7.75002 6.40262C7.95412 6.23443 8.09828 6.00468 8.16094 5.74775C8.22361 5.49082 8.20142 5.2205 8.09768 4.97723L6.28127 0.738946C6.16769 0.476128 5.96556 0.261449 5.71005 0.132266C5.45454 0.00308346 5.16182 -0.0324266 4.88284 0.0319152L0.945336 0.942071C0.676185 1.00295 0.435838 1.15378 0.263973 1.36968C0.0921085 1.58558 -0.000998209 1.85362 2.35801e-05 2.12957C2.35801e-05 12.0237 8.01956 20.0003 17.8707 20.0003C18.1476 20.0008 18.4164 19.9071 18.633 19.7346C18.8496 19.5621 19.0011 19.321 19.0625 19.0511L19.9684 15.1175C20.0327 14.839 19.9971 14.5468 19.8679 14.2919C19.7386 14.037 19.524 13.8356 19.2614 13.7229ZM17.8473 18.7503C8.68752 18.7386 1.26174 11.3167 1.25393 2.15692L5.14456 1.25848L6.94143 5.4534L4.09768 7.77762C5.98831 11.8089 8.17971 14.0081 12.2266 15.9065L14.5508 13.0628L18.7457 14.8596L17.8473 18.7503Z" fill="#234D60"/></svg>