<svg width="20" height="20" viewBox="0 0 20 20" fill="none" xmlns="http://www.w3.org/2000/svg"><path d="M10 0.3125C4.64613 0.3125 0.3125 4.64527 0.3125 10C0.3125 15.3538 4.64527 19.6875 10 19.6875C12.0674 19.6875 14.0891 19.0204 15.7458 17.8C15.9607 17.6418 15.9967 17.3343 15.8276 17.1277L15.6294 16.8856C15.4725 16.6939 15.1922 16.6558 14.9924 16.8025C13.552 17.8597 11.7959 18.4375 10 18.4375C5.33699 18.4375 1.5625 14.6638 1.5625 10C1.5625 5.33691 5.33621 1.5625 10 1.5625C14.6268 1.5625 18.4375 4.68844 18.4375 9.375C18.4375 12.2216 16.3743 13.6032 13.9037 13.6032C13.1329 13.6032 12.9781 13.1807 13.1419 12.2802L14.3946 5.87117C14.4512 5.58168 14.2295 5.3125 13.9346 5.3125H13.4494C13.3405 5.3125 13.2351 5.35038 13.1511 5.41965C13.0671 5.48891 13.0099 5.58524 12.9892 5.69211C12.8996 6.15484 12.8775 6.21805 12.8384 6.69395C12.3802 5.63621 11.329 5.01336 9.97215 5.01336C7.31418 5.01336 4.76996 7.47234 4.76996 11.1472C4.76996 13.553 6.09477 14.9892 8.31383 14.9892C9.86574 14.9892 11.0717 14.0408 11.6979 13.1539C11.6506 14.2393 12.3798 14.8029 13.4938 14.8029C17.6988 14.8029 19.6875 12.5675 19.6875 9.375C19.6875 4.05523 15.3853 0.3125 10 0.3125ZM8.51875 13.6964C7.0859 13.6964 6.23047 12.7156 6.23047 11.0727C6.23047 8.15512 8.21348 6.32484 10.028 6.32484C11.5459 6.32484 12.2976 7.41039 12.2976 8.89262C12.2976 11.1634 10.7988 13.6964 8.51875 13.6964Z" fill="#234D60"/></svg>