<svg width="18" height="25" viewBox="0 0 18 25" fill="none" xmlns="http://www.w3.org/2000/svg">
	<path d="M8.99999 4.60227C6.51866 4.60227 4.49999 6.66682 4.49999 9.20453C4.49999 11.7423 6.51866 13.8068 8.99999 13.8068C11.4813 13.8068 13.5 11.7423 13.5 9.20453C13.5 6.66682 11.4813 4.60227 8.99999 4.60227ZM8.99999 12.2727C7.34577 12.2727 5.99999 10.8963 5.99999 9.20453C5.99999 7.51272 7.34577 6.13636 8.99999 6.13636C10.6542 6.13636 12 7.51272 12 9.20453C12 10.8963 10.6542 12.2727 8.99999 12.2727ZM8.99999 0C4.02942 0 0 4.12099 0 9.20453C0 12.9157 1.26422 13.9521 8.07505 24.0502C8.52196 24.7104 9.47797 24.7105 9.92497 24.0502C16.7358 13.9521 18 12.9157 18 9.20453C18 4.12099 13.9706 0 8.99999 0ZM8.99999 22.7204C2.47054 13.0632 1.5 12.2964 1.5 9.20453C1.5 7.15566 2.28014 5.22947 3.6967 3.78071C5.11326 2.33196 6.99665 1.53409 8.99999 1.53409C11.0033 1.53409 12.8867 2.33196 14.3033 3.78071C15.7198 5.22947 16.5 7.15566 16.5 9.20453C16.5 12.2962 15.53 13.0623 8.99999 22.7204Z" fill="#234D60"/>
</svg>