<svg width="25" height="19" viewBox="0 0 25 19" fill="none" xmlns="http://www.w3.org/2000/svg"><path d="M22.6562 0.125H2.34375C1.04932 0.125 0 1.17432 0 2.46875V16.5312C0 17.8257 1.04932 18.875 2.34375 18.875H22.6562C23.9507 18.875 25 17.8257 25 16.5312V2.46875C25 1.17432 23.9507 0.125 22.6562 0.125ZM22.6562 2.46875V4.46118C21.5614 5.35273 19.816 6.73906 16.0846 9.66089C15.2623 10.3077 13.6334 11.8617 12.5 11.8436C11.3668 11.8619 9.73735 10.3075 8.91538 9.66089C5.18457 6.7395 3.43872 5.35288 2.34375 4.46118V2.46875H22.6562ZM2.34375 16.5312V7.46865C3.4626 8.35981 5.04927 9.61035 7.46768 11.5041C8.53491 12.3442 10.4039 14.1987 12.5 14.1875C14.5858 14.1987 16.4311 12.3711 17.5319 11.5045C19.9502 9.61079 21.5374 8.35991 22.6562 7.4687V16.5312H2.34375Z" fill="#234D60"/></svg>