<svg width="22" height="23" viewBox="0 0 22 23" fill="none" xmlns="http://www.w3.org/2000/svg"><path d="M11.0673 5.88477C7.96184 5.88477 5.45695 8.38965 5.45695 11.4951C5.45695 14.6006 7.96184 17.1055 11.0673 17.1055C14.1728 17.1055 16.6777 14.6006 16.6777 11.4951C16.6777 8.38965 14.1728 5.88477 11.0673 5.88477ZM11.0673 15.1426C9.06047 15.1426 7.41985 13.5068 7.41985 11.4951C7.41985 9.4834 9.05559 7.84766 11.0673 7.84766C13.079 7.84766 14.7148 9.4834 14.7148 11.4951C14.7148 13.5068 13.0741 15.1426 11.0673 15.1426ZM18.2157 5.65527C18.2157 6.38281 17.6298 6.96387 16.9072 6.96387C16.1796 6.96387 15.5986 6.37793 15.5986 5.65527C15.5986 4.93262 16.1845 4.34668 16.9072 4.34668C17.6298 4.34668 18.2157 4.93262 18.2157 5.65527ZM21.9316 6.9834C21.8486 5.23047 21.4482 3.67773 20.164 2.39844C18.8847 1.11914 17.332 0.71875 15.579 0.630859C13.7724 0.52832 8.35735 0.52832 6.55071 0.630859C4.80266 0.713867 3.24992 1.11426 1.96574 2.39355C0.681565 3.67285 0.286057 5.22559 0.198166 6.97852C0.0956268 8.78516 0.0956268 14.2002 0.198166 16.0068C0.281174 17.7598 0.681565 19.3125 1.96574 20.5918C3.24992 21.8711 4.79778 22.2715 6.55071 22.3594C8.35735 22.4619 13.7724 22.4619 15.579 22.3594C17.332 22.2764 18.8847 21.876 20.164 20.5918C21.4433 19.3125 21.8437 17.7598 21.9316 16.0068C22.0341 14.2002 22.0341 8.79004 21.9316 6.9834ZM19.5976 17.9453C19.2167 18.9023 18.4794 19.6396 17.5175 20.0254C16.0771 20.5967 12.6591 20.4648 11.0673 20.4648C9.47551 20.4648 6.05266 20.5918 4.61711 20.0254C3.66008 19.6445 2.92278 18.9072 2.53703 17.9453C1.96574 16.5049 2.09758 13.0869 2.09758 11.4951C2.09758 9.90332 1.97063 6.48047 2.53703 5.04492C2.91789 4.08789 3.6552 3.35059 4.61711 2.96484C6.05754 2.39355 9.47551 2.52539 11.0673 2.52539C12.6591 2.52539 16.082 2.39844 17.5175 2.96484C18.4745 3.3457 19.2118 4.08301 19.5976 5.04492C20.1689 6.48535 20.037 9.90332 20.037 11.4951C20.037 13.0869 20.1689 16.5098 19.5976 17.9453Z" fill="#234D60"/></svg>