<?xml version="1.0"?>
<svg xmlns="http://www.w3.org/2000/svg" id="Layer_1" enable-background="new 0 0 512 512" height="512px" viewBox="0 0 512 512" width="512px"><g><path id="XMLID_602_" d="m447.358 125.535-68.722-69.687c-10.574-10.72-25.277-16.869-40.341-16.869h-17.88v-18.686c.001-11.189-9.102-20.293-20.292-20.293h-88.248c-11.189 0-20.293 9.104-20.293 20.293v18.687h-17.878c-15.063 0-29.767 6.148-40.341 16.869l-68.723 69.686c-6.729 6.823-6.69 17.886.086 24.662l6.276 6.276c1.464 1.464 3.384 2.196 5.303 2.196s3.839-.732 5.304-2.197c2.929-2.929 2.929-7.678-.001-10.607l-6.275-6.275c-.968-.968-.974-2.548-.013-3.523l68.723-69.686c7.773-7.881 18.585-12.402 29.661-12.402h36.034c4.143 0 7.5-3.358 7.5-7.5s-3.357-7.5-7.5-7.5h-3.156v-18.686c0-2.918 2.374-5.293 5.293-5.293h36.625v23.979h-6.905c-4.143 0-7.5 3.358-7.5 7.5s3.357 7.5 7.5 7.5h6.905v313.722c-5.339 2.445-9.095 7.481-9.688 13.731l-10.89 113.308c-.124 1.288-1.193 2.26-2.488 2.26h-30.574c8.172-44.174 12.19-97.183-9.362-117.584-12.456-11.803-23.195-28.295-28.469-43.564 3.48-10.029 8.33-19.588 14.469-28.31.014-.02.028-.04.042-.06 16.475-23.375 21.366-52.895 13.572-80.169l19.677 8.687c.985.435 2.014.641 3.025.641 2.88 0 5.627-1.669 6.865-4.473 1.673-3.789-.043-8.217-3.832-9.89l-32.533-14.362-5.98-16.438 23.526 10.386c.985.435 2.014.641 3.025.641 2.88 0 5.627-1.669 6.865-4.473 1.673-3.789-.043-8.217-3.832-9.89l-36.691-16.198-4.59-12.616v-36.811c0-4.142-3.357-7.5-7.5-7.5s-7.5 3.358-7.5 7.5v35.003l-24.422 24.422c-.976.975-2.561.974-3.534 0l-13.548-13.548c-2.93-2.929-7.678-2.929-10.607 0s-2.929 7.678 0 10.606l13.548 13.548c6.823 6.822 17.924 6.824 24.749 0l18.286-18.286 18.864 51.855c8.852 24.333 5.243 51.491-9.653 72.667-.015.021-.029.042-.045.063-16.282 23.103-24.641 51.381-23.533 79.624l4.577 116.719c.37 9.429 8.052 16.814 17.486 16.814h67.627c9.065 0 16.554-6.804 17.42-15.826l10.891-113.314c.046-.483.167-1.767 2.226-1.768h.005c2.098 0 2.228 1.34 2.27 1.775l2.723 28.349c.396 4.123 4.048 7.149 8.183 6.749 4.123-.396 7.145-4.06 6.749-8.183l-2.724-28.354c-.603-6.237-4.35-11.261-9.675-13.711v-313.742h74.796c11.076 0 21.888 4.521 29.661 12.401l68.722 69.687c.961.974.956 2.554-.013 3.522l-42.349 42.349c-.637.637-1.381.732-1.768.732s-1.13-.095-1.768-.732l-24.422-24.421v-35.004c0-4.142-3.357-7.5-7.5-7.5s-7.5 3.358-7.5 7.5v36.811l-4.591 12.618-36.688 16.196c-3.789 1.673-5.505 6.101-3.832 9.89 1.238 2.805 3.984 4.473 6.865 4.473 1.012 0 2.04-.206 3.025-.641l23.522-10.384-5.981 16.439-32.528 14.36c-3.789 1.673-5.505 6.101-3.832 9.89 1.238 2.805 3.985 4.473 6.865 4.473 1.012 0 2.04-.206 3.025-.641l19.67-8.684c-7.794 27.274-2.905 56.793 13.569 80.169 6.16 8.74 11.025 18.322 14.513 28.376-5.263 15.266-15.999 31.755-28.459 43.553-21.553 20.402-17.536 73.412-9.365 117.587h-30.592c-1.295 0-2.364-.972-2.488-2.261l-4.839-50.381c-.396-4.123-4.067-7.15-8.183-6.749-4.123.396-7.145 4.06-6.749 8.183l4.839 50.382c.868 9.022 8.356 15.826 17.42 15.826h67.626c9.437 0 17.117-7.386 17.486-16.813l4.583-116.718c1.109-28.244-7.247-56.522-23.53-79.626-14.931-21.185-18.553-48.373-9.691-72.728l18.868-51.856 18.287 18.287c3.305 3.306 7.699 5.126 12.374 5.126s9.069-1.82 12.375-5.125l42.349-42.349c6.778-6.776 6.816-17.84.086-24.661zm-292.049 369.063-4.577-116.718c-.239-6.104.029-12.209.77-18.249 6.358 11.267 14.619 22.088 23.682 30.677 13.193 12.488 14.778 52.156 4.411 106.693h-21.788c-1.348-.001-2.446-1.057-2.498-2.403zm108.191-479.598h36.623c2.919 0 5.293 2.375 5.293 5.293v18.687h-41.916zm97.754 362.879-4.583 116.72c-.053 1.346-1.15 2.401-2.498 2.401h-21.768c-10.366-54.539-8.781-94.206 4.412-106.694 9.061-8.58 17.317-19.39 23.671-30.649.738 6.032 1.005 12.127.766 18.222z" data-original="#000000" class="active-path" data-old_color="#000000" fill="#64C29E"/><path id="XMLID_607_" d="m308.732 158.968c14.797 0 26.835-12.038 26.835-26.834s-12.038-26.834-26.835-26.834c-14.796 0-26.834 12.038-26.834 26.834s12.038 26.834 26.834 26.834zm0-38.669c6.525 0 11.835 5.309 11.835 11.834s-5.31 11.834-11.835 11.834-11.834-5.309-11.834-11.834 5.308-11.834 11.834-11.834z" data-original="#000000" class="active-path" data-old_color="#000000" fill="#64C29E"/></g> </svg>
