<?xml version="1.0"?>
<svg xmlns="http://www.w3.org/2000/svg" xmlns:xlink="http://www.w3.org/1999/xlink" version="1.1" id="Layer_1" x="0px" y="0px" viewBox="0 0 512 512" style="enable-background:new 0 0 512 512;" xml:space="preserve" width="512px" height="512px" class=""><g><g>
	<g>
		<path d="M180.66,263.622l0.004-0.004l-0.046-2.246c-1.149-59.702-8.209-115.786-20.272-161.057l-2.625-10.127l-0.163,0.163    c-0.447-1.524-0.9-3.038-1.359-4.535C139.254,30.642,116.5,1.479,90.395,1.479S41.536,30.642,24.592,85.815    c-13.556,44.14-21.9,100.619-24.038,161.54l-0.007,0.007l-0.093,2.92c-0.149,4.722-0.265,9.469-0.339,14.238c0,0,0,0.017,0,0.025    C0.039,269.252,0,273.979,0,278.725c0,2.916,0.015,5.826,0.044,8.728c0.018,1.867,0.053,3.727,0.083,5.589    c0.016,0.972,0.025,1.946,0.044,2.916c0.824,42.293,4.666,83.489,11.242,120.081l2.564,14.265l0.432-0.431    c6.245,29.747,14.362,55.789,24.056,76.308l2.049,4.34h99.76l2.049-4.34c24.086-50.988,38.465-136.017,38.465-227.457    C180.791,273.668,180.744,268.634,180.66,263.622z M39.074,90.263C53.234,44.156,72.42,16.63,90.395,16.63    s37.161,27.527,51.321,73.633c1.233,4.015,2.417,8.148,3.56,12.37L16.422,231.486C19.32,178.206,27.112,129.214,39.074,90.263z     M15.314,295.404c-0.004-0.186-0.009-0.372-0.012-0.558c-0.041-2.219-0.07-4.445-0.094-6.674    c-0.005-0.477-0.015-0.951-0.019-1.428c-0.025-2.666-0.037-5.34-0.037-8.019c0-4.071,0.03-8.166,0.088-12.263    c0.001-0.084,0.002-0.169,0.003-0.253c0.059-4.133,0.146-8.267,0.263-12.38l134.038-134.036    c9.182,40.17,14.626,87.393,15.839,137.684L24.075,398.782C19.052,367.014,16.023,331.93,15.314,295.404z M165.641,278.725    c0,86.728-13.049,167.139-35.027,216.646H97.97v-81.305H82.82v81.305H50.177c-9.376-21.12-17.12-47.879-22.926-78.339    l138.39-138.39C165.641,278.67,165.641,278.697,165.641,278.725z" data-original="#000000" class="active-path" data-old_color="#000000" fill="#64C29E"/>
	</g>
</g><g>
	<g>
		<path d="M351.673,61.477c-15.777-39.251-35.575-59.998-57.257-59.998c-26.105,0-48.859,29.163-65.804,84.336    c-15.858,51.634-24.592,120.145-24.592,192.91c0,21.341,0.763,42.596,2.266,63.174l15.11-1.105    c-1.477-20.212-2.226-41.095-2.226-62.069c0-71.298,8.496-138.228,23.924-188.463c12.186-39.676,28.091-65.574,43.746-72.031    v321.095h15.15V18.243c12.299,5.116,24.939,22.297,35.626,48.885c13.794,34.319,24.038,83.159,28.845,137.521l15.091-1.333    C376.619,147.512,366.007,97.14,351.673,61.477z" data-original="#000000" class="active-path" data-old_color="#000000" fill="#64C29E"/>
	</g>
</g><g>
	<g>
		<path d="M477.802,279.193c-17.686-19.92-40.806-33.047-66.862-37.962c-26.974-5.089-55.93-1.021-83.745,11.763l-17.486,8.037    l18.273,6.039c0.458,0.15,45.721,15.74,45.721,70.235c0,20.9-6.772,40.08-20.702,58.635l12.116,9.096    c15.749-20.98,23.735-43.766,23.735-67.731c0-34.04-15.166-55.223-27.888-66.998c-4.211-3.897-8.43-7.04-12.275-9.531    c44.527-14.714,88.588-4.41,117.786,28.475c34.218,38.541,49.866,113.879-8.836,209.737l12.919,7.912    c27.255-44.506,41.586-89.943,41.442-131.397C511.868,337.547,500.043,304.243,477.802,279.193z" data-original="#000000" class="active-path" data-old_color="#000000" fill="#64C29E"/>
	</g>
</g><g>
	<g>
		<path d="M459.443,403.755c-0.82,4.69-1.839,9.5-3.029,14.298l14.704,3.648c1.276-5.14,2.368-10.299,3.248-15.336L459.443,403.755z    " data-original="#000000" class="active-path" data-old_color="#000000" fill="#64C29E"/>
	</g>
</g><g>
	<g>
		<path d="M452.424,432.17c-1.447,4.582-3.076,9.258-4.84,13.896l14.161,5.383c1.865-4.906,3.59-9.857,5.125-14.713L452.424,432.17z    " data-original="#000000" class="active-path" data-old_color="#000000" fill="#64C29E"/>
	</g>
</g><g>
	<g>
		<path d="M462.112,374.896c-0.017,4.685-0.26,9.544-0.722,14.443l15.083,1.422c0.505-5.351,0.771-10.67,0.789-15.81    L462.112,374.896z" data-original="#000000" class="active-path" data-old_color="#000000" fill="#64C29E"/>
	</g>
</g><g>
	<g>
		<path d="M474.069,343.74l-14.787,3.293c0.958,4.31,1.685,8.859,2.156,13.525l15.073-1.523    C475.98,353.776,475.159,348.63,474.069,343.74z" data-original="#000000" class="active-path" data-old_color="#000000" fill="#64C29E"/>
	</g>
</g><g>
	<g>
		<path d="M441.979,459.711c-1.952,4.424-4.07,8.924-6.295,13.376l13.55,6.774c2.334-4.668,4.557-9.39,6.605-14.035L441.979,459.711    z" data-original="#000000" class="active-path" data-old_color="#000000" fill="#64C29E"/>
	</g>
</g><g>
	<g>
		<path d="M428.765,486.182c-2.365,4.247-4.884,8.556-7.488,12.807l12.921,7.912c2.712-4.43,5.337-8.92,7.803-13.348    L428.765,486.182z" data-original="#000000" class="active-path" data-old_color="#000000" fill="#64C29E"/>
	</g>
</g><g>
	<g>
		<path d="M393.915,444.705c-2.888,3.89-5.952,7.774-9.108,11.545l11.617,9.723c3.346-3.996,6.593-8.114,9.657-12.24    L393.915,444.705z" data-original="#000000" class="active-path" data-old_color="#000000" fill="#64C29E"/>
	</g>
</g><g>
	<g>
		<path d="M422.313,393.769c-1.658,4.398-3.571,8.899-5.688,13.376l13.699,6.472c2.289-4.846,4.364-9.725,6.165-14.503    L422.313,393.769z" data-original="#000000" class="active-path" data-old_color="#000000" fill="#64C29E"/>
	</g>
</g><g>
	<g>
		<path d="M409.91,420.122c-2.356,4.189-4.915,8.405-7.601,12.529L415,440.922c2.866-4.398,5.596-8.898,8.114-13.373L409.91,420.122    z" data-original="#000000" class="active-path" data-old_color="#000000" fill="#64C29E"/>
	</g>
</g><g>
	<g>
		<path d="M353.747,487.634c-3.698,3.176-7.547,6.31-11.439,9.316l9.258,11.992c4.102-3.166,8.156-6.468,12.052-9.815    L353.747,487.634z" data-original="#000000" class="active-path" data-old_color="#000000" fill="#64C29E"/>
	</g>
</g><g>
	<g>
		<path d="M375.045,467.266c-3.332,3.551-6.821,7.073-10.371,10.468l10.469,10.951c3.749-3.585,7.434-7.303,10.952-11.056    L375.045,467.266z" data-original="#000000" class="active-path" data-old_color="#000000" fill="#64C29E"/>
	</g>
</g><g>
	<g>
		<path d="M479.854,214.291l-9.35,11.922c3.64,2.854,7.163,6.034,10.471,9.448l10.881-10.54    C488.071,221.213,484.032,217.569,479.854,214.291z" data-original="#000000" class="active-path" data-old_color="#000000" fill="#64C29E"/>
	</g>
</g><g>
	<g>
		<path d="M451.76,198.19l-5.553,14.097c4.359,1.717,8.615,3.761,12.651,6.075l7.536-13.144    C461.723,202.54,456.799,200.176,451.76,198.19z" data-original="#000000" class="active-path" data-old_color="#000000" fill="#64C29E"/>
	</g>
</g><g>
	<g>
		<path d="M502.29,237.344l-12.097,9.121c2.792,3.703,5.471,7.703,7.966,11.893l13.018-7.753    C508.401,245.946,505.412,241.484,502.29,237.344z" data-original="#000000" class="active-path" data-old_color="#000000" fill="#64C29E"/>
	</g>
</g><g>
	<g>
		<path d="M420.469,190.606l-1.626,15.063c4.761,0.513,9.45,1.32,13.938,2.397l3.535-14.732    C431.203,192.107,425.87,191.189,420.469,190.606z" data-original="#000000" class="active-path" data-old_color="#000000" fill="#64C29E"/>
	</g>
</g><g>
	<g>
		<path d="M445.348,129.489l-7.202,13.329c4.116,2.223,8.096,4.764,11.829,7.55l9.061-12.142    C454.715,135.001,450.109,132.06,445.348,129.489z" data-original="#000000" class="active-path" data-old_color="#000000" fill="#64C29E"/>
	</g>
</g><g>
	<g>
		<path d="M471.304,148.84l-10.708,10.719c3.272,3.268,6.395,6.846,9.281,10.634l12.052-9.181    C478.632,156.685,475.056,152.589,471.304,148.84z" data-original="#000000" class="active-path" data-old_color="#000000" fill="#64C29E"/>
	</g>
</g><g>
	<g>
		<path d="M415.129,118.231L411.757,133c4.662,1.065,9.226,2.42,13.566,4.026l5.261-14.207    C425.631,120.985,420.43,119.441,415.129,118.231z" data-original="#000000" class="active-path" data-old_color="#000000" fill="#64C29E"/>
	</g>
</g><g>
	<g>
		<path d="M332.683,402.829c-10.703-31.078-38.188-52.651-75.407-59.183l-12.305-2.154l3.776,11.912    c0.149,0.473,14.761,47.578-4.88,74.362c-11.121,15.166-39.793,34.838-73.043,50.116l6.326,13.767    c28.186-12.952,63.725-34.183,78.935-54.924c17.351-23.66,13.85-57.398,10.207-75.452c25.662,7.528,44.336,24.043,52.067,46.488    c9.729,28.25,0.373,61.936-25.029,90.111l11.252,10.146C333.727,475.689,344.233,436.367,332.683,402.829z" data-original="#000000" class="active-path" data-old_color="#000000" fill="#64C29E"/>
	</g>
</g></g> </svg>
