<?xml version="1.0"?>
<svg xmlns="http://www.w3.org/2000/svg" height="512px" viewBox="0 0 512 512.001" width="512px"><g><path d="m397.035156 258.113281c43.878906-54.820312 70.304688-107.644531 85.578125-145.9375 21.660157-54.285156 26.316407-91.5625 26.503907-93.121093l2.285156-19.0156255-19.007813 2.3554685c-1.554687.195313-38.703125 4.976563-92.855469 26.757813-37.285156 15-88.40625 40.621094-141.773437 82.683594-64.507813-55.394532-125.726563-82.671876-166.042969-95.820313-45.167968-14.734375-74.761718-15.605469-76-15.636719l-15.722656-.378906.382812 15.722656c.027344 1.265625.925782 31.570313 16.183594 77.683594 13.449219 40.632812 41.148438 101.96875 97.09375 166.484375-39.621094 49.023437-82.894531 110.828125-105.691406 169.269531l-7.96484375 20.429688h62.91015575v62.410156l20.429688-7.96875c59.898438-23.359375 123.230469-68.300781 173.117188-109.113281 65.472656 53.175781 123.175781 89.695312 171.601562 108.585937l20.425781 7.964844v-62.878906h62.914063l-7.96875-20.429688c-23.550782-60.382812-69.367188-124.230468-106.398438-170.046875zm-162.660156-126.84375c-9.96875 8.707031-19.953125 17.988281-29.886719 27.917969-4.019531 4.019531-8.003906 8.074219-11.96875 12.140625l-133.601562-133.601563c40.910156 10.308594 105.90625 34.921876 175.457031 93.542969zm-196.664062-72.367187 134.121093 134.117187c-13.394531 14.371094-26.355469 28.917969-38.75 43.476563-43.828125-51.492188-79.261719-113.414063-95.371093-177.59375zm6.976562 360.71875c32.410156-69.128906 98.492188-156.746094 180.988281-239.246094 60.960938-60.957031 138.0625-110.207031 220.417969-136.09375l-243.4375 243.859375c-16.707031-7.949219-37.335938-5.03125-51.144531 8.777344l-21.1875 21.191406c-13.992188 13.992187-16.707031 34.6875-8.769531 51.214844l-49.894532 50.292969h-26.972656zm106.824219-59.128906c-5.851563-5.855469-5.855469-15.335938 0-21.191407l21.191406-21.1875c5.839844-5.84375 15.34375-5.84375 21.1875 0 5.84375 5.839844 5.84375 15.347657 0 21.1875l-21.1875 21.191407c-5.84375 5.839843-15.347656 5.839843-21.191406 0zm-58.628907 106.808593v-26.527343l49.902344-50.296876c16.859375 8.007813 37.421875 4.886719 51.105469-8.796874l21.191406-21.1875c13.8125-13.816407 16.730469-34.457032 8.769531-51.164063l243.535157-243.957031c-16.367188 52.542968-53.683594 138.878906-135.761719 220.957031-82.621094 82.621094-170.046875 148.6875-238.742188 180.972656zm266.507813-108.339843c-5.851563 5.855468-15.332031 5.855468-21.1875 0l-18.984375-18.984376c7.273438-6.792968 14.503906-13.703124 21.675781-20.703124l18.496094 18.496093c5.855469 5.859375 5.859375 15.335938 0 21.191407zm-79.542969 16.324218c5.742188-4.945312 11.480469-9.976562 17.210938-15.089844l19.953125 19.957032c14.050781 14.046875 34.722656 16.640625 51.125 8.816406l50.386719 50.804688v26.957031c-39.9375-18.914063-87.25-50.097657-138.675782-91.445313zm159.902344 43.335938-50.402344-50.820313c7.921875-16.5 5.253906-37.199219-8.765625-51.21875l-18.53125-18.53125c5.289063-5.523437 10.398438-11.054687 15.308594-16.589843 39.960937 49.933593 70.429687 96.710937 89.363281 137.160156zm0 0" data-original="#000000" class="active-path" data-old_color="#000000" fill="#64C29E"/></g> </svg>
