<?xml version="1.0"?>
<svg xmlns="http://www.w3.org/2000/svg" id="Capa_1" enable-background="new 0 0 512 512" height="512px" viewBox="0 0 512 512" width="512px"><g><path d="m393.501 497h-90.091c42.483-89.049 61.805-195.19 53.099-293.253-6.388-71.956-32.265-166.87-94.898-202.755-2.31-1.323-5.147-1.323-7.457 0-41.85 23.978-73.078 78.493-87.931 153.505-14.844 74.967-11.341 161.169 9.865 242.727 1.042 4.008 5.134 6.413 9.146 5.372 4.009-1.042 6.414-5.137 5.372-9.146-5.23-20.115-9.351-40.512-12.362-60.942l159.305-159.304c15.215 95.567 2.23 216.732-50.796 323.797h-57.741c-12.353-24.949-22.905-51.464-31.389-78.881-1.225-3.958-5.427-6.169-9.382-4.948-3.957 1.225-6.172 5.425-4.948 9.382 7.97 25.756 17.727 50.742 29.048 74.446h-93.841c-4.142 0-7.5 3.358-7.5 7.5s3.358 7.5 7.5 7.5h275.001c4.142 0 7.5-3.358 7.5-7.5s-3.358-7.5-7.5-7.5zm-217.687-183.275c-2.009-17.729-3.186-35.508-3.509-53.059l101.272-101.272c2.929-2.929 2.929-7.678 0-10.606-2.929-2.929-7.678-2.929-10.606 0l-90.675 90.675c.599-28.296 3.461-55.888 8.642-82.051 13.333-67.338 41.252-118.423 76.947-141.15 24.162 15.354 44.127 43.026 58.683 78.929l-35.919 35.92c-2.929 2.929-2.929 7.678 0 10.606 2.929 2.929 7.678 2.929 10.606 0l31.069-31.07c4.754 13.911 8.768 28.838 11.977 44.592z" data-original="#000000" class="active-path" data-old_color="#000000" fill="#64C29E"/></g> </svg>
