<svg xmlns="http://www.w3.org/2000/svg" width="21" height="21" viewBox="0 0 21 21">
    <path fill="#354052" fill-rule="nonzero" d="M18.977 6.345l.009-4.337h-4.334a.982.982 0 0 1-1.002-.995A.998.998 0 0 1 14.652 0h5.341A1.001 1.001 0 0 1 21 1.014l-.01 5.332a.994.994 0 0 1-1.006 1.004.994.994 0 0 1-1.007-1.005zM1.014 0a.07.07 0 0 0 .009 0h5.323A.994.994 0 0 1 7.35 1.005a.993.993 0 0 1-1.005 1.006H2.018l-.009 4.338c0 .565-.431 1.001-.995 1.001A.997.997 0 0 1 0 6.349l.01-5.344A1 1 0 0 1 1.013 0zm1 18.99h4.334a.983.983 0 0 1 1.002.996A.999.999 0 0 1 6.348 21H1.007A1.002 1.002 0 0 1 0 19.986v-5.33a.994.994 0 0 1 1.007-1.006.994.994 0 0 1 1.006 1.005v4.334zm12.641-.003h4.334v-4.334a.982.982 0 0 1 .996-1.003A.998.998 0 0 1 21 14.652v5.341A1.002 1.002 0 0 1 19.986 21h-5.33a.994.994 0 0 1-1.006-1.007.994.994 0 0 1 1.005-1.006z"/>
</svg>
