<?xml version="1.0" encoding="utf-8"?>
<!-- Generator: Adobe Illustrator 23.0.3, SVG Export Plug-In . SVG Version: 6.00 Build 0)  -->
<svg version="1.1" id="Слой_1" xmlns="http://www.w3.org/2000/svg" xmlns:xlink="http://www.w3.org/1999/xlink" x="0px" y="0px"
	 viewBox="0 0 13 13" style="enable-background:new 0 0 13 13;" xml:space="preserve">
<style type="text/css">
	.st0{fill-rule:evenodd;clip-rule:evenodd;fill:#FFFFFF;}
</style>
<g>
	<path class="st0" d="M6.5,13C2.9,13,0,10.1,0,6.5C0,2.9,2.9,0,6.5,0C10.1,0,13,2.9,13,6.5C13,10.1,10.1,13,6.5,13z M6.5,7.6
		l1.1,1.1C7.9,9,8.4,9,8.7,8.7C9,8.4,9,7.9,8.7,7.6L7.6,6.5l1.1-1.1C9,5.1,9,4.6,8.7,4.3C8.4,4,7.9,4,7.6,4.3L6.5,5.4L5.4,4.3
		C5.1,4,4.6,4,4.3,4.3C4,4.6,4,5.1,4.3,5.4l1.1,1.1L4.3,7.6C4,7.9,4,8.4,4.3,8.7C4.6,9,5.1,9,5.4,8.7L6.5,7.6z"/>
</g>
</svg>
