<svg width="19" height="14" viewBox="0 0 19 14" fill="none" xmlns="http://www.w3.org/2000/svg">
<path d="M18.0226 2.1374H16.7212V0.690728C16.7212 0.534472 16.6096 0.400539 16.4558 0.372043C12.4677 -0.364116 10.0056 1.34282 9.268 1.96072C8.53042 1.34235 6.06642 -0.366016 2.07644 0.371568C1.92256 0.400064 1.81095 0.533997 1.81095 0.690253V2.1374H0.514361C0.335308 2.1374 0.189976 2.28273 0.189976 2.46178V13.4856C0.189976 13.6647 0.335308 13.81 0.514361 13.81H18.0226C18.2016 13.81 18.347 13.6652 18.347 13.4856V2.46178C18.3465 2.28273 18.2016 2.1374 18.0226 2.1374ZM16.073 0.963819V11.0055C15.0476 10.9547 12.0459 10.9575 9.59286 12.4536V2.53825C10.0649 2.12315 12.3185 0.368243 16.073 0.963819ZM2.45972 0.963819C6.20368 0.372043 8.4701 2.12505 8.94409 2.5392V12.4541C6.8667 11.1879 4.397 10.9917 3.06479 10.9917C2.8221 10.9917 2.6174 10.9979 2.45924 11.006V0.963819H2.45972ZM0.838271 2.78617H1.81095V11.3532C1.81095 11.4448 1.8499 11.5322 1.91781 11.5939C1.98573 11.6552 2.07739 11.6828 2.16811 11.6761C2.20848 11.6714 6.05502 11.3071 8.84578 13.1617H0.838271V2.78617ZM17.6982 13.1613H9.6907C12.4757 11.3104 16.3247 11.6709 16.3646 11.6756C16.4543 11.6837 16.5465 11.6547 16.6144 11.5935C16.6823 11.5322 16.7212 11.4448 16.7212 11.3532V2.78617H17.6982V13.1613Z" fill="white"/>
<path fill-rule="evenodd" clip-rule="evenodd" d="M9.26804 1.71578C10.1555 1.01361 12.623 -0.528627 16.4902 0.185222L16.4904 0.185242C16.734 0.230367 16.9112 0.442632 16.9112 0.690728V1.94742H18.0226C18.307 1.94742 18.5362 2.17816 18.5369 2.46128V13.4856C18.5369 13.7703 18.3064 14 18.0226 14H0.514361C0.230388 14 0 13.7696 0 13.4856V2.46178C0 2.17781 0.230387 1.94742 0.514361 1.94742H1.62097V0.690253C1.62097 0.442157 1.79818 0.229892 2.04185 0.184767L2.04191 0.184756C5.91103 -0.530485 8.38045 1.01305 9.26804 1.71578ZM2.11098 0.558379C2.04692 0.57027 2.00093 0.625858 2.00093 0.690253V2.32737H0.514361C0.44023 2.32737 0.379953 2.38765 0.379953 2.46178V13.4856C0.379953 13.5598 0.440229 13.62 0.514361 13.62H18.0226C18.0969 13.62 18.157 13.5601 18.157 13.4856V2.46229C18.1568 2.3873 18.0963 2.32737 18.0226 2.32737H16.5313V0.690728C16.5313 0.626343 16.4853 0.570767 16.4213 0.558863C12.5071 -0.163652 10.1007 1.51096 9.39 2.10635L9.26795 2.20859L9.14595 2.1063C8.43527 1.51049 6.02704 -0.165519 2.11103 0.558368M9.78284 2.62552V12.1232C12.0807 10.8461 14.7452 10.7712 15.883 10.8077V1.12735C12.4517 0.639304 10.3423 2.15582 9.78284 2.62552ZM9.46741 2.39558C9.96319 1.95965 12.2717 0.168467 16.1027 0.776189L16.2629 0.801604V11.2051L16.0636 11.1952C15.0465 11.1448 12.0938 11.1508 9.69178 12.6158L9.40288 12.792V2.45232L9.46741 2.39558ZM2.64922 1.12751V10.8081C2.77144 10.8042 2.91066 10.8017 3.06479 10.8017C4.34817 10.8017 6.69696 10.9811 8.75411 12.1237V2.62683C8.19167 2.15767 6.07113 0.64291 2.64922 1.12751ZM2.44487 0.773843C6.25645 0.176938 8.57229 1.96207 9.06909 2.39614L9.13407 2.45291V12.7923L8.84522 12.6163C6.81262 11.3774 4.38534 11.1817 3.06479 11.1817C2.82525 11.1817 2.62378 11.1878 2.46893 11.1957L2.26927 11.2059V0.773843H2.44487ZM0.648294 2.59619H2.00093V11.3532C2.00093 11.3907 2.01686 11.4271 2.04534 11.4531C2.07043 11.4756 2.1086 11.4895 2.15227 11.4868C2.24403 11.4777 3.20838 11.3956 4.49568 11.5327C5.82596 11.6745 7.51961 12.0523 8.95093 13.0035L9.26788 13.2141L9.58555 13.003C11.014 12.0537 12.7068 11.6759 14.0369 11.5337C15.33 11.3954 16.298 11.4781 16.3819 11.4865C16.4211 11.4899 16.4602 11.4767 16.4871 11.4524C16.5152 11.4271 16.5313 11.391 16.5313 11.3532V2.59619H17.8882V13.3512H9.47416L9.47488 13.3517H0.648294V2.59619ZM1.02825 2.97614V12.9718H8.15673C6.93333 12.3183 5.5744 12.0298 4.45542 11.9106C3.8067 11.8414 3.24267 11.8296 2.83878 11.8354C2.63692 11.8383 2.47531 11.8455 2.36341 11.8522C2.25547 11.8586 2.19573 11.8643 2.19065 11.8648L2.1903 11.8648L2.18616 11.8653L2.18199 11.8656C2.04521 11.8756 1.90094 11.8346 1.79056 11.735L1.79029 11.7348L1.79002 11.7345C1.68283 11.6371 1.62097 11.4988 1.62097 11.3532V2.97614H1.02825ZM16.9112 2.97614V11.3532C16.9112 11.4987 16.8494 11.6373 16.7416 11.7345C16.6328 11.8327 16.4878 11.8775 16.3475 11.8649L16.3448 11.8646L16.3421 11.8643C16.3422 11.8643 16.3419 11.8643 16.3414 11.8642C16.3345 11.8636 16.2753 11.858 16.1695 11.8518C16.0576 11.8453 15.8959 11.8382 15.694 11.8354C15.29 11.83 14.7259 11.8421 14.0773 11.9115C12.9588 12.0311 11.601 12.3195 10.38 12.9713H17.5082V2.97614H16.9112Z" fill="white"/>
<path d="M10.8904 4.23949C10.9374 4.23949 10.9849 4.22951 11.03 4.20767C12.0692 3.71088 13.2143 3.45109 14.433 3.43494C14.612 3.43256 14.7555 3.28533 14.7531 3.10675C14.7507 2.9277 14.6116 2.79187 14.4249 2.78664C13.1117 2.80374 11.8754 3.08491 10.7508 3.62254C10.5893 3.69995 10.5209 3.89326 10.5978 4.05521C10.6534 4.1711 10.7698 4.23949 10.8904 4.23949Z" fill="white"/>
<path fill-rule="evenodd" clip-rule="evenodd" d="M14.4263 2.59663L14.4302 2.59674C14.7117 2.60462 14.9392 2.81647 14.9431 3.10423C14.9468 3.38795 14.7192 3.62113 14.4355 3.6249C13.2428 3.6407 12.1252 3.89477 11.1124 4.37887C11.0403 4.4137 10.9644 4.42946 10.8904 4.42946C10.6992 4.42946 10.5148 4.32138 10.4265 4.13735L10.4264 4.13704L10.4262 4.13673C10.3044 3.88033 10.4127 3.57393 10.6686 3.45123L10.6688 3.45114C11.8197 2.901 13.0832 2.61412 14.4224 2.59668L14.4263 2.59663ZM10.8328 3.79388C10.766 3.82598 10.7375 3.90596 10.7693 3.97338C10.7922 4.02093 10.8404 4.04951 10.8904 4.04951C10.9102 4.04951 10.9293 4.04539 10.9472 4.03668L10.9477 4.03647L10.9481 4.03627C12.0135 3.52692 13.1859 3.26147 14.4305 3.24498C14.5048 3.24399 14.5641 3.18272 14.5631 3.10928C14.5622 3.03978 14.5126 2.98056 14.4229 2.97666C13.1374 2.994 11.93 3.2694 10.8328 3.79388Z" fill="white"/>
<path d="M10.8904 5.82104C10.9374 5.82104 10.9849 5.81107 11.03 5.78922C12.0692 5.29243 13.2143 5.03264 14.433 5.01649C14.612 5.01412 14.7555 4.86688 14.7531 4.68831C14.7507 4.51068 14.6059 4.3682 14.4292 4.3682C14.4278 4.3682 14.4263 4.3682 14.4249 4.3682C13.1117 4.38529 11.8754 4.66646 10.7508 5.20409C10.5893 5.28151 10.5209 5.47481 10.5978 5.63676C10.6534 5.75312 10.7698 5.82104 10.8904 5.82104Z" fill="white"/>
<path fill-rule="evenodd" clip-rule="evenodd" d="M14.4237 4.17822H14.4292C14.7098 4.17822 14.9393 4.40424 14.9431 4.68577C14.9468 4.96949 14.7192 5.20269 14.4355 5.20645C13.2428 5.22225 12.1252 5.47633 11.1124 5.96043C11.0403 5.99526 10.9644 6.01102 10.8904 6.01102C10.6996 6.01102 10.5148 5.90373 10.4264 5.71863L10.4262 5.71829C10.3044 5.46189 10.4127 5.15549 10.6686 5.03279L10.6688 5.03269C11.8197 4.48255 13.0832 4.19567 14.4224 4.17824L14.4237 4.17822ZM14.4262 4.55817C13.1394 4.57509 11.9309 4.85051 10.8328 5.37543C10.7659 5.40756 10.7374 5.48762 10.7694 5.55507C10.7921 5.60259 10.84 5.63106 10.8904 5.63106C10.9102 5.63106 10.9293 5.62694 10.9472 5.61823L10.9477 5.61803L10.9481 5.61782C12.0135 5.10847 13.1859 4.84302 14.4305 4.82653C14.5048 4.82554 14.5641 4.76427 14.5631 4.69083C14.5621 4.61711 14.5019 4.55817 14.4292 4.55817H14.4262Z" fill="white"/>
<path d="M10.8904 7.35558C10.9374 7.35558 10.9849 7.3456 11.03 7.32375C12.0692 6.82697 13.2143 6.56717 14.433 6.55102C14.612 6.54865 14.7555 6.40142 14.7531 6.22284C14.7507 6.04379 14.6116 5.9108 14.4249 5.90273C13.1117 5.91983 11.8754 6.20099 10.7508 6.73863C10.5893 6.81604 10.5209 7.00934 10.5978 7.1713C10.6534 7.28766 10.7698 7.35558 10.8904 7.35558Z" fill="white"/>
<path fill-rule="evenodd" clip-rule="evenodd" d="M14.4278 5.7127L14.4331 5.71293C14.7097 5.72489 14.9392 5.93008 14.9431 6.22031C14.9468 6.50403 14.7192 6.73722 14.4355 6.74098C13.2428 6.75679 12.1252 7.01086 11.1124 7.49496C11.0403 7.52979 10.9644 7.54555 10.8904 7.54555C10.6996 7.54555 10.5148 7.43826 10.4264 7.25317L10.4262 7.25282C10.3044 6.99642 10.4127 6.69002 10.6686 6.56732L10.6688 6.56723C11.8197 6.01709 13.0832 5.73021 14.4224 5.71277L14.4278 5.7127ZM10.8328 6.90997C10.7659 6.94209 10.7374 7.02216 10.7694 7.08961C10.7921 7.13712 10.84 7.1656 10.8904 7.1656C10.9102 7.1656 10.9293 7.16148 10.9472 7.15277L10.9477 7.15256L10.9481 7.15236C12.0135 6.643 13.1859 6.37756 14.4305 6.36107C14.5048 6.36008 14.5641 6.2988 14.5631 6.22537C14.5622 6.15858 14.515 6.09865 14.4213 6.09277C13.1364 6.11032 11.9295 6.38571 10.8328 6.90997Z" fill="white"/>
<path d="M4.07737 3.43494C5.29607 3.45061 6.44068 3.71088 7.48032 4.20767C7.52544 4.22904 7.57293 4.23949 7.61995 4.23949C7.74106 4.23949 7.85695 4.17157 7.91252 4.05521C7.98993 3.89326 7.92154 3.69995 7.75959 3.62254C6.63493 3.08491 5.39865 2.80374 4.08544 2.78664C3.90781 2.77334 3.75963 2.9277 3.75726 3.10675C3.75536 3.28581 3.89832 3.43304 4.07737 3.43494Z" fill="white"/>
<path fill-rule="evenodd" clip-rule="evenodd" d="M4.09311 2.59675C5.43039 2.61486 6.69218 2.90171 7.84152 3.45114C8.098 3.57374 8.20662 3.88036 8.08395 4.13708C7.99562 4.32204 7.8114 4.42946 7.61995 4.42946C7.54455 4.42946 7.46931 4.41266 7.39899 4.37935L7.39841 4.37908C6.38502 3.89483 5.26778 3.64026 4.0751 3.6249C3.79034 3.62174 3.56429 3.38771 3.56729 3.10474L3.5673 3.10423C3.57089 2.83347 3.79436 2.57829 4.09311 2.59675ZM3.94722 3.10902C3.94656 3.18395 4.00624 3.2442 4.07938 3.24497L4.07981 3.24498C5.32432 3.26098 6.4961 3.52688 7.56186 4.03608C7.58171 4.04545 7.60138 4.04951 7.61995 4.04951C7.67073 4.04951 7.71828 4.0211 7.74109 3.97334L7.74112 3.97328C7.77323 3.9061 7.74506 3.82616 7.67766 3.79394C6.57916 3.26882 5.37018 2.99336 4.08297 2.9766L4.07711 2.97653L4.07126 2.97609C4.01806 2.97211 3.94849 3.02379 3.94722 3.10902Z" fill="white"/>
<path d="M4.07737 5.01697C5.29607 5.03264 6.44068 5.29291 7.48032 5.78969C7.52544 5.81107 7.57293 5.82152 7.61995 5.82152C7.74106 5.82152 7.85695 5.7536 7.91252 5.63724C7.98993 5.47528 7.92154 5.28198 7.75959 5.20457C6.63493 4.66693 5.39865 4.38577 4.08544 4.36867C3.90781 4.36725 3.75963 4.50973 3.75726 4.68878C3.75536 4.86736 3.89832 5.01459 4.07737 5.01697Z" fill="white"/>
<path fill-rule="evenodd" clip-rule="evenodd" d="M3.5673 4.68626C3.57108 4.40125 3.80625 4.17645 4.08697 4.1787L4.08744 4.17871L4.08792 4.17871C5.42712 4.19615 6.69069 4.48303 7.84152 5.03317C8.098 5.15577 8.20662 5.46239 8.08395 5.71911C7.99562 5.90407 7.8114 6.01149 7.61995 6.01149C7.54455 6.01149 7.46931 5.99469 7.39899 5.96138L7.39841 5.96111C6.38497 5.47684 5.26767 5.22227 4.07493 5.20693L4.07485 5.20693C3.79065 5.20316 3.56428 4.96963 3.56729 4.68676L3.5673 4.68626ZM4.07981 4.82701C4.00603 4.82599 3.94657 4.7652 3.94722 4.69105L4.07981 4.82701ZM3.94722 4.69105C3.94832 4.61819 4.00926 4.55825 4.08354 4.55864C5.37054 4.57547 6.57932 4.85092 7.67765 5.37597C7.74506 5.40819 7.77323 5.48813 7.74112 5.55531L7.74109 5.55537C7.71828 5.60313 7.67073 5.63154 7.61995 5.63154C7.60138 5.63154 7.58171 5.62747 7.56186 5.6181C6.49613 5.10892 5.32437 4.84302 4.07989 4.82701" fill="white"/>
<path d="M4.07737 6.5515C5.29607 6.56717 6.44068 6.82744 7.48032 7.32423C7.52544 7.3456 7.57293 7.35605 7.61995 7.35605C7.74106 7.35605 7.85695 7.28813 7.91252 7.17177C7.98993 7.00982 7.92154 6.81652 7.75959 6.7391C6.63493 6.20147 5.39865 5.9203 4.08544 5.90321C3.90781 5.89323 3.75963 6.04426 3.75726 6.22332C3.75536 6.40189 3.89832 6.54913 4.07737 6.5515Z" fill="white"/>
<path fill-rule="evenodd" clip-rule="evenodd" d="M4.09155 5.71329C5.42941 5.7312 6.69173 6.01806 7.84152 6.5677C8.098 6.6903 8.20662 6.99692 8.08395 7.25364C7.99562 7.4386 7.8114 7.54603 7.61995 7.54603C7.54455 7.54603 7.46931 7.52922 7.39899 7.49592L7.39841 7.49564C6.38497 7.01137 5.26767 6.7568 4.07493 6.74146L4.07485 6.74146C3.79065 6.73769 3.56428 6.50416 3.56729 6.22129L3.5673 6.2208C3.57094 5.94588 3.79767 5.69944 4.09155 5.71329ZM4.07981 6.36154C4.00602 6.36052 3.94657 6.29974 3.94722 6.22558L4.07981 6.36154ZM3.94722 6.22558C3.94844 6.14395 4.01568 6.08956 4.07479 6.09288L4.07888 6.09311L4.08297 6.09317C5.37018 6.10993 6.57916 6.38538 7.67765 6.9105C7.74506 6.94272 7.77323 7.02266 7.74112 7.08984L7.74109 7.08991C7.71828 7.13767 7.67073 7.16607 7.61995 7.16607C7.60138 7.16607 7.58171 7.16201 7.56186 7.15264C6.49613 6.64346 5.32437 6.37756 4.07989 6.36154" fill="white"/>
</svg>
