<svg xmlns="http://www.w3.org/2000/svg" xmlns:xlink="http://www.w3.org/1999/xlink" width="20" height="20" viewBox="0 0 20 20">
    <defs>
        <path id="a" d="M18.955 3L17 1.045c-.41-.409-1-.681-1.59-.681-.592 0-1.183.227-1.592.681L1.41 13.41c-.045.046-.045.091-.09.136v.091l-.91 5.455c-.045.136.046.273.136.409.091.09.182.136.319.136h.09l5.455-.909H6.5c.045 0 .09-.045.136-.09L19 6.272A2.347 2.347 0 0 0 18.955 3zM3.318 18.273l-1.636-1.637.318-2 3.318 3.319-2 .318zM13.045 7.59L5.636 15a.491.491 0 0 1-.318.136A.413.413 0 0 1 5 15a.44.44 0 0 1 0-.636l7.41-7.41a.44.44 0 0 1 .635 0 .44.44 0 0 1 0 .637zm3.228.045l-3.91-3.909 1.182-1.182 3.91 3.91-1.182 1.181z"/>
    </defs>
    <g fill="none" fill-rule="evenodd">
        <mask id="b" fill="#fff">
            <use xlink:href="#a"/>
        </mask>
        <use fill="#9B9B9B" fill-rule="nonzero" xlink:href="#a"/>
        <g fill="#516173" mask="url(#b)">
            <path d="M0 .068h20v20H0z"/>
        </g>
    </g>
</svg>
