<?xml version="1.0" standalone="no"?>
<!DOCTYPE svg PUBLIC "-//W3C//DTD SVG 1.1//EN" "http://www.w3.org/Graphics/SVG/1.1/DTD/svg11.dtd" >
<svg>
<metadata>
Created by FontForge 20090914 at Wed Oct 21 08:11:16 2020
 By www-data
Copr.1994 Image Club Graphics, Inc.
</metadata>
<defs>
<font id="DigitalICG" horiz-adv-x="560" >
  <font-face 
    font-family="Digital"
    font-weight="500"
    font-stretch="normal"
    units-per-em="1000"
    panose-1="2 0 6 6 2 0 0 2 0 4"
    ascent="800"
    descent="-200"
    x-height="601"
    cap-height="795"
    bbox="-57.6693 -251 1049 1057"
    underline-thickness="16"
    underline-position="-102"
    unicode-range="U+0020-U+25CA"
  />
<missing-glyph horiz-adv-x="500" 
 />
    <glyph glyph-name=".notdef" horiz-adv-x="500" 
 />
    <glyph glyph-name="space" unicode=" " horiz-adv-x="201" 
 />
    <glyph glyph-name="exclam" unicode="!" horiz-adv-x="226" 
d="M153 455v299l-43 40l-38 -37v-303l38 -38zM153 157v181l-43 40l-38 -38v-186l38 -37zM153 40l-43 38l-38 -41l38 -37z" />
    <glyph glyph-name="quotedbl" unicode="&#x22;" horiz-adv-x="310" 
d="M260 587v169l-43 40l-39 -38v-172l39 -38zM131 587v169l-43 40l-39 -38v-172l39 -38z" />
    <glyph glyph-name="numbersign" unicode="#" horiz-adv-x="719" 
d="M557 680l-36 39l-46 -37l-31 -177l33 -38l49 39zM672 452l-31 42h-101l-47 -42l31 -39h102zM360 680l-35 39l-46 -37l-32 -177l34 -38l49 39zM460 452l-32 42h-89l-46 -42l31 -39h90zM508 401l-36 39l-46 -37l-17 -95l33 -38l49 39zM637 247l-33 42h-101l-46 -42l33 -40
h101zM260 452l-32 42h-96l-47 -42l31 -39h98zM311 401l-35 39l-46 -37l-17 -95l33 -38l49 39zM424 247l-32 42h-89l-46 -42l30 -40h91zM471 192l-35 39l-46 -37l-28 -157l33 -37l49 40zM224 247l-32 42h-96l-47 -42l30 -40h99zM274 192l-36 39l-45 -37l-28 -157l33 -37
l49 40z" />
    <glyph glyph-name="dollar" unicode="$" horiz-adv-x="559" 
d="M317 814v61l-42 39l-40 -37v-63h82zM479 754l-39 42h-297l-39 -43l37 -39h299zM514 102v236l-42 40l-40 -38v-240l40 -37zM455 396l-39 42h-273l-39 -43l37 -39h276zM131 455v238l-42 40l-40 -37v-242l40 -38zM455 42l-38 40h-330l-38 -40l39 -42h328zM317 -87v62h-82
v-63l40 -38z" />
    <glyph glyph-name="percent" unicode="%" horiz-adv-x="813" 
d="M653 740l-15 53l-56 -13l-167 -286l17 -55l53 13zM315 753l-39 42h-133l-40 -43l38 -39h135zM374 556v133l-43 39l-38 -37v-136l38 -38zM708 298l-39 42h-132l-40 -43l37 -39h135zM768 102v132l-43 39l-39 -37v-136l39 -37zM131 556v133l-43 39l-39 -37v-136l39 -38z
M315 497l-39 40h-135l-38 -40l40 -42h133zM525 102v132l-43 39l-39 -37v-136l39 -37zM708 42l-39 40h-135l-37 -40l40 -42h132zM428 354l-15 51l-57 -12l-197 -334l17 -55l52 13z" />
    <glyph glyph-name="ampersand" unicode="&#x26;" horiz-adv-x="666" 
d="M455 754l-39 42h-273l-40 -43l38 -39h275zM514 455v63l-43 40l-39 -37v-67l39 -38zM618 396l-39 42h-50l-39 -43l38 -39h51zM514 102v236l-43 40l-39 -38v-240l39 -37zM455 396l-39 42h-273l-40 -43l38 -39h275zM131 455v238l-43 40l-39 -37v-242l39 -38zM455 42l-39 40
h-275l-38 -40l40 -42h273zM131 102v236l-43 40l-39 -38v-240l39 -37z" />
    <glyph glyph-name="quotesingle" unicode="'" horiz-adv-x="179" 
d="M131 587v169l-43 40l-39 -38v-172l39 -38z" />
    <glyph glyph-name="parenleft" unicode="(" horiz-adv-x="308" 
d="M256 754l-40 42h-73l-40 -43l38 -39h76zM131 455v238l-43 40l-39 -37v-242l39 -38zM131 102v236l-43 40l-39 -38v-240l39 -37zM256 42l-39 40h-76l-38 -40l40 -42h73z" />
    <glyph glyph-name="parenright" unicode=")" horiz-adv-x="304" 
d="M202 753l-40 43h-74l-39 -42l39 -40h76zM256 454v242l-40 37l-42 -40v-238l42 -39zM256 100v240l-40 38l-42 -40v-236l42 -39zM202 42l-38 40h-76l-39 -40l39 -42h74z" />
    <glyph glyph-name="asterisk" unicode="*" horiz-adv-x="332" 
d="M284 740v54l-61 1l-46 -41v-62h57zM282 566v61l-45 43h-61v-56l50 -48h56zM152 692v62l-45 41l-61 -1v-54l49 -48h57zM153 614v56h-61l-45 -43v-61h56z" />
    <glyph glyph-name="plus" unicode="+" horiz-adv-x="528" 
d="M304 388v120l-42 40l-39 -38v-124l39 -37zM479 328l-39 42h-129l-40 -42l38 -39h131zM257 328l-40 42h-129l-39 -42l38 -39h131zM304 153v120l-42 39l-39 -37v-124l39 -37z" />
    <glyph glyph-name="comma" unicode="," horiz-adv-x="200" 
d="M152 51v53h-52l-54 -83v-51h54z" />
    <glyph glyph-name="hyphen" unicode="-" horiz-adv-x="452" 
d="M401 310l-40 43l-273 -1l-39 -42l38 -39h275z" />
    <glyph glyph-name="period" unicode="." horiz-adv-x="211" 
d="M162 56l-56 55l-56 -56l56 -56z" />
    <glyph glyph-name="slash" unicode="/" horiz-adv-x="590" 
d="M545 740l-16 53l-57 -13l-167 -286l18 -55l52 13zM319 354l-15 51l-57 -12l-198 -334l17 -55l53 13z" />
    <glyph glyph-name="zero" unicode="0" 
d="M514 455v238l-43 40l-39 -37v-242l39 -38zM455 754l-39 42h-273l-40 -43l38 -39h275zM514 102v236l-43 40l-39 -38v-240l39 -37zM131 455v238l-43 40l-39 -37v-242l39 -38zM455 42l-39 40h-275l-38 -40l40 -42h273zM131 102v236l-43 40l-39 -38v-240l39 -37z" />
    <glyph glyph-name="one" unicode="1" horiz-adv-x="290" 
d="M223 795h-135l-39 -41l39 -40h58zM238 454v322l-81 -83v-238l42 -39zM238 39v299l-42 40l-39 -38v-303l39 -38z" />
    <glyph glyph-name="two" unicode="2" 
d="M514 455v238l-43 40l-39 -37v-242l39 -38zM455 754l-39 42h-275l-40 -43l38 -39h277zM455 396l-39 42h-273l-40 -43l38 -39h275zM455 42l-39 40h-275l-81 -82h356zM131 102v236l-43 40l-39 -38v-319z" />
    <glyph glyph-name="three" unicode="3" horiz-adv-x="506" 
d="M459 455v238l-42 40l-39 -37v-242l39 -38zM401 754l-40 42h-273l-39 -43l38 -39h275zM459 102v236l-42 40l-39 -38v-240l39 -37zM401 396l-40 42h-273l-39 -43l38 -39h275zM401 42l-39 40h-275l-38 -40l39 -42h273z" />
    <glyph glyph-name="four" unicode="4" 
d="M514 455v299l-43 40l-39 -37v-303l39 -38zM131 455v299l-43 40l-39 -37v-303l39 -38zM455 396l-39 42h-273l-40 -43l38 -39h275zM514 39v299l-43 40l-39 -38v-303l39 -38z" />
    <glyph glyph-name="five" unicode="5" 
d="M455 752l-39 42h-356l81 -82h275zM514 101v238l-43 39l-39 -37v-242l39 -38zM131 456v236l-82 81v-318l39 -38zM455 399l-39 39h-275l-38 -39l40 -42h273zM455 41l-39 39h-277l-38 -39l40 -43h275z" />
    <glyph glyph-name="six" unicode="6" horiz-adv-x="556" 
d="M455 754l-39 42h-273l-40 -43l38 -39h275zM514 102v236l-43 40l-39 -38v-240l39 -37zM455 396l-39 42h-273l-40 -43l38 -39h275zM131 455v238l-43 40l-39 -37v-242l39 -38zM455 42l-39 40h-275l-38 -40l40 -42h273zM131 102v236l-43 40l-39 -38v-240l39 -37z" />
    <glyph glyph-name="seven" unicode="7" horiz-adv-x="501" 
d="M455 455v318l-82 -80v-236l43 -40zM444 795h-356l-39 -42l39 -40h275zM455 38v303l-39 38l-43 -40v-298l43 -41z" />
    <glyph glyph-name="eight" unicode="8" horiz-adv-x="556" 
d="M514 455v238l-43 40l-39 -37v-242l39 -38zM455 754l-40 41h-273l-39 -42l38 -39h275zM514 102v236l-43 40l-39 -38v-240l39 -37zM455 396l-39 42h-273l-40 -43l38 -39h275zM131 455v238l-43 40l-39 -37v-242l39 -38zM455 42l-39 40h-275l-38 -40l40 -42h273zM131 102v236
l-43 40l-39 -38v-240l39 -37z" />
    <glyph glyph-name="nine" unicode="9" 
d="M514 455v238l-43 40l-39 -37v-242l39 -38zM455 754l-39 42h-273l-40 -43l38 -39h275zM514 102v236l-43 40l-39 -38v-240l39 -37zM455 396l-39 42h-273l-40 -43l38 -39h275zM131 455v238l-43 40l-39 -37v-242l39 -38zM455 42l-39 40h-275l-38 -40l40 -42h273z" />
    <glyph glyph-name="colon" unicode=":" horiz-adv-x="211" 
d="M162 432l-56 56l-55 -56l55 -56zM162 56l-56 55l-55 -55l55 -57z" />
    <glyph glyph-name="semicolon" unicode=";" horiz-adv-x="231" 
d="M181 432l-55 56l-57 -56l57 -56zM155 48v56h-52l-54 -83v-51h54z" />
    <glyph glyph-name="less" unicode="&#x3c;" horiz-adv-x="475" 
d="M432 495v57h-54l-329 -159v-54h57zM432 91v57l-326 156l-57 1v-55l329 -159h54z" />
    <glyph glyph-name="equal" unicode="=" horiz-adv-x="452" 
d="M401 393l-40 43h-271l-41 -43l38 -39h275zM401 227l-40 43l-273 -1l-39 -42l38 -39h275z" />
    <glyph glyph-name="greater" unicode="&#x3e;" horiz-adv-x="478" 
d="M432 339v54l-329 159h-54v-57l327 -156h56zM432 250v55l-56 -1l-327 -156v-57h54z" />
    <glyph glyph-name="question" unicode="?" 
d="M514 455v238l-43 40l-39 -37v-242l39 -38zM455 754l-39 42h-273l-40 -43l38 -39h275zM455 396l-39 42h-273l-40 -43l38 -39h275zM131 157v181l-43 40l-39 -38v-185l39 -37zM131 40l-43 38l-39 -41l39 -37z" />
    <glyph glyph-name="at" unicode="@" horiz-adv-x="780" 
d="M738 436c0 44 -9.83008 84.001 -29.4971 120.001s-45.5 66.667 -77.5 92s-68.833 45 -110.5 59s-84.5 21 -128.5 21c-50 0 -97.167 -9.66699 -141.5 -29s-82.833 -45.5 -115.5 -78.5s-58.667 -71.833 -78 -116.5s-29 -92 -29 -142c0 -51.333 9.66699 -99.5 29 -144.5
s45.666 -84.167 78.999 -117.5s72.5 -59.833 117.5 -79.5s93.167 -29.5 144.5 -29.5s96.166 6.83301 134.499 20.5s70.166 29.834 95.499 48.501s46 37.834 62 57.501s27.167 35.667 33.5 48l10.5 20.5h-66c0 -0.666992 -2.33301 -5.66699 -7 -15s-13 -21.333 -25 -36
s-28 -28.834 -48 -42.501s-45.667 -25.5 -77 -35.5s-68.333 -15 -111 -15c-44 0 -85.333 8.5 -124 25.5s-72.334 40.333 -101.001 70s-51.334 64.167 -68.001 103.5s-25 81 -25 125c0 42.667 8.16699 82.834 24.5 120.501s38.5 70.5 66.5 98.5s60.833 50.167 98.5 66.5
s77.834 24.5 120.501 24.5c36.667 0 72.5 -5.33301 107.5 -16s66.167 -26.334 93.5 -47.001s49.333 -46.5 66 -77.5s25 -66.833 25 -107.5c0 -29.333 -4.83301 -59 -14.5 -89s-22.167 -57 -37.5 -81s-33 -43.667 -53 -59s-40.333 -23 -61 -23c-5.33301 0 -9.5 2 -12.5 6
s-5 9 -6 15s-1.16699 12.5 -0.5 19.5s1.66699 13.5 3 19.5l78 288l-86 -2l-20 -62l-10 28c-5.33301 16.667 -15.166 28.5 -29.499 35.5s-30.5 10.5 -48.5 10.5c-22 0 -46 -5.5 -72 -16.5s-50.167 -26.333 -72.5 -46s-41 -43.334 -56 -71.001s-22.5 -58.167 -22.5 -91.5
c0 -20 3.16699 -39.5 9.5 -58.5s15.5 -35.833 27.5 -50.5s26.333 -26.334 43 -35.001s35 -13 55 -13c20.667 0 38.5 3.5 53.5 10.5s29.167 18.167 42.5 33.5l30 34l2 -13c1.33301 -8.66699 4.5 -18 9.5 -28s12.5 -19.333 22.5 -28s23.333 -13 40 -13
c32.667 0 63.5 8.16699 92.5 24.5s54.5 38 76.5 65s39.333 57.667 52 92s19 69.833 19 106.5zM455.003 420.001c0 -19.333 -3.66797 -42.667 -11.001 -70s-17 -53.5 -29 -78.5s-26.167 -46.333 -42.5 -64s-33.5 -26.5 -51.5 -26.5c-12.667 0 -23.334 2.5 -32.001 7.5
s-15.667 11.333 -21 19s-9.16602 16.5 -11.499 26.5s-3.5 20 -3.5 30c0 25.333 4.33301 52.333 13 81s19.834 55 33.501 79s29 44 46 60s33.833 24 50.5 24c19.333 0 34 -8.33301 44 -25s15 -37.667 15 -63z" />
    <glyph glyph-name="A" unicode="A" 
d="M513 455v238l-42 40l-39 -37v-242l39 -38zM454 754l-40 41h-273l-38 -42l37 -39h275zM454 396l-40 42h-273l-38 -43l37 -39h275zM130 455v238l-43 40l-39 -37v-242l39 -38zM513 39v299l-42 40l-39 -38v-303l39 -38zM130 39v299l-43 40l-39 -38v-303l39 -38z" />
    <glyph glyph-name="B" unicode="B" 
d="M514 455v238l-43 40l-39 -37v-242l39 -38zM455 754l-39 42h-352l77 -82h275zM514 102v236l-43 40l-39 -38v-240l39 -37zM131 455v238l-82 83v-322l39 -38zM455 396l-39 42h-273l-40 -43l38 -39h275zM455 42l-39 40h-275l-81 -82h356zM131 102v236l-43 40l-39 -38v-319z
" />
    <glyph glyph-name="C" unicode="C" horiz-adv-x="504" 
d="M455 754l-39 42h-273l-40 -43l38 -39h275zM131 455v238l-43 40l-39 -37v-242l39 -38zM455 42l-39 40h-275l-38 -40l40 -42h273zM131 102v236l-43 40l-39 -38v-240l39 -37z" />
    <glyph glyph-name="D" unicode="D" horiz-adv-x="556" 
d="M514 455v238l-43 40l-39 -37v-242l39 -38zM455 754l-39 42h-352l77 -82h275zM514 102v236l-43 40l-39 -38v-240l39 -37zM131 455v238l-82 83v-322l39 -38zM455 42l-39 40h-275l-81 -82h356zM131 102v236l-43 40l-39 -38v-319z" />
    <glyph glyph-name="E" unicode="E" horiz-adv-x="504" 
d="M455 754l-39 42h-352l77 -82h275zM131 455v238l-82 83v-322l39 -38zM455 396l-39 42h-273l-40 -43l38 -39h275zM455 42l-39 40h-275l-81 -82h356zM131 102v236l-43 40l-39 -38v-319z" />
    <glyph glyph-name="F" unicode="F" horiz-adv-x="484" 
d="M455 753l-39 42h-352l77 -82h275zM131 455v237l-82 83v-321l39 -38zM455 396l-39 42h-273l-40 -43l38 -39h275zM131 39v299l-43 40l-39 -38v-303l39 -38z" />
    <glyph glyph-name="G" unicode="G" horiz-adv-x="568" 
d="M459 754l-39 42h-277l-40 -43l38 -39h280zM496 438h-133l-39 -43l38 -39h54zM514 102v317l-82 -79v-240l39 -37zM131 455v238l-43 40l-39 -37v-242l39 -38zM455 42l-39 40h-275l-38 -40l40 -42h273zM131 102v236l-43 40l-39 -38v-240l39 -37z" />
    <glyph glyph-name="H" unicode="H" 
d="M514 455v299l-43 40l-39 -37v-303l39 -38zM131 455v299l-43 40l-39 -37v-303l39 -38zM455 396l-39 40h-273l-40 -41l38 -39h275zM514 39v299l-43 40l-39 -38v-303l39 -38zM131 39v299l-43 40l-39 -38v-303l39 -38z" />
    <glyph glyph-name="I" unicode="I" horiz-adv-x="224" 
d="M154 455v299l-42 40l-40 -37v-303l40 -38zM154 39v299l-42 40l-40 -38v-303l40 -38z" />
    <glyph glyph-name="J" unicode="J" 
d="M516 455v299l-43 40l-39 -37v-303l39 -38zM516 102v236l-43 40l-39 -38v-240l39 -37zM456 42l-39 40h-275l-37 -40l40 -42h272zM133 102v236l-43 40l-39 -38v-240l39 -37z" />
    <glyph glyph-name="K" unicode="K" 
d="M494 741v54h-58l-280 -280v-57h54zM131 455v299l-43 40l-39 -37v-303l39 -38zM455 396l-39 42h-273l-40 -43l38 -39h275zM514 39v299l-43 40l-39 -38v-303l39 -38zM131 39v299l-43 40l-39 -38v-303l39 -38z" />
    <glyph glyph-name="L" unicode="L" horiz-adv-x="477" 
d="M131 455v299l-43 40l-39 -37v-303l39 -38zM455 42l-39 40h-275l-81 -82h356zM131 102v236l-43 40l-39 -38v-319z" />
    <glyph glyph-name="M" unicode="M" horiz-adv-x="556" 
d="M514 455v238l-43 40l-39 -37v-242l39 -38zM455 754l-39 42h-273l-40 -43l38 -39h275zM319 582v109l-80 -1v-107l41 -38zM131 455v238l-43 40l-39 -37v-242l39 -38zM514 39v299l-43 40l-39 -38v-303l39 -38zM131 39v299l-43 40l-39 -38v-303l39 -38z" />
    <glyph glyph-name="N" unicode="N" 
d="M514 455v299l-43 40l-39 -37v-303l39 -38zM409 453v57l-197 245l-57 1l1 -55l199 -247zM131 455v299l-43 40l-39 -37v-303l39 -38zM514 39v299l-43 40l-39 -38v-303l39 -38zM131 39v299l-43 40l-39 -38v-303l39 -38z" />
    <glyph glyph-name="O" unicode="O" 
d="M514 455v238l-43 40l-39 -37v-242l39 -38zM455 754l-39 42h-273l-40 -43l38 -39h275zM514 102v236l-43 40l-39 -38v-240l39 -37zM131 455v238l-43 40l-39 -37v-242l39 -38zM455 42l-39 40h-275l-38 -40l40 -42h273zM131 102v236l-43 40l-39 -38v-240l39 -37z" />
    <glyph glyph-name="P" unicode="P" 
d="M514 455v237l-43 40l-39 -37v-241l39 -38zM455 753l-39 42h-352l77 -82h275zM131 455v237l-82 83v-321l39 -38zM455 396l-39 42h-273l-40 -43l38 -39h275zM131 39v299l-43 40l-39 -38v-303l39 -38z" />
    <glyph glyph-name="Q" unicode="Q" horiz-adv-x="590" 
d="M514 455v238l-43 40l-39 -37v-242l39 -38zM455 754l-39 41h-273l-40 -42l38 -39h275zM514 172v166l-43 40l-39 -38v-170l39 -37zM131 455v238l-43 40l-39 -37v-242l39 -38zM545 -35v58l-112 111l-58 1l2 -55l113 -114zM131 102v236l-43 40l-39 -38v-240l39 -37zM378 42
l-39 40h-198l-38 -40l40 -42h196z" />
    <glyph glyph-name="R" unicode="R" 
d="M514 455v238l-43 40l-39 -37v-242l39 -38zM455 754l-39 41h-352l77 -81h275zM131 455v238l-82 83v-322l39 -38zM455 396l-39 42h-273l-40 -43l38 -39h275zM490 54l-280 280h-54v-59l275 -276h58zM131 39v299l-43 40l-39 -38v-303l39 -38z" />
    <glyph glyph-name="S" unicode="S" horiz-adv-x="559" 
d="M479 754l-39 41h-297l-39 -42l37 -39h299zM514 102v236l-42 40l-40 -38v-240l40 -37zM455 396l-39 42h-273l-39 -43l37 -39h276zM131 455v238l-42 40l-40 -37v-242l40 -38zM455 42l-38 40h-330l-38 -40l39 -42h328z" />
    <glyph glyph-name="T" unicode="T" horiz-adv-x="390" 
d="M374 754l-40 41h-273l-39 -42l38 -39h275zM238 455v237h-82v-238l39 -38zM238 39v299l-43 40l-39 -38v-303l39 -38z" />
    <glyph glyph-name="U" unicode="U" 
d="M514 455v300l-43 40l-39 -37v-304l39 -38zM131 455v300l-43 40l-39 -37v-304l39 -38zM514 102v236l-43 40l-39 -38v-240l39 -37zM455 42l-39 40h-275l-38 -40l40 -42h273zM131 102v236l-43 40l-39 -38v-240l39 -37z" />
    <glyph glyph-name="V" unicode="V" 
d="M514 455v300l-43 40l-39 -37v-304l39 -38zM131 455v300l-43 40l-39 -37v-304l39 -38zM473 340l-2 55h-58l-257 -300v-58h54zM131 37v301l-43 40l-39 -38v-304l39 -38z" />
    <glyph glyph-name="W" unicode="W" 
d="M514 456v299l-43 40l-39 -37v-304l39 -37zM131 456v299l-43 40l-39 -37v-304l39 -37zM514 101v238l-43 39l-39 -38v-241l39 -38zM319 103v109l-39 38l-41 -39v-108h80zM455 41l-39 39h-275l-38 -39l40 -43h273zM131 101v238l-43 39l-39 -38v-241l39 -38z" />
    <glyph glyph-name="X" unicode="X" horiz-adv-x="558" 
d="M511 741v54h-56l-157 -327l-1 -55l55 -1zM264 413v55l-157 327h-58l1 -54l160 -329zM511 -1v54l-159 329h-55l1 -56l157 -327h56zM264 326v56h-54l-160 -329l-1 -54h58z" />
    <glyph glyph-name="Y" unicode="Y" 
d="M514 455v299l-43 40l-39 -37v-303l39 -38zM131 455v299l-43 40l-39 -37v-303l39 -38zM514 102v236l-43 40l-39 -38v-240l39 -37zM455 396l-39 42h-273l-40 -43l38 -39h275zM455 42l-39 40h-328l-37 -40l40 -42h325z" />
    <glyph glyph-name="Z" unicode="Z" horiz-adv-x="507" 
d="M455 754l-39 41h-328l-39 -42l38 -39h330zM416 622l-1 70h-55l-119 -225l20 -50l55 18zM269 343l-20 51l-55 -17l-100 -202v-69h60zM455 42l-38 40h-330l-38 -40l39 -42h328z" />
    <glyph glyph-name="bracketleft" unicode="[" horiz-adv-x="311" 
d="M258 754l-39 42h-155l77 -82h78zM131 455v238l-82 83v-322l39 -38zM131 102v236l-43 40l-39 -38v-319zM258 42l-39 40h-78l-81 -82h159z" />
    <glyph glyph-name="backslash" unicode="\" horiz-adv-x="591" 
d="M288 494l-167 286l-57 13l-15 -53l169 -288l53 -13zM545 59l-198 334l-57 12l-15 -51l200 -337l52 -13z" />
    <glyph glyph-name="bracketright" unicode="]" horiz-adv-x="307" 
d="M243 795h-155l-39 -41l39 -40h78zM258 454v322l-82 -83v-238l43 -39zM258 21v319l-39 38l-43 -40v-236zM247 0l-81 82h-78l-39 -40l39 -42h159z" />
    <glyph glyph-name="asciicircum" unicode="^" horiz-adv-x="382" 
d="M334 667v59l-71 69h-59v-57l73 -71h57zM179 738v57h-59l-71 -69v-59h57z" />
    <glyph glyph-name="underscore" unicode="_" horiz-adv-x="692" 
d="M718 -176v35h-723v-35h723z" />
    <glyph glyph-name="grave" unicode="`" horiz-adv-x="333" 
d="M285 641l-12 57l-168 97l-56 -17l15 -54l169 -98z" />
    <glyph glyph-name="a" unicode="a" horiz-adv-x="486" 
d="M436 351v149l-43 40l-39 -38v-152l39 -38zM376 560l-39 43h-194l-40 -43l38 -39h196zM376 292l-39 41l-194 1l-40 -42l38 -40h196zM436 40v194l-43 39l-39 -37v-199l39 -37zM131 351v149l-43 40l-39 -38v-152l39 -38zM131 40v194l-43 39l-39 -37v-199l39 -37z" />
    <glyph glyph-name="b" unicode="b" horiz-adv-x="486" 
d="M436 351v149l-43 40l-39 -38v-152l39 -38zM376 560l-39 43h-277l81 -82h196zM436 102v132l-43 39l-39 -37v-136l39 -37zM131 351v149l-82 77v-227l39 -38zM376 292l-39 42h-194l-40 -42l38 -40h196zM376 42l-39 40h-196l-77 -82h273zM131 102v132l-43 39l-39 -37v-215z
" />
    <glyph glyph-name="c" unicode="c" horiz-adv-x="424" 
d="M376 560l-39 43h-194l-40 -43l38 -39h196zM131 102v400l-43 40l-39 -37v-405l39 -37zM376 42l-39 40h-196l-38 -40l40 -42h194z" />
    <glyph glyph-name="d" unicode="d" horiz-adv-x="486" 
d="M436 351v149l-43 40l-39 -38v-152l39 -38zM376 560l-39 43h-277l81 -82h196zM436 102v132l-43 39l-39 -37v-136l39 -37zM131 351v149l-82 77v-227l39 -38zM376 42l-39 40h-196l-77 -82h273zM131 102v132l-43 39l-39 -37v-215z" />
    <glyph glyph-name="e" unicode="e" horiz-adv-x="422" 
d="M376 560l-39 43h-194l-40 -43l38 -39h196zM376 292l-39 42h-194l-40 -42l38 -40h196zM131 351v149l-43 40l-39 -38v-152l39 -38zM376 42l-39 40h-196l-38 -40l40 -42h194zM131 102v132l-43 39l-39 -37v-136l39 -37z" />
    <glyph glyph-name="f" unicode="f" horiz-adv-x="400" 
d="M376 560l-39 43h-194l-40 -43l38 -39h196zM376 292l-39 42h-194l-40 -42l38 -40h196zM131 351v149l-43 40l-39 -38v-152l39 -38zM131 37v197l-43 39l-39 -37v-200l39 -38z" />
    <glyph glyph-name="g" unicode="g" horiz-adv-x="486" 
d="M376 560l-39 42l-194 1l-40 -43l38 -39h196zM419 334h-137l-39 -42l38 -40h56zM436 102v214l-82 -80v-136l39 -37zM131 351v149l-43 40l-39 -38v-152l39 -38zM376 42l-39 40h-196l-38 -40l40 -42h194zM131 102v132l-43 39l-39 -37v-136l39 -37z" />
    <glyph glyph-name="h" unicode="h" horiz-adv-x="486" 
d="M436 351v213l-43 40l-39 -37v-217l39 -38zM131 351v213l-43 40l-39 -37v-217l39 -38zM376 292l-39 42h-194l-40 -42l38 -40h196zM436 37v197l-43 39l-39 -37v-200l39 -38zM131 37v197l-43 39l-39 -37v-200l39 -38z" />
    <glyph glyph-name="i" unicode="i" horiz-adv-x="224" 
d="M154 349v213l-42 40l-40 -38v-217l40 -37zM154 35v197l-42 39l-40 -37v-201l40 -38z" />
    <glyph glyph-name="j" unicode="j" horiz-adv-x="486" 
d="M436 351v210l-43 39l-39 -37v-213l39 -38zM436 102v132l-43 39l-39 -37v-136l39 -37zM376 42l-39 40h-196l-38 -40l40 -42h194zM131 102v132l-43 39l-39 -37v-136l39 -37z" />
    <glyph glyph-name="k" unicode="k" horiz-adv-x="483" 
d="M427 549v54h-62l-212 -184v-60l57 1zM131 351v213l-43 40l-39 -37v-217l39 -38zM376 292l-39 42h-194l-40 -42l38 -40h196zM436 37v197l-43 39l-39 -37v-200l39 -38zM131 37v197l-43 39l-39 -37v-200l39 -38z" />
    <glyph glyph-name="l" unicode="l" horiz-adv-x="398" 
d="M131 351v213l-43 40l-39 -37v-217l39 -38zM376 42l-39 40h-196l-77 -82h273zM131 102v132l-43 39l-39 -37v-215z" />
    <glyph glyph-name="m" unicode="m" horiz-adv-x="483" 
d="M436 351v149l-43 40l-39 -38v-152l39 -38zM376 560l-39 43h-194l-40 -43l38 -39h196zM286 413v86h-82v-86l39 -39zM436 39v195l-43 39l-39 -37v-199l39 -38zM131 351v149l-43 40l-39 -38v-152l39 -38zM131 39v195l-43 39l-39 -37v-199l39 -38z" />
    <glyph glyph-name="n" unicode="n" horiz-adv-x="486" 
d="M436 351v213l-43 40l-39 -37v-217l39 -38zM339 350v59l-131 155h-59v-56l134 -158h56zM131 351v213l-43 40l-39 -37v-217l39 -38zM436 37v197l-43 39l-39 -37v-200l39 -38zM131 37v197l-43 39l-39 -37v-200l39 -38z" />
    <glyph glyph-name="o" unicode="o" horiz-adv-x="486" 
d="M436 351v149l-43 40l-39 -38v-152l39 -38zM376 560l-39 43h-194l-40 -43l38 -39h196zM436 102v132l-43 39l-39 -37v-136l39 -37zM131 351v149l-43 40l-39 -38v-152l39 -38zM376 42l-39 40h-196l-38 -40l40 -42h194zM131 102v132l-43 39l-39 -37v-136l39 -37z" />
    <glyph glyph-name="p" unicode="p" horiz-adv-x="483" 
d="M436 351v149l-43 40l-39 -38v-152l39 -38zM376 560l-39 43h-273l77 -82h196zM131 351v149l-82 79v-229l39 -38zM376 292l-39 42h-194l-40 -42l38 -40h196zM131 39v195l-43 39l-39 -37v-199l39 -38z" />
    <glyph glyph-name="q" unicode="q" horiz-adv-x="483" 
d="M436 351v149l-43 40l-39 -38v-152l39 -38zM376 560l-39 43h-194l-40 -43l38 -39h196zM436 148v86l-43 39l-39 -37v-90l39 -37zM131 351v149l-43 40l-39 -38v-152l39 -38zM423 -2l-1 58l-80 81h-57v-54l83 -84zM131 102v132l-43 39l-39 -37v-136l39 -37zM302 42l-39 40
h-122l-38 -40l40 -42h118z" />
    <glyph glyph-name="r" unicode="r" horiz-adv-x="483" 
d="M436 351v149l-43 40l-39 -38v-152l39 -38zM376 560l-39 43h-273l77 -82h196zM131 351v149l-82 79v-229l39 -38zM376 292l-39 42h-194l-40 -42l38 -40h196zM386 -2v58l-177 177h-58l-1 -55l178 -180h58zM131 39v195l-43 39l-39 -37v-199l39 -38z" />
    <glyph glyph-name="s" unicode="s" horiz-adv-x="483" 
d="M411 560l-39 43h-229l-40 -43l38 -39h231zM436 102v132l-43 39l-39 -37v-136l39 -37zM376 292l-39 42h-194l-40 -42l38 -40h196zM131 351v149l-43 40l-39 -38v-152l39 -38zM376 42l-39 40h-235l-38 -40l39 -42h234z" />
    <glyph glyph-name="t" unicode="t" horiz-adv-x="378" 
d="M351 560l-39 43h-242l-40 -43l38 -39h244zM228 351v147h-81v-148l39 -38zM228 39v195l-42 39l-39 -37v-199l39 -38z" />
    <glyph glyph-name="u" unicode="u" horiz-adv-x="483" 
d="M436 351v213l-43 39l-39 -38v-215l39 -38zM436 102v132l-43 39l-39 -37v-136l39 -37zM131 351v213l-43 39l-39 -38v-215l39 -38zM376 42l-39 40h-196l-38 -40l40 -42h194zM131 102v132l-43 39l-39 -37v-136l39 -37z" />
    <glyph glyph-name="v" unicode="v" horiz-adv-x="483" 
d="M436 351v213l-43 40l-39 -37v-217l39 -38zM131 351v213l-43 40l-39 -37v-217l39 -38zM393 228v58l-58 -1l-186 -185l-1 -59h57zM131 37v197l-43 39l-39 -37v-200l39 -38z" />
    <glyph glyph-name="w" unicode="w" horiz-adv-x="483" 
d="M436 366v196l-43 39l-39 -37v-200l39 -37zM436 100v149l-43 40l-39 -39v-151l39 -38zM131 366v196l-43 39l-39 -37v-200l39 -37zM286 101v87l-43 39l-39 -39v-87h82zM376 41l-39 39h-196l-38 -39l40 -41h194zM131 100v149l-43 40l-39 -39v-151l39 -38z" />
    <glyph glyph-name="x" unicode="x" horiz-adv-x="463" 
d="M413 545v57h-59l-112 -232v-58h57zM219 312v58l-111 232h-59v-57l114 -233h56zM413 0v56l-114 235h-57v-60l112 -231h59zM219 231v60h-56l-114 -235v-56h59z" />
    <glyph glyph-name="y" unicode="y" horiz-adv-x="483" 
d="M436 351v213l-43 39l-39 -38v-215l39 -38zM436 102v132l-43 39l-39 -37v-136l39 -37zM131 351v213l-43 39l-39 -38v-215l39 -38zM376 292l-39 42h-194l-40 -42l38 -40h196zM376 42l-39 40h-223l-37 -40l40 -42h220z" />
    <glyph glyph-name="z" unicode="z" horiz-adv-x="425" 
d="M374 560l-39 43h-244l-39 -43l37 -39h246zM334 446v56h-58l-80 -131l15 -56l55 14zM224 251l-16 55l-55 -15l-64 -129v-58h54zM374 42l-39 40h-248l-38 -40l39 -42h247z" />
    <glyph glyph-name="braceleft" unicode="{" horiz-adv-x="416" 
d="M367 754l-39 42h-74l-39 -43l38 -39h75zM242 455v238l-42 40l-39 -37v-242l39 -38zM181 396l-38 40h-55l-39 -41l38 -39h55zM242 102v236l-42 40l-39 -38v-240l39 -37zM367 42l-39 40h-75l-38 -40l39 -42h74z" />
    <glyph glyph-name="bar" unicode="|" horiz-adv-x="182" 
d="M131 359v395l-43 40l-39 -37v-399l39 -38zM131 -163v405l-43 39l-39 -37v-409l39 -37z" />
    <glyph glyph-name="braceright" unicode="}" horiz-adv-x="416" 
d="M202 753l-40 42h-74l-39 -41l39 -40h76zM256 454v242l-40 37l-42 -40v-238l42 -39zM367 395l-39 41h-55l-38 -40l39 -40h56zM256 100v240l-40 38l-42 -40v-236l42 -39zM202 42l-38 40h-76l-39 -40l39 -42h74z" />
    <glyph glyph-name="asciitilde" unicode="~" horiz-adv-x="389" 
d="M339 738v57h-59l-69 -37l1 37h-59l-104 -55v-56h57l70 36v-36h56z" />
    <glyph glyph-name="nonbreakingspace" unicode="&#xa0;" horiz-adv-x="405" 
 />
    <glyph glyph-name="exclamdown" unicode="&#xa1;" horiz-adv-x="223" 
d="M153 548l-43 39l-38 -37l38 -40zM153 250v181l-43 40l-38 -38v-186l38 -37zM153 -167v299l-43 40l-38 -38v-303l38 -38z" />
    <glyph glyph-name="cent" unicode="&#xa2;" horiz-adv-x="421" 
d="M272 662v87l-43 40l-41 -41v-86h84zM376 595l-39 43h-194l-40 -43l38 -39h196zM131 295v243l-43 39l-39 -37v-247l39 -38zM376 235l-39 39h-196l-38 -39l40 -42l194 -1zM272 83v86h-84v-85l41 -41z" />
    <glyph glyph-name="sterling" unicode="&#xa3;" horiz-adv-x="556" 
d="M455 754l-39 41h-273l-40 -42l38 -39h275zM455 396l-39 42h-273l-40 -43l38 -39h275zM131 455v238l-43 40l-39 -37v-242l39 -38zM514 19v188l-43 39l-39 -37v-109zM496 0l-80 82h-275l-81 -82h436zM131 102v236l-43 40l-39 -38v-319z" />
    <glyph glyph-name="yen" unicode="&#xa5;" 
d="M514 455v299l-43 40l-39 -37v-303l39 -38zM131 455v299l-43 40l-39 -37v-303l39 -38zM455 396l-39 42h-273l-40 -43l38 -39h275zM457 127l-39 42h-96v42h96l39 40l-39 42h-95v36h-82v-36h-96l-39 -43l38 -39h97v-42h-96l-39 -43l38 -39h97v-50l40 -37l42 40v47h95z" />
    <glyph glyph-name="section" unicode="&#xa7;" horiz-adv-x="607" 
d="M559 250c0 20.667 -3.50391 39.499 -10.5039 56.499s-16.5 32.5 -28.5 46.5s-25.833 26.833 -41.5 38.5s-32.5 22.834 -50.5 33.501l-163 101c-13.333 8 -25.666 17 -36.999 27s-20.666 20.833 -27.999 32.5s-12.333 24.167 -15 37.5s-2.33398 27.666 0.999023 42.999
c4 18.667 13 34.334 27 47.001s30.333 21.834 49 27.501s38.167 8 58.5 7s38.833 -5.5 55.5 -13.5c25.333 -13.333 43.333 -31 54 -53s14.334 -47 11.001 -75l63 -1c0.666992 28.667 -3.5 55.5 -12.5 80.5s-22.167 46.667 -39.5 65s-38.666 32.833 -63.999 43.5
s-53.333 16 -84 16c-24 0 -47.5 -4 -70.5 -12s-43.167 -19.167 -60.5 -33.5s-31.5 -31.5 -42.5 -51.5s-16.5 -42 -16.5 -66c-0.666992 -26.667 3.33301 -50 12 -70s23 -38.667 43 -56l-28 -17c-28.667 -18 -50.667 -38.833 -66 -62.5s-23 -52.5 -23 -86.5
c0 -32.667 7 -60.834 21 -84.501s35 -44.834 63 -63.501l228 -151c26.667 -17.333 45 -40.5 55 -69.5s8.66699 -57.5 -4 -85.5c-8 -18.667 -20.833 -32.667 -38.5 -42s-36.834 -14.666 -57.501 -15.999s-41.334 1 -62.001 7s-38 15.333 -52 28
c-15.333 14.667 -25.833 31.167 -31.5 49.5s-7.16699 38.5 -4.5 60.5h-67c-1.33301 -28 2.83398 -54.833 12.501 -80.5s23.5 -48.167 41.5 -67.5s39.667 -34.5 65 -45.5s53.666 -16.167 84.999 -15.5c27.333 0.666992 53 5.33398 77 14.001s44.833 20.5 62.5 35.5
s31.334 32.667 41.001 53s14.167 43.166 13.5 68.499c-1.33301 28 -7 52 -17 72s-26 38.333 -48 55l33 22c28.667 19.333 50.834 40.833 66.501 64.5s23.834 52.5 24.501 86.5zM494.996 237.999c0 -25.333 -6.33203 -45.999 -18.999 -61.999s-29.667 -30.667 -51 -44
l-27 -17l-219 146c-20.667 13.333 -37.167 28.5 -49.5 45.5s-17.833 37.833 -16.5 62.5c0.666992 24 7.16699 44.167 19.5 60.5s29.166 30.166 50.499 41.499l23 12l231 -148c18.667 -11.333 33 -25 43 -41s15 -34.667 15 -56z" />
    <glyph glyph-name="dieresis" unicode="&#xa8;" horiz-adv-x="399" 
d="M351 739l-58 56l-55 -57l55 -55zM161 739l-55 56l-56 -57l56 -55z" />
    <glyph glyph-name="copyright" unicode="&#xa9;" horiz-adv-x="878" 
d="M440 8c64.667 0 121.5 11.167 170.5 33.5s89.667 51.833 122 88.5s56.666 78.334 72.999 125.001s24.5 94.334 24.5 143.001s-8.16699 96.334 -24.5 143.001s-40.666 88.334 -72.999 125.001s-73 66.167 -122 88.5s-105.833 33.5 -170.5 33.5
s-121.334 -11.167 -170.001 -33.5s-89.334 -51.833 -122.001 -88.5s-57 -78.334 -73 -125.001s-24 -94.334 -24 -143.001s8 -96.334 24 -143.001s40.333 -88.334 73 -125.001s73.334 -66.167 122.001 -88.5s105.334 -33.5 170.001 -33.5zM440 49
c-58 0 -108.833 10 -152.5 30s-80 46.333 -109 79s-50.667 69.834 -65 111.501s-21.5 84.167 -21.5 127.5c0 44 7.16699 86.833 21.5 128.5s36 78.834 65 111.501s65.333 59 109 79s94.5 30 152.5 30s108.833 -10 152.5 -30s80 -46.333 109 -79
s50.833 -69.834 65.5 -111.501s22 -84.5 22 -128.5c0 -43.333 -7.33301 -85.833 -22 -127.5s-36.5 -78.834 -65.5 -111.501s-65.333 -59 -109 -79s-94.5 -30 -152.5 -30zM633 319l-47.0029 -0.000976562c-3.33301 -19.333 -10 -37.166 -20 -53.499s-22 -30.166 -36 -41.499
s-29.5 -20 -46.5 -26s-34.167 -8 -51.5 -6c-32 3.33301 -57.833 11.166 -77.5 23.499s-34.834 27.833 -45.501 46.5s-17.834 39.5 -21.501 62.5s-5.5 46.833 -5.5 71.5c0 25.333 2.83301 50.166 8.5 74.499s14.834 46 27.501 65s29.167 34.5 49.5 46.5s45.5 18.333 75.5 19
c14.667 0.666992 29.334 -1 44.001 -5s28.167 -9.83301 40.5 -17.5s23 -17.5 32 -29.5s15.167 -25.667 18.5 -41l3 -15h47l-3 18c-4 21.333 -11.5 40.166 -22.5 56.499s-24.833 30 -41.5 41s-35 19.333 -55 25s-41 8.83398 -63 9.50098c-34.667 1.33301 -65 -5 -91 -19
s-47.667 -32.833 -65 -56.5s-30.166 -50.667 -38.499 -81s-12.5 -61.166 -12.5 -92.499c0 -30 3.33301 -59 10 -87s17.5 -53 32.5 -75s34.667 -40.167 59 -54.5s54.833 -22.5 91.5 -24.5c26.667 -2 51.334 0.833008 74.001 8.5s42.834 19 60.501 34s32.5 33 44.5 54
s20.333 44.167 25 69.5z" />
    <glyph glyph-name="ordfeminine" unicode="&#xaa;" horiz-adv-x="297" 
d="M242 429v38h-186v-38h186zM245 669v76l-22 20l-20 -20v-76l20 -18zM215 775l-19 20h-97l-20 -22l18 -18h99zM215 641l-19 20h-97l-20 -20l18 -20h99zM245 514v98l-22 18l-20 -17v-99l20 -20zM92 669v76l-21 20l-19 -20v-76l19 -18zM92 514v98l-21 18l-19 -17v-99l19 -20z
" />
    <glyph glyph-name="guillemotleft" unicode="&#xab;" horiz-adv-x="608" 
d="M563 422v110l-228 -168v-112l224 -175v117l-158 112zM277 422v110l-228 -168v-112l224 -175v117l-158 112z" />
    <glyph glyph-name="logicalnot" unicode="&#xac;" horiz-adv-x="874" 
d="M830 0v332h-781v-59h717v-273h64z" />
    <glyph glyph-name="registered" unicode="&#xae;" horiz-adv-x="878" 
d="M440 8c64.667 0 121.5 11.167 170.5 33.5s89.667 51.833 122 88.5s56.666 78.334 72.999 125.001s24.5 94.334 24.5 143.001s-8.16699 96.334 -24.5 143.001s-40.666 88.334 -72.999 125.001s-73 66.167 -122 88.5s-105.833 33.5 -170.5 33.5
s-121.334 -11.167 -170.001 -33.5s-89.334 -51.833 -122.001 -88.5s-57 -78.334 -73 -125.001s-24 -94.334 -24 -143.001s8 -96.334 24 -143.001s40.333 -88.334 73 -125.001s73.334 -66.167 122.001 -88.5s105.334 -33.5 170.001 -33.5zM440 49
c-58 0 -108.833 10 -152.5 30s-80 46.333 -109 79s-50.667 69.834 -65 111.501s-21.5 84.167 -21.5 127.5c0 44 7.16699 86.833 21.5 128.5s36 78.834 65 111.501s65.333 59 109 79s94.5 30 152.5 30s108.833 -10 152.5 -30s80 -46.333 109 -79
s50.833 -69.834 65.5 -111.501s22 -84.5 22 -128.5c0 -43.333 -7.33301 -85.833 -22 -127.5s-36.5 -78.834 -65.5 -111.501s-65.333 -59 -109 -79s-94.5 -30 -152.5 -30zM626 158l-5.5 8.99609c-1.66699 2.66699 -3.16699 5.66699 -4.5 9c-6 17.333 -9.16699 33.333 -9.5 48
s-0.166016 28.834 0.500977 42.501s0.5 27.167 -0.5 40.5s-5.5 27.666 -13.5 42.999c-5.33301 10.667 -11.666 18.334 -18.999 23.001s-16 9.66699 -26 15c25.333 10.667 45.166 25.334 59.499 44.001s20.5 42.667 18.5 72c-2 26 -8.16699 47 -18.5 63
s-23.5 28.333 -39.5 37s-33.833 14.5 -53.5 17.5s-39.834 4.5 -60.501 4.5h-172v-468h46v212h124c14 0 26.333 -0.166992 37 -0.5s22 -3.83301 34 -10.5c16 -8.66699 26.333 -21.167 31 -37.5s7.33398 -34.166 8.00098 -53.499s1.16699 -38.666 1.5 -57.999
s4.16602 -36.333 11.499 -51c0 -0.666992 1 -1 3 -1h48zM581 498.996c0.666992 -18.667 -2.66504 -33.835 -9.99805 -45.502s-16.833 -20.667 -28.5 -27s-24.834 -10.666 -39.501 -12.999s-29.334 -3.5 -44.001 -3.5l-131 -1v178h134c14 0 28 -1.16699 42 -3.5
s26.667 -6.66602 38 -12.999s20.5 -15.333 27.5 -27s10.833 -26.5 11.5 -44.5z" />
    <glyph glyph-name="degree" unicode="&#xb0;" horiz-adv-x="412" 
d="M300 753l-38 42h-119l-40 -42l38 -40h121zM360 576v113l-43 40l-39 -37v-117l39 -38zM131 576v113l-43 40l-39 -37v-117l39 -38zM300 517l-38 39h-121l-38 -39l40 -42l119 -1z" />
    <glyph glyph-name="plusminus" unicode="&#xb1;" horiz-adv-x="535" 
d="M488 320v54h-190v191h-51v-191h-189l-1 -54h190v-191h50v191h191zM484 -2v42h-435v-42h435z" />
    <glyph glyph-name="acute" unicode="&#xb4;" horiz-adv-x="333" 
d="M285 778l-55 17l-168 -97l-13 -57l52 -15l170 98z" />
    <glyph glyph-name="mu" unicode="&#xb5;" horiz-adv-x="678" 
d="M630 113l-20.0029 0.00292969l-9 -30c-3.33301 -13.333 -9 -24.333 -17 -33s-18.667 -14.334 -32 -17.001c-11.333 -2 -21.333 -0.333008 -30 5s-16 12.666 -22 21.999s-10.5 19.833 -13.5 31.5s-4.5 23.167 -4.5 34.5v442h-93v-392
c0 -16.667 -4.83301 -32.167 -14.5 -46.5s-21.667 -27 -36 -38s-29.833 -19.833 -46.5 -26.5s-32 -10 -46 -10c-15.333 0 -29.333 3.33301 -42 10s-23.5 15.667 -32.5 27s-16 24.333 -21 39s-7.5 29.667 -7.5 45v392h-96v-569c0 -6 -0.166992 -11.333 -0.5 -16
s-0.833008 -10 -1.5 -16c-1.33301 -14.667 -4 -27.334 -8 -38.001l-12 -32c-4 -10.667 -7.5 -22.334 -10.5 -35.001s-4.16699 -28 -3.5 -46c0.666992 -17.333 5.66699 -32.666 15 -45.999s22.333 -20.333 39 -21c9.33301 0 17.5 2.16699 24.5 6.5s13 10 18 17
s8.66699 14.833 11 23.5s3.5 17.667 3.5 27c0 21.333 -2.16699 39.666 -6.5 54.999s-8.83301 29.5 -13.5 42.5s-9 26.333 -13 40s-6 29.834 -6 48.501v40c8 -11.333 17.833 -21.166 29.5 -29.499s23.5 -15.166 35.5 -20.499s23.667 -9.5 35 -12.5s21 -4.5 29 -4.5
c20.667 0 44.334 7.66699 71.001 23s51.334 34.666 74.001 57.999l29 28c0.666992 -14.667 4 -28.334 10 -41.001s13.667 -24 23 -34s19.833 -18.167 31.5 -24.5s23.5 -10.5 35.5 -12.5c10.667 -2 23.167 -0.833008 37.5 3.5s28.333 10.833 42 19.5s25.834 19.5 36.501 32.5
s17.667 27.5 21 43.5z" />
    <glyph glyph-name="mu" unicode="&#x3bc;" horiz-adv-x="678" 
d="M630 113l-20.0029 0.00292969l-9 -30c-3.33301 -13.333 -9 -24.333 -17 -33s-18.667 -14.334 -32 -17.001c-11.333 -2 -21.333 -0.333008 -30 5s-16 12.666 -22 21.999s-10.5 19.833 -13.5 31.5s-4.5 23.167 -4.5 34.5v442h-93v-392
c0 -16.667 -4.83301 -32.167 -14.5 -46.5s-21.667 -27 -36 -38s-29.833 -19.833 -46.5 -26.5s-32 -10 -46 -10c-15.333 0 -29.333 3.33301 -42 10s-23.5 15.667 -32.5 27s-16 24.333 -21 39s-7.5 29.667 -7.5 45v392h-96v-569c0 -6 -0.166992 -11.333 -0.5 -16
s-0.833008 -10 -1.5 -16c-1.33301 -14.667 -4 -27.334 -8 -38.001l-12 -32c-4 -10.667 -7.5 -22.334 -10.5 -35.001s-4.16699 -28 -3.5 -46c0.666992 -17.333 5.66699 -32.666 15 -45.999s22.333 -20.333 39 -21c9.33301 0 17.5 2.16699 24.5 6.5s13 10 18 17
s8.66699 14.833 11 23.5s3.5 17.667 3.5 27c0 21.333 -2.16699 39.666 -6.5 54.999s-8.83301 29.5 -13.5 42.5s-9 26.333 -13 40s-6 29.834 -6 48.501v40c8 -11.333 17.833 -21.166 29.5 -29.499s23.5 -15.166 35.5 -20.499s23.667 -9.5 35 -12.5s21 -4.5 29 -4.5
c20.667 0 44.334 7.66699 71.001 23s51.334 34.666 74.001 57.999l29 28c0.666992 -14.667 4 -28.334 10 -41.001s13.667 -24 23 -34s19.833 -18.167 31.5 -24.5s23.5 -10.5 35.5 -12.5c10.667 -2 23.167 -0.833008 37.5 3.5s28.333 10.833 42 19.5s25.834 19.5 36.501 32.5
s17.667 27.5 21 43.5z" />
    <glyph glyph-name="paragraph" unicode="&#xb6;" horiz-adv-x="593" 
d="M546 -205l0.00195312 1000h-277c-31.333 0 -60.333 -5.83301 -87 -17.5s-49.834 -27.334 -69.501 -47.001s-35 -42.834 -46 -69.501s-16.167 -55 -15.5 -85c0 -29.333 5.66699 -56.833 17 -82.5s26.666 -48 45.999 -67s41.833 -34.167 67.5 -45.5
s53.167 -17.333 82.5 -18v-568h74v924h135v-924h73z" />
    <glyph glyph-name="periodcentered" unicode="&#xb7;" horiz-adv-x="211" 
d="M162 397l-56 56l-56 -56l56 -56z" />
    <glyph glyph-name="ordmasculine" unicode="&#xba;" horiz-adv-x="291" 
d="M242 429v38h-186v-38h186zM246 669v75l-22 20l-20 -20v-76l20 -18zM215 774l-19 20h-97l-20 -21l19 -19h98zM246 544v67l-22 19l-20 -18v-69l20 -18zM93 669v75l-21 20l-20 -20v-76l20 -18zM215 515l-19 20h-98l-19 -20l20 -22h97zM93 544v67l-21 19l-20 -18v-69l20 -18z
" />
    <glyph glyph-name="guillemotright" unicode="&#xbb;" horiz-adv-x="612" 
d="M563 252v112l-228 168v-110l161 -116l-158 -112v-117zM277 252v112l-228 168v-110l162 -116l-159 -112v-117z" />
    <glyph glyph-name="questiondown" unicode="&#xbf;" 
d="M507 551l-39 38l-38 -39l38 -39zM507 249v185l-39 37l-43 -39v-181l43 -40zM453 194l-37 39h-275l-39 -40l39 -42h272zM453 -164l-37 39h-275l-39 -40l39 -42h272zM124 -107v242l-39 38l-43 -39v-238l43 -40z" />
    <glyph glyph-name="Agrave" unicode="&#xc0;" 
d="M517 455v238l-42 40l-39 -37v-242l39 -38zM458 754l-40 41h-273l-38 -42l37 -39h275zM458 396l-40 42h-273l-38 -43l37 -39h275zM134 455v238l-43 40l-39 -37v-242l39 -38zM517 39v299l-42 40l-39 -38v-303l39 -38zM134 39v299l-43 40l-39 -38v-303l39 -38zM407 901
l-13 56l-167 97l-56 -17l14 -54l170 -97z" />
    <glyph glyph-name="Aacute" unicode="&#xc1;" 
d="M513 455v238l-42 40l-39 -37v-242l39 -38zM454 754l-40 41h-273l-38 -42l37 -39h275zM454 396l-40 42h-273l-38 -43l37 -39h275zM130 455v238l-43 40l-39 -37v-242l39 -38zM513 39v299l-42 40l-39 -38v-303l39 -38zM130 39v299l-43 40l-39 -38v-303l39 -38zM399 1039
l-55 17l-168 -97l-13 -57l52 -15l170 98z" />
    <glyph glyph-name="Acircumflex" unicode="&#xc2;" 
d="M513 455v238l-42 40l-39 -37v-242l39 -38zM454 754l-40 41h-273l-38 -42l37 -39h275zM454 396l-40 42h-273l-38 -43l37 -39h275zM130 455v238l-43 40l-39 -37v-242l39 -38zM513 39v299l-42 40l-39 -38v-303l39 -38zM130 39v299l-43 40l-39 -38v-303l39 -38zM423 886v59
l-71 69h-59v-57l73 -71h57zM268 957v57h-59l-71 -69v-59h57z" />
    <glyph glyph-name="Atilde" unicode="&#xc3;" 
d="M513 455v238l-42 40l-39 -37v-242l39 -38zM454 754l-40 41h-273l-38 -42l37 -39h275zM454 396l-40 42h-273l-38 -43l37 -39h275zM130 455v238l-43 40l-39 -37v-242l39 -38zM513 39v299l-42 40l-39 -38v-303l39 -38zM130 39v299l-43 40l-39 -38v-303l39 -38zM432 941v57
h-59l-69 -37l1 37h-59l-104 -55v-56h57l70 36v-36h56z" />
    <glyph glyph-name="Adieresis" unicode="&#xc4;" horiz-adv-x="562" 
d="M513 455v238l-42 40l-39 -37v-242l39 -38zM454 754l-40 41h-273l-38 -42l37 -39h275zM454 396l-40 42h-273l-38 -43l37 -39h275zM130 455v238l-43 40l-39 -37v-242l39 -38zM513 39v299l-42 40l-39 -38v-303l39 -38zM130 39v299l-43 40l-39 -38v-303l39 -38zM430 944
l-58 56l-55 -57l55 -55zM240 944l-55 56l-56 -57l56 -55z" />
    <glyph glyph-name="Aring" unicode="&#xc5;" horiz-adv-x="559" 
d="M369 948l-86 78l-79 -81l79 -75zM513 455v238l-42 40l-39 -37v-242l39 -38zM454 754l-40 41h-273l-38 -42l37 -39h275zM454 396l-40 42h-273l-38 -43l37 -39h275zM130 455v238l-43 40l-39 -37v-242l39 -38zM513 39v299l-42 40l-39 -38v-303l39 -38zM130 39v299l-43 40
l-39 -38v-303l39 -38zM310 948l-25 -24l-24 23l24 24z" />
    <glyph glyph-name="AE" unicode="&#xc6;" horiz-adv-x="894" 
d="M846 754l-39 42h-273l-40 -43l39 -39h274zM846 396l-39 42h-273l-40 -43l39 -39h274zM514 455v238l-43 40l-39 -37v-242l39 -38zM455 754l-39 42h-273l-40 -43l38 -39h275zM846 42l-39 40h-274l-81 -82h355zM455 396l-39 42h-273l-40 -43l38 -39h275zM514 99v239l-43 40
l-39 -38v-325zM131 455v238l-43 40l-39 -37v-242l39 -38zM131 39v299l-43 40l-39 -38v-303l39 -38z" />
    <glyph glyph-name="Ccedilla" unicode="&#xc7;" horiz-adv-x="506" 
d="M455 754l-39 41h-274l-39 -42l38 -39h275zM131 455v238l-43 40l-39 -37v-242l39 -38zM455 42l-39 40h-275l-38 -40l40 -42h273zM131 102v236l-43 40l-39 -38v-240l39 -37zM324 -22h-82l-39 -80l43 -39l39 37z" />
    <glyph glyph-name="Egrave" unicode="&#xc8;" horiz-adv-x="504" 
d="M455 754l-39 42h-352l77 -82h275zM131 455v238l-82 83v-322l39 -38zM455 396l-39 42h-273l-40 -43l38 -39h275zM455 42l-39 40h-275l-81 -82h356zM131 102v236l-43 40l-39 -38v-319zM371 902l-12 57l-168 97l-56 -17l15 -54l169 -98z" />
    <glyph glyph-name="Eacute" unicode="&#xc9;" horiz-adv-x="500" 
d="M455 754l-39 42h-352l77 -82h275zM131 455v238l-82 83v-322l39 -38zM455 396l-39 42h-273l-40 -43l38 -39h275zM455 42l-39 40h-275l-81 -82h356zM131 102v236l-43 40l-39 -38v-319zM374 1040l-55 17l-168 -97l-13 -57l52 -15l170 98z" />
    <glyph glyph-name="Ecircumflex" unicode="&#xca;" horiz-adv-x="504" 
d="M455 754l-39 42h-352l77 -82h275zM131 455v238l-82 83v-322l39 -38zM455 396l-39 42h-273l-40 -43l38 -39h275zM455 42l-39 40h-275l-81 -82h356zM131 102v236l-43 40l-39 -38v-319zM394 886v59l-71 69h-59v-57l73 -71h57zM239 957v57h-59l-71 -69v-59h57z" />
    <glyph glyph-name="Edieresis" unicode="&#xcb;" horiz-adv-x="504" 
d="M455 754l-39 42h-352l77 -82h275zM131 455v238l-82 83v-322l39 -38zM455 396l-39 42h-273l-40 -43l38 -39h275zM455 42l-39 40h-275l-81 -82h356zM131 102v236l-43 40l-39 -38v-319zM396 942l-58 56l-55 -57l55 -55zM206 942l-55 56l-56 -57l56 -55z" />
    <glyph glyph-name="Igrave" unicode="&#xcc;" horiz-adv-x="224" 
d="M154 455v299l-42 40l-40 -37v-303l40 -38zM154 39v299l-42 40l-40 -38v-303l40 -38zM232 902l-12 57l-168 97l-56 -17l15 -54l169 -98z" />
    <glyph glyph-name="Iacute" unicode="&#xcd;" horiz-adv-x="224" 
d="M154 455v299l-42 40l-40 -37v-303l40 -38zM154 39v299l-42 40l-40 -38v-303l40 -38zM222 1039l-55 17l-168 -97l-13 -57l52 -15l170 98z" />
    <glyph glyph-name="Icircumflex" unicode="&#xce;" horiz-adv-x="224" 
d="M154 455v299l-42 40l-40 -37v-303l40 -38zM154 39v299l-42 40l-40 -38v-303l40 -38zM256 886v59l-71 69h-59v-57l73 -71h57zM101 957v57h-59l-71 -69v-59h57z" />
    <glyph glyph-name="Idieresis" unicode="&#xcf;" horiz-adv-x="224" 
d="M154 455v299l-42 40l-40 -37v-303l40 -38zM154 39v299l-42 40l-40 -38v-303l40 -38zM263 942l-58 56l-55 -57l55 -55zM73 942l-55 56l-56 -57l56 -55z" />
    <glyph glyph-name="Ntilde" unicode="&#xd1;" 
d="M514 455v299l-43 40l-39 -37v-303l39 -38zM409 453v57l-197 245l-57 1l1 -55l199 -247zM131 455v299l-43 40l-39 -37v-303l39 -38zM514 39v299l-43 40l-39 -38v-303l39 -38zM131 39v299l-43 40l-39 -38v-303l39 -38zM437 941v57h-59l-69 -37l1 37h-59l-104 -55v-56h57
l70 36v-36h56z" />
    <glyph glyph-name="Ograve" unicode="&#xd2;" 
d="M514 455v238l-43 40l-39 -37v-242l39 -38zM455 754l-39 42h-273l-40 -43l38 -39h275zM514 102v236l-43 40l-39 -38v-240l39 -37zM131 455v238l-43 40l-39 -37v-242l39 -38zM455 42l-39 40h-275l-38 -40l40 -42h273zM131 102v236l-43 40l-39 -38v-240l39 -37zM403 902
l-12 57l-168 97l-56 -17l15 -54l169 -98z" />
    <glyph glyph-name="Oacute" unicode="&#xd3;" 
d="M514 455v238l-43 40l-39 -37v-242l39 -38zM455 754l-39 42h-273l-40 -43l38 -39h275zM514 102v236l-43 40l-39 -38v-240l39 -37zM131 455v238l-43 40l-39 -37v-242l39 -38zM455 42l-39 40h-275l-38 -40l40 -42h273zM131 102v236l-43 40l-39 -38v-240l39 -37zM396 1039
l-55 17l-168 -97l-13 -57l52 -15l170 98z" />
    <glyph glyph-name="Ocircumflex" unicode="&#xd4;" 
d="M514 455v238l-43 40l-39 -37v-242l39 -38zM455 754l-39 42h-273l-40 -43l38 -39h275zM514 102v236l-43 40l-39 -38v-240l39 -37zM131 455v238l-43 40l-39 -37v-242l39 -38zM455 42l-39 40h-275l-38 -40l40 -42h273zM131 102v236l-43 40l-39 -38v-240l39 -37zM426 886v59
l-71 69h-59v-57l73 -71h57zM271 957v57h-59l-71 -69v-59h57z" />
    <glyph glyph-name="Otilde" unicode="&#xd5;" horiz-adv-x="562" 
d="M514 455v238l-43 40l-39 -37v-242l39 -38zM455 754l-39 42h-273l-40 -43l38 -39h275zM514 102v236l-43 40l-39 -38v-240l39 -37zM131 455v238l-43 40l-39 -37v-242l39 -38zM455 42l-39 40h-275l-38 -40l40 -42h273zM131 102v236l-43 40l-39 -38v-240l39 -37zM431 941v57
h-59l-69 -37l1 37h-59l-104 -55v-56h57l70 36v-36h56z" />
    <glyph glyph-name="Odieresis" unicode="&#xd6;" horiz-adv-x="558" 
d="M514 455v238l-43 40l-39 -37v-242l39 -38zM455 754l-39 42h-273l-40 -43l38 -39h275zM514 102v236l-43 40l-39 -38v-240l39 -37zM131 455v238l-43 40l-39 -37v-242l39 -38zM455 42l-39 40h-275l-38 -40l40 -42h273zM131 102v236l-43 40l-39 -38v-240l39 -37zM436 944
l-58 56l-55 -57l55 -55zM246 944l-55 56l-56 -57l56 -55z" />
    <glyph glyph-name="Oslash" unicode="&#xd8;" 
d="M514 455v238l-43 40l-39 -37v-242l39 -38zM455 754l-39 41h-273l-40 -42l38 -39h275zM410 639v54h-58l-82 -226l15 -56l53 13zM514 102v236l-43 40l-39 -38v-240l39 -37zM131 455v238l-43 40l-39 -37v-242l39 -38zM299 337l-14 56l-54 -13l-78 -223v-54h57zM455 42
l-39 40h-275l-38 -40l40 -42h273zM131 102v236l-43 40l-39 -38v-240l39 -37z" />
    <glyph glyph-name="Ugrave" unicode="&#xd9;" 
d="M514 455v300l-43 40l-39 -37v-304l39 -38zM131 455v300l-43 40l-39 -37v-304l39 -38zM514 102v236l-43 40l-39 -38v-240l39 -37zM455 42l-39 40h-275l-38 -40l40 -42h273zM131 102v236l-43 40l-39 -38v-240l39 -37zM409 902l-12 57l-168 97l-56 -17l15 -54l169 -98z" />
    <glyph glyph-name="Uacute" unicode="&#xda;" 
d="M514 455v300l-43 40l-39 -37v-304l39 -38zM131 455v300l-43 40l-39 -37v-304l39 -38zM514 102v236l-43 40l-39 -38v-240l39 -37zM455 42l-39 40h-275l-38 -40l40 -42h273zM131 102v236l-43 40l-39 -38v-240l39 -37zM396 1039l-55 17l-168 -97l-13 -57l52 -15l170 98z" />
    <glyph glyph-name="Ucircumflex" unicode="&#xdb;" 
d="M514 455v300l-43 40l-39 -37v-304l39 -38zM131 455v300l-43 40l-39 -37v-304l39 -38zM514 102v236l-43 40l-39 -38v-240l39 -37zM455 42l-39 40h-275l-38 -40l40 -42h273zM131 102v236l-43 40l-39 -38v-240l39 -37zM429 886v59l-71 69h-59v-57l73 -71h57zM274 957v57h-59
l-71 -69v-59h57z" />
    <glyph glyph-name="Udieresis" unicode="&#xdc;" horiz-adv-x="562" 
d="M514 455v300l-43 40l-39 -37v-304l39 -38zM131 455v300l-43 40l-39 -37v-304l39 -38zM514 102v236l-43 40l-39 -38v-240l39 -37zM455 42l-39 40h-275l-38 -40l40 -42h273zM131 102v236l-43 40l-39 -38v-240l39 -37zM429 942l-58 56l-55 -57l55 -55zM239 942l-55 56
l-56 -57l56 -55z" />
    <glyph glyph-name="germandbls" unicode="&#xdf;" horiz-adv-x="676" 
d="M628 455v238l-42 40l-39 -37v-242l39 -38zM569 754l-39 41h-272l-40 -42l37 -39h275zM569 396l-40 42h-115l-39 -42l38 -40h117zM628 102v236l-42 40l-39 -38v-240l39 -37zM245 455v238l-42 40l-39 -37v-242l39 -38zM569 40l-40 42h-115l-39 -42l38 -40h117zM245 24v314
l-42 40l-39 -38v-240zM237 0l-83 82h-66l-39 -40l39 -42h149z" />
    <glyph glyph-name="agrave" unicode="&#xe0;" horiz-adv-x="483" 
d="M432 351v149l-43 40l-39 -38v-152l39 -38zM372 560l-39 43h-194l-40 -43l38 -39h196zM372 292l-39 41l-194 1l-40 -42l38 -40h196zM432 40v194l-43 39l-39 -37v-199l39 -37zM127 351v149l-43 40l-39 -38v-152l39 -38zM127 40v194l-43 39l-39 -37v-199l39 -37zM359 702
l-12 56l-168 97l-56 -16l15 -54l169 -98z" />
    <glyph glyph-name="aacute" unicode="&#xe1;" horiz-adv-x="487" 
d="M436 351v149l-43 40l-39 -38v-152l39 -38zM376 560l-39 43h-194l-40 -43l38 -39h196zM376 292l-39 41l-194 1l-40 -42l38 -40h196zM436 40v194l-43 39l-39 -37v-199l39 -37zM131 351v149l-43 40l-39 -38v-152l39 -38zM131 40v194l-43 39l-39 -37v-199l39 -37zM361 838
l-55 17l-168 -97l-13 -57l52 -15l170 98z" />
    <glyph glyph-name="acircumflex" unicode="&#xe2;" horiz-adv-x="475" 
d="M428 351v149l-42 40l-39 -38v-152l39 -38zM369 560l-39 43h-194l-40 -43l38 -39h196zM369 292l-39 41l-194 1l-40 -42l38 -40h196zM428 40v194l-42 39l-39 -37v-199l39 -37zM124 351v149l-43 40l-39 -38v-152l39 -38zM124 40v194l-43 39l-39 -37v-199l39 -37zM384 686v59
l-71 69h-59v-56l74 -72h56zM229 758v56h-59l-71 -69v-59h57z" />
    <glyph glyph-name="atilde" unicode="&#xe3;" horiz-adv-x="479" 
d="M432 351v149l-43 40l-39 -38v-152l39 -38zM372 560l-39 43h-194l-40 -43l38 -39h196zM372 292l-39 41l-194 1l-40 -42l38 -40h196zM432 40v194l-43 39l-39 -37v-199l39 -37zM127 351v149l-43 40l-39 -38v-152l39 -38zM127 40v194l-43 39l-39 -37v-199l39 -37zM395 742v56
h-59l-68 -36l1 36h-59l-104 -55v-56h56l70 36v-36h57z" />
    <glyph glyph-name="adieresis" unicode="&#xe4;" horiz-adv-x="483" 
d="M438 351v149l-43 40l-39 -38v-152l39 -38zM378 560l-39 43h-194l-39 -43l37 -39h196zM378 292l-39 41l-194 1l-39 -42l37 -40h196zM438 40v194l-43 39l-39 -37v-199l39 -37zM134 351v149l-43 40l-39 -38v-152l39 -38zM134 40v194l-43 39l-39 -37v-199l39 -37zM397 742
l-57 56l-55 -57l55 -55zM208 742l-55 56l-56 -56l56 -56z" />
    <glyph glyph-name="aring" unicode="&#xe5;" horiz-adv-x="486" 
d="M331 760l-85 78l-79 -82l79 -75zM436 351v149l-43 40l-39 -38v-152l39 -38zM376 560l-39 43h-194l-40 -43l38 -39h196zM376 292l-39 41l-194 1l-40 -42l38 -40h196zM436 40v194l-43 39l-39 -37v-199l39 -37zM131 351v149l-43 40l-39 -38v-152l39 -38zM131 40v194l-43 39
l-39 -37v-199l39 -37zM273 759l-27 -24l-23 23l23 24z" />
    <glyph glyph-name="ae" unicode="&#xe6;" horiz-adv-x="738" 
d="M683 560l-40 43h-194l-39 -43l38 -39h196zM683 292l-40 42h-194l-39 -42l38 -40h196zM433 351v149l-42 40l-39 -38v-152l39 -38zM374 560l-39 43h-194l-39 -43l37 -39h196zM683 42l-39 40h-196l-82 -82h277zM433 98v136l-42 39l-39 -37v-219zM374 292l-39 42h-194
l-39 -42l37 -40h196zM129 351v149l-42 40l-39 -38v-152l39 -38zM129 40v194l-42 39l-39 -37v-199l39 -37z" />
    <glyph glyph-name="ccedilla" unicode="&#xe7;" horiz-adv-x="425" 
d="M376 560l-39 43h-194l-40 -43l38 -39h196zM131 102v400l-43 40l-39 -37v-405l39 -37zM376 42l-39 40h-196l-38 -40l40 -42h194zM277 -22l-81 -3l-40 -77l42 -39l40 37z" />
    <glyph glyph-name="egrave" unicode="&#xe8;" horiz-adv-x="429" 
d="M376 560l-39 43h-194l-40 -43l38 -39h196zM376 292l-39 42h-194l-40 -42l38 -40h196zM131 351v149l-43 40l-39 -38v-152l39 -38zM376 42l-39 40h-196l-38 -40l40 -42h194zM131 102v132l-43 39l-39 -37v-136l39 -37zM335 701l-12 57l-168 97l-56 -17l15 -54l169 -98z" />
    <glyph glyph-name="eacute" unicode="&#xe9;" horiz-adv-x="428" 
d="M376 560l-39 43h-194l-40 -43l38 -39h196zM376 292l-39 42h-194l-40 -42l38 -40h196zM131 351v149l-43 40l-39 -38v-152l39 -38zM376 42l-39 40h-196l-38 -40l40 -42h194zM131 102v132l-43 39l-39 -37v-136l39 -37zM351 838l-55 17l-168 -97l-13 -57l52 -15l170 98z" />
    <glyph glyph-name="ecircumflex" unicode="&#xea;" horiz-adv-x="428" 
d="M376 560l-39 43h-194l-40 -43l38 -39h196zM376 292l-39 42h-194l-40 -42l38 -40h196zM131 351v149l-43 40l-39 -38v-152l39 -38zM376 42l-39 40h-196l-38 -40l40 -42h194zM131 102v132l-43 39l-39 -37v-136l39 -37zM363 686v59l-71 69h-59v-57l73 -71h57zM208 757v57h-59
l-71 -69v-59h57z" />
    <glyph glyph-name="edieresis" unicode="&#xeb;" horiz-adv-x="424" 
d="M376 560l-39 43h-194l-40 -43l38 -39h196zM376 292l-39 42h-194l-40 -42l38 -40h196zM131 351v149l-43 40l-39 -38v-152l39 -38zM376 42l-39 40h-196l-38 -40l40 -42h194zM131 102v132l-43 39l-39 -37v-136l39 -37zM368 742l-58 56l-55 -57l55 -55zM178 742l-55 56
l-56 -57l56 -55z" />
    <glyph glyph-name="igrave" unicode="&#xec;" horiz-adv-x="224" 
d="M160 352v213l-42 40l-40 -38v-216l40 -38zM160 38v197l-42 39l-40 -37v-200l40 -39zM232 702l-13 56l-167 97l-56 -16l14 -54l170 -98z" />
    <glyph glyph-name="iacute" unicode="&#xed;" horiz-adv-x="224" 
d="M159 352v213l-42 40l-40 -38v-216l40 -38zM159 38v197l-42 39l-40 -37v-200l40 -39zM231 839l-55 16l-168 -97l-13 -56l52 -15l170 98z" />
    <glyph glyph-name="icircumflex" unicode="&#xee;" horiz-adv-x="224" 
d="M153 352v213l-42 40l-39 -38v-216l39 -38zM153 38v197l-42 39l-39 -37v-200l39 -39zM251 686v59l-71 69h-58v-56l73 -72h56zM96 758v56h-59l-70 -69v-59h56z" />
    <glyph glyph-name="idieresis" unicode="&#xef;" horiz-adv-x="224" 
d="M160 354v213l-42 40l-40 -39v-216l40 -37zM160 40v197l-42 39l-40 -38v-200l40 -38zM268 739l-57 56l-56 -57l56 -55zM79 739l-56 56l-56 -57l56 -55z" />
    <glyph glyph-name="ntilde" unicode="&#xf1;" horiz-adv-x="487" 
d="M436 351v213l-43 40l-39 -37v-217l39 -38zM339 350v59l-131 155h-59v-56l134 -158h56zM131 351v213l-43 40l-39 -37v-217l39 -38zM436 37v197l-43 39l-39 -37v-200l39 -38zM131 37v197l-43 39l-39 -37v-200l39 -38zM387 741v57h-59l-69 -37l1 37h-59l-104 -55v-56h57
l70 36v-36h56z" />
    <glyph glyph-name="ograve" unicode="&#xf2;" horiz-adv-x="483" 
d="M436 351v149l-43 40l-39 -38v-152l39 -38zM376 560l-39 43h-194l-40 -43l38 -39h196zM436 102v132l-43 39l-39 -37v-136l39 -37zM131 351v149l-43 40l-39 -38v-152l39 -38zM376 42l-39 40h-196l-38 -40l40 -42h194zM131 102v132l-43 39l-39 -37v-136l39 -37zM363 702
l-12 57l-168 97l-56 -17l15 -54l169 -98z" />
    <glyph glyph-name="oacute" unicode="&#xf3;" horiz-adv-x="483" 
d="M436 351v149l-43 40l-39 -38v-152l39 -38zM376 560l-39 43h-194l-40 -43l38 -39h196zM436 102v132l-43 39l-39 -37v-136l39 -37zM131 351v149l-43 40l-39 -38v-152l39 -38zM376 42l-39 40h-196l-38 -40l40 -42h194zM131 102v132l-43 39l-39 -37v-136l39 -37zM357 838
l-55 17l-168 -97l-13 -57l52 -15l170 98z" />
    <glyph glyph-name="ocircumflex" unicode="&#xf4;" horiz-adv-x="483" 
d="M436 351v149l-43 40l-39 -38v-152l39 -38zM376 560l-39 43h-194l-40 -43l38 -39h196zM436 102v132l-43 39l-39 -37v-136l39 -37zM131 351v149l-43 40l-39 -38v-152l39 -38zM376 42l-39 40h-196l-38 -40l40 -42h194zM131 102v132l-43 39l-39 -37v-136l39 -37zM382 686v59
l-71 69h-59v-57l73 -71h57zM227 757v57h-59l-71 -69v-59h57z" />
    <glyph glyph-name="otilde" unicode="&#xf5;" horiz-adv-x="482" 
d="M436 351v149l-43 40l-39 -38v-152l39 -38zM376 560l-39 43h-194l-40 -43l38 -39h196zM436 102v132l-43 39l-39 -37v-136l39 -37zM131 351v149l-43 40l-39 -38v-152l39 -38zM376 42l-39 40h-196l-38 -40l40 -42h194zM131 102v132l-43 39l-39 -37v-136l39 -37zM389 741v57
h-59l-69 -37l1 37h-59l-104 -55v-56h57l70 36v-36h56z" />
    <glyph glyph-name="odieresis" unicode="&#xf6;" horiz-adv-x="483" 
d="M436 351v149l-43 40l-39 -38v-152l39 -38zM376 560l-39 43h-194l-40 -43l38 -39h196zM436 102v132l-43 39l-39 -37v-136l39 -37zM131 351v149l-43 40l-39 -38v-152l39 -38zM376 42l-39 40h-196l-38 -40l40 -42h194zM131 102v132l-43 39l-39 -37v-136l39 -37zM388 742
l-58 56l-55 -57l55 -55zM198 742l-55 56l-56 -57l56 -55z" />
    <glyph glyph-name="divide" unicode="&#xf7;" horiz-adv-x="757" 
d="M444 493c0 19.333 -6.83105 36 -20.498 50s-30.167 21 -49.5 21s-35.833 -6.83301 -49.5 -20.5s-20.834 -30.167 -21.501 -49.5s5.83301 -36.166 19.5 -50.499s30.167 -21.833 49.5 -22.5c20 -0.666992 37.167 6.16602 51.5 20.499s21.166 31.5 20.499 51.5zM709.002 285
v72h-660v-72h660zM444.002 149c0 19.333 -6.99805 35.8311 -20.998 49.498s-30.667 20.5 -50 20.5s-35.833 -6.66699 -49.5 -20s-20.834 -29.666 -21.501 -48.999c0 -19.333 6.66699 -36.166 20 -50.499s29.666 -21.833 48.999 -22.5c20 -0.666992 37.167 6.33301 51.5 21
s21.5 31.667 21.5 51z" />
    <glyph glyph-name="oslash" unicode="&#xf8;" horiz-adv-x="483" 
d="M432 351v149l-42 40l-39 -38v-152l39 -38zM373 560l-40 43h-193l-40 -43l38 -39h196zM333 448v54h-60l-42 -131l15 -55l53 12zM432 102v132l-42 39l-39 -37v-136l39 -37zM127 351v149l-42 40l-39 -38v-152l39 -38zM258 246l-15 56l-53 -13l-41 -132v-54h58zM373 42
l-39 40h-196l-38 -40l39 -42h194zM127 102v132l-42 39l-39 -37v-136l39 -37z" />
    <glyph glyph-name="ugrave" unicode="&#xf9;" horiz-adv-x="482" 
d="M436 351v213l-43 39l-39 -38v-215l39 -38zM436 102v132l-43 39l-39 -37v-136l39 -37zM131 351v213l-43 39l-39 -38v-215l39 -38zM376 42l-39 40h-196l-38 -40l40 -42h194zM131 102v132l-43 39l-39 -37v-136l39 -37zM365 701l-12 57l-168 97l-56 -17l15 -54l169 -98z" />
    <glyph glyph-name="uacute" unicode="&#xfa;" horiz-adv-x="486" 
d="M436 351v213l-43 39l-39 -38v-215l39 -38zM436 102v132l-43 39l-39 -37v-136l39 -37zM131 351v213l-43 39l-39 -38v-215l39 -38zM376 42l-39 40h-196l-38 -40l40 -42h194zM131 102v132l-43 39l-39 -37v-136l39 -37zM364 838l-55 17l-168 -97l-13 -57l52 -15l170 98z" />
    <glyph glyph-name="ucircumflex" unicode="&#xfb;" horiz-adv-x="481" 
d="M436 351v213l-43 39l-39 -38v-215l39 -38zM436 102v132l-43 39l-39 -37v-136l39 -37zM131 351v213l-43 39l-39 -38v-215l39 -38zM376 42l-39 40h-196l-38 -40l40 -42h194zM131 102v132l-43 39l-39 -37v-136l39 -37zM385 686v59l-71 69h-59v-57l73 -71h57zM230 757v57h-59
l-71 -69v-59h57z" />
    <glyph glyph-name="udieresis" unicode="&#xfc;" horiz-adv-x="486" 
d="M436 351v213l-43 39l-39 -38v-215l39 -38zM436 102v132l-43 39l-39 -37v-136l39 -37zM131 351v213l-43 39l-39 -38v-215l39 -38zM376 42l-39 40h-196l-38 -40l40 -42h194zM131 102v132l-43 39l-39 -37v-136l39 -37zM393 742l-58 56l-55 -57l55 -55zM203 742l-55 56
l-56 -57l56 -55z" />
    <glyph glyph-name="ydieresis" unicode="&#xff;" horiz-adv-x="481" 
d="M436 351v213l-43 39l-39 -38v-215l39 -38zM436 102v132l-43 39l-39 -37v-136l39 -37zM131 351v213l-43 39l-39 -38v-215l39 -38zM376 292l-39 42h-194l-40 -42l38 -40h196zM376 42l-39 40h-223l-37 -40l40 -42h220zM388 742l-58 56l-55 -57l55 -55zM198 742l-55 56
l-56 -57l56 -55z" />
    <glyph glyph-name="OE" unicode="&#x152;" horiz-adv-x="893" 
d="M839 754l-39 41h-273l-39 -42l37 -39h275zM848 396l-39 42h-272l-40 -43l37 -39h275zM514 455v238l-43 40l-39 -37v-242l39 -38zM455 754l-39 41h-273l-40 -42l38 -39h275zM839 42l-39 40h-275l-37 -40l40 -42h272zM514 102v236l-43 40l-39 -38v-240l39 -37zM131 455v238
l-43 40l-39 -37v-242l39 -38zM455 42l-39 40h-275l-38 -40l40 -42h273zM131 102v236l-43 40l-39 -38v-240l39 -37z" />
    <glyph glyph-name="oe" unicode="&#x153;" horiz-adv-x="730" 
d="M683 560l-40 43h-194l-39 -43l38 -39h196zM683 292l-40 42h-194l-39 -42l38 -40h196zM433 351v149l-42 40l-39 -38v-152l39 -38zM374 560l-39 43h-194l-39 -43l37 -39h196zM683 42l-39 40h-196l-82 -82h277zM433 103v135l-42 39l-39 -37v-140l39 -37zM129 351v149l-42 40
l-39 -38v-152l39 -38zM374 42l-39 40h-196l-37 -39l39 -43h194zM129 103v137l-42 39l-39 -37v-142l39 -37z" />
    <glyph glyph-name="Ydieresis" unicode="&#x178;" 
d="M514 455v299l-43 40l-39 -37v-303l39 -38zM131 455v299l-43 40l-39 -37v-303l39 -38zM514 102v236l-43 40l-39 -38v-240l39 -37zM455 396l-39 42h-273l-40 -43l38 -39h275zM455 42l-39 40h-328l-37 -40l40 -42h325zM434 942l-58 56l-55 -57l55 -55zM244 942l-55 56
l-56 -57l56 -55z" />
    <glyph glyph-name="florin" unicode="&#x192;" horiz-adv-x="445" 
d="M422 832c2.66699 6.66699 2.83008 12.999 0.49707 18.999s-6 11.333 -11 16s-11 8.33398 -18 11.001s-13.833 4 -20.5 4c-22 0 -41.667 -9 -59 -27s-32.666 -40.833 -45.999 -68.5s-24.833 -58.334 -34.5 -92.001s-17.5 -66.167 -23.5 -97.5l-7 -29h-131l-3 -45h118
l-75 -376c-4.66699 -22 -9.33398 -46.667 -14.001 -74s-10 -52.5 -16 -75.5s-13 -41.667 -21 -56s-17.667 -19.833 -29 -16.5c-4.66699 1.33301 -8 3.66602 -10 6.99902l-6 10c-2 3.33301 -4.5 6.33301 -7.5 9s-7.83301 4 -14.5 4c-12 0 -22.333 -3.66699 -31 -11
s-15 -16.666 -19 -27.999c-3.33301 -11.333 -1.66602 -21.833 5.00098 -31.5s14.667 -15.834 24 -18.501c20.667 -6.66699 39.834 -5.5 57.501 3.5s33.834 22.833 48.501 41.5s27.834 40.834 39.501 66.501s21.834 51.667 30.501 78s16 52 22 77s10.667 46.167 14 63.5
l65 326h114l6 45h-108l6 22c3.33301 14.667 6.16602 31 8.49902 49s4.5 36.167 6.5 54.5s4.16699 35.833 6.5 52.5s5.16602 30.834 8.49902 42.501s7.66602 20.167 12.999 25.5s12 6 20 2c7.33301 -4 13 -8.66699 17 -14s10 -8 18 -8c13.333 0 24.833 3.5 34.5 10.5
s16.834 16.5 21.501 28.5z" />
    <glyph glyph-name="Delta" unicode="&#x394;" horiz-adv-x="800" 
d="M759 -1l-331 796l-379 -796h710zM618 52h-495l261 555z" />
    <glyph glyph-name="Omega" unicode="&#x3a9;" horiz-adv-x="862" 
d="M813 -2l0.00390625 167.001h-20c0 -8 -0.833008 -14.833 -2.5 -20.5s-4.5 -11.834 -8.5 -18.501c-12 -18 -30.667 -27 -56 -27h-175v33c34.667 6 66.167 17.333 94.5 34s52.5 37.5 72.5 62.5s35.667 53.167 47 84.5s17.666 64.666 18.999 99.999
c1.33301 42.667 -6.16699 80.667 -22.5 114s-40 61.5 -71 84.5s-68.333 40.5 -112 52.5s-92.5 18 -146.5 18c-50.667 0 -97.834 -6 -141.501 -18s-81.5 -29.333 -113.5 -52s-56.833 -50.834 -74.5 -84.501s-25.5 -71.834 -23.5 -114.501
c1.33301 -35.333 7.66602 -68.666 18.999 -99.999s27 -59.333 47 -84s44 -45.5 72 -62.5s59.667 -28.5 95 -34.5v-33h-175c-24.667 0 -43.667 9 -57 27c-4 6.66699 -6.83301 12.834 -8.5 18.501s-2.16699 12.5 -1.5 20.5h-21v-167h320l-16 158
c-52.667 23.333 -91.334 57.333 -116.001 102s-36.334 96 -35.001 154c0 32 4 62.5 12 91.5s21 54.333 39 76s41.833 38.834 71.5 51.501s66.167 18.667 109.5 18c47.333 0 85.666 -6.5 114.999 -19.5s52.333 -30.333 69 -52s27.834 -46.667 33.501 -75
s8.83398 -58.5 9.50098 -90.5c0 -58 -12.167 -109.333 -36.5 -154s-62.5 -78.667 -114.5 -102l-16 -158h319z" />
    <glyph glyph-name="pi" unicode="&#x3c0;" horiz-adv-x="692" 
d="M651 184l-22.001 0.000976562l-6 -20c-4 -19.333 -12.167 -35 -24.5 -47s-28.166 -18.333 -47.499 -19c-12 -0.666992 -22.833 1.83301 -32.5 7.5s-17.834 13.167 -24.501 22.5s-11.667 20 -15 32s-4.66602 24 -3.99902 36l15 278h153v95h-420
c-15.333 0 -28.333 -1.33301 -39 -4s-22.667 -7 -36 -13c-13.333 -6.66699 -24.5 -14.5 -33.5 -23.5s-16.833 -18.833 -23.5 -29.5s-12.667 -22.167 -18 -34.5l-17 -39.5l-7 -16l20 -8c0.666992 2.66699 2.83398 7 6.50098 13s8 12.167 13 18.5s10.833 12.333 17.5 18
s14 9.83398 22 12.501c10 4 18.833 6.16699 26.5 6.5s16.834 0.5 27.501 0.5h38l-27 -251c-1.33301 -12 -3.83301 -21.833 -7.5 -29.5s-7.83398 -17.167 -12.501 -28.5c-5.33301 -12.667 -12.5 -23.5 -21.5 -32.5l-26.5 -26.5c-8.66699 -8.66699 -15.5 -18 -20.5 -28
s-5.5 -22.667 -1.5 -38c3.33301 -11.333 9.5 -20.166 18.5 -26.499s19.167 -11.166 30.5 -14.499c13.333 -4 25.333 -3 36 3s19.834 14.667 27.501 26s14 24.166 19 38.499s8.16699 28.5 9.5 42.5l47 369h136l-27 -250c-2.66699 -23.333 -3.5 -47.833 -2.5 -73.5
s5 -49.334 12 -71.001s17.667 -39.834 32 -54.501s33.166 -23 56.499 -25c21.333 -1.33301 40.666 2.16699 57.999 10.5s32.333 20 45 35s23 32.167 31 51.5s13.333 39.666 16 60.999z" />
    <glyph glyph-name="uni0401" unicode="&#x401;" horiz-adv-x="504" 
d="M455 754l-39 42h-352l77 -82h275zM131 455v238l-82 83v-322l39 -38zM455 396l-39 42h-273l-40 -43l38 -39h275zM455 42l-39 40h-275l-81 -82h356zM131 102v236l-43 40l-39 -38v-319zM396 942l-58 56l-55 -57l55 -55zM206 942l-55 56l-56 -57l56 -55z" />
    <glyph glyph-name="uni0410" unicode="&#x410;" 
d="M471 416l-39 38v242l39 37l42 -40v-238zM415 714h-275l-37 39l38 42h273l40 -41zM415 356h-275l-37 39l38 43h273l40 -42zM87 416l-39 38v242l39 37l43 -40v-238zM471 -1l-39 38v303l39 38l42 -40v-299zM87 -1l-39 38v303l39 38l43 -40v-299z" />
    <glyph glyph-name="uni0411" unicode="&#x411;" horiz-adv-x="556" 
d="M416 714h-275l-38 39l40 43h273l39 -42zM471 63l-39 37v240l39 38l43 -40v-236zM416 356h-275l-38 39l40 43h273l39 -42zM88 416l-39 38v242l39 37l43 -40v-238zM416 0h-273l-40 42l38 40h275l39 -40zM88 63l-39 37v240l39 38l43 -40v-236z" />
    <glyph glyph-name="uni0412" unicode="&#x412;" 
d="M471 416l-39 38v242l39 37l43 -40v-238zM416 714h-275l-77 82h352l39 -42zM471 63l-39 37v240l39 38l43 -40v-236zM88 416l-39 38v322l82 -83v-238zM416 356h-275l-38 39l40 43h273l39 -42zM416 0h-356l81 82h275l39 -40zM49 21v319l39 38l43 -40v-236z" />
    <glyph glyph-name="uni0413" unicode="&#x413;" horiz-adv-x="477" 
d="M131 692v-236l-43 -40l-39 38v319zM455 752l-39 -40h-275l-81 82h356zM131 339v-299l-43 -40l-39 37v303l39 38z" />
    <glyph glyph-name="uni0414" unicode="&#x414;" horiz-adv-x="556" 
d="M471 416l-39 38v242l39 37l43 -40v-238zM416 714h-275l-77 82h352l39 -42zM471 63l-39 37v240l39 38l43 -40v-236zM88 416l-39 38v322l82 -83v-238zM416 0h-356l81 82h275l39 -40zM49 21v319l39 38l43 -40v-236z" />
    <glyph glyph-name="uni0415" unicode="&#x415;" horiz-adv-x="504" 
d="M416 714h-275l-77 82h352l39 -42zM88 416l-39 38v322l82 -83v-238zM416 356h-275l-38 39l40 43h273l39 -42zM416 0h-356l81 82h275l39 -40zM49 21v319l39 38l43 -40v-236z" />
    <glyph glyph-name="uni0416" unicode="&#x416;" horiz-adv-x="942" 
d="M69 741v54h58l280 -280v-57h-54zM594 458h-54v57l280 280h58v-54zM514 38v-1l-39 -38l-2 1l-1 -1l-39 38v1l-1 1v299l1 1v1l39 38l1 -2l2 2l39 -38v-1l1 -1v-299zM514 454l-39 -38l-2 1l-1 -1l-39 38l-1 1v299l1 1v2l39 37l1 -2l2 2l39 -37v-2l1 -1v-299zM49 39v299
l43 40l39 -38v-303l-39 -38zM855 -1l-39 38v303l39 38l43 -40v-299zM108 396l39 42h273l40 -43l-38 -39h-275zM800 356h-275l-38 39l40 43h273l39 -42z" />
    <glyph glyph-name="uni0417" unicode="&#x417;" horiz-adv-x="506" 
d="M417 416l-39 38v242l39 37l42 -40v-238zM362 714h-275l-38 39l39 43h273l40 -42zM417 63l-39 37v240l39 38l42 -40v-236zM362 356h-275l-38 39l39 43h273l40 -42zM361 0h-273l-39 42l38 40h275l39 -40z" />
    <glyph glyph-name="uni0418" unicode="&#x418;" 
d="M432 39v299l43 40l39 -38v-303l-39 -38zM49 39v299l43 40l39 -38v-303l-39 -38zM432 455v299l43 40l39 -37v-303l-39 -38zM154 453v57l197 245l57 1l-1 -55l-199 -247zM49 455v299l43 40l39 -37v-303l-39 -38z" />
    <glyph glyph-name="uni0419" unicode="&#x419;" 
d="M432 39v299l43 40l39 -38v-303l-39 -38zM49 39v299l43 40l39 -38v-303l-39 -38zM432 455v299l43 40l39 -37v-303l-39 -38zM154 453v57l197 245l57 1l-1 -55l-199 -247zM49 455v299l43 40l39 -37v-303l-39 -38zM229 886h94v-90h-94v90z" />
    <glyph glyph-name="uni041A" unicode="&#x41a;" 
d="M210 458h-54v57l280 280h58v-54zM88 416l-39 38v303l39 37l43 -40v-299zM416 356h-275l-38 39l40 43h273l39 -42zM471 -1l-39 38v303l39 38l43 -40v-299zM88 -1l-39 38v303l39 38l43 -40v-299z" />
    <glyph glyph-name="uni041B" unicode="&#x41b;" 
d="M92 377l39 -38v-304l-39 -37l-43 40v300zM475 377l39 -38v-304l-39 -37l-43 40v300zM353 756h54v-58l-257 -300h-58l-2 55zM475 795l39 -38v-304l-39 -38l-43 40v301z" />
    <glyph glyph-name="uni041C" unicode="&#x41c;" horiz-adv-x="556" 
d="M471 416l-39 38v242l39 37l43 -40v-238zM416 714h-275l-38 39l40 43h273l39 -42zM280 545l-41 38v107l80 1v-109zM88 416l-39 38v242l39 37l43 -40v-238zM471 -1l-39 38v303l39 38l43 -40v-299zM88 -1l-39 38v303l39 38l43 -40v-299z" />
    <glyph glyph-name="uni041D" unicode="&#x41d;" 
d="M471 416l-39 38v303l39 37l43 -40v-299zM88 416l-39 38v303l39 37l43 -40v-299zM416 356h-275l-38 39l40 41h273l39 -40zM471 -1l-39 38v303l39 38l43 -40v-299zM88 -1l-39 38v303l39 38l43 -40v-299z" />
    <glyph glyph-name="uni041E" unicode="&#x41e;" 
d="M471 416l-39 38v242l39 37l43 -40v-238zM416 714h-275l-38 39l40 43h273l39 -42zM471 63l-39 37v240l39 38l43 -40v-236zM88 416l-39 38v242l39 37l43 -40v-238zM416 0h-273l-40 42l38 40h275l39 -40zM88 63l-39 37v240l39 38l43 -40v-236z" />
    <glyph glyph-name="uni041F" unicode="&#x41f;" 
d="M131 693v-236l-43 -40l-39 38v240l39 37zM455 753l-39 -40h-275l-38 40l40 42h273zM514 693v-236l-43 -40l-39 38v240l39 37zM131 340v-300l-43 -40l-39 37v304l39 38zM514 340v-300l-43 -40l-39 37v304l39 38z" />
    <glyph glyph-name="uni0420" unicode="&#x420;" 
d="M471 416l-39 38v241l39 37l43 -40v-237zM416 713h-275l-77 82h352l39 -42zM88 416l-39 38v321l82 -83v-237zM416 356h-275l-38 39l40 43h273l39 -42zM88 -1l-39 38v303l39 38l43 -40v-299z" />
    <glyph glyph-name="uni0421" unicode="&#x421;" horiz-adv-x="504" 
d="M416 714h-275l-38 39l40 43h273l39 -42zM88 416l-39 38v242l39 37l43 -40v-238zM416 0h-273l-40 42l38 40h275l39 -40zM88 63l-39 37v240l39 38l43 -40v-236z" />
    <glyph glyph-name="uni0422" unicode="&#x422;" horiz-adv-x="390" 
d="M335 714h-275l-38 39l39 42h273l40 -41zM195 416l-39 38v238h82v-237zM195 -1l-39 38v303l39 38l43 -40v-299z" />
    <glyph glyph-name="uni0423" unicode="&#x423;" 
d="M471 416l-39 38v303l39 37l43 -40v-299zM88 416l-39 38v303l39 37l43 -40v-299zM471 63l-39 37v240l39 38l43 -40v-236zM416 356h-275l-38 39l40 43h273l39 -42zM416 0h-325l-40 42l37 40h328l39 -40z" />
    <glyph glyph-name="uni0424" unicode="&#x424;" horiz-adv-x="948" 
d="M475 416l-2 2l-2 -2l-39 38v269l-10 -10h-275l-39 40l39 42h652l39 -42l-39 -40h-275l-10 10v-269zM473 1l-2 -2l-39 38v303l39 38l2 -2l2 2l39 -38v-303l-39 -38zM108 396l39 42h273l40 -43l-38 -39h-275zM799 356h-275l-38 39l40 43h273l39 -42zM854 416l-39 38v241
l39 37l43 -40v-237zM49 455v237l43 40l39 -37v-241l-39 -38zM473 767l-16 -17l16 -17l16 17z" />
    <glyph glyph-name="uni0425" unicode="&#x425;" horiz-adv-x="558" 
d="M352 412l-55 1l1 55l157 327h56v-54zM210 412l-160 329l-1 54h58l157 -327v-55zM455 -1l-157 327l-1 56h55l159 -329v-54h-56zM107 -1h-58l1 54l160 329h54v-56z" />
    <glyph glyph-name="uni0426" unicode="&#x426;" horiz-adv-x="631" 
d="M471 417l-39 37v304l39 37l43 -40v-299zM88 417l-39 37v304l39 37l43 -40v-299zM471 61l-39 38v241l39 38l43 -39v-238zM416 -2h-273l-40 43l38 39h275l39 -39zM88 61l-39 38v241l39 38l43 -39v-238zM542 -30h-54v51l54 83h52v-53z" />
    <glyph glyph-name="uni0427" unicode="&#x427;" 
d="M471 416l-39 38v303l39 37l43 -40v-299zM88 416l-39 38v303l39 37l43 -40v-299zM416 356h-275l-38 39l40 43h273l39 -42zM471 -1l-39 38v303l39 38l43 -40v-299z" />
    <glyph glyph-name="uni0428" unicode="&#x428;" 
d="M471 417l-39 37v304l39 37l43 -40v-299zM88 417l-39 37v304l39 37l43 -40v-299zM471 61l-39 38v241l39 38l43 -39v-238zM239 103v108l41 39l39 -38v-109h-80zM416 -2h-273l-40 43l38 39h275l39 -39zM88 61l-39 38v241l39 38l43 -39v-238z" />
    <glyph glyph-name="uni0429" unicode="&#x429;" horiz-adv-x="631" 
d="M471 417l-39 37v304l39 37l43 -40v-299zM88 417l-39 37v304l39 37l43 -40v-299zM471 61l-39 38v241l39 38l43 -39v-238zM239 103v108l41 39l39 -38v-109h-80zM416 -2h-273l-40 43l38 39h275l39 -39zM88 61l-39 38v241l39 38l43 -39v-238zM542 -30h-54v51l54 83h52v-53z
" />
    <glyph glyph-name="uni042A" unicode="&#x42a;" horiz-adv-x="179" 
d="M88 548l-39 38v172l39 38l43 -40v-169z" />
    <glyph glyph-name="uni042B" unicode="&#x42b;" horiz-adv-x="776" 
d="M131 755v-299l-43 -40l-39 38v303l39 38zM455 398l-39 -42h-273l-40 43l38 39h275zM131 339v-237l-82 -83v321l39 38zM455 41l-39 -42h-352l77 82h275zM514 339v-237l-43 -40l-39 37v241l39 38zM675 416l-40 38v303l40 37l42 -40v-299zM675 -1l-40 38v303l40 38l42 -40
v-299z" />
    <glyph glyph-name="uni042C" unicode="&#x42c;" 
d="M131 755v-299l-43 -40l-39 38v303l39 38zM455 398l-39 -42h-273l-40 43l38 39h275zM131 339v-237l-82 -83v321l39 38zM455 41l-39 -42h-352l77 82h275zM514 339v-237l-43 -40l-39 37v241l39 38z" />
    <glyph glyph-name="uni042D" unicode="&#x42d;" horiz-adv-x="504" 
d="M373 102v236l43 40l39 -38v-319zM49 42l39 40h275l81 -82h-356zM49 396l39 42h273l40 -43l-38 -39h-275zM373 455v238l82 83v-322l-39 -38zM49 754l39 42h352l-77 -82h-275z" />
    <glyph glyph-name="uni042E" unicode="&#x42e;" horiz-adv-x="931" 
d="M797 0h-273l-25 25l-28 -26l-39 38v61l-2 2v240l39 38l1 -1l1 1l43 -40v-265l8 9h275l39 -40zM471 416l-1 1l-1 -1l-39 38v242l2 2v59l39 37l27 -26l26 28h273l39 -42l-39 -40h-275l-8 8v-267zM88 -1l-39 38v303l39 38l43 -40v-299zM88 416l-39 38v303l39 37l43 -40v-299
zM416 356h-275l-38 39l40 41h273l39 -40zM852 416l-39 38v242l39 37l43 -40v-238zM852 63l-39 37v240l39 38l43 -40v-236z" />
    <glyph glyph-name="uni042F" unicode="&#x42f;" 
d="M432 39v299l43 40l39 -38v-303l-39 -38zM73 54l280 280h54v-59l-275 -276h-58zM108 396l39 42h273l40 -43l-38 -39h-275zM432 455v238l82 83v-322l-39 -38zM108 754l39 41h352l-77 -81h-275zM49 455v238l43 40l39 -37v-242l-39 -38z" />
    <glyph glyph-name="uni0430" unicode="&#x430;" 
d="M471 416l-39 38v242l39 37l42 -40v-238zM415 714h-275l-37 39l38 42h273l40 -41zM415 356h-275l-37 39l38 43h273l40 -42zM87 416l-39 38v242l39 37l43 -40v-238zM471 -1l-39 38v303l39 38l42 -40v-299zM87 -1l-39 38v303l39 38l43 -40v-299z" />
    <glyph glyph-name="uni0431" unicode="&#x431;" horiz-adv-x="556" 
d="M416 714h-275l-38 39l40 43h273l39 -42zM471 63l-39 37v240l39 38l43 -40v-236zM416 356h-275l-38 39l40 43h273l39 -42zM88 416l-39 38v242l39 37l43 -40v-238zM416 0h-273l-40 42l38 40h275l39 -40zM88 63l-39 37v240l39 38l43 -40v-236z" />
    <glyph glyph-name="uni0432" unicode="&#x432;" 
d="M471 416l-39 38v242l39 37l43 -40v-238zM416 714h-275l-77 82h352l39 -42zM471 63l-39 37v240l39 38l43 -40v-236zM88 416l-39 38v322l82 -83v-238zM416 356h-275l-38 39l40 43h273l39 -42zM416 0h-356l81 82h275l39 -40zM49 21v319l39 38l43 -40v-236z" />
    <glyph glyph-name="uni0433" unicode="&#x433;" horiz-adv-x="477" 
d="M131 692v-236l-43 -40l-39 38v319zM455 752l-39 -40h-275l-81 82h356zM131 339v-299l-43 -40l-39 37v303l39 38z" />
    <glyph glyph-name="uni0434" unicode="&#x434;" horiz-adv-x="556" 
d="M471 416l-39 38v242l39 37l43 -40v-238zM416 714h-275l-77 82h352l39 -42zM471 63l-39 37v240l39 38l43 -40v-236zM88 416l-39 38v322l82 -83v-238zM416 0h-356l81 82h275l39 -40zM49 21v319l39 38l43 -40v-236z" />
    <glyph glyph-name="uni0435" unicode="&#x435;" horiz-adv-x="504" 
d="M416 714h-275l-77 82h352l39 -42zM88 416l-39 38v322l82 -83v-238zM416 356h-275l-38 39l40 43h273l39 -42zM416 0h-356l81 82h275l39 -40zM49 21v319l39 38l43 -40v-236z" />
    <glyph glyph-name="uni0436" unicode="&#x436;" horiz-adv-x="942" 
d="M69 741v54h58l280 -280v-57h-54zM594 458h-54v57l280 280h58v-54zM514 38v-1l-39 -38l-2 1l-1 -1l-39 38v1l-1 1v299l1 1v1l39 38l1 -2l2 2l39 -38v-1l1 -1v-299zM514 454l-39 -38l-2 1l-1 -1l-39 38l-1 1v299l1 1v2l39 37l1 -2l2 2l39 -37v-2l1 -1v-299zM49 39v299
l43 40l39 -38v-303l-39 -38zM855 -1l-39 38v303l39 38l43 -40v-299zM108 396l39 42h273l40 -43l-38 -39h-275zM800 356h-275l-38 39l40 43h273l39 -42z" />
    <glyph glyph-name="uni0437" unicode="&#x437;" horiz-adv-x="506" 
d="M417 416l-39 38v242l39 37l42 -40v-238zM362 714h-275l-38 39l39 43h273l40 -42zM417 63l-39 37v240l39 38l42 -40v-236zM362 356h-275l-38 39l39 43h273l40 -42zM361 0h-273l-39 42l38 40h275l39 -40z" />
    <glyph glyph-name="uni0438" unicode="&#x438;" 
d="M432 39v299l43 40l39 -38v-303l-39 -38zM49 39v299l43 40l39 -38v-303l-39 -38zM432 455v299l43 40l39 -37v-303l-39 -38zM154 453v57l197 245l57 1l-1 -55l-199 -247zM49 455v299l43 40l39 -37v-303l-39 -38z" />
    <glyph glyph-name="uni0439" unicode="&#x439;" 
d="M432 39v299l43 40l39 -38v-303l-39 -38zM49 39v299l43 40l39 -38v-303l-39 -38zM432 455v299l43 40l39 -37v-303l-39 -38zM154 453v57l197 245l57 1l-1 -55l-199 -247zM49 455v299l43 40l39 -37v-303l-39 -38zM229 886h94v-90h-94v90z" />
    <glyph glyph-name="uni043A" unicode="&#x43a;" 
d="M210 458h-54v57l280 280h58v-54zM88 416l-39 38v303l39 37l43 -40v-299zM416 356h-275l-38 39l40 43h273l39 -42zM471 -1l-39 38v303l39 38l43 -40v-299zM88 -1l-39 38v303l39 38l43 -40v-299z" />
    <glyph glyph-name="uni043B" unicode="&#x43b;" 
d="M92 377l39 -38v-304l-39 -37l-43 40v300zM475 377l39 -38v-304l-39 -37l-43 40v300zM353 756h54v-58l-257 -300h-58l-2 55zM475 795l39 -38v-304l-39 -38l-43 40v301z" />
    <glyph glyph-name="uni043C" unicode="&#x43c;" horiz-adv-x="556" 
d="M471 416l-39 38v242l39 37l43 -40v-238zM416 714h-275l-38 39l40 43h273l39 -42zM280 545l-41 38v107l80 1v-109zM88 416l-39 38v242l39 37l43 -40v-238zM471 -1l-39 38v303l39 38l43 -40v-299zM88 -1l-39 38v303l39 38l43 -40v-299z" />
    <glyph glyph-name="uni043D" unicode="&#x43d;" 
d="M471 416l-39 38v303l39 37l43 -40v-299zM88 416l-39 38v303l39 37l43 -40v-299zM416 356h-275l-38 39l40 41h273l39 -40zM471 -1l-39 38v303l39 38l43 -40v-299zM88 -1l-39 38v303l39 38l43 -40v-299z" />
    <glyph glyph-name="uni043E" unicode="&#x43e;" 
d="M471 416l-39 38v242l39 37l43 -40v-238zM416 714h-275l-38 39l40 43h273l39 -42zM471 63l-39 37v240l39 38l43 -40v-236zM88 416l-39 38v242l39 37l43 -40v-238zM416 0h-273l-40 42l38 40h275l39 -40zM88 63l-39 37v240l39 38l43 -40v-236z" />
    <glyph glyph-name="uni043F" unicode="&#x43f;" 
d="M131 693v-236l-43 -40l-39 38v240l39 37zM455 753l-39 -40h-275l-38 40l40 42h273zM514 693v-236l-43 -40l-39 38v240l39 37zM131 340v-300l-43 -40l-39 37v304l39 38zM514 340v-300l-43 -40l-39 37v304l39 38z" />
    <glyph glyph-name="uni0440" unicode="&#x440;" 
d="M471 416l-39 38v241l39 37l43 -40v-237zM416 713h-275l-77 82h352l39 -42zM88 416l-39 38v321l82 -83v-237zM416 356h-275l-38 39l40 43h273l39 -42zM88 -1l-39 38v303l39 38l43 -40v-299z" />
    <glyph glyph-name="uni0441" unicode="&#x441;" horiz-adv-x="504" 
d="M416 714h-275l-38 39l40 43h273l39 -42zM88 416l-39 38v242l39 37l43 -40v-238zM416 0h-273l-40 42l38 40h275l39 -40zM88 63l-39 37v240l39 38l43 -40v-236z" />
    <glyph glyph-name="uni0442" unicode="&#x442;" horiz-adv-x="390" 
d="M335 714h-275l-38 39l39 42h273l40 -41zM195 416l-39 38v238h82v-237zM195 -1l-39 38v303l39 38l43 -40v-299z" />
    <glyph glyph-name="uni0443" unicode="&#x443;" 
d="M471 416l-39 38v303l39 37l43 -40v-299zM88 416l-39 38v303l39 37l43 -40v-299zM471 63l-39 37v240l39 38l43 -40v-236zM416 356h-275l-38 39l40 43h273l39 -42zM416 0h-325l-40 42l37 40h328l39 -40z" />
    <glyph glyph-name="uni0444" unicode="&#x444;" horiz-adv-x="948" 
d="M475 416l-2 2l-2 -2l-39 38v269l-10 -10h-275l-39 40l39 42h652l39 -42l-39 -40h-275l-10 10v-269zM473 1l-2 -2l-39 38v303l39 38l2 -2l2 2l39 -38v-303l-39 -38zM108 396l39 42h273l40 -43l-38 -39h-275zM799 356h-275l-38 39l40 43h273l39 -42zM854 416l-39 38v241
l39 37l43 -40v-237zM49 455v237l43 40l39 -37v-241l-39 -38zM473 767l-16 -17l16 -17l16 17z" />
    <glyph glyph-name="uni0445" unicode="&#x445;" horiz-adv-x="558" 
d="M352 412l-55 1l1 55l157 327h56v-54zM210 412l-160 329l-1 54h58l157 -327v-55zM455 -1l-157 327l-1 56h55l159 -329v-54h-56zM107 -1h-58l1 54l160 329h54v-56z" />
    <glyph glyph-name="uni0446" unicode="&#x446;" horiz-adv-x="631" 
d="M471 417l-39 37v304l39 37l43 -40v-299zM88 417l-39 37v304l39 37l43 -40v-299zM471 61l-39 38v241l39 38l43 -39v-238zM416 -2h-273l-40 43l38 39h275l39 -39zM88 61l-39 38v241l39 38l43 -39v-238zM542 -30h-54v51l54 83h52v-53z" />
    <glyph glyph-name="uni0447" unicode="&#x447;" 
d="M471 416l-39 38v303l39 37l43 -40v-299zM88 416l-39 38v303l39 37l43 -40v-299zM416 356h-275l-38 39l40 43h273l39 -42zM471 -1l-39 38v303l39 38l43 -40v-299z" />
    <glyph glyph-name="uni0448" unicode="&#x448;" 
d="M471 417l-39 37v304l39 37l43 -40v-299zM88 417l-39 37v304l39 37l43 -40v-299zM471 61l-39 38v241l39 38l43 -39v-238zM239 103v108l41 39l39 -38v-109h-80zM416 -2h-273l-40 43l38 39h275l39 -39zM88 61l-39 38v241l39 38l43 -39v-238z" />
    <glyph glyph-name="uni0449" unicode="&#x449;" horiz-adv-x="631" 
d="M471 417l-39 37v304l39 37l43 -40v-299zM88 417l-39 37v304l39 37l43 -40v-299zM471 61l-39 38v241l39 38l43 -39v-238zM239 103v108l41 39l39 -38v-109h-80zM416 -2h-273l-40 43l38 39h275l39 -39zM88 61l-39 38v241l39 38l43 -39v-238zM542 -30h-54v51l54 83h52v-53z
" />
    <glyph glyph-name="uni044A" unicode="&#x44a;" horiz-adv-x="179" 
d="M88 548l-39 38v172l39 38l43 -40v-169z" />
    <glyph glyph-name="uni044B" unicode="&#x44b;" horiz-adv-x="776" 
d="M131 755v-299l-43 -40l-39 38v303l39 38zM455 398l-39 -42h-273l-40 43l38 39h275zM131 339v-237l-82 -83v321l39 38zM455 41l-39 -42h-352l77 82h275zM514 339v-237l-43 -40l-39 37v241l39 38zM675 416l-40 38v303l40 37l42 -40v-299zM675 -1l-40 38v303l40 38l42 -40
v-299z" />
    <glyph glyph-name="uni044C" unicode="&#x44c;" 
d="M131 755v-299l-43 -40l-39 38v303l39 38zM455 398l-39 -42h-273l-40 43l38 39h275zM131 339v-237l-82 -83v321l39 38zM455 41l-39 -42h-352l77 82h275zM514 339v-237l-43 -40l-39 37v241l39 38z" />
    <glyph glyph-name="uni044D" unicode="&#x44d;" horiz-adv-x="504" 
d="M373 102v236l43 40l39 -38v-319zM49 42l39 40h275l81 -82h-356zM49 396l39 42h273l40 -43l-38 -39h-275zM373 455v238l82 83v-322l-39 -38zM49 754l39 42h352l-77 -82h-275z" />
    <glyph glyph-name="uni044E" unicode="&#x44e;" horiz-adv-x="931" 
d="M797 0h-273l-25 25l-28 -26l-39 38v61l-2 2v240l39 38l1 -1l1 1l43 -40v-265l8 9h275l39 -40zM471 416l-1 1l-1 -1l-39 38v242l2 2v59l39 37l27 -26l26 28h273l39 -42l-39 -40h-275l-8 8v-267zM88 -1l-39 38v303l39 38l43 -40v-299zM88 416l-39 38v303l39 37l43 -40v-299
zM416 356h-275l-38 39l40 41h273l39 -40zM852 416l-39 38v242l39 37l43 -40v-238zM852 63l-39 37v240l39 38l43 -40v-236z" />
    <glyph glyph-name="uni044F" unicode="&#x44f;" 
d="M432 39v299l43 40l39 -38v-303l-39 -38zM73 54l280 280h54v-59l-275 -276h-58zM108 396l39 42h273l40 -43l-38 -39h-275zM432 455v238l82 83v-322l-39 -38zM108 754l39 41h352l-77 -81h-275zM49 455v238l43 40l39 -37v-242l-39 -38z" />
    <glyph glyph-name="uni0451" unicode="&#x451;" horiz-adv-x="504" 
d="M455 754l-39 42h-352l77 -82h275zM131 455v238l-82 83v-322l39 -38zM455 396l-39 42h-273l-40 -43l38 -39h275zM455 42l-39 40h-275l-81 -82h356zM131 102v236l-43 40l-39 -38v-319zM396 942l-58 56l-55 -57l55 -55zM206 942l-55 56l-56 -57l56 -55z" />
    <glyph glyph-name="endash" unicode="&#x2013;" horiz-adv-x="601" 
d="M553 316l-38 39h-427l-39 -40l39 -42h426z" />
    <glyph glyph-name="emdash" unicode="&#x2014;" horiz-adv-x="1099" 
d="M1049 316l-38 39h-923l-39 -40l39 -42h922z" />
    <glyph glyph-name="quoteleft" unicode="&#x2018;" horiz-adv-x="201" 
d="M157 746v50l-54 -1l-54 -80l1 -54h53z" />
    <glyph glyph-name="quoteright" unicode="&#x2019;" horiz-adv-x="206" 
d="M157 746v50l-54 -1l-54 -80l1 -54h53z" />
    <glyph glyph-name="quotesinglbase" unicode="&#x201a;" horiz-adv-x="206" 
d="M157 -2v49l-54 -1l-54 -80l1 -54h53z" />
    <glyph glyph-name="quotedblleft" unicode="&#x201c;" horiz-adv-x="336" 
d="M289 746l-1 50l-54 -1l-54 -80l1 -54h53zM157 746v50l-54 -1l-54 -80l1 -54h53z" />
    <glyph glyph-name="quotedblright" unicode="&#x201d;" horiz-adv-x="336" 
d="M289 746l-1 50l-54 -1l-54 -80l1 -54h53zM157 746v50l-54 -1l-54 -80l1 -54h53z" />
    <glyph glyph-name="quotedblbase" unicode="&#x201e;" horiz-adv-x="336" 
d="M289 -2l-1 49l-54 -1l-54 -80l1 -54h53zM157 -2v49l-54 -1l-54 -80l1 -54h53z" />
    <glyph glyph-name="dagger" unicode="&#x2020;" horiz-adv-x="635" 
d="M586 487v67h-238v241h-63v-240h-236l1 -68h235v-692h62v692h239z" />
    <glyph glyph-name="bullet" unicode="&#x2022;" horiz-adv-x="368" 
d="M318 407l-130 130l-139 -140l130 -129z" />
    <glyph glyph-name="ellipsis" unicode="&#x2026;" horiz-adv-x="692" 
d="M162 56l-56 55l-56 -56l56 -56zM396 56l-57 55l-55 -56l55 -56zM626 56l-56 55l-56 -56l56 -56z" />
    <glyph glyph-name="trademark" unicode="&#x2122;" horiz-adv-x="769" 
d="M723 408v387h-57l-125 -340l-123 341h-59v-388h38v346l124 -345h35l128 344v-345h39zM330 762v33h-281v-33h121v-357h37v357h123z" />
    <glyph glyph-name="partialdiff" unicode="&#x2202;" horiz-adv-x="579" 
d="M533 428c-3.33301 46 -11.501 91.332 -24.501 135.999s-31.333 84.667 -55 120s-52.667 64.166 -87 86.499s-74.5 33.833 -120.5 34.5c-20 0.666992 -37.167 -0.5 -51.5 -3.5s-31.166 -7.16699 -50.499 -12.5l-46 -13l41 -51l19 6c10 2.66699 19.333 5.66699 28 9
s17 6.33301 25 9s16.167 4.83398 24.5 6.50098s17.833 2.5 28.5 2.5c37.333 0 68.833 -10.833 94.5 -32.5s46 -49 61 -82s24.667 -69.667 29 -110s3.5 -78.833 -2.5 -115.5l-8 -55l-33 23c-23.333 16.667 -45 29.167 -65 37.5s-44 12.833 -72 13.5
c-31.333 0 -60.5 -6.5 -87.5 -19.5s-50.333 -30.5 -70 -52.5s-34.834 -47.333 -45.501 -76s-15 -58.667 -13 -90c1.33301 -28.667 6.5 -55.334 15.5 -80.001s21.833 -46.334 38.5 -65.001s37.334 -34 62.001 -46s53.334 -19.333 86.001 -22c30 -3.33301 58 0.666992 84 12
s49.833 27.833 71.5 49.5s40.667 47.334 57 77.001s30 61.334 41 95.001s18.667 68.334 23 104.001s5.16602 70.5 2.49902 104.5zM428.999 322.999l-15.999 -84.0029c-5.33301 -27.333 -12.5 -55.666 -21.5 -84.999s-20.5 -55.5 -34.5 -78.5s-30.833 -40.5 -50.5 -52.5
s-42.5 -14 -68.5 -6c-22 6.66699 -40 18 -54 34s-24.333 34.333 -31 55s-9.83398 42.834 -9.50098 66.501s3.5 46.834 9.5 69.501c6 21.333 14.333 42 25 62s23.5 37.167 38.5 51.5s31.833 24.833 50.5 31.5s39 7.66699 61 3c15.333 -3.33301 28.333 -8 39 -14
s21.667 -14.333 33 -25z" />
    <glyph glyph-name="product" unicode="&#x220f;" horiz-adv-x="958" 
d="M907 -74l0.00195312 17.998h-25c-12.667 0.666992 -23.834 2.16699 -33.501 4.5s-19.167 7.83301 -28.5 16.5c-11.333 10 -18 20.833 -20 32.5s-3 25.167 -3 40.5v639c0 19.333 2 37 6 53s13.667 30.333 29 43c8 6 15.833 10.833 23.5 14.5
s16.834 5.83398 27.501 6.50098l24 1v24h-852v-22l18 -2c11.333 -1.33301 20.666 -3.83301 27.999 -7.5s15.333 -9.16699 24 -16.5c12 -10.667 20.833 -22 26.5 -34s8.5 -26.667 8.5 -44v-646c0 -16.667 -0.833008 -32 -2.5 -46s-8.83398 -26 -21.501 -36
c-9.33301 -7.33301 -18.666 -11.666 -27.999 -12.999s-20 -2 -32 -2h-27v-24h340v22h-22c-12.667 0 -23.834 0.666992 -33.501 2s-19.5 5.66602 -29.5 12.999c-13.333 10 -21.333 22.167 -24 36.5s-4 29.833 -4 46.5v711h397v-717c0 -15.333 -0.166992 -29 -0.5 -41
s-5.5 -23 -15.5 -33c-8.66699 -9.33301 -18 -14.666 -28 -15.999s-21.333 -2 -34 -2l-27 -2v-20h339z" />
    <glyph glyph-name="summation" unicode="&#x2211;" horiz-adv-x="839" 
d="M793 158l-23.999 -0.000976562c-2.66699 -39.333 -19.667 -71 -51 -95c-12 -9.33301 -23.333 -16 -34 -20s-23.667 -6 -39 -6h-437l328 368l-306 369h318c21.333 0 40.333 -1.33301 57 -4s33 -11 49 -25c15.333 -13.333 26.166 -27.666 32.499 -42.999
s9.16602 -32.666 8.49902 -51.999h23l-2 174h-590l-70 7l380 -474l-387 -425h623l78 -15c0 22.667 1 42.167 3 58.5s5 35.5 9 57.5l5.5 33.5c1.66699 10.333 3.83398 20.166 6.50098 29.499l8.5 29c3 10 6.5 21 10.5 33z" />
    <glyph glyph-name="radical" unicode="&#x221a;" horiz-adv-x="601" 
d="M553 855l-33 5l-129 -776l-198 389l-144 -68l15 -33l94 49l246 -488z" />
    <glyph glyph-name="infinity" unicode="&#x221e;" horiz-adv-x="892" 
d="M847 282c-0.666992 22 -5.50098 42.499 -14.501 61.499s-21 35.667 -36 50s-32.5 25.666 -52.5 33.999s-41.333 13.166 -64 14.499c-28.667 1.33301 -57 -5.16699 -85 -19.5s-55 -33.166 -81 -56.499l-65 -58l-64 58c-26.667 24 -54 43 -82 57s-56.333 20.333 -85 19
c-22.667 -1.33301 -44 -6.16602 -64 -14.499s-37.5 -19.666 -52.5 -33.999s-27 -31 -36 -50s-13.833 -39.5 -14.5 -61.5c-0.666992 -26.667 3.5 -50.834 12.5 -72.501s21.333 -40 37 -55s33.334 -26.5 53.001 -34.5s40.167 -12 61.5 -12
c27.333 0.666992 57.5 7.33398 90.5 20.001s63.5 32.334 91.5 59.001l52 47l52 -47c28 -26.667 58.333 -46.334 91 -59.001s63 -19.334 91 -20.001c20.667 0 41 4 61 12s37.833 19.5 53.5 34.5s28 33.333 37 55s13.167 45.834 12.5 72.501zM788.999 276.999
c1.33301 -15.333 -0.666016 -29.8311 -5.99902 -43.498s-13 -25.667 -23 -36s-22.333 -18.5 -37 -24.5s-31 -9.33301 -49 -10c-24 -0.666992 -45.167 2.5 -63.5 9.5s-36.5 18.833 -54.5 35.5l-71 66l77 58c19.333 14.667 37.166 26.167 53.499 34.5s36.5 13.166 60.5 14.499
c30.667 0.666992 56.667 -8.83301 78 -28.5s33 -44.834 35 -75.501zM413 274.001l-70.9971 -66.002c-18.667 -16.667 -36.834 -28.5 -54.501 -35.5s-39.167 -10.167 -64.5 -9.5c-17.333 0.666992 -33.333 4 -48 10s-27 14.167 -37 24.5s-17.667 22.333 -23 36
s-7.33301 28.167 -6 43.5c2.66699 30.667 14.5 55.834 35.5 75.501s47.167 29.167 78.5 28.5c23.333 -1.33301 43.166 -6.16602 59.499 -14.499s34.166 -19.833 53.499 -34.5z" />
    <glyph glyph-name="integral" unicode="&#x222b;" horiz-adv-x="371" 
d="M320 839c1.33301 7.33301 0.333008 14.1729 -3 20.5059s-8 11.666 -14 15.999s-12.833 7.66602 -20.5 9.99902s-15.167 3.5 -22.5 3.5c-22 0 -39.5 -8.16699 -52.5 -24.5s-23 -37 -30 -62s-11.5 -52.333 -13.5 -82s-3 -57.834 -3 -84.501v-467
c0 -22 0.666992 -46.5 2 -73.5s1.5 -52.167 0.5 -75.5s-3.66699 -42.333 -8 -57s-12.166 -20.334 -23.499 -17.001c-5.33301 1.33301 -9.33301 3.83301 -12 7.5l-8 10.5c-2.66699 3.33301 -5.83398 6.33301 -9.50098 9s-8.83398 4 -15.501 4
c-10.667 -1.33301 -19.667 -5.66602 -27 -12.999s-11.666 -16.666 -12.999 -27.999c-1.33301 -12 2.66699 -22.5 12 -31.5s18.666 -15.167 27.999 -18.5c21.333 -6 39.5 -4.33301 54.5 5s27.5 23.166 37.5 41.499s17.833 40.166 23.5 65.499s10 51.333 13 78s5 52.5 6 77.5
s1.5 46.5 1.5 64.5v336c0 26 -1.83301 55.667 -5.5 89s-6.5 64.166 -8.5 92.499s-1.66699 51.166 1 68.499s10.334 23 23.001 17c8 -4 14.5 -8.66699 19.5 -14s11.833 -8 20.5 -8c12 0 22.5 3.66699 31.5 11s14.167 17 15.5 29z" />
    <glyph glyph-name="approxequal" unicode="&#x2248;" horiz-adv-x="738" 
d="M693 417l-47.002 30.0039l-21 -23c-15.333 -15.333 -31.166 -26 -47.499 -32s-35.166 -10 -56.499 -12c-10.667 -0.666992 -20.167 -0.333984 -28.5 0.999023s-16.5 3.16602 -24.5 5.49902s-16 5 -24 8s-17 6.16699 -27 9.5l-86 25
c-24 7.33301 -45.167 12.666 -63.5 15.999s-39.833 3 -64.5 -1c-30 -4 -55.167 -11.667 -75.5 -23s-40.833 -28.333 -61.5 -51l-17 -16l50 -34l20 22c13.333 14 26.333 24.667 39 32s28.334 13 47.001 17c19.333 3.33301 36.333 3.16602 51 -0.500977
s31.667 -8.16699 51 -13.5l97 -27c11.333 -3.33301 21.666 -6.66602 30.999 -9.99902l27.5 -9.5c9 -3 18.333 -5.33301 28 -7s20.5 -2.16699 32.5 -1.5c32 1.33301 59.167 7.16602 81.5 17.499s43.833 27.5 64.5 51.5zM692.998 230.004l-47.001 28.0049l-21 -22
c-15.333 -16 -31.166 -26.833 -47.499 -32.5s-35.166 -9.5 -56.499 -11.5c-10.667 -1.33301 -20.167 -1.33301 -28.5 0s-16.5 3.16602 -24.5 5.49902s-16 5 -24 8s-17 6.16699 -27 9.5l-86 26c-24 7.33301 -45.167 12.666 -63.5 15.999s-39.833 3 -64.5 -1
c-30 -4.66699 -55.167 -12.5 -75.5 -23.5s-40.833 -27.5 -61.5 -49.5l-17 -18l50 -33l20 21c13.333 14 26.333 24.833 39 32.5s28.334 13.5 47.001 17.5c10 2 19 2.83301 27 2.5s16 -1.33301 24 -3s16.167 -3.83398 24.5 -6.50098s17.166 -5.33398 26.499 -8.00098l97 -27
c11.333 -3.33301 21.666 -6.66602 30.999 -9.99902s18.5 -6.33301 27.5 -9s18.333 -4.83398 28 -6.50098s20.5 -2.16699 32.5 -1.5c32 1.33301 59.167 7.16602 81.5 17.499s43.833 27.5 64.5 51.5z" />
    <glyph glyph-name="notequal" unicode="&#x2260;" horiz-adv-x="669" 
d="M623 141v64h-299l88 150h211v63h-178l82 146l-53 32l-100 -178h-325v-63h287l-81 -150h-206v-64h170l-79 -141l54 -32l97 173h332z" />
    <glyph glyph-name="lessequal" unicode="&#x2264;" horiz-adv-x="638" 
d="M589 139v71l-450 211l449 201v73l-539 -245v-58zM588 0l-1 61h-537v-61h538z" />
    <glyph glyph-name="greaterequal" unicode="&#x2265;" horiz-adv-x="638" 
d="M589 392v58l-539 245v-73l449 -201l-450 -211v-71zM587 0v61h-537v-61h537z" />
    <glyph glyph-name="lozenge" unicode="&#x25ca;" horiz-adv-x="575" 
d="M525 392l-203 385h-67l-206 -380l206 -399h67zM463 392l-174 -344l-177 347l176 324z" />
    <glyph glyph-name=".null" horiz-adv-x="0" 
 />
    <glyph glyph-name="nonmarkingreturn" horiz-adv-x="201" 
 />
    <glyph glyph-name="uni041D.001" horiz-adv-x="833" 
 />
    <glyph glyph-name="uni0415.001" horiz-adv-x="833" 
 />
    <glyph glyph-name="Y.001" 
d="M471 416l-39 38v303l39 37l43 -40v-299zM88 416l-39 38v303l39 37l43 -40v-299zM471 63l-39 37v240l39 38l43 -40v-236zM416 356h-275l-38 39l40 43h273l39 -42zM416 0h-325l-40 42l37 40h328l39 -40z" />
    <glyph glyph-name="uni042A.001" 
d="M131 755v-299l-43 -40l-39 38v303l39 38zM455 398l-39 -42h-273l-40 43l38 39h275zM131 339v-237l-82 -83v321l39 38zM455 41l-39 -42h-352l77 82h275zM514 339v-237l-43 -40l-39 37v241l39 38z" />
    </font>
</defs>
</svg>
