<svg width="14" height="13" viewBox="0 0 14 13" fill="none" xmlns="http://www.w3.org/2000/svg">
<path d="M13.5193 1.42848L12.5578 0.476074C12.2374 0.158691 11.8175 0 11.3978 0C10.9779 0 10.5581 0.158691 10.2379 0.47582L8.49783 2.19934L7.91799 1.625C7.59756 1.30762 7.07821 1.30762 6.75804 1.625L3.42251 4.92883C3.34253 5.00805 3.34253 5.13678 3.42251 5.216L3.71243 5.50316C3.79241 5.58238 3.92238 5.58238 4.00236 5.50316L7.33763 2.19959L7.91747 2.77393L3.28357 7.36404C1.93781 8.69704 1.09002 10.4439 0.879594 12.3175L0.878825 12.3233C0.838067 12.6882 1.1285 13 1.48918 13C1.63606 13 4.33611 12.8225 6.56553 10.6146L13.5196 3.72658C14.1602 3.09182 14.1602 2.06299 13.5193 1.42848ZM5.98542 10.04C4.83188 11.1825 3.32126 11.9293 1.72757 12.1573C1.96162 10.5668 2.71449 9.07689 3.86393 7.93838L8.49783 3.34852L8.49809 3.34877L8.49835 3.34852L10.6198 5.44984L5.98542 10.04ZM12.9395 3.15199L11.1994 4.87551L9.07768 2.77393L10.8177 1.05041C11.1382 0.733027 11.657 0.732773 11.9777 1.05041L12.9392 2.00281C13.2599 2.3202 13.2602 2.8341 12.9395 3.15199Z" fill="#828282"/>
</svg>
