<svg width="20" height="16" viewBox="0 0 20 16" fill="none" xmlns="http://www.w3.org/2000/svg">
<path d="M12.5 10.1111H16.3889C16.5417 10.1111 16.6667 9.98609 16.6667 9.83331V9.27775C16.6667 9.12497 16.5417 8.99997 16.3889 8.99997H12.5C12.3472 8.99997 12.2222 9.12497 12.2222 9.27775V9.83331C12.2222 9.98609 12.3472 10.1111 12.5 10.1111ZM12.5 7.88886H16.3889C16.5417 7.88886 16.6667 7.76386 16.6667 7.61108V7.05553C16.6667 6.90275 16.5417 6.77775 16.3889 6.77775H12.5C12.3472 6.77775 12.2222 6.90275 12.2222 7.05553V7.61108C12.2222 7.76386 12.3472 7.88886 12.5 7.88886ZM12.5 12.3333H16.3889C16.5417 12.3333 16.6667 12.2083 16.6667 12.0555V11.5C16.6667 11.3472 16.5417 11.2222 16.3889 11.2222H12.5C12.3472 11.2222 12.2222 11.3472 12.2222 11.5V12.0555C12.2222 12.2083 12.3472 12.3333 12.5 12.3333ZM6.66667 11.2222C8.20139 11.2222 9.44444 9.97914 9.44444 8.44442C9.44444 6.9097 8.20139 5.66664 6.66667 5.66664C5.13194 5.66664 3.88889 6.9097 3.88889 8.44442C3.88889 9.97914 5.13194 11.2222 6.66667 11.2222ZM6.66667 6.77775C7.58681 6.77775 8.33333 7.52428 8.33333 8.44442C8.33333 9.36456 7.58681 10.1111 6.66667 10.1111C5.74653 10.1111 5 9.36456 5 8.44442C5 7.52428 5.74653 6.77775 6.66667 6.77775ZM17.7778 0.111084H2.22222C0.996528 0.111084 0 1.10761 0 2.33331V13.4444C0 14.6701 0.996528 15.6666 2.22222 15.6666H17.7778C19.0035 15.6666 20 14.6701 20 13.4444V2.33331C20 1.10761 19.0035 0.111084 17.7778 0.111084ZM9.44444 14.5555H3.88889V14.0312C3.88889 13.7882 3.96181 13.5521 4.09722 13.3507C4.29167 13.0625 4.64583 12.8923 5.04514 12.8923C5.47569 12.8923 5.76736 13.1354 6.67014 13.1354C7.56945 13.1354 7.86111 12.8923 8.29514 12.8923C8.69444 12.8923 9.04861 13.0659 9.24306 13.3507C9.37847 13.5521 9.45139 13.7882 9.45139 14.0312V14.5555H9.44444ZM18.8889 13.4444C18.8889 14.0555 18.3889 14.5555 17.7778 14.5555H10.5556V14.0312C10.5556 13.5486 10.4097 13.1007 10.1597 12.7291C9.73958 12.1076 9.02431 11.7778 8.29167 11.7778C7.61458 11.7778 7.44444 12.0208 6.66667 12.0208C5.88889 12.0208 5.71875 11.7778 5.04167 11.7778C4.30556 11.7778 3.59028 12.1041 3.17361 12.7291C2.92361 13.1007 2.77778 13.5486 2.77778 14.0312V14.5555H2.22222C1.61111 14.5555 1.11111 14.0555 1.11111 13.4444V4.55553H18.8889V13.4444ZM18.8889 3.44442H1.11111V2.33331C1.11111 1.7222 1.61111 1.2222 2.22222 1.2222H17.7778C18.3889 1.2222 18.8889 1.7222 18.8889 2.33331V3.44442Z" fill="#234D60"/>
</svg>
