<svg width="18" height="20" viewBox="0 0 18 20" fill="none" xmlns="http://www.w3.org/2000/svg">
<path d="M15.625 2.5H13.75V0.3125C13.75 0.140625 13.6094 0 13.4375 0H12.8125C12.6406 0 12.5 0.140625 12.5 0.3125V2.5H5V0.3125C5 0.140625 4.85938 0 4.6875 0H4.0625C3.89062 0 3.75 0.140625 3.75 0.3125V2.5H1.875C0.839844 2.5 0 3.33984 0 4.375V18.125C0 19.1602 0.839844 20 1.875 20H15.625C16.6602 20 17.5 19.1602 17.5 18.125V4.375C17.5 3.33984 16.6602 2.5 15.625 2.5ZM16.25 18.125C16.25 18.4688 15.9688 18.75 15.625 18.75H1.875C1.53125 18.75 1.25 18.4688 1.25 18.125V7.5H16.25V18.125ZM16.25 6.25H1.25V4.375C1.25 4.03125 1.53125 3.75 1.875 3.75H15.625C15.9688 3.75 16.25 4.03125 16.25 4.375V6.25ZM4.375 15H8.125C8.46875 15 8.75 14.7188 8.75 14.375V10.625C8.75 10.2812 8.46875 10 8.125 10H4.375C4.03125 10 3.75 10.2812 3.75 10.625V14.375C3.75 14.7188 4.03125 15 4.375 15ZM5 11.25H7.5V13.75H5V11.25Z" fill="#234D60"/>
</svg>
