<svg width="22" height="23" viewBox="0 0 22 23" fill="none" xmlns="http://www.w3.org/2000/svg">
<path d="M11.0673 5.88477C7.96179 5.88477 5.45691 8.38965 5.45691 11.4951C5.45691 14.6006 7.96179 17.1055 11.0673 17.1055C14.1727 17.1055 16.6776 14.6006 16.6776 11.4951C16.6776 8.38965 14.1727 5.88477 11.0673 5.88477ZM11.0673 15.1426C9.06043 15.1426 7.4198 13.5068 7.4198 11.4951C7.4198 9.4834 9.05554 7.84766 11.0673 7.84766C13.079 7.84766 14.7147 9.4834 14.7147 11.4951C14.7147 13.5068 13.0741 15.1426 11.0673 15.1426ZM18.2157 5.65527C18.2157 6.38281 17.6298 6.96387 16.9071 6.96387C16.1796 6.96387 15.5985 6.37793 15.5985 5.65527C15.5985 4.93262 16.1845 4.34668 16.9071 4.34668C17.6298 4.34668 18.2157 4.93262 18.2157 5.65527ZM21.9315 6.9834C21.8485 5.23047 21.4481 3.67773 20.1639 2.39844C18.8846 1.11914 17.3319 0.71875 15.579 0.630859C13.7723 0.52832 8.3573 0.52832 6.55066 0.630859C4.80261 0.713867 3.24988 1.11426 1.9657 2.39355C0.681519 3.67285 0.286011 5.22559 0.19812 6.97852C0.0955811 8.78516 0.0955811 14.2002 0.19812 16.0068C0.281128 17.7598 0.681519 19.3125 1.9657 20.5918C3.24988 21.8711 4.79773 22.2715 6.55066 22.3594C8.3573 22.4619 13.7723 22.4619 15.579 22.3594C17.3319 22.2764 18.8846 21.876 20.1639 20.5918C21.4432 19.3125 21.8436 17.7598 21.9315 16.0068C22.0341 14.2002 22.0341 8.79004 21.9315 6.9834ZM19.5975 17.9453C19.2167 18.9023 18.4794 19.6396 17.5175 20.0254C16.077 20.5967 12.6591 20.4648 11.0673 20.4648C9.47546 20.4648 6.05261 20.5918 4.61707 20.0254C3.66003 19.6445 2.92273 18.9072 2.53699 17.9453C1.9657 16.5049 2.09753 13.0869 2.09753 11.4951C2.09753 9.90332 1.97058 6.48047 2.53699 5.04492C2.91785 4.08789 3.65515 3.35059 4.61707 2.96484C6.0575 2.39355 9.47546 2.52539 11.0673 2.52539C12.6591 2.52539 16.0819 2.39844 17.5175 2.96484C18.4745 3.3457 19.2118 4.08301 19.5975 5.04492C20.1688 6.48535 20.037 9.90332 20.037 11.4951C20.037 13.0869 20.1688 16.5098 19.5975 17.9453Z"/>
</svg>
