<svg width="143" height="20" viewBox="0 0 143 20" fill="none" xmlns="http://www.w3.org/2000/svg">
<path fill-rule="evenodd" clip-rule="evenodd" d="M101.824 19.765C102.315 19.7603 102.761 19.661 103.157 19.4582C103.558 19.255 103.873 18.9701 104.112 18.6C104.346 18.234 104.467 17.8008 104.472 17.2995C104.467 16.7892 104.346 16.3467 104.112 15.9714C103.873 15.5969 103.558 15.3035 103.157 15.0956C102.761 14.8878 102.315 14.7839 101.824 14.7796C101.315 14.7839 100.856 14.8878 100.451 15.0956C100.046 15.3035 99.726 15.5969 99.4873 15.9714C99.2485 16.3467 99.1271 16.7892 99.1224 17.2995C99.1271 17.8008 99.2485 18.234 99.4873 18.6C99.726 18.9701 100.046 19.255 100.451 19.4582C100.856 19.661 101.315 19.7603 101.824 19.765ZM10.9421 19.6022H16.3186V18.8435L9.35437 9.99662L16.1415 0.623246H10.8568L4.91721 8.76738V0.635742C3.27823 0.635742 1.63912 0.635742 0 0.635742V19.6022H4.91721V11.364L10.9421 19.6022ZM120.385 12.8831C121.07 12.4087 121.628 11.8444 122.06 11.1803C122.493 10.5213 122.799 9.80318 122.983 9.03518C123.168 8.27226 123.227 7.49107 123.159 6.70563C123.092 5.91964 122.903 5.16537 122.587 4.44296C122.267 3.72055 121.831 3.07476 121.263 2.50573C120.7 1.93656 120.012 1.48507 119.196 1.1507C118.386 0.816343 117.449 0.645111 116.387 0.635774C115.004 0.635774 113.622 0.635774 112.231 0.635774C110.839 0.635774 109.461 0.635774 108.092 0.635774C108.092 3.8061 108.092 6.97175 108.092 10.1282C108.092 13.2896 108.092 16.4459 108.092 19.6022C108.88 19.6022 109.677 19.6022 110.492 19.6022C111.303 19.6022 112.118 19.6022 112.928 19.6022V14.0209H115.441L118.683 19.6022H124.087V18.8981L120.385 12.8831ZM116.387 9.65866H112.929C112.929 8.89533 112.929 8.11882 112.929 7.32404C112.929 6.53352 112.929 5.74794 112.929 4.97101C113.496 4.96635 114.072 4.96635 114.658 4.96209C115.238 4.95316 115.815 4.95783 116.387 4.97101C116.846 4.98035 117.224 5.10229 117.526 5.32762C117.828 5.55337 118.048 5.84255 118.192 6.19957C118.341 6.55178 118.409 6.92665 118.404 7.32404C118.395 7.72143 118.319 8.0963 118.166 8.4481C118.012 8.80045 117.787 9.08963 117.49 9.31538C117.193 9.53687 116.823 9.64974 116.387 9.65866ZM135.403 15.5109C135.047 15.5109 134.701 15.4634 134.358 15.3665C134.017 15.2695 133.711 15.1299 133.431 14.9375C133.153 14.7469 132.929 14.5094 132.764 14.2195C132.601 13.9318 132.512 13.5966 132.512 13.2078V0.635774C131.751 0.635774 130.981 0.635774 130.202 0.635774C129.423 0.635774 128.653 0.635774 127.892 0.635774V13.2896C127.892 14.1241 128.033 14.8878 128.302 15.5744C128.573 16.2649 128.946 16.8749 129.423 17.4077C129.9 17.9406 130.458 18.3932 131.089 18.758C131.723 19.1246 132.404 19.3994 133.138 19.589C133.872 19.7785 134.624 19.8736 135.403 19.8736C136.186 19.8736 136.948 19.7785 137.681 19.589C138.415 19.3994 139.104 19.1234 139.739 18.758C140.374 18.3925 140.929 17.9413 141.41 17.4077C141.888 16.8764 142.26 16.2649 142.531 15.5744C142.8 14.8878 142.941 14.1249 142.941 13.2896V0.635774C142.18 0.635774 141.405 0.635774 140.613 0.635774C139.825 0.635774 139.042 0.635774 138.267 0.635774V13.2078C138.267 13.5958 138.181 13.9306 138.019 14.2195C137.857 14.5087 137.635 14.7469 137.362 14.9375C137.086 15.1299 136.78 15.2695 136.443 15.3665C136.105 15.4634 135.759 15.5109 135.403 15.5109ZM87.9115 4.64601C87.5559 4.64601 87.2089 4.69119 86.8666 4.79047C86.5247 4.88549 86.2184 5.02555 85.9389 5.21944C85.6599 5.40934 85.439 5.64882 85.2725 5.93759C85.1103 6.22637 85.0248 6.56073 85.0202 6.94919V19.5208C84.2596 19.5208 83.4895 19.5208 82.7104 19.5208C81.9314 19.5208 81.1614 19.5208 80.4004 19.5208V6.8679C80.405 6.03248 80.5396 5.26928 80.8098 4.58257C81.0803 3.89174 81.4541 3.2822 81.9314 2.74928C82.4089 2.2165 82.967 1.76487 83.5974 1.39907C84.2323 1.03354 84.9123 0.757946 85.6463 0.568452C86.3802 0.37882 87.1325 0.283936 87.9115 0.283936C88.6951 0.283936 89.4558 0.37882 90.1897 0.568452C90.9236 0.757946 91.6126 1.03354 92.2476 1.39907C92.8826 1.76487 93.4365 2.2165 93.9182 2.74928C94.3955 3.2822 94.7693 3.89174 95.0394 4.58257C95.3096 5.26928 95.4446 6.03248 95.449 6.8679V19.5208C94.6882 19.5208 93.9139 19.5208 93.1209 19.5208C92.333 19.5208 91.5498 19.5208 90.7751 19.5208V6.94919C90.7704 6.56073 90.6896 6.22637 90.5274 5.93759C90.3651 5.64882 90.1447 5.40934 89.8699 5.21944C89.5955 5.02555 89.2893 4.88549 88.9512 4.79047C88.6139 4.69119 88.2669 4.64601 87.9115 4.64601ZM27.5 15.5109C27.1445 15.5109 26.7975 15.4662 26.4555 15.3665C26.1132 15.2716 25.807 15.1318 25.5276 14.9375C25.2488 14.748 25.0279 14.5087 24.8614 14.2195C24.6993 13.9306 24.6135 13.5966 24.6092 13.2078V0.635774C23.8481 0.635774 23.0784 0.635774 22.299 0.635774C21.5201 0.635774 20.75 0.635774 19.9893 0.635774V13.2896C19.9935 14.1249 20.1287 14.8878 20.3988 15.5744C20.669 16.2652 21.043 16.8752 21.5201 17.4077C21.9975 17.9402 22.556 18.3921 23.1863 18.758C23.8209 19.1238 24.5013 19.3994 25.2348 19.589C25.9689 19.7781 26.721 19.8736 27.5 19.8736C28.2833 19.8736 29.0443 19.7785 29.7784 19.589C30.5123 19.399 31.2016 19.1238 31.8362 18.758C32.4711 18.3921 33.025 17.9406 33.5071 17.4077C33.9841 16.8749 34.3583 16.2652 34.6283 15.5744C34.8985 14.8878 35.0336 14.1249 35.0379 13.2896V0.635774C34.2767 0.635774 33.5024 0.635774 32.7099 0.635774C31.9219 0.635774 31.1383 0.635774 30.3636 0.635774V13.2078C30.3593 13.5966 30.2783 13.9306 30.116 14.2195C29.9546 14.5083 29.7333 14.748 29.4589 14.9375C29.1841 15.1318 28.8778 15.2716 28.5402 15.3665C28.2025 15.4662 27.856 15.5109 27.5 15.5109ZM54.3004 0.635774H39.9808C39.9808 1.04717 39.9808 1.42629 39.9808 1.77823C39.9808 2.13086 39.9808 2.46947 39.9808 2.80384C39.9808 3.13312 39.9808 3.4764 39.9808 3.82875C39.9808 4.18097 39.9808 4.56009 39.9808 4.97107H47.0055L39.2787 18.8709V19.6022H54.3812C54.3812 19.1915 54.3812 18.8121 54.3812 18.4598C54.3812 18.1076 54.3812 17.7689 54.3812 17.435C54.3812 17.1009 54.3812 16.7619 54.3812 16.4097C54.3812 16.0575 54.3812 15.6783 54.3812 15.2672H46.5463L54.3004 1.36752V0.635774ZM76.2469 10.1464C76.2469 8.83656 76.0575 7.65373 75.702 6.60588C75.3465 5.55845 74.8555 4.63706 74.2295 3.85121C73.6037 3.06536 72.88 2.4079 72.0594 1.88239C71.237 1.3562 70.357 0.964584 69.4204 0.703411C68.4796 0.441552 67.5244 0.311103 66.5475 0.311103C65.5707 0.311103 64.6154 0.441552 63.6746 0.703411C62.7376 0.964584 61.8594 1.35813 61.0404 1.88239C60.2164 2.40982 59.491 3.06536 58.8652 3.85121C58.2396 4.63706 57.7486 5.55845 57.393 6.60588C57.0372 7.65373 56.8478 8.83656 56.8478 10.1464C56.8478 11.4601 57.0368 12.6442 57.393 13.6954C57.7478 14.7433 58.2384 15.6654 58.8652 16.4548C59.4902 17.241 60.2183 17.8973 61.0404 18.4239C61.8613 18.9494 62.738 19.3457 63.6746 19.6068C64.6154 19.8691 65.5707 20 66.5475 20C67.5244 20 68.4796 19.8691 69.4204 19.6068C70.357 19.3457 71.2349 18.9513 72.0594 18.4239C72.8779 17.8996 73.605 17.241 74.2295 16.4548C74.8563 15.6654 75.3465 14.748 75.702 13.6954C76.0575 12.6433 76.2469 11.4601 76.2469 10.1464ZM61.8194 10.1464C61.8194 9.29275 61.9618 8.54658 62.2246 7.90628C62.4886 7.26447 62.8495 6.73087 63.3009 6.30341C63.7499 5.87759 64.26 5.55724 64.8181 5.34591C65.3808 5.13307 65.9619 5.02555 66.5608 5.02555C67.16 5.02555 67.7411 5.13376 68.3039 5.34591C68.8664 5.55847 69.3724 5.87759 69.8211 6.30341C70.2724 6.73087 70.6319 7.2653 70.8973 7.90628C71.1633 8.54781 71.3026 9.29275 71.3026 10.1464C71.3026 11.0042 71.1633 11.7586 70.8973 12.404C70.6319 13.0497 70.2713 13.5873 69.8211 14.0162C69.3712 14.4452 68.867 14.7726 68.3039 14.9873C67.7419 15.2011 67.16 15.3081 66.5608 15.3081C65.9619 15.3081 65.3801 15.2018 64.8181 14.9873C64.2591 14.7733 63.7512 14.4452 63.3009 14.0162C62.8506 13.5873 62.4886 13.0505 62.2246 12.404C61.9618 11.7595 61.8194 11.0042 61.8194 10.1464Z"/>
</svg>
