<svg width="14" height="14" viewBox="0 0 14 14" fill="none" xmlns="http://www.w3.org/2000/svg">
<path d="M13.4829 9.60611L10.5191 8.33463C10.3488 8.26199 10.1595 8.24645 9.97965 8.29031C9.79975 8.33418 9.63888 8.4351 9.5211 8.57799L8.31524 10.0518C6.41855 9.11896 4.88403 7.58445 3.95118 5.68775L5.42501 4.48189C5.56787 4.36416 5.66878 4.20334 5.71265 4.02349C5.75652 3.84363 5.74098 3.65441 5.66837 3.48412L4.39688 0.517324C4.31738 0.33335 4.17588 0.183076 3.99703 0.0926475C3.81817 0.00221946 3.61327 -0.0226376 3.41797 0.0224017L0.661725 0.659511C0.473319 0.702124 0.305076 0.80771 0.18477 0.958837C0.0644653 1.10996 -0.000709428 1.2976 5.82491e-06 1.49076C5.82491e-06 8.41666 5.61368 14.0003 12.5095 14.0003C12.7033 14.0006 12.8915 13.935 13.0431 13.8143C13.1947 13.6935 13.3007 13.5248 13.3438 13.3358L13.9779 10.5823C14.0229 10.3874 13.9979 10.1828 13.9075 10.0044C13.817 9.82599 13.6668 9.68502 13.4829 9.60611ZM12.4931 13.1253C6.08126 13.117 0.883209 7.92174 0.87774 1.5099L3.60118 0.880995L4.85899 3.81744L2.86837 5.44439C4.1918 8.26627 5.72579 9.80572 8.5586 11.1346L10.1856 9.144L13.122 10.4018L12.4931 13.1253Z" fill="#234D60"/>
</svg>
