<svg width="14" height="15" viewBox="0 0 14 15" fill="none" xmlns="http://www.w3.org/2000/svg"><path d="M12.6372 0.937383H9.12688L8.8519 0.389531C8.79365 0.272407 8.70393 0.173884 8.59282 0.105047C8.48171 0.0362095 8.35362 -0.00021078 8.22297 -0.000116934H4.87937C4.74901 -0.000618805 4.62115 0.0356657 4.51044 0.104579C4.39972 0.173493 4.31062 0.272249 4.25336 0.389531L3.97838 0.937383H0.468045C0.343912 0.937383 0.224863 0.986769 0.137087 1.07468C0.0493118 1.16258 0 1.28181 0 1.40613L0 2.34363C0 2.46795 0.0493118 2.58718 0.137087 2.67509C0.224863 2.763 0.343912 2.81238 0.468045 2.81238H12.6372C12.7614 2.81238 12.8804 2.763 12.9682 2.67509C13.056 2.58718 13.1053 2.46795 13.1053 2.34363V1.40613C13.1053 1.28181 13.056 1.16258 12.9682 1.07468C12.8804 0.986769 12.7614 0.937383 12.6372 0.937383ZM1.55625 13.6815C1.57857 14.0385 1.73591 14.3736 1.99623 14.6185C2.25655 14.8635 2.60028 14.9998 2.95746 14.9999H10.1478C10.505 14.9998 10.8487 14.8635 11.109 14.6185C11.3694 14.3736 11.5267 14.0385 11.549 13.6815L12.1692 3.74988H0.93609L1.55625 13.6815Z" fill="#828282"/></svg>