<?xml version="1.0" encoding="UTF-8"?>
<svg xmlns="http://www.w3.org/2000/svg" xmlns:xlink="http://www.w3.org/1999/xlink" width="256pt" height="70pt" viewBox="0 0 256 70" version="1.1">
<g id="surface1">
<path style=" stroke:none;fill-rule:nonzero;fill:rgb(60%,40%,20%);fill-opacity:1;" d="M 0 34.5 L 0 69 L 39.398438 69 L 39.648438 67.851562 C 39.75 67.25 40.5 64.75 41.25 62.25 C 44.101562 52.898438 44.601562 51.199219 44.851562 50.101562 L 45.101562 49 L 23.5 49 L 23.5 43.5 L 35.25 43.5 C 41.699219 43.5 47 43.449219 47 43.351562 C 47 43.199219 51.351562 28.75 52.199219 26.101562 L 52.550781 25 L 23.5 25 L 23.5 20 L 53.898438 20 L 55.449219 15.101562 C 56.25 12.449219 57.5 8.351562 58.199219 6 C 58.851562 3.648438 59.550781 1.351562 59.75 0.851562 C 60.101562 0.0507812 58.449219 0 30.050781 0 L 0 0 Z M 0 34.5 "/>
<path style=" stroke:none;fill-rule:nonzero;fill:rgb(60%,40%,20%);fill-opacity:1;" d="M 92.101562 9.851562 L 92.25 19.75 L 102.148438 19.898438 L 112 20 L 112 69 L 144.101562 69 L 140.851562 65.851562 C 131.398438 56.699219 127.148438 43.949219 129.199219 30.75 C 131.351562 16.601562 140.101562 5.300781 152.25 0.949219 C 154.699219 0.101562 154.148438 0.0507812 123.351562 0.0507812 L 92 0 Z M 92.101562 9.851562 "/>
<path style=" stroke:none;fill-rule:nonzero;fill:rgb(60%,40%,20%);fill-opacity:1;" d="M 185.5 34.5 L 185.5 69 L 206 69 L 206.050781 47.851562 L 206.050781 26.75 L 208.851562 36.25 C 210.351562 41.449219 212 47.199219 212.5 49 C 213 50.800781 214.5 56 215.800781 60.601562 L 218.25 69 L 251.5 69 L 251.5 0 L 230.5 0 L 230.398438 20.601562 L 230.25 41.25 L 228.148438 34 C 227 30 225.148438 23.601562 224 19.75 C 222.851562 15.898438 221.101562 9.898438 220.101562 6.351562 L 218.300781 0 L 185.5 0 Z M 185.5 34.5 "/>
<path style=" stroke:none;fill-rule:nonzero;fill:rgb(60%,40%,20%);fill-opacity:1;" d="M 80.851562 13.800781 C 80.5 14.898438 77.648438 24.351562 75.800781 30.550781 C 75.101562 32.898438 74.5 34.949219 74.5 35.148438 C 74.5 35.351562 77.449219 35.5 81 35.5 C 85.398438 35.5 87.5 35.300781 87.5 34.949219 C 87.5 34.648438 87.050781 32.898438 86.550781 31.101562 C 86 29.25 84.75 24.699219 83.699219 21 C 81.601562 13.25 81.25 12.398438 80.851562 13.800781 Z M 80.851562 13.800781 "/>
<path style=" stroke:none;fill-rule:nonzero;fill:rgb(60%,40%,20%);fill-opacity:1;" d="M 162 22.949219 C 156.75 24.550781 152 31.199219 152 36.949219 C 152 42.148438 155.351562 47.851562 159.648438 49.949219 C 162.898438 51.5 168 51.398438 171.398438 49.699219 C 176.351562 47.25 179.449219 41.25 178.800781 35.601562 C 177.75 26.601562 169.800781 20.601562 162 22.949219 Z M 162 22.949219 "/>
<path style=" stroke:none;fill-rule:nonzero;fill:rgb(60%,40%,20%);fill-opacity:1;" d="M 68.699219 54.351562 C 65.699219 64.300781 64.5 68.25 64.5 68.601562 C 64.5 68.851562 71.800781 69 80.75 69 C 98.75 69 97.601562 69.25 96.550781 65.75 C 95.949219 63.75 93.648438 55.949219 92.699219 52.601562 L 91.949219 50 L 70.050781 50 Z M 68.699219 54.351562 "/>
</g>
</svg>
