<svg width="25" height="25" viewBox="0 0 25 25" fill="none" xmlns="http://www.w3.org/2000/svg">
<rect width="25" height="25" rx="12.5" fill="#57B7E1"/>
<path d="M12 6C8.1314 6 5 9.13078 5 13C5 16.8686 8.13078 20 12 20C13.3592 20 14.6911 19.6009 15.822 18.8647C16.1609 18.6441 16.2348 18.1791 15.9787 17.8663L15.6915 17.5153C15.4749 17.2508 15.0937 17.186 14.8059 17.3706C13.9735 17.9044 12.9968 18.1935 12 18.1935C9.13627 18.1935 6.80645 15.8637 6.80645 13C6.80645 10.1363 9.13627 7.80645 12 7.80645C14.8265 7.80645 17.1935 9.43279 17.1935 12.3226C17.1935 13.4173 16.5982 14.5734 15.5517 14.6849C15.062 14.6721 15.0744 14.322 15.1713 13.8374L15.8327 10.419C15.9136 10.001 15.5934 9.6129 15.1676 9.6129H13.898C13.8043 9.6129 13.7138 9.64741 13.6439 9.70984C13.574 9.77228 13.5295 9.85827 13.5189 9.95142L13.5186 9.95401C13.1038 9.44874 12.3769 9.3394 11.8259 9.3394C9.72079 9.3394 7.93548 11.096 7.93548 13.6145C7.93548 15.4577 8.97377 16.6027 10.6452 16.6027C11.4068 16.6027 12.2644 16.1614 12.7618 15.5208C13.0306 16.4834 13.9082 16.4833 14.7577 16.4833C17.8317 16.4833 19 14.462 19 12.3226C19 8.47408 15.8958 6 12 6ZM11.3881 14.5928C10.7601 14.5928 10.37 14.1518 10.37 13.442C10.37 12.172 11.2387 11.3892 12.0248 11.3892C12.654 11.3892 13.0297 11.8193 13.0297 12.5399C13.0297 13.8118 12.0736 14.5928 11.3881 14.5928Z" fill="#F2F2FA"/>
</svg>
