<?xml version="1.0" encoding="utf-8"?>
<!-- Generator: Adobe Illustrator 24.0.3, SVG Export Plug-In . SVG Version: 6.00 Build 0)  -->
<svg version="1.1" id="Слой_1" xmlns="http://www.w3.org/2000/svg" xmlns:xlink="http://www.w3.org/1999/xlink" x="0px" y="0px"
	 viewBox="0 0 16 16" style="enable-background:new 0 0 16 16;" xml:space="preserve">
<style type="text/css">
	.st0{fill-rule:evenodd;clip-rule:evenodd;fill:#1991EB;}
</style>
<path class="st0" d="M8,0C3.6,0,0,3.6,0,8s3.6,8,8,8c4.4,0,8-3.6,8-8S12.4,0,8,0z M8,14.4c-3.5,0-6.4-2.9-6.4-6.4S4.5,1.6,8,1.6
	s6.4,2.9,6.4,6.4S11.5,14.4,8,14.4z M12,6c0,0.7-0.5,1.2-1.2,1.2c-0.7,0-1.2-0.5-1.2-1.2s0.5-1.2,1.2-1.2C11.5,4.8,12,5.3,12,6z
	 M5.2,7.2c0.7,0,1.2-0.5,1.2-1.2S5.9,4.8,5.2,4.8S4,5.3,4,6S4.5,7.2,5.2,7.2z M11.8,10.2C11,11.5,9.6,12.4,8,12.4s-3-0.9-3.8-2.2
	C4,9.9,4.2,9.6,4.6,9.6h6.9C11.8,9.6,12,9.9,11.8,10.2z"/>
</svg>
