<svg xmlns="http://www.w3.org/2000/svg" xmlns:xlink="http://www.w3.org/1999/xlink" width="16" height="16" viewBox="0 0 16 16">
    <defs>
        <path id="a" d="M12.5 11.31c-.633 0-1.2.24-1.633.618L4.925 8.594A2.54 2.54 0 0 0 5 8.032a2.54 2.54 0 0 0-.075-.562L10.8 4.169a2.54 2.54 0 0 0 1.7.65c1.383 0 2.5-1.076 2.5-2.41C15 1.077 13.883 0 12.5 0S10 1.076 10 2.41c0 .192.033.377.075.562L4.2 6.273a2.54 2.54 0 0 0-1.7-.65c-1.383 0-2.5 1.076-2.5 2.41 0 1.332 1.117 2.409 2.5 2.409a2.54 2.54 0 0 0 1.7-.65l5.933 3.34a2.188 2.188 0 0 0-.066.523c0 1.293 1.091 2.345 2.433 2.345 1.342 0 2.433-1.052 2.433-2.345 0-1.294-1.091-2.346-2.433-2.346z"/>
    </defs>
    <g fill="none" fill-rule="evenodd">
        <mask id="b" fill="#fff">
            <use xlink:href="#a"/>
        </mask>
        <use fill="#000" fill-rule="nonzero" xlink:href="#a"/>
        <g fill="#354052" mask="url(#b)">
            <path d="M-3-2h22v21H-3z"/>
        </g>
    </g>
</svg>
