<?xml version="1.0" encoding="utf-8"?>
<!-- Generator: Adobe Illustrator 24.0.3, SVG Export Plug-In . SVG Version: 6.00 Build 0)  -->
<svg version="1.1" id="Слой_1" xmlns="http://www.w3.org/2000/svg" xmlns:xlink="http://www.w3.org/1999/xlink" x="0px" y="0px"
	 viewBox="0 0 16 16" style="enable-background:new 0 0 16 16;" xml:space="preserve">
<style type="text/css">
	.st0{fill-rule:evenodd;clip-rule:evenodd;fill:#A4A5B0;}
</style>
<path class="st0" d="M15.6,2.8c-0.2-0.5-0.5-1-0.9-1.4c-0.4-0.4-0.9-0.7-1.4-0.9c-0.5-0.2-1.1-0.3-1.9-0.4l0,0C10.4,0,10.2,0,8,0
	C5.8,0,5.6,0,4.7,0c-0.9,0-1.4,0.2-1.9,0.4c-0.5,0.2-1,0.5-1.4,0.9C0.9,1.8,0.6,2.2,0.4,2.8C0.2,3.3,0.1,3.9,0,4.7l0,0
	C0,5.6,0,5.8,0,8c0,2.2,0,2.4,0,3.3c0,0.9,0.2,1.4,0.4,1.9c0.2,0.5,0.5,1,0.9,1.4c0.4,0.4,0.9,0.7,1.4,0.9c0.5,0.2,1.1,0.3,1.9,0.4
	l0,0c0.8,0,1.1,0,3.3,0c2.2,0,2.4,0,3.3,0c0.9,0,1.4-0.2,1.9-0.4c0.5-0.2,1-0.5,1.4-0.9c0.4-0.4,0.7-0.9,0.9-1.4
	c0.2-0.5,0.3-1.1,0.4-1.9l0,0c0-0.8,0-1.1,0-3.3c0-2.2,0-2.4,0-3.3C15.9,3.8,15.8,3.3,15.6,2.8z M14,11c0,0.7-0.2,1.1-0.3,1.4
	c-0.1,0.3-0.3,0.6-0.5,0.8c-0.3,0.3-0.5,0.4-0.8,0.5c-0.3,0.1-0.6,0.2-1.4,0.3l0,0c-0.7,0-1,0-2.9,0c-2,0-2.2,0-3,0
	c-0.7,0-1.1-0.2-1.4-0.3c-0.3-0.1-0.6-0.3-0.8-0.5c-0.3-0.3-0.4-0.5-0.5-0.8C2.2,12.1,2.1,11.7,2,11l0,0c0-0.7,0-1,0-2.9
	c0-1.9,0-2.2,0-3c0-0.7,0.2-1.1,0.3-1.4c0.1-0.3,0.3-0.6,0.5-0.8s0.5-0.4,0.8-0.5C3.9,2.2,4.3,2.1,5,2l0,0c0.7,0,1,0,2.9,0
	c1.9,0,2.2,0,3,0c0.7,0,1.1,0.2,1.4,0.3c0.3,0.1,0.6,0.3,0.8,0.5c0.3,0.3,0.4,0.5,0.5,0.8C13.8,3.9,13.9,4.3,14,5l0,0v0
	c0,0.7,0,1,0,2.9C14,9.9,14,10.2,14,11L14,11z M13,4c0,0.6-0.4,1-1,1s-1-0.4-1-1s0.4-1,1-1S13,3.4,13,4z M8,4C5.8,4,4,5.8,4,8
	c0,2.2,1.8,4,4,4c2.2,0,4-1.8,4-4C12,5.8,10.2,4,8,4z M6,8c0,1.1,0.9,2,2,2s2-0.9,2-2c0-1.1-0.9-2-2-2S6,6.9,6,8z"/>
</svg>
