<svg width="25" height="25" viewBox="0 0 25 25" fill="none" xmlns="http://www.w3.org/2000/svg">
<path d="M24.0438 10.016L23.4989 9.43911L21.5865 4.2842C21.2607 3.41347 20.4274 2.83655 19.4979 2.83121H5.83868C4.90919 2.83121 4.07585 3.41347 3.75 4.2842L1.86432 9.37501L1.07906 10.1015C0.395299 10.6838 0 11.5385 0 12.4359V19.9466C0.00534188 21.1752 1.00427 22.1688 2.23291 22.1688H3.64316C4.87179 22.1688 5.87073 21.1752 5.87607 19.9466V18.8568H19.1239V19.9466C19.1293 21.1752 20.1282 22.1688 21.3568 22.1688H22.7671C23.9957 22.1688 24.9947 21.1752 25 19.9466V12.2383C24.9947 11.3996 24.6528 10.5983 24.0438 10.016ZM4.75427 4.64745C4.92521 4.19339 5.35791 3.89958 5.83868 3.89958H19.5032C19.984 3.89958 20.4167 4.19873 20.5876 4.64745L22.2543 9.13463H21.0096C20.7158 7.13142 18.8515 5.74787 16.8483 6.04702C15.2511 6.28206 13.9957 7.5374 13.7607 9.13463H3.08761L4.75427 4.64745ZM19.9199 9.13463H14.8397C15.1335 7.72971 16.5118 6.83228 17.9167 7.12608C18.9209 7.33975 19.7062 8.12501 19.9199 9.13463ZM4.80769 19.9466C4.80235 20.5876 4.28419 21.1004 3.64316 21.1004H2.23291C1.59188 21.1004 1.07372 20.5876 1.06838 19.9466V18.547C1.38889 18.7554 1.8109 18.8568 2.23291 18.8568H4.80769V19.9466ZM23.9316 19.9466C23.9263 20.5876 23.4081 21.1004 22.7671 21.1004H21.3568C20.7158 21.1004 20.1976 20.5823 20.1923 19.9466V18.8568H22.7671C23.1891 18.8568 23.6111 18.7554 23.9316 18.547V19.9466ZM22.7671 17.7885H2.23291C1.59722 17.7938 1.07372 17.2863 1.06838 16.6453V12.4359C1.06838 11.8483 1.33013 11.2874 1.77885 10.9081C1.78419 10.9028 1.79487 10.8921 1.80021 10.8868L2.52671 10.203H22.7564L23.2692 10.7532C23.2746 10.7639 23.2906 10.7692 23.2959 10.7799C23.6966 11.1592 23.9263 11.688 23.9263 12.2383V16.6453H23.9316C23.9263 17.281 23.4028 17.7938 22.7671 17.7885Z" fill="#333333"/>
<path d="M7.05128 12.3398H3.04487C2.75107 12.3398 2.51068 12.5801 2.51068 12.8739V15.6517C2.51068 15.9455 2.75107 16.1859 3.04487 16.1859H7.05128C7.34508 16.1859 7.58547 15.9455 7.58547 15.6517V12.8739C7.58547 12.5801 7.34508 12.3398 7.05128 12.3398ZM6.51709 15.1175H3.57906V13.4081H6.51709V15.1175Z" fill="#333333"/>
<path d="M21.9551 12.3398H17.9487C17.6549 12.3398 17.4146 12.5801 17.4146 12.8739V15.6517C17.4146 15.9455 17.6549 16.1859 17.9487 16.1859H21.9551C22.249 16.1859 22.4893 15.9455 22.4893 15.6517V12.8739C22.4893 12.5801 22.249 12.3398 21.9551 12.3398ZM21.421 15.1175H18.4829V13.4081H21.421V15.1175Z" fill="#333333"/>
<path d="M15.0801 14.5833H9.91987C9.62607 14.5833 9.38568 14.8237 9.38568 15.1175C9.38568 15.4113 9.62607 15.6517 9.91987 15.6517H15.0801C15.3739 15.6517 15.6143 15.4113 15.6143 15.1175C15.6143 14.8237 15.3739 14.5833 15.0801 14.5833Z" fill="#333333"/>
<path d="M15.0801 12.9273H9.91987C9.62607 12.9273 9.38568 13.1677 9.38568 13.4615C9.38568 13.7553 9.62607 13.9957 9.91987 13.9957H15.0801C15.3739 13.9957 15.6143 13.7553 15.6143 13.4615C15.6143 13.1677 15.3739 12.9273 15.0801 12.9273Z" fill="#333333"/>
</svg>
