<svg width="20" height="20" viewBox="0 0 20 20" fill="none" xmlns="http://www.w3.org/2000/svg">
<g clip-path="url(#clip0)">
<path d="M7.15403 0.416784C4.90384 1.08563 2.96096 2.52533 1.66611 4.48344C1.48829 4.80429 1.37724 5.15779 1.33969 5.52269V2.01191H0.00732422V7.34136H5.33677V6.009H2.32563C3.81738 3.13922 6.76598 1.32192 10 1.27911C13.8354 1.32371 17.1971 3.85449 18.3007 7.52789L19.5797 7.14817C18.0073 1.85807 12.4441 -1.15565 7.15403 0.416784Z" fill="black"/>
<path d="M14.6633 12.6708V14.0032H17.6744C16.1827 16.873 13.2341 18.6903 10 18.7331C6.1647 18.6885 2.80294 16.1577 1.69942 12.4843L0.420349 12.864C1.99953 18.1521 7.56655 21.1587 12.8546 19.5796C15.1708 18.8879 17.1577 17.3801 18.4472 15.3356C18.5854 15.0748 18.6585 14.7846 18.6604 14.4895V18.0003H19.9927V12.6708H14.6633V12.6708Z" fill="black"/>
</g>
<defs>
<clipPath id="clip0">
<rect width="20" height="20" fill="white"/>
</clipPath>
</defs>
</svg>
