<svg width="20" height="20" viewBox="0 0 20 20" fill="none" xmlns="http://www.w3.org/2000/svg"><g clip-path="url(#clip0)"><path d="M15.5383 11.4512C15.4812 11.5106 15.4059 11.5492 15.3244 11.561V11.5499L11.8762 12.0504L10.3337 15.1909C10.2424 15.3742 10.0197 15.4487 9.83644 15.3574C9.76437 15.3215 9.70592 15.263 9.67 15.1909L8.12755 12.0652L4.67927 11.5647C4.47664 11.5353 4.33616 11.3472 4.36559 11.1445C4.37741 11.063 4.41602 10.9878 4.47534 10.9307L6.97071 8.49832L6.38116 5.06487C6.34761 4.86284 6.48415 4.67189 6.68613 4.63833C6.76566 4.62513 6.84733 4.63819 6.9188 4.67555L10 6.29216L13.0849 4.67184C13.2664 4.57692 13.4904 4.64709 13.5853 4.8285C13.6227 4.89992 13.6358 4.98163 13.6225 5.06117L13.033 8.49461L15.5284 10.9269C15.6759 11.069 15.6803 11.3037 15.5383 11.4512ZM12.3767 8.88764C12.2896 8.80305 12.2494 8.68116 12.2692 8.56135L12.7623 5.67296L10.1669 7.03744C10.0589 7.09412 9.92997 7.09412 9.82202 7.03744L7.22655 5.67296L7.71969 8.56135C7.73943 8.68116 7.69925 8.80305 7.61216 8.88764L5.51353 10.9307L8.41305 11.3533C8.53365 11.3715 8.63761 11.4477 8.69114 11.5573L10 14.175L11.2977 11.5499C11.3513 11.4403 11.4552 11.364 11.5758 11.3459L14.4753 10.9232L12.3767 8.88764Z" fill="black"/><path d="M19.9261 10.4707L18.3206 12.4543L18.5616 14.972C18.5735 15.1323 18.4806 15.2821 18.3317 15.3427L15.981 16.3031L14.9279 18.6019C14.8591 18.7506 14.7008 18.8366 14.5386 18.8133L12.0358 18.4425L9.97428 19.9256C9.84246 20.0245 9.66115 20.0245 9.52934 19.9256L7.54565 18.3201L5.02804 18.5611C4.86675 18.5724 4.71668 18.4779 4.65726 18.3275L3.69693 15.9805L1.39808 14.9275C1.24935 14.8587 1.16338 14.7004 1.18674 14.5381L1.55752 12.0354L0.074389 9.97381C-0.0244708 9.842 -0.0244708 9.66069 0.074389 9.52887L1.6428 7.54519L1.40179 5.02758C1.39048 4.86629 1.48498 4.71621 1.63538 4.65679L4.01951 3.69647L5.07254 1.39762C5.14132 1.24889 5.29964 1.16291 5.46186 1.18627L7.96464 1.55705L10.0262 0.0739233C10.158 -0.0249365 10.3393 -0.0249365 10.4711 0.0739233L12.4548 1.64233L14.9724 1.40132C15.1328 1.38946 15.2825 1.48229 15.3432 1.63121L16.3035 4.01905L18.6024 5.07207C18.7511 5.14085 18.837 5.29917 18.8137 5.46139L18.4429 7.96417L19.9261 10.0257C20.0249 10.1575 20.0249 10.3388 19.9261 10.4707ZM17.7422 8.27192C17.6878 8.19424 17.6652 8.09872 17.6791 8.00496L18.024 5.63195L15.8401 4.63455C15.7537 4.59455 15.6859 4.52285 15.651 4.43432L14.7648 2.20963L12.3769 2.43581C12.2824 2.44447 12.1883 2.41662 12.1137 2.35794L10.2301 0.874813L8.27609 2.26525C8.21348 2.31058 8.1383 2.33519 8.06104 2.3357H8.00913L5.63612 1.99087L4.63872 4.17107C4.59872 4.25746 4.52702 4.32518 4.4385 4.36017L2.2138 5.24634L2.43998 7.63418C2.44865 7.72868 2.42079 7.82286 2.36212 7.89743L0.878987 9.78101L2.26942 11.735C2.32379 11.8127 2.34636 11.9082 2.33245 12.002L1.98763 14.375L4.17153 15.3724C4.25793 15.4124 4.32564 15.4841 4.36063 15.5726L5.2468 17.7973L7.63464 17.5711C7.72914 17.5625 7.82332 17.5903 7.8979 17.649L9.78147 19.1321L11.7355 17.7417C11.8132 17.6873 11.9087 17.6648 12.0025 17.6787L14.3755 18.0235L15.3729 15.8396C15.4129 15.7532 15.4846 15.6855 15.5731 15.6505L17.7978 14.7643L17.5716 12.3765C17.5629 12.282 17.5908 12.1878 17.6495 12.1132L19.1326 10.2297L17.7422 8.27192Z" fill="black"/></g><defs><clipPath id="clip0"><rect width="20" height="20" transform="matrix(1 0 0 -1 0 20)" fill="white"/></clipPath></defs></svg>