<svg fill="#1E90FF" height="512pt" viewBox="0 0 512 512" width="512pt" xmlns="http://www.w3.org/2000/svg"><path d="m134 119.074219h-53c-44.664062 0-81 36.335937-81 81v81c0 44.664062 36.335938 81 81 81h53zm0 0"/><path d="m351.710938 240c0-63.414062 5.859374-123.648438 16.507812-169.605469 2.597656-11.222656 5.421875-21.371093 8.488281-30.523437-30.988281 23.675781-59.003906 40.808594-86.3125 52.914062-37.464843 16.605469-78.929687 25.152344-126.394531 26.023438v243.105468c47.503906.867188 88.992188 9.371094 126.394531 25.945313 27.378907 12.136719 55.46875 29.335937 86.617188 53.167969-3.183594-9.390625-6.109375-19.828125-8.792969-31.421875-10.648438-45.957031-16.507812-106.191407-16.507812-169.605469zm0 0"/><path d="m424 240.320312c0-24.703124-17.277344-46.386718-40.910156-52.308593-.910156 16.875-1.378906 34.289062-1.378906 51.988281 0 17.917969.480468 35.542969 1.414062 52.617188 23.808594-5.96875 40.875-27.628907 40.875-52.296876zm0 0"/><path d="m496.265625 77.164062c-11.859375-51.203124-28.484375-77.164062-49.410156-77.164062s-37.550781 25.960938-49.414063 77.164062c-5.421875 23.414063-9.542968 50.84375-12.203125 80.648438 18.648438 3.4375 35.714844 13.195312 48.265625 27.679688 13.21875 15.261718 20.496094 34.734374 20.496094 54.828124 0 39.492188-28.085938 74.039063-66.777344 82.136719-.648437.136719-1.292968.214844-1.9375.261719 2.664063 29.601562 6.765625 56.839844 12.160156 80.117188 11.859376 51.203124 28.484376 77.164062 49.410157 77.164062s37.550781-25.960938 49.410156-77.164062c10.144531-43.804688 15.734375-101.632813 15.734375-162.835938s-5.589844-119.03125-15.734375-162.835938zm0 0"/><path d="m153.667969 391.824219c-1.566407.167969-3.113281.25-4.667969.25h-60v70.925781c0 27.019531 21.980469 49 49 49h1.449219c21.242187 0 39.480469-13.121094 46.460937-33.425781l28.261719-82.195313c-18.261719-3.050781-37.625-4.5625-58.308594-4.5625-.730469 0-1.460937.003906-2.195312.007813zm0 0"/></svg>