<svg id="Layer_1" data-name="Layer 1" xmlns="http://www.w3.org/2000/svg" xmlns:xlink="http://www.w3.org/1999/xlink" viewBox="0 0 200 200"><defs><style>.cls-1{fill:#0092ff;opacity:0.44;}.cls-2{fill:#295da8;}.cls-3{fill:#2c94ce;}.cls-4{fill:url(#linear-gradient);}.cls-14,.cls-15,.cls-5{fill:none;stroke-miterlimit:10;}.cls-15,.cls-5{stroke:#fff;}.cls-5{stroke-width:2px;}.cls-6{fill:#fff;}.cls-7{fill:#ffe1e1;}.cls-8{fill:#ffc9c2;}.cls-9{fill:#ffd7d7;}.cls-10{fill:#ffa4a4;}.cls-11{fill:#fffffe;}.cls-12{fill:#ff103e;}.cls-13{fill:#03b0be;}.cls-14{stroke:#03b0be;stroke-width:3px;}.cls-16{fill:#8dc9ff;}</style><linearGradient id="linear-gradient" x1="133.93" y1="94.18" x2="136.5" y2="133.85" gradientUnits="userSpaceOnUse"><stop offset="0.43" stop-color="#fcfcfc"/><stop offset="0.64" stop-color="#fcdecf"/><stop offset="0.88" stop-color="#fcc0a2"/><stop offset="1" stop-color="#fcb490"/></linearGradient></defs><title>adventure</title><path class="cls-1" d="M102.8,19.14A90,90,0,0,0,14.38,92.32a11,11,0,0,1,.1,20.38,9.4,9.4,0,0,1,1.27,4.71c0,.29,0,.58,0,.87a7.62,7.62,0,0,1,4.45-1.43,7.71,7.71,0,0,1,6.09,12.44,4.41,4.41,0,0,1,6,4.09,4.59,4.59,0,0,1-.16,1.12,9.9,9.9,0,0,1,14.46,8.35A8.83,8.83,0,0,1,58.73,151a8.17,8.17,0,0,1-.08,1.11,7.91,7.91,0,0,1,.08,1.1A8.81,8.81,0,0,1,49.91,162a8.62,8.62,0,0,1-1.14-.08,8.8,8.8,0,0,1-7.67,4.49l-.38,0a6.63,6.63,0,0,1-3.85,4A90,90,0,1,0,102.8,19.14Z"/><path class="cls-2" d="M182.12,151.7,58.63,154.49A8.82,8.82,0,0,1,49.91,162a8.62,8.62,0,0,1-1.14-.08,8.8,8.8,0,0,1-7.67,4.49l-.38,0a6.63,6.63,0,0,1-3.85,4A90,90,0,0,0,182.12,151.7Z"/><path class="cls-3" d="M148.67,4a5.09,5.09,0,0,0-9.82,1.25,5.06,5.06,0,0,0-2.71.23,3,3,0,0,0-.31.15,6.11,6.11,0,0,0-9.51.15c-4.13-2.86-8.63-4.22-13.83-2.25a17.34,17.34,0,0,0-11.17,17.26l-.9.22a13.1,13.1,0,0,0-.54-1.79,14.26,14.26,0,0,0-26.52-.43A11.22,11.22,0,0,0,58.73,29a24,24,0,0,0-2.16,2A25.5,25.5,0,0,0,15.7,53.25,23.44,23.44,0,0,0,9.68,92l.49,0a10.92,10.92,0,0,1,4.2,21,9.21,9.21,0,0,1,1.26,4.66,8.31,8.31,0,0,1,0,.87A7.64,7.64,0,0,1,26,129.4a4.31,4.31,0,0,1,1.61-.31A4.36,4.36,0,0,1,32,133.46a4.14,4.14,0,0,1-.16,1.11A9.81,9.81,0,0,1,46.12,142,18.52,18.52,0,0,0,63.8,119.61a15.31,15.31,0,0,0,14.5-9.14,11.27,11.27,0,0,0,12-18.57c6.13-1.22,8.13-9.69,8.4-12.08l0,0A4,4,0,0,0,105.16,77a4,4,0,0,0,2.14-.18,4,4,0,0,0-2.85-7.54,4,4,0,0,0-2.56,3.32,4.08,4.08,0,0,0-2.15.19,1.58,1.58,0,0,0-.26.13,4.8,4.8,0,0,0-5.4-1.43A4.65,4.65,0,0,0,92,73c-3.27-2.27-6.82-3.35-10.94-1.79a13.7,13.7,0,0,0-8.82,13.63l-.71.18a12.12,12.12,0,0,0-.42-1.42,11.28,11.28,0,0,0-21-.34,8.62,8.62,0,0,0-2.77-.42,23.49,23.49,0,0,0,1.5-7.25q.65-.21,1.29-.45a25.34,25.34,0,0,0,10.92-8,23.44,23.44,0,0,0,28.14-2.51A19.33,19.33,0,0,0,109,53.21a14.26,14.26,0,0,0,15.21-23.5c7.73-1.54,10.27-12.19,10.62-15.26l.1-.07A5.07,5.07,0,0,0,143,10.83,5.07,5.07,0,0,0,148.67,4ZM38.36,94.18l.5-.35a7.74,7.74,0,0,0,.31,1s0,.1.07.16C39,94.73,38.66,94.45,38.36,94.18Zm3.88,4.93L42,98.7l.38.3Z"/><path class="cls-4" d="M121.7,92.06s-9,11.71-4.39,33.67c0,0,3.66-15.37,36.84-9,0,0-5.85-21-1.46-31Z"/><line class="cls-5" x1="112.43" y1="130.12" x2="146.34" y2="125.24"/><line class="cls-5" x1="119.75" y1="126.7" x2="169.03" y2="118.41"/><line class="cls-5" x1="113.9" y1="108.41" x2="148.78" y2="100.84"/><line class="cls-5" x1="117.8" y1="93.77" x2="157.57" y2="84.01"/><line class="cls-5" x1="124.88" y1="83.28" x2="160.25" y2="71.57"/><line class="cls-5" x1="118.04" y1="73.76" x2="143.9" y2="70.1"/><line class="cls-5" x1="125.85" y1="64.74" x2="154.88" y2="58.88"/><polygon class="cls-6" points="139.51 43.02 149.27 161.83 146.83 161.83 139.03 43.02 139.51 43.02"/><polygon class="cls-6" points="130.97 50.1 141.22 162.81 138.29 162.81 130.73 50.1 130.97 50.1"/><path class="cls-6" d="M120.19,73.46s6.64,5.92,8.59,5.43,3.44-6.53,3.44-6.53,2.17,5.55,4.12,5.06,5-7,5-7Z"/><path class="cls-6" d="M128.88,64.13s3.07,2.07,4.78,1.34a7.54,7.54,0,0,0,2.19-1.22s2.69,2,5.13,1.46,4.63-3.17,4.63-3.17a4.56,4.56,0,0,0,3.42,0c1.95-.73,4.8-3.44,4.8-3.44Z"/><path class="cls-6" d="M113.82,129.92c.08.44,3.49,4.35,5.93,4.83s9.13-7,9.13-7Z"/><path class="cls-7" d="M118.53,155,130,160.13l2.44-33.91S118.53,134,118.53,155Z"/><path class="cls-8" d="M124.39,126l41.71-6.83s-7.56,14.39-6.83,39c0,0-9-8.29-20.73-5.36S129,161.1,129,161.1s-4.88-5.61-7.32-18S124.39,126,124.39,126Z"/><path class="cls-9" d="M127.56,82.3l30.49-10s-6.34,16.83,6.59,43.43c0,0-25.37-13.18-38.54,2.19A50.87,50.87,0,0,1,127.56,82.3Z"/><path class="cls-10" d="M146.34,96.7s7.32,25.86,18.79,42.69c0,0-14.15-6.34-18.54,3.17C146.59,142.56,133.9,123.53,146.34,96.7Z"/><path class="cls-11" d="M158.13,138.53a11.39,11.39,0,0,0-.69-1.23,11.15,11.15,0,0,0-.52-1.31,11.27,11.27,0,0,0-18.51-2.79,12.64,12.64,0,0,0-19.26-3.86,7.63,7.63,0,0,0-5-.62,7.8,7.8,0,0,0-.71-2.63,7.9,7.9,0,0,0-7.66-4.5,6.84,6.84,0,1,0-7.32,6.74,7.83,7.83,0,0,0,.68,4.53,7.91,7.91,0,0,0,9,4.31,7.66,7.66,0,0,0,.68,2.33,6.94,6.94,0,0,0,.6,1,5.64,5.64,0,1,0,8.06,6.75A12.68,12.68,0,0,0,129,151.7a11.12,11.12,0,0,0,1,6.42,11.27,11.27,0,0,0,21.44-4,11.22,11.22,0,0,0,6.73-15.56Z"/><path class="cls-12" d="M114.2,134.84a1.82,1.82,0,1,0-1.82-1.82A1.83,1.83,0,0,0,114.2,134.84Zm-.2,7.49a1.82,1.82,0,1,0-1.82-1.82A1.82,1.82,0,0,0,114,142.33Zm40.57,8.7a9.1,9.1,0,0,0-17.14-6s0-.06,0-.09a4,4,0,0,0-6.49-3.12,5.06,5.06,0,0,0-3.17-1.56,6.18,6.18,0,0,0-5.94-4.47,4.65,4.65,0,0,0-3.33,1.33,2.63,2.63,0,0,0,.06-.49,2.21,2.21,0,1,0-1.27,2,21.11,21.11,0,0,0-1.65,3.37c-.06.16,2.88,5.46,6.54,3.72l0,.27c-3.11.34-10.26,2.24-10.26,2.24l5.07,1.68a5.08,5.08,0,1,0,6.37,7.89,6.92,6.92,0,0,0,7.6,1.55,8.36,8.36,0,0,0,14.73,4,7.81,7.81,0,0,0,1.54.15,8.37,8.37,0,0,0,7.3-12.46Zm-17.74-3.82-.09,0a2.25,2.25,0,0,0,.12-.21Z"/><path class="cls-13" d="M162,160.36a76.38,76.38,0,0,0-8.16.16c-4,.33-18.43,1.31-23.31,1.55s-12-.24-12-.24,5.13,9.75,10.49,10.73,13.91.24,21,0,10.49-4.63,11.47-6.59A9.52,9.52,0,0,0,162,160.36Z"/><line class="cls-14" x1="165.86" y1="136.95" x2="153.42" y2="163.54"/><path d="M56.63,85.27S45.54,94.88,50,124.75c0,0,7.25-6.83,25.82,8.32a36.58,36.58,0,0,1-2-37Z"/><line class="cls-15" x1="73.28" y1="58.17" x2="93.12" y2="71.62"/><line class="cls-5" x1="83.52" y1="160.81" x2="108.49" y2="149.72"/><line class="cls-5" x1="53.22" y1="82.93" x2="78.83" y2="97.65"/><line class="cls-5" x1="56.63" y1="71.62" x2="76.27" y2="83.99"/><path d="M73.6,69s-13.23,10.46-8.75,40.33c0,0,13.66-7.47,22,11.1,0,0-7.68-20.28,2.56-41Z"/><polygon class="cls-16" points="66.88 59.24 63.14 168.6 65.17 168.28 67.73 59.03 66.88 59.24"/><polygon class="cls-16" points="83.52 43.24 81.81 167.21 84.37 167 84.16 43.02 83.52 43.24"/><line class="cls-5" x1="40.42" y1="146.94" x2="50.66" y2="165.08"/><path class="cls-13" d="M41.7,162.2s.64,9.82,6.19,12c0,0,31.79,2.77,35.84,2.77s18.93.72,21.28-.56,9-7.12,9.88-10.32a15.4,15.4,0,0,0-8.78-4,28.22,28.22,0,0,0-12.28,1.7,29.1,29.1,0,0,1-5,.82l-21.34.21-.64,1.71L51.73,165.4v-1.71A41.62,41.62,0,0,1,41.7,162.2Z"/><path d="M63.13,109.14s3.31,12.12,6.62,13.78,8.81,5,8.81,5-1.65-4.4,3.58-3.85.83-5.24.83-5.24Z"/><line class="cls-5" x1="62.18" y1="108.11" x2="96.54" y2="124.75"/><path d="M87.36,90.61S72,127.1,83.09,159.11c0,0,14.51-10.67,22-8.11C105.07,151,87.15,122.4,87.36,90.61Z"/><line class="cls-5" x1="71.14" y1="66.92" x2="91.2" y2="80.37"/><path d="M75.41,133.29l-23.9-7.9a47.77,47.77,0,0,0-4.73,17.39A8.81,8.81,0,0,1,58.73,151a8.17,8.17,0,0,1-.08,1.11,7.91,7.91,0,0,1,.08,1.1A8.81,8.81,0,0,1,49.91,162l-.4,0c.29.73.6,1.47.94,2.22,0,0,10.24-4.48,27.52,1.28C78,165.51,65.17,154,75.41,133.29Z"/><path d="M83,47.43s-4.41-2.2-7.71-1.1-5.51,5.51-11,4.41-7.72-3.31-9.92-1.1-3.31,3.3-5.51,3.3a8.11,8.11,0,0,0,6.61-1.1s0,2.2-3.3,3.31a15.49,15.49,0,0,0-5.51,3.3,13.37,13.37,0,0,1,5.51-1.1c3.3,0,3.3-3.31,6.61-2.2a12.17,12.17,0,0,0,8.81,0C70.85,54,76.63,50.05,83,54Z"/></svg>