<svg id="Layer_1" data-name="Layer 1" xmlns="http://www.w3.org/2000/svg" xmlns:xlink="http://www.w3.org/1999/xlink" viewBox="0 0 200 200"><defs><style>.cls-1{fill:#0f3394;}.cls-2{fill:#186fce;}.cls-3{fill:#105a77;}.cls-4{fill:#009ad8;}.cls-5{fill:#fff;}.cls-6{fill:#ce49b1;}.cls-7{fill:url(#linear-gradient);}.cls-8{fill:#fe9a4a;}.cls-9{fill:#f69b43;}.cls-10{fill:#f83452;}.cls-11,.cls-12,.cls-13,.cls-14{fill:none;stroke:#0f3394;stroke-miterlimit:10;}.cls-11{stroke-width:2px;}.cls-13{stroke-width:0.75px;}.cls-14{stroke-width:0.7px;}.cls-15{fill:#40bedb;}.cls-16{fill:#fffffe;}.cls-17{fill:#85c2ff;opacity:0.33;}</style><linearGradient id="linear-gradient" x1="93.5" y1="31.9" x2="112.93" y2="31.9" gradientUnits="userSpaceOnUse"><stop offset="0.03" stop-color="#ff1d3e"/><stop offset="1" stop-color="red" stop-opacity="0"/></linearGradient></defs><title>horrible</title><circle class="cls-1" cx="102.73" cy="92.67" r="92"/><path class="cls-2" d="M156.31,131H184.8a86.68,86.68,0,0,1-16.35,24.76H150.81Z"/><ellipse class="cls-3" cx="103.22" cy="132.42" rx="54.39" ry="33.51"/><path class="cls-4" d="M29.4,145.54S65.34,129,142.07,158.16c0,0,11.65,16.51-6.8,25.26S61.45,181.47,29.4,145.54Z"/><path class="cls-5" d="M93.52,94.54c-19.18,1.78-37.9,4.38-37.9,4.38A268.4,268.4,0,0,1,94,85.5"/><path class="cls-6" d="M109.53,80.12c-19.39-.68-51.68.25-64.1,1.8-15.54,1.94-30.11,7.77-29.14,24.28s2.91,19.43,4.85,26.22,26.17-20.56,26.17-20.56-5.28-2.26.54-8.09,32.54-15,43.22-17c4.78-.87,11.78-1.84,18.85-2.46A31.69,31.69,0,0,1,109.53,80.12Z"/><ellipse class="cls-7" cx="103.22" cy="31.9" rx="9.71" ry="1.46"/><path class="cls-8" d="M127.62,178.87s5.89-10,5.55-18,.64-15.82,3.55-21.65,5.66-17.54,6.72-22.85,8.82-17.94,15.62-19.88,8.43-.77,8.43-.77-9.4-.2-10.37,24.08-4.86,34-7.77,37.88S136,172.87,127.62,178.87Z"/><path class="cls-8" d="M165.86,110.09S162,114.94,163,119.8s4.85,6.8,8.74,5.83c3.49-.88,4.59-4.08,5.5-6.85l.3-.91c1-2.93-4.54,3.78-7.11.91S165.86,110.09,165.86,110.09Z"/><path class="cls-9" d="M95.93,51.81a46.56,46.56,0,0,1-7.77,3.89c-2.49,1-4.21.45-5.27-.32a8.91,8.91,0,0,1-2.5-6.48c0-2.92,4.86-8.75,6.8-10.69s0-4.85-1.94-4.85a5,5,0,0,0-3.89,1.94c-1,1-1.45,2.43.49,4.37.68.69,3.88-2.91,3.88-2.91,2,0-.48.48-1.45,1.45a39,39,0,0,0-4.37,5.34C77,47.44,76,53.27,78,56.18c3.89,5.83,9.09,2.93,10.69,2.91,0,0,9.22-1.45,10.19-1.45S95.93,51.81,95.93,51.81Z"/><path class="cls-6" d="M95.45,54.24s-7.77,5.83-12.63,2.91-3.64-9.23-1.94-12.62c1.94-3.89,4.85-5.35,4.85-7.53s-2.67-3.16-2.67-3.16,8.5-1.94,7.53,2.92-7.77,10.68-5.83,13.59,7.77,1.95,15.54,0Z"/><ellipse class="cls-10" cx="103.22" cy="58.61" rx="9.23" ry="1.46"/><polygon class="cls-5" points="113.9 108.63 92.53 109.6 93.47 94.51 94.11 85.51 96.09 57.64 110.34 57.64 113.9 108.63"/><path class="cls-10" d="M103.22,41.13c-5.37,0-9.72.43-9.72,1V58.61h19.43V42.1C112.93,41.56,108.58,41.13,103.22,41.13Z"/><path class="cls-10" d="M103.22,77.55c-5.37,0-9.72-.54-9.72,0V94.06h19.43V77.55C112.93,77,108.58,77.55,103.22,77.55Z"/><polygon class="cls-10" points="93.5 31.9 103.22 22.67 112.93 31.9 93.5 31.9"/><rect class="cls-10" x="102.24" y="30.96" width="2.91" height="9.02"/><polygon class="cls-10" points="96.42 39.57 94.47 39.98 94.47 31.37 96.42 31.37 96.42 39.57"/><rect class="cls-10" x="110.01" y="31.37" width="1.94" height="8.2"/><path class="cls-9" d="M81.85,141.65a211.05,211.05,0,0,1-1-23.31c0-15.54,3.88-28.17,14.57-34s35-7.77,37.87-20.4c1.75-7.57-6.07-10.44-6.07-10.44s3.16,7.53-7.52,12.38S89.59,74.05,80.88,84.35C70.19,97,58.54,123.2,64.36,131.94S81.85,141.65,81.85,141.65Z"/><path class="cls-8" d="M122.32,108.47s-24.45-4.21-29.3-.33-6.8,8.74-3.89,15.54,15.54,3.89,15.54,3.89S94,122.71,94,120.77s1.94-6.8,4.85-8.74S115.68,108.79,122.32,108.47Z"/><path class="cls-8" d="M112.2,82l.73,11c21.35-.89,25.25,4.85,25.25,8.74s-7.77,7.77-7.77,7.77l8.74-1s18.46-10.69-2.91-23.55c-5.84-3.52-14.52-4.08-24-3"/><path class="cls-11" d="M69.22,77.55s-9.71,10.68-19.42,33"/><ellipse class="cls-12" cx="143.52" cy="128.54" rx="3.4" ry="4.37"/><ellipse class="cls-12" cx="164.4" cy="117.37" rx="3.4" ry="4.37"/><ellipse class="cls-12" cx="149.03" cy="136.31" rx="4.53" ry="5.83"/><ellipse class="cls-12" cx="137.37" cy="148.94" rx="4.53" ry="5.83"/><ellipse class="cls-12" cx="142.17" cy="135.82" rx="2.64" ry="3.4"/><ellipse class="cls-12" cx="132.46" cy="172.73" rx="3.4" ry="2.64" transform="translate(-83.36 201.08) rotate(-60)"/><ellipse class="cls-12" cx="152.7" cy="108.14" rx="2.48" ry="2.91"/><ellipse class="cls-12" cx="149.3" cy="144.08" rx="2" ry="1.94"/><ellipse class="cls-13" cx="131.81" cy="93.57" rx="2" ry="1.94"/><ellipse class="cls-13" cx="91.02" cy="124.65" rx="2" ry="1.94"/><ellipse class="cls-13" cx="97.82" cy="108.14" rx="2" ry="1.94"/><circle class="cls-13" cx="135.27" cy="95.03" r="1.46"/><ellipse class="cls-12" cx="136.18" cy="157.68" rx="2.48" ry="2.91"/><ellipse class="cls-12" cx="157.07" cy="107.17" rx="2" ry="1.94"/><ellipse class="cls-14" cx="166.78" cy="123.68" rx="2" ry="1.94"/><ellipse class="cls-14" cx="138.61" cy="94.06" rx="2.5" ry="2.43"/><ellipse class="cls-14" cx="138.61" cy="105.23" rx="2" ry="1.94"/><ellipse class="cls-14" cx="133.76" cy="108.14" rx="2" ry="1.94"/><ellipse class="cls-14" cx="171.64" cy="123.2" rx="2.97" ry="2.43"/><ellipse class="cls-13" cx="155.12" cy="104.26" rx="2" ry="1.94"/><ellipse class="cls-12" cx="159.51" cy="102.8" rx="2.5" ry="2.43"/><ellipse class="cls-12" cx="155.62" cy="99.89" rx="2.5" ry="2.43"/><ellipse class="cls-12" cx="143" cy="91.15" rx="2.5" ry="2.43"/><ellipse class="cls-12" cx="150.77" cy="102.8" rx="2.5" ry="2.43"/><ellipse class="cls-13" cx="146.38" cy="122.71" rx="2" ry="1.94"/><ellipse class="cls-12" cx="135.21" cy="163.99" rx="2.48" ry="3.4"/><ellipse class="cls-13" cx="153.18" cy="113" rx="2" ry="1.94"/><ellipse class="cls-13" cx="120.16" cy="89.69" rx="2" ry="1.94"/><ellipse class="cls-13" cx="114.33" cy="92.6" rx="2" ry="1.94"/><ellipse class="cls-13" cx="143.84" cy="94.92" rx="1.85" ry="1.43" transform="translate(-10.29 172.03) rotate(-60)"/><ellipse class="cls-13" cx="139.95" cy="89.1" rx="1.43" ry="1.85"/><ellipse class="cls-13" cx="127.33" cy="86.18" rx="1.43" ry="1.85"/><ellipse class="cls-13" cx="89.45" cy="121.15" rx="1.43" ry="1.85"/><ellipse class="cls-13" cx="120.53" cy="92.84" rx="1.43" ry="1.71"/><ellipse class="cls-12" cx="132.78" cy="168.36" rx="2" ry="1.94"/><ellipse class="cls-12" cx="156.09" cy="124.65" rx="2" ry="1.94"/><ellipse class="cls-12" cx="120.16" cy="85.8" rx="2" ry="1.94"/><ellipse class="cls-13" cx="130.84" cy="86.78" rx="2" ry="1.94"/><ellipse class="cls-13" cx="129.87" cy="66.38" rx="2" ry="1.94"/><ellipse class="cls-13" cx="80.34" cy="103.29" rx="2" ry="1.94"/><ellipse class="cls-13" cx="91.56" cy="83.86" rx="3.4" ry="2.91"/><ellipse class="cls-13" cx="97.82" cy="81.92" rx="2" ry="1.94"/><ellipse class="cls-13" cx="79.37" cy="107.17" rx="2" ry="1.94"/><ellipse class="cls-13" cx="79.37" cy="111.06" rx="2" ry="1.94"/><ellipse class="cls-13" cx="79.37" cy="114.94" rx="2" ry="1.94"/><ellipse class="cls-13" cx="79.37" cy="118.83" rx="2" ry="1.94"/><ellipse class="cls-13" cx="79.37" cy="122.71" rx="2" ry="1.94"/><ellipse class="cls-13" cx="79.37" cy="126.6" rx="2" ry="1.94"/><ellipse class="cls-13" cx="79.37" cy="130.48" rx="2" ry="1.94"/><ellipse class="cls-13" cx="107.53" cy="77.06" rx="2" ry="1.94"/><ellipse class="cls-13" cx="119.19" cy="73.18" rx="2" ry="1.94"/><ellipse class="cls-13" cx="88.11" cy="87.75" rx="2" ry="1.94"/><ellipse class="cls-13" cx="84.22" cy="91.63" rx="2" ry="1.94"/><ellipse class="cls-12" cx="168.72" cy="119.8" rx="2" ry="1.94"/><ellipse class="cls-12" cx="156.58" cy="112.51" rx="1.51" ry="3.4"/><ellipse class="cls-12" cx="153.67" cy="144.57" rx="2.48" ry="4.37"/><ellipse class="cls-12" cx="150.75" cy="126.11" rx="3.45" ry="4.37"/><ellipse class="cls-12" cx="147.84" cy="110.57" rx="3.45" ry="4.37"/><ellipse class="cls-12" cx="154.15" cy="118.34" rx="2.97" ry="3.4"/><ellipse class="cls-12" cx="115.3" cy="87.75" rx="2.97" ry="2.91"/><ellipse class="cls-12" cx="93.44" cy="110.57" rx="2.47" ry="2.43"/><ellipse class="cls-12" cx="127.01" cy="90.66" rx="3.89" ry="3.81"/><ellipse class="cls-12" cx="125.07" cy="70.26" rx="3.89" ry="3.81"/><ellipse class="cls-12" cx="131.87" cy="60.55" rx="2.91" ry="2.86"/><ellipse class="cls-12" cx="113.41" cy="75.12" rx="3.89" ry="3.81"/><ellipse class="cls-12" cx="101.76" cy="77.06" rx="3.89" ry="3.81"/><ellipse class="cls-12" cx="89.13" cy="114.94" rx="3.89" ry="3.81"/><ellipse class="cls-12" cx="81.36" cy="96.49" rx="3.89" ry="3.81"/><ellipse class="cls-12" cx="135.27" cy="89.14" rx="3.4" ry="3.34"/><ellipse class="cls-12" cx="141.24" cy="99.28" rx="2.97" ry="1.63" transform="translate(-5.43 190.36) rotate(-66.94)"/><ellipse class="cls-12" cx="149.77" cy="117.57" rx="3.4" ry="2.45" transform="translate(-16.94 209.56) rotate(-67.02)"/><ellipse class="cls-12" cx="144.92" cy="117.57" rx="2.45" ry="3.4" transform="translate(-10.8 14.74) rotate(-5.61)"/><ellipse class="cls-12" cx="155.61" cy="131.94" rx="3.45" ry="4.37"/><ellipse class="cls-12" cx="137.95" cy="140.19" rx="2.3" ry="2.91"/><ellipse class="cls-12" cx="160.95" cy="97.46" rx="2.97" ry="2.91"/><ellipse class="cls-12" cx="141.53" cy="156.22" rx="2.97" ry="3.4"/><ellipse class="cls-12" cx="143.47" cy="143.59" rx="3.94" ry="4.37"/><path class="cls-6" d="M147.41,91.63c-3.89-4.85-12.63-8.74-26.23-10.68-2.36-.34-5.75-.59-9.78-.76a28.32,28.32,0,0,0,.37,4c8.13-.65,16.09-.81,20.58.19C141.09,86.29,146.92,89.2,146,97s-12.63,12.63-15.54,12.63-26.71-5.34-33.51.49S90.1,123.68,95,126.6s11.65,1.94,15.54-1,2.17-7.54,0-9.72c-2.43-2.42-11.17,1.46-5.83,5.83,0,0-4.85,1.94-5.83-1.94s3.89-7.77,7.77-7.77,11.17,3.4,22.34,6.8c10.27,3.12,17.49-2.92,19.43-7.77S151.29,96.49,147.41,91.63Z"/><path class="cls-6" d="M157.12,111.06s3.89-19.43,13.6-14.57,7.77,12.62,7.77,17.48a5.86,5.86,0,0,1-8.26,5.34c-3.88-1.94-5.34-6.31-4.37-8.25s1-2.92,2.92-2.92l1.94,1s0-1.94-4.86-2.91-8.74,5.83-8.74,5.83"/><path class="cls-6" d="M88.16,159.62c1.94,1,28.17-3.89,36.91-8.74s11.17-11.17,11.17-11.17-2.43,23.8-4.37,28.65-2,9.71-5.83,11.66S88.16,159.62,88.16,159.62Z"/><path class="cls-6" d="M50.77,110.57s8.74-20.4,17.48-30.11,23.31-12.62,28.17-13.6S121.67,64,121.67,61s-8.74-3.89-8.74-3.89V47.44s14.81,2.13,16.51,9.71c1.56,7-8.71,13.05-26.22,18.46C88.81,80.05,79.77,88.34,78,102.8c-1.94,15.54,3.89,39.82,3.89,39.82l-60.22-9.71,24.28-22.34S48.82,114.46,50.77,110.57Z"/><path class="cls-15" d="M10,125.14s22.34-5.83,42.74,5.83,48.56,43.7,69,47.59,25.25-3.89,25.25-3.89l10.69,7.77S146,203.81,116.81,199,80.88,187.3,72.13,181.47s-18.45-7.77-36.9-8.74C35.23,172.73,16.33,155.67,10,125.14Z"/><path class="cls-16" d="M139.93,158.77a10.93,10.93,0,0,0-5.76,11.65c1.41,8.24,6.35,10,6.35,10s0,7.06,6.24,9.18S155.7,191,155.7,191s2.12,4.47,8.36,2.94a3.81,3.81,0,0,0,3.41,2c2.47,0,2.71-1.29,2.71-1.29s2.35,2,4.47,2,5.17-1.88,5.17-1.88a5.16,5.16,0,0,0,6.12-2.83s-2.59-2.47-4.82-.94a4.19,4.19,0,0,0,3.18-3.18,9,9,0,0,0-.71-5.29s4.24-1.3,4.24-5.41a4.36,4.36,0,0,0-2.83-2.24s-2,1.41-4.23-1.06c0,0,2.47-1.29,2.23-3.18a4.59,4.59,0,0,1-3.29-.47s3.17-.47,2.47-4.59c0,0-1.88,1.3-3.18.71a4.5,4.5,0,0,0,0-4.82s-2.47,2.11-4.35,1.53a4,4,0,0,0-.47-3.3c-1.06-1.88-4-1.76-4-1.76a4.75,4.75,0,0,0-3-4.71c-3.29-1.41-7.06.94-7.06.94s-1.53-2.71-6.23-2.59S147,156.3,147,156.3a5.13,5.13,0,0,0-4.7-1.41C139.58,155.59,139.93,158.77,139.93,158.77Z"/><path class="cls-17" d="M180.71,192.15c3.09-3.75,1.27-9.47,1.27-9.47-1.06,5.26-5.26,2.74-5.26,2.74-1.68,2.1-6.1,2.52-7.57-.21s.63-5.26.63-5.26l-2.53-.84c-.21,3.57-4.42,5.67-4.42,5.67A9.31,9.31,0,0,1,152.32,181c-5.89,2.52-11.8-.58-11.8-.58s0,7.06,6.24,9.18S155.7,191,155.7,191s2.12,4.47,8.36,2.94a3.81,3.81,0,0,0,3.41,2c2.47,0,2.71-1.29,2.71-1.29s2.35,2,4.47,2a10.38,10.38,0,0,0,4.09-1.29A16.54,16.54,0,0,1,180.71,192.15Z"/></svg>