<svg id="Layer_1" data-name="Layer 1" xmlns="http://www.w3.org/2000/svg" xmlns:xlink="http://www.w3.org/1999/xlink" viewBox="0 0 200 200"><defs><style>.cls-1,.cls-16,.cls-19,.cls-20,.cls-21,.cls-22,.cls-23,.cls-24,.cls-7{fill:none;}.cls-2{fill:url(#radial-gradient);}.cls-3{fill:#fffffe;}.cls-4{clip-path:url(#clip-path);}.cls-5{fill:url(#linear-gradient);}.cls-11,.cls-6{opacity:0.49;}.cls-7{stroke:#705520;}.cls-14,.cls-16,.cls-19,.cls-20,.cls-21,.cls-22,.cls-23,.cls-24,.cls-7{stroke-miterlimit:10;}.cls-19,.cls-7{stroke-width:0.5px;}.cls-8{opacity:0.47;fill:url(#linear-gradient-2);}.cls-9{fill:url(#linear-gradient-3);}.cls-10{fill:#374d93;}.cls-11,.cls-25{fill:#fff1d2;}.cls-12{opacity:0.61;}.cls-13{fill:#705520;}.cls-14,.cls-18{fill:#fff;}.cls-14,.cls-16,.cls-19{stroke:#000;}.cls-15{fill:#ed5920;}.cls-16{stroke-width:2px;}.cls-17{fill:#ff8e42;}.cls-20,.cls-21,.cls-22,.cls-23,.cls-24{stroke:#51380b;}.cls-21{opacity:0.9;}.cls-22{opacity:0.7;}.cls-23{opacity:0.6;}.cls-24{opacity:0.5;}.cls-26{opacity:0.43;}.cls-27{fill:#5d6a7f;}.cls-28{fill:#8794c6;}.cls-29{fill:#aab8e5;}</style><radialGradient id="radial-gradient" cx="102.74" cy="100.67" r="91.95" gradientUnits="userSpaceOnUse"><stop offset="0" stop-color="#ffd25e"/><stop offset="0.74" stop-color="#ffe294"/><stop offset="1" stop-color="#ffeebf"/></radialGradient><clipPath id="clip-path"><circle class="cls-1" cx="102.65" cy="100.67" r="92.02"/></clipPath><linearGradient id="linear-gradient" x1="-27.15" y1="175.43" x2="222.16" y2="175.43" gradientUnits="userSpaceOnUse"><stop offset="0" stop-color="#6a6ac6"/><stop offset="0.65" stop-color="#a179bd"/><stop offset="1" stop-color="#d1c3b0"/></linearGradient><linearGradient id="linear-gradient-2" x1="0.53" y1="146.28" x2="188.49" y2="146.28" gradientUnits="userSpaceOnUse"><stop offset="0" stop-color="#abc7ff"/><stop offset="0.13" stop-color="#e3eeff"/><stop offset="0.89" stop-color="#7dc5ff"/></linearGradient><linearGradient id="linear-gradient-3" x1="14.93" y1="112.01" x2="165.63" y2="112.01" gradientUnits="userSpaceOnUse"><stop offset="0" stop-color="#abc7ff"/><stop offset="0" stop-color="#a081a3"/><stop offset="0.89" stop-color="#ff855f"/></linearGradient></defs><title>nonfiction</title><path class="cls-2" d="M102.65,8.67A91.91,91.91,0,0,0,26,49.8c.36.54.71,1.09,1,1.67s.55,1.08.79,1.63l.63.15a14.27,14.27,0,1,1,28.32,3.47A8.15,8.15,0,0,1,70.19,58,7.82,7.82,0,0,1,71,59.93a18.32,18.32,0,0,1,30.9.65,16.08,16.08,0,0,1,4.82-4A16.32,16.32,0,0,1,128.84,63a17.29,17.29,0,0,1,.86,1.86,15.82,15.82,0,0,1,1.11,1.72,16.33,16.33,0,0,1-6.44,22.17,15.78,15.78,0,0,1-1.92.88A16.31,16.31,0,0,1,114,103.75l-.63.31a12.23,12.23,0,0,1-6.16,12.74,12.07,12.07,0,0,1-4.75,1.46,23.46,23.46,0,0,1-42.77,9.38c-25.78,3.33-40.56-8.92-48.87-21.22A92,92,0,1,0,102.65,8.67Z"/><circle class="cls-3" cx="114.54" cy="117.73" r="12.53"/><circle class="cls-3" cx="180.46" cy="125.79" r="10.02"/><circle class="cls-3" cx="107.54" cy="132.31" r="10.65"/><circle class="cls-3" cx="135.12" cy="113.56" r="8.77"/><circle class="cls-3" cx="161.86" cy="123.16" r="11.28"/><circle class="cls-3" cx="179.26" cy="123.59" r="10.02"/><circle class="cls-3" cx="174.1" cy="135.01" r="10.02"/><circle class="cls-3" cx="157.61" cy="150.52" r="14.41"/><circle class="cls-3" cx="171.14" cy="145.22" r="7.52"/><circle class="cls-3" cx="147.64" cy="118.11" r="5.01"/><path class="cls-3" d="M162.13,144.45l3.57-9.11,3.48-4.06-26-13.55s-21-7-21.52-5.32-6.37,9.22-6.37,9.22-6.36,9.22-5.76,10.32S117,166.42,152,157.19Z"/><g class="cls-4"><path class="cls-5" d="M-27.15,141.37l14,.33,9.86-1H38.11s90.74,10.85,91.73,10.85,15.78-2,15.78-2l5.92-2h26.79l6.74-3h11.68l25.41,52L-4,210.15Z"/></g><g class="cls-6"><path class="cls-7" d="M28.41,94.36,41.89,60.49s4.77,21.05,16.77,35.84"/><path class="cls-7" d="M41.07,60.82s-4,25.32,1.48,33.87"/><path class="cls-7" d="M24.46,68.55s-2.13,17.92,4.77,27.78"/><polyline class="cls-7" points="82.66 87.45 115.04 25.31 129.84 79.56"/><path class="cls-7" d="M106.17,80.39s1-28.12,8.87-53.43L88.74,85"/><path class="cls-7" d="M115,27.29s-6.9,38.46,0,55.23"/><path class="cls-7" d="M109.13,82.52,61.62,35.18S50.93,71.67,63.75,99.29"/><path class="cls-7" d="M78.55,96.33C62.77,70.69,62,36.16,62,36.16L43,95.35"/></g><polygon class="cls-8" points="0.53 142.19 188.5 135.78 176.15 156.78 9.88 152.96 0.53 142.19"/><path class="cls-9" d="M165.63,73.59,149.35,81l-26.5,4L76.08,92.88,51.42,97.81l1-4.93-18.74,3,1-2-8.88,1-2,3-5.92,3-3,8.88,2,2a58.18,58.18,0,0,0,14.8,20.71C42.55,142.2,45.79,142,45.79,142s74.66,8.42,77.62,8.42,15.15-11.86,19.74-17.1c3.54-4,10.48-12.14,13.81-23.67C163.38,87.45,165.63,74.58,165.63,73.59Z"/><path class="cls-10" d="M14,127l41.24,5.89,16.84,12.62-51.62-2S15.11,132.37,14,127Z"/><path class="cls-11" d="M150.85,105.06l-7,2a135.46,135.46,0,0,0-21.15,1c-15.89,1.94-38.23,6.21-68.45,9.23s-33.26,2.86-33.26,2.86l-1-2s32.23-4,54.38-8.05,44.4-7.73,54.39-9.07c12.48-1.67,22.15-1,24.16-2Z"/><path class="cls-11" d="M151.86,94l-7.05,2a150.88,150.88,0,0,0-22.16,2c-12.08,2-33.23,6-69.48,12.09-29.95,5-35.25,6-35.25,6v-3S56.19,106.07,78.34,102,123.7,92.88,133.73,92c11.08-1,17.12-3,19.13-4Z"/><g class="cls-12"><rect class="cls-13" x="120.64" y="103.05" width="2.01" height="2.01"/><polygon class="cls-13" points="105.53 107.08 107.55 107.08 108.56 105.06 105.53 105.06 105.53 107.08"/><polygon class="cls-13" points="94.29 109.26 91.77 109.76 92.19 107.41 94.62 107.08 94.29 109.26"/><polygon class="cls-13" points="81.7 111.52 80.02 111.61 80.94 109.59 82.54 109.17 81.7 111.52"/><polygon class="cls-13" points="71.29 113.03 71.63 111.27 73.56 110.85 73.39 112.7 71.29 113.03"/><polygon class="cls-13" points="64.33 114.21 64.75 112.19 66.43 111.86 66.09 114.04 64.33 114.21"/><polygon class="cls-13" points="59.55 115.13 60.22 112.95 61.56 112.86 61.22 114.63 59.55 115.13"/><polygon class="cls-13" points="55.52 115.89 56.94 115.72 57.36 113.79 56.19 113.87 55.52 115.89"/><polygon class="cls-13" points="128.44 93.65 128.02 96 131.04 95.91 130.88 92.98 128.44 93.65"/><polygon class="cls-13" points="113.51 95.58 113.25 98.09 117.03 97.68 116.53 95.07 113.51 95.58"/><polygon class="cls-13" points="100 98.43 99.49 100.61 102.43 100.19 102.51 97.68 100 98.43"/><polygon class="cls-13" points="89.42 100.44 88.75 102.88 91.35 102.63 91.1 100.36 89.42 100.44"/><polygon class="cls-13" points="79.18 102.54 78.68 104.81 80.53 104.31 80.78 102.04 79.18 102.54"/><polygon class="cls-13" points="70.03 103.97 69.78 106.07 71.55 105.82 71.38 103.8 70.03 103.97"/><polygon class="cls-13" points="63.07 107.24 63.49 105.06 65 104.89 64.92 106.74 63.07 107.24"/><polygon class="cls-13" points="58.03 106.24 57.53 107.83 59.04 107.66 59.13 106.07 58.03 106.24"/><polygon class="cls-13" points="54.51 107.08 54.01 108.5 52.41 108.67 53 107.24 54.51 107.08"/><polygon class="cls-13" points="49.05 108 48.8 109.51 47.38 109.42 47.8 108.08 49.05 108"/><polygon class="cls-13" points="70.87 99.94 70.12 101.79 68.69 101.62 69.11 100.03 70.87 99.94"/><polygon class="cls-13" points="63.74 101.37 63.15 102.88 61.64 103.21 62.23 101.28 63.74 101.37"/><polygon class="cls-13" points="58.03 102.29 57.53 104.05 56.02 104.47 56.52 102.38 58.03 102.29"/></g><line class="cls-14" x1="115.04" y1="78.58" x2="115.04" y2="16.44"/><line class="cls-14" x1="61.78" y1="33.21" x2="61.45" y2="96.33"/><line class="cls-14" x1="42.05" y1="58.85" x2="42.05" y2="97.32"/><line class="cls-14" x1="24.3" y1="66.74" x2="29.23" y2="94.36"/><path class="cls-15" d="M145.8,98a23.74,23.74,0,0,0-14-7.53s23-4,30.31-8.43C162.12,82,158.72,89.37,145.8,98Z"/><line class="cls-16" x1="183.1" y1="51.95" x2="177.18" y2="154.53"/><path class="cls-17" d="M75.43,93.54l2.13-5.1S108.14,78.58,115,77.59s37.32,3.62,37.32,3.62"/><path class="cls-18" d="M173.24,68.21a.23.23,0,0,1-.22-.1c-.36-.48-.2-2,.1-3.36.39,1.41.63,2.91.31,3.38A.21.21,0,0,1,173.24,68.21Z"/><path d="M173.07,63s-1.8,5.75.17,5.75-.17-5.75-.17-5.75Z"/><path class="cls-19" d="M173.24,68.71s-1.65,23.68,6.08,62.64"/><path class="cls-15" d="M163.32,79.89l2-6.24h2a81,81,0,0,1-3.94,15.78c-12.76,31.72-34.08,54.72-34.08,54.72l6.46-11.32s6.9-22.69,8.87-35.51C144.63,97.32,158.06,91.07,163.32,79.89Z"/><line class="cls-20" x1="123.92" y1="120" x2="110.11" y2="158.47"/><line class="cls-20" x1="112.08" y1="120.99" x2="100.25" y2="155.51"/><line class="cls-20" x1="98.28" y1="120" x2="89.4" y2="145.65"/><line class="cls-20" x1="91.37" y1="125.92" x2="84.47" y2="143.68"/><line class="cls-20" x1="85.45" y1="120.99" x2="78.55" y2="139.73"/><line class="cls-20" x1="78.55" y1="123.95" x2="73.62" y2="137.76"/><line class="cls-20" x1="118" y1="75.62" x2="117.02" y2="159.46"/><line class="cls-20" x1="103.72" y1="76.6" x2="102.73" y2="151.73"/><line class="cls-20" x1="94.33" y1="79.56" x2="93.34" y2="147.13"/><line class="cls-20" x1="84.47" y1="81.54" x2="84.47" y2="145.19"/><line class="cls-20" x1="75.59" y1="83.51" x2="74.44" y2="136.44"/><line class="cls-20" x1="66.71" y1="85.48" x2="66.22" y2="131.02"/><line class="cls-20" x1="59.06" y1="87.64" x2="59.06" y2="127.1"/><line class="cls-20" x1="50.93" y1="89.26" x2="50.93" y2="122.96"/><line class="cls-21" x1="44.03" y1="90.41" x2="44.03" y2="120.99"/><line class="cls-22" x1="38.11" y1="91.54" x2="37.94" y2="120"/><line class="cls-22" x1="33.26" y1="93.19" x2="33.26" y2="120.68"/><line class="cls-23" x1="28.89" y1="94.31" x2="28.89" y2="119.74"/><line class="cls-24" x1="24.1" y1="94.87" x2="23.77" y2="119.18"/><line class="cls-20" x1="192.97" y1="108.17" x2="141.55" y2="112.26"/><polyline class="cls-20" points="165.35 110.8 119.98 113.1 66.71 116.06 40.08 118.03"/><polygon class="cls-25" points="31.2 121.13 47.97 121.13 122.85 163.51 92.36 161.94 57.84 137.89 44.03 136.91 31.2 121.13"/><line class="cls-24" x1="182.01" y1="54.63" x2="152.16" y2="78.92"/><polyline class="cls-20" points="125.46 77.85 184.29 52.76 182.01 54.63"/><path class="cls-11" d="M164.09,73.73s-4.68,35.54-35.26,70.33l1.68-.56s32.83-35.63,36.81-69.85Z"/><g class="cls-26"><rect class="cls-27" x="33.07" y="121.99" width="16.83" height="1.12"/><polygon class="cls-27" points="56.64 126.48 38.68 126.48 38.68 125.36 55.51 125.36 56.64 126.48"/><polygon class="cls-27" points="63.37 129.84 44.29 129.84 44.29 128.72 61.13 128.72 63.37 129.84"/><polygon class="cls-27" points="70.1 133.21 49.9 133.21 49.9 132.09 66.74 132.09 70.1 133.21"/><polygon class="cls-27" points="75.71 136.58 55.51 136.58 55.51 135.46 72.35 135.46 75.71 136.58"/><polygon class="cls-27" points="82.45 139.94 61.13 139.94 61.13 138.82 77.96 138.82 82.45 139.94"/><polygon class="cls-27" points="88.06 143.31 66.74 143.31 66.74 142.19 84.69 142.19 88.06 143.31"/><rect class="cls-27" x="68.98" y="145.55" width="23.57" height="1.12"/><rect class="cls-27" x="73.47" y="148.92" width="25.81" height="1.12"/><rect class="cls-27" x="79.08" y="152.29" width="25.81" height="1.12"/><rect class="cls-27" x="83.57" y="155.65" width="28.05" height="1.12"/><rect class="cls-27" x="89.18" y="159.02" width="28.05" height="1.12"/></g><path class="cls-28" d="M27.26,119.29l-26.63,1-.1,21.56,2.24.2v-6a5,5,0,1,1,10.1,0V143l3.37.3v-6.68a5,5,0,1,1,10.1,0v7.6l4.49.41v-7.26a5,5,0,1,1,10.1,0v8.17l3.1.28V128.17Z"/><polygon class="cls-28" points="77.56 144.8 57.84 130.99 57.84 137.89 77.56 151.7 77.56 144.8"/><polygon class="cls-29" points="57.84 128.75 44.03 128.88 44.03 145.78 57.84 145.78 57.84 128.75"/></svg>