<svg width="360" height="266" viewBox="0 0 360 266" fill="none" xmlns="http://www.w3.org/2000/svg">
<g clip-path="url(#clip0)">
<path d="M360 98.496H208.679V102.947H360V98.496Z" fill="#E6E6E6"/>
<path d="M259.523 61.2655H221.188V99.71H259.523V61.2655Z" fill="#E6E6E6"/>
<path d="M251.856 68.9545H228.855V92.0212H251.856V68.9545Z" fill="#CCCCCC"/>
<path d="M316.823 61.2655H307.138V99.71H316.823V61.2655Z" fill="#E6E6E6"/>
<path d="M316.823 67.3357H307.138V71.7872H316.823V67.3357Z" fill="#CCCCCC"/>
<path d="M316.823 86.7603H307.138V91.2117H316.823V86.7603Z" fill="#CCCCCC"/>
<path d="M301.893 61.2655H292.208V99.71H301.893V61.2655Z" fill="#E6E6E6"/>
<path d="M301.893 67.3357H292.208V71.7872H301.893V67.3357Z" fill="#CCCCCC"/>
<path d="M301.893 86.7603H292.208V91.2117H301.893V86.7603Z" fill="#CCCCCC"/>
<path d="M325.167 61.1066L316.488 65.4159L333.497 99.8691L342.176 95.5598L325.167 61.1066Z" fill="#E6E6E6"/>
<path d="M327.853 66.5466L319.174 70.8558L321.143 74.8451L329.822 70.5359L327.853 66.5466Z" fill="#CCCCCC"/>
<path d="M336.447 83.9544L327.768 88.2637L329.737 92.253L338.416 87.9437L336.447 83.9544Z" fill="#CCCCCC"/>
<path d="M235.513 76.6973L240.39 85.1686L245.267 93.6399H235.513H225.759L230.636 85.1686L235.513 76.6973Z" fill="#E6E6E6"/>
<path d="M243.987 78.3159L248.864 86.7873L253.741 95.2586H243.987H234.233L239.11 86.7873L243.987 78.3159Z" fill="#E6E6E6"/>
<path d="M247.417 75.834C248.977 75.834 250.242 74.5657 250.242 73.0012C250.242 71.4367 248.977 70.1685 247.417 70.1685C245.857 70.1685 244.592 71.4367 244.592 73.0012C244.592 74.5657 245.857 75.834 247.417 75.834Z" fill="#E6E6E6"/>
<path d="M208.679 41.8409L360 41.8409V37.3895L208.679 37.3895V41.8409Z" fill="#E6E6E6"/>
<path d="M309.156 38.6035L347.491 38.6035V0.159004L309.156 0.159004V38.6035Z" fill="#E6E6E6"/>
<path d="M316.823 30.9147L339.824 30.9147V7.84797L316.823 7.84797V30.9147Z" fill="#CCCCCC"/>
<path d="M251.856 38.6035H261.54V0.159004H251.856V38.6035Z" fill="#E6E6E6"/>
<path d="M251.856 10.6807L261.54 10.6807V6.2292L251.856 6.2292V10.6807Z" fill="#CCCCCC"/>
<path d="M251.856 30.1052H261.54V25.6538H251.856V30.1052Z" fill="#CCCCCC"/>
<path d="M266.786 38.6035H276.471V0.159004H266.786V38.6035Z" fill="#E6E6E6"/>
<path d="M266.786 10.6807L276.471 10.6807V6.2292L266.786 6.2292V10.6807Z" fill="#CCCCCC"/>
<path d="M266.786 30.1052H276.471V25.6538H266.786V30.1052Z" fill="#CCCCCC"/>
<path d="M226.503 34.4532L235.182 38.7625L252.19 4.30925L243.511 3.66687e-06L226.503 34.4532Z" fill="#E6E6E6"/>
<path d="M238.856 9.42927L247.535 13.7385L249.505 9.74921L240.826 5.43995L238.856 9.42927Z" fill="#CCCCCC"/>
<path d="M230.262 26.8372L238.942 31.1465L240.911 27.1572L232.232 22.8479L230.262 26.8372Z" fill="#CCCCCC"/>
<path d="M333.166 15.5905L328.289 24.0618L323.412 32.5331H333.166H342.92L338.043 24.0618L333.166 15.5905Z" fill="#E6E6E6"/>
<path d="M324.692 17.2092L319.815 25.6806L314.938 34.1519H324.692H334.446L329.569 25.6806L324.692 17.2092Z" fill="#E6E6E6"/>
<path d="M321.262 14.7275C322.822 14.7275 324.086 13.4592 324.086 11.8948C324.086 10.3303 322.822 9.06201 321.262 9.06201C319.702 9.06201 318.437 10.3303 318.437 11.8948C318.437 13.4592 319.702 14.7275 321.262 14.7275Z" fill="#E6E6E6"/>
<path d="M208.679 164.054L360 164.054V159.602L208.679 159.602V164.054Z" fill="#E6E6E6"/>
<path d="M309.156 160.817H347.491V122.372H309.156V160.817Z" fill="#E6E6E6"/>
<path d="M316.823 153.128H339.824V130.061H316.823V153.128Z" fill="#CCCCCC"/>
<path d="M251.856 160.817H261.54V122.372H251.856V160.817Z" fill="#E6E6E6"/>
<path d="M251.856 132.894H261.54V128.442H251.856V132.894Z" fill="#CCCCCC"/>
<path d="M251.856 152.318H261.54V147.867H251.856V152.318Z" fill="#CCCCCC"/>
<path d="M266.786 160.817H276.471V122.372H266.786V160.817Z" fill="#E6E6E6"/>
<path d="M266.786 132.894H276.471V128.442H266.786V132.894Z" fill="#CCCCCC"/>
<path d="M266.786 152.318H276.471V147.867H266.786V152.318Z" fill="#CCCCCC"/>
<path d="M226.503 156.666L235.182 160.976L252.19 126.522L243.511 122.213L226.503 156.666Z" fill="#E6E6E6"/>
<path d="M238.856 131.642L247.535 135.952L249.505 131.962L240.826 127.653L238.856 131.642Z" fill="#CCCCCC"/>
<path d="M230.262 149.05L238.942 153.36L240.911 149.37L232.232 145.061L230.262 149.05Z" fill="#CCCCCC"/>
<path d="M333.166 137.803L328.289 146.275L323.412 154.747H333.166H342.92L338.043 146.275L333.166 137.803Z" fill="#E6E6E6"/>
<path d="M324.692 139.422L319.815 147.894L314.938 156.365H324.692H334.446L329.569 147.894L324.692 139.422Z" fill="#E6E6E6"/>
<path d="M321.262 136.94C322.822 136.94 324.086 135.672 324.086 134.108C324.086 132.543 322.822 131.275 321.262 131.275C319.702 131.275 318.437 132.543 318.437 134.108C318.437 135.672 319.702 136.94 321.262 136.94Z" fill="#E6E6E6"/>
<path d="M178.257 266C276.705 266 356.513 260.316 356.513 253.303C356.513 246.291 276.705 240.607 178.257 240.607C79.8082 240.607 0 246.291 0 253.303C0 260.316 79.8082 266 178.257 266Z" fill="#E6E6E6"/>
<path d="M317.52 260.413C288.453 255.225 256.668 256.088 223.327 260.413C238.524 247.548 251.639 234.682 236.443 221.816C266.085 227.949 270.237 227.328 303.212 221.816C295.564 234.682 309.871 247.548 317.52 260.413Z" fill="#E3672A"/>
<path opacity="0.2" d="M317.52 260.413C288.453 255.225 256.668 256.088 223.327 260.413C238.524 247.548 251.639 234.682 236.443 221.816C266.085 227.949 270.237 227.328 303.212 221.816C295.564 234.682 309.871 247.548 317.52 260.413Z" fill="black"/>
<path d="M310.43 254.925C285.739 250.783 258.739 251.472 230.417 254.925C243.326 244.655 254.467 234.385 241.558 224.115C266.738 229.011 270.265 228.515 298.276 224.115C291.779 234.385 303.933 244.655 310.43 254.925Z" fill="#E3672A"/>
<path d="M301.025 238.377C308.291 238.377 314.181 232.471 314.181 225.184C314.181 217.897 308.291 211.991 301.025 211.991C293.76 211.991 287.87 217.897 287.87 225.184C287.87 232.471 293.76 238.377 301.025 238.377Z" fill="#2F2E41"/>
<path d="M241.305 209.881L250.42 211.405L254.978 224.609L241.811 232.735L226.619 209.881H240.798H241.305Z" fill="#A0616A"/>
<path d="M267.132 230.196C278.878 230.196 288.401 220.646 288.401 208.866C288.401 197.085 278.878 187.535 267.132 187.535C255.385 187.535 245.862 197.085 245.862 208.866C245.862 220.646 255.385 230.196 267.132 230.196Z" fill="#A0616A"/>
<path d="M149.644 131.163C149.644 131.163 97.9905 136.749 88.8751 135.734C79.7598 134.718 75.7085 133.702 75.7085 133.702C75.7085 133.702 69.6315 141.828 72.67 145.383C74.3717 147.431 76.4309 149.152 78.7469 150.462C78.7469 150.462 84.3174 148.938 88.3687 150.462C92.42 151.985 133.439 158.587 140.529 152.493C147.619 146.399 149.644 131.163 149.644 131.163Z" fill="#2F2E41"/>
<path d="M153.189 244.416C153.189 244.416 119.26 234.766 113.183 192.106V188.043C113.183 188.043 106.47 199.854 104.067 202.263C101.282 205.057 91.4072 230.196 91.9136 232.735C92.42 235.274 91.9136 236.29 91.9136 236.29L77.2277 234.767V230.196C77.2277 230.196 85.077 206.58 85.5834 200.994C86.0899 195.407 105.08 156.556 105.08 156.556C105.08 156.556 112.17 141.828 124.324 156.556C136.478 171.284 137.491 181.441 137.491 181.441L153.189 211.913L153.189 244.416Z" fill="#2F2E41"/>
<path d="M77.2277 132.179L61.0225 126.592C61.0225 126.592 45.8302 115.419 49.3751 126.592C52.9199 137.765 69.1251 162.142 73.6828 159.603C78.2405 157.064 83.7218 150.761 82.5004 149.849C81.2789 148.938 73.1764 142.336 77.2277 132.179Z" fill="#2F2E41"/>
<path d="M79.1864 227.197L66.1048 233.604C66.1048 233.604 50.2852 236.045 59.1077 240.622C67.9301 245.198 92.2679 250.079 93.4848 245.808C94.7017 241.537 94.2189 234.448 92.9392 234.636C91.6595 234.825 82.837 235.74 79.1864 227.197Z" fill="#2F2E41"/>
<path d="M146.606 210.897C146.606 210.897 140.023 239.337 151.164 245.432C162.305 251.526 240.292 252.542 246.369 241.369C252.446 230.196 249.407 230.196 249.407 230.196L233.202 211.913L246.369 210.897C246.369 210.897 246.369 206.834 241.811 206.326C237.253 205.818 223.074 200.74 210.92 204.295C198.766 207.85 191.676 197.185 191.676 197.185L146.606 210.897Z" fill="#575A89"/>
<path d="M137.997 122.021L129.388 169.253L188.638 162.142L199.273 119.482L137.997 122.021Z" fill="#3F3D56"/>
<path d="M139.77 123.799L132.68 165.951L186.612 159.603L196.994 121.26L139.77 123.799Z" fill="white"/>
<path d="M131.414 169.76L129.388 169.253L128.375 171.284L144.58 216.484L146.104 215.899L146.606 212.929L131.414 169.76Z" fill="#B3B3B3"/>
<path d="M129.388 168.744L145.593 215.976L206.869 206.834L188.638 162.143L129.388 168.744Z" fill="#D0CDE1"/>
<path d="M137.491 167.221V169.76L182.561 164.682L182.055 162.143L137.491 167.221Z" fill="#3F3D56"/>
<path d="M138.503 172.3L145.593 192.106L191.676 186.52L183.574 167.729L138.503 172.3Z" fill="#3F3D56"/>
<path d="M196.234 200.232L194.715 196.169C194.715 196.169 183.068 175.855 176.991 179.917C170.914 183.98 189.651 203.787 189.651 203.787H195.728L196.234 200.232Z" fill="#A0616A"/>
<path d="M157.747 203.279L156.228 197.185C156.228 197.185 152.176 178.394 159.266 179.41C166.356 180.425 168.382 198.2 168.382 198.2L167.875 202.263L157.747 203.279Z" fill="#A0616A"/>
<path d="M169.901 200.74C169.901 200.74 156.734 198.708 156.228 201.756C155.721 204.803 153.189 250.51 165.849 252.034C178.51 253.557 241.305 260.16 234.721 244.416C228.138 228.672 218.01 230.704 218.01 230.704L174.965 235.274L169.901 200.74Z" fill="#575A89"/>
<path d="M209.654 206.58L196.234 197.185L187.372 204.041L198.513 216.23L209.654 206.58Z" fill="#575A89"/>
<path opacity="0.2" d="M173.699 215.722L175.724 235.021L210.667 232.989L180.282 232.481L173.699 215.722Z" fill="black"/>
<path d="M277.631 238.134C291.615 238.134 302.951 226.766 302.951 212.741C302.951 198.717 291.615 187.348 277.631 187.348C263.647 187.348 252.31 198.717 252.31 212.741C252.31 226.766 263.647 238.134 277.631 238.134Z" fill="#2F2E41"/>
<path d="M147.366 138.527L178.763 137.431L181.801 125.83L149.391 126.811L147.366 138.527Z" fill="#E3672A"/>
<path d="M139.263 145.129L186.866 143.605L187.372 141.574L139.769 143.255L139.263 145.129Z" fill="#E6E6E6"/>
<path d="M138.25 150.208L185.853 148.684L186.359 146.652L138.756 148.333L138.25 150.208Z" fill="#E6E6E6"/>
<path d="M137.744 154.27L185.346 152.747L185.853 150.716L138.25 152.396L137.744 154.27Z" fill="#E6E6E6"/>
</g>
<defs>
<clipPath id="clip0">
<rect width="360" height="266" fill="white"/>
</clipPath>
</defs>
</svg>
