<svg width="15" height="12" viewBox="0 0 15 12" fill="none" xmlns="http://www.w3.org/2000/svg">
<path d="M14.8413 10.6536C14.8283 10.6432 14.2528 10.0234 13.8543 9.22396C14.5705 8.51823 15.0002 7.63281 15.0002 6.66667C15.0002 4.58333 13.008 2.86198 10.4116 2.55469C9.59393 1.05469 7.66424 0 5.41684 0C2.42465 0 0.000175394 1.86458 0.000175394 4.16667C0.000175394 5.13021 0.429863 6.01563 1.14601 6.72396C0.747571 7.52344 0.174655 8.14323 0.164238 8.15365C0.000175399 8.32813 -0.0466996 8.58333 0.0496546 8.80469C0.143405 9.02604 0.362155 9.16927 0.601738 9.16927C1.99497 9.16927 3.11997 8.64323 3.86215 8.15885C4.09913 8.21354 4.34132 8.25521 4.59132 8.28385C5.41163 9.78125 7.33872 10.8359 9.58611 10.8359C10.1278 10.8359 10.6486 10.7734 11.1434 10.6589C11.8856 11.1406 13.008 11.6693 14.4038 11.6693C14.6434 11.6693 14.8595 11.526 14.9559 11.3047C15.0497 11.0833 15.0054 10.8281 14.8413 10.6536ZM4.04705 7.34375L3.7033 7.26563L3.40643 7.45833C2.88299 7.79948 2.09132 8.19271 1.12257 8.30469C1.35174 8.01042 1.64861 7.58594 1.8908 7.09635L2.16163 6.55469L1.73195 6.13021C1.32049 5.72656 0.833509 5.05729 0.833509 4.16667C0.833509 2.32813 2.8908 0.833333 5.41684 0.833333C7.94288 0.833333 10.0002 2.32813 10.0002 4.16667C10.0002 6.00521 7.94288 7.5 5.41684 7.5C4.9559 7.5 4.49497 7.44792 4.04705 7.34375ZM11.5939 9.95833L11.2971 9.76562L10.9533 9.84635C10.5054 9.95052 10.0444 10.0026 9.58351 10.0026C7.8882 10.0026 6.40642 9.32812 5.61476 8.32812C8.5132 8.24479 10.8335 6.41667 10.8335 4.16667C10.8335 3.91927 10.7997 3.67969 10.7476 3.44531C12.7111 3.82292 14.1668 5.1224 14.1668 6.66667C14.1668 7.55729 13.6799 8.22656 13.2684 8.63021L12.8387 9.05469L13.1069 9.59375C13.3517 10.0859 13.6486 10.5104 13.8752 10.8021C12.909 10.6927 12.1174 10.2969 11.5939 9.95833Z" fill="#828282"/>
</svg>
