<svg width="14" height="14" viewBox="0 0 14 14" fill="none" xmlns="http://www.w3.org/2000/svg">
<path d="M7 0.21875C3.25229 0.21875 0.21875 3.25169 0.21875 7C0.21875 10.7477 3.25169 13.7812 7 13.7812C8.44717 13.7812 9.86234 13.3143 11.022 12.46C11.1725 12.3492 11.1977 12.134 11.0793 11.9894L10.9406 11.8199C10.8307 11.6857 10.6345 11.6591 10.4947 11.7617C9.48637 12.5018 8.2571 12.9062 7 12.9062C3.73589 12.9062 1.09375 10.2647 1.09375 7C1.09375 3.73584 3.73535 1.09375 7 1.09375C10.2387 1.09375 12.9062 3.28191 12.9062 6.5625C12.9062 8.55512 11.462 9.52221 9.7326 9.52221C9.193 9.52221 9.08469 9.22646 9.19931 8.59614L10.0762 4.10982C10.1158 3.90718 9.96067 3.71875 9.7542 3.71875H9.41456C9.33837 3.71875 9.26455 3.74527 9.20577 3.79375C9.14699 3.84224 9.10692 3.90967 9.09243 3.98448C9.0297 4.30839 9.01422 4.35263 8.98685 4.68576C8.66614 3.94535 7.93032 3.50935 6.9805 3.50935C5.11993 3.50935 3.33897 5.23064 3.33897 7.80306C3.33897 9.48708 4.26634 10.4924 5.81968 10.4924C6.90602 10.4924 7.75018 9.82857 8.18855 9.20776C8.15544 9.96754 8.66584 10.362 9.44568 10.362C12.3892 10.362 13.7812 8.79728 13.7812 6.5625C13.7812 2.83866 10.7697 0.21875 7 0.21875ZM5.96313 9.58746C4.96013 9.58746 4.36133 8.90091 4.36133 7.75089C4.36133 5.70858 5.74943 4.42739 7.01961 4.42739C8.0821 4.42739 8.60833 5.18727 8.60833 6.22483C8.60833 7.81441 7.55918 9.58746 5.96313 9.58746Z" fill="#234D60"/>
</svg>
