<svg width="15" height="15" viewBox="0 0 15 15" fill="none" xmlns="http://www.w3.org/2000/svg">
<path d="M14.8975 14.1094L11.1182 10.3301C11.0508 10.2627 10.9629 10.2275 10.8691 10.2275H10.5674C11.5723 9.14062 12.1875 7.69043 12.1875 6.09375C12.1875 2.72754 9.45996 0 6.09375 0C2.72754 0 0 2.72754 0 6.09375C0 9.45996 2.72754 12.1875 6.09375 12.1875C7.69043 12.1875 9.14062 11.5723 10.2275 10.5703V10.8691C10.2275 10.9629 10.2656 11.0508 10.3301 11.1182L14.1094 14.8975C14.2471 15.0352 14.4697 15.0352 14.6074 14.8975L14.8975 14.6074C15.0352 14.4697 15.0352 14.2471 14.8975 14.1094ZM6.09375 11.25C3.24316 11.25 0.9375 8.94434 0.9375 6.09375C0.9375 3.24316 3.24316 0.9375 6.09375 0.9375C8.94434 0.9375 11.25 3.24316 11.25 6.09375C11.25 8.94434 8.94434 11.25 6.09375 11.25Z" fill="#828282"/>
</svg>
