<svg width="27" height="25" viewBox="0 0 27 25" fill="none" xmlns="http://www.w3.org/2000/svg"><path d="M24.9833 8.37361L17.8504 7.3337L14.6623 0.869652C14.0911 -0.282549 12.436 -0.297196 11.8599 0.869652L8.67183 7.3337L1.53892 8.37361C0.259782 8.55913 -0.25285 10.1361 0.674769 11.0393L5.83526 16.068L4.61471 23.1716C4.39501 24.4556 5.74738 25.4174 6.88006 24.8169L13.2611 21.4628L19.6422 24.8169C20.7748 25.4125 22.1272 24.4556 21.9075 23.1716L20.6869 16.068L25.8474 11.0393C26.7751 10.1361 26.2624 8.55913 24.9833 8.37361ZM19.0123 15.5212L20.3696 23.4303L13.2611 19.7003L6.15749 23.4352L7.51474 15.526L1.7635 9.91639L9.70686 8.76418L13.2611 1.56293L16.8154 8.76418L24.7587 9.91639L19.0123 15.5212Z" fill="#234D60"/></svg>