<svg width="10" height="15" viewBox="0 0 10 15" fill="none" xmlns="http://www.w3.org/2000/svg"><path d="M8.43766 8.4375H0.937655C0.105624 8.4375 -0.316251 9.44824 0.275546 10.0371L4.02555 13.7871C4.39176 14.1533 4.98648 14.1533 5.35269 13.7871L9.10269 10.0371C9.68863 9.44824 9.26969 8.4375 8.43766 8.4375ZM4.68766 13.125L0.937655 9.375H8.43766L4.68766 13.125ZM0.937655 6.5625H8.43766C9.26969 6.5625 9.69156 5.55176 9.09976 4.96289L5.34976 1.21289C4.98355 0.84668 4.38883 0.84668 4.02262 1.21289L0.272616 4.96289C-0.313321 5.55176 0.105624 6.5625 0.937655 6.5625ZM4.68766 1.875L8.43766 5.625H0.937655L4.68766 1.875Z" fill="#828282"/></svg>