<svg width="15" height="10" viewBox="0 0 15 10" fill="none" xmlns="http://www.w3.org/2000/svg">
<path d="M7.49999 5.81676C7.94201 5.81676 8.36594 5.64167 8.6785 5.32999C8.99106 5.01832 9.16665 4.5956 9.16665 4.15483C9.16665 3.71406 8.99106 3.29134 8.6785 2.97967C8.36594 2.66799 7.94201 2.4929 7.49999 2.4929C7.47394 2.4929 7.45103 2.49913 7.42577 2.50043C7.50608 2.72098 7.52164 2.95979 7.47063 3.18885C7.41961 3.41791 7.30413 3.6277 7.13774 3.79362C6.97136 3.95953 6.76096 4.07468 6.53125 4.12555C6.30154 4.17642 6.06205 4.16091 5.84087 4.08082C5.84087 4.10679 5.83332 4.12964 5.83332 4.15483C5.83332 4.37308 5.87643 4.58919 5.96019 4.79082C6.04394 4.99246 6.16671 5.17567 6.32147 5.32999C6.63403 5.64167 7.05796 5.81676 7.49999 5.81676ZM14.9094 4.60667C13.4971 1.85903 10.7013 0 7.49999 0C4.29868 0 1.50207 1.86033 0.0906108 4.60693C0.0310383 4.72443 0 4.85426 0 4.98593C0 5.11759 0.0310383 5.24742 0.0906108 5.36492C1.50285 8.11257 4.29868 9.97159 7.49999 9.97159C10.7013 9.97159 13.4979 8.11127 14.9094 5.36466C14.9689 5.24716 15 5.11733 15 4.98567C15 4.854 14.9689 4.72417 14.9094 4.60667ZM7.49999 0.830966C8.15926 0.830966 8.80372 1.02591 9.35189 1.39114C9.90005 1.75637 10.3273 2.27549 10.5796 2.88284C10.8319 3.4902 10.8979 4.15852 10.7693 4.80328C10.6407 5.44805 10.3232 6.04031 9.85701 6.50516C9.39083 6.97001 8.79689 7.28657 8.15029 7.41483C7.50368 7.54308 6.83346 7.47725 6.22437 7.22568C5.61529 6.9741 5.09469 6.54808 4.72842 6.00147C4.36215 5.45486 4.16665 4.81223 4.16665 4.15483C4.16762 3.27358 4.51912 2.4287 5.14403 1.80557C5.76894 1.18243 6.61623 0.831928 7.49999 0.830966ZM7.49999 9.14062C4.70415 9.14062 2.14946 7.54855 0.833319 4.9858C1.57354 3.53678 2.7573 2.36047 4.21301 1.62739C3.66952 2.32904 3.33332 3.19844 3.33332 4.15483C3.33332 5.25676 3.77231 6.31356 4.55371 7.09274C5.33511 7.87192 6.39492 8.30966 7.49999 8.30966C8.60505 8.30966 9.66486 7.87192 10.4463 7.09274C11.2277 6.31356 11.6667 5.25676 11.6667 4.15483C11.6667 3.19844 11.3305 2.32904 10.787 1.62739C12.2427 2.36047 13.4264 3.53678 14.1667 4.9858C12.8508 7.54855 10.2958 9.14062 7.49999 9.14062Z" fill="#828282"/>
</svg>
