<svg width="28" height="17" viewBox="0 0 28 17" fill="none" xmlns="http://www.w3.org/2000/svg">
<path d="M26.6112 1.74707C26.7919 1.13672 26.6112 0.6875 25.7421 0.6875H22.8661C22.1337 0.6875 21.7968 1.07324 21.6161 1.50293C21.6161 1.50293 20.1512 5.07227 18.0809 7.38672C17.412 8.05566 17.1044 8.27051 16.7382 8.27051C16.5575 8.27051 16.2792 8.05566 16.2792 7.44531V1.74707C16.2792 1.01465 16.0741 0.6875 15.4686 0.6875H10.9471C10.4882 0.6875 10.2147 1.0293 10.2147 1.34668C10.2147 2.04004 11.2499 2.20117 11.3573 4.1543V8.39258C11.3573 9.32031 11.1913 9.49121 10.8251 9.49121C9.84851 9.49121 7.47546 5.90723 6.06921 1.80566C5.78601 1.00977 5.50769 0.6875 4.77039 0.6875H1.89441C1.0741 0.6875 0.908081 1.07324 0.908081 1.50293C0.908081 2.26465 1.88464 6.04883 5.45398 11.0488C7.83191 14.4619 11.1815 16.3125 14.2284 16.3125C16.0594 16.3125 16.2841 15.9023 16.2841 15.1943C16.2841 11.9326 16.118 11.625 17.036 11.625C17.4608 11.625 18.1932 11.8398 19.9022 13.4854C21.8553 15.4385 22.1776 16.3125 23.2714 16.3125H26.1473C26.9677 16.3125 27.3827 15.9023 27.1434 15.0918C26.5966 13.3877 22.9003 9.88184 22.7343 9.64746C22.3095 9.10059 22.4315 8.85645 22.7343 8.36816C22.7391 8.36328 26.2499 3.42187 26.6112 1.74707Z" />
</svg>
